<svg version="1.1" viewBox="0.0 0.0 960.0 540.0" fill="none" stroke="none" stroke-linecap="square" stroke-miterlimit="10" xmlns:xlink="http://www.w3.org/1999/xlink" xmlns="http://www.w3.org/2000/svg"><clipPath id="p.0"><path d="m0 0l960.0 0l0 540.0l-960.0 0l0 -540.0z" clip-rule="nonzero"/></clipPath><g clip-path="url(#p.0)"><path fill="#000000" fill-opacity="0.0" d="m0 0l960.0 0l0 540.0l-960.0 0z" fill-rule="evenodd"/><path fill="#8e7cc3" d="m315.66006 304.05847l25.060333 0l0 72.05243l-25.060333 0z" fill-rule="evenodd"/><path fill="#71639b" d="m340.7204 304.05847l8.356995 -8.357025l0 72.05246l-8.356995 8.356995z" fill-rule="evenodd"/><path fill="#a496cf" d="m315.66006 304.05847l8.357025 -8.357025l25.060303 0l-8.356995 8.357025z" fill-rule="evenodd"/><path fill="#000000" fill-opacity="0.0" d="m315.66006 304.05847l8.357025 -8.357025l25.060303 0l0 72.05246l-8.356995 8.356995l-25.060333 0zm0 0l25.060333 0l8.356995 -8.357025m-8.356995 8.357025l0 72.05243" fill-rule="evenodd"/><path fill="#93c47d" d="m219.70433 302.58823l25.060318 0l0 72.05243l-25.060318 0z" fill-rule="evenodd"/><path fill="#759c63" d="m244.76465 302.58823l8.35701 -8.357025l0 72.05246l-8.35701 8.356995z" fill-rule="evenodd"/><path fill="#a8cf97" d="m219.70433 302.58823l8.35701 -8.357025l25.060318 0l-8.35701 8.357025z" fill-rule="evenodd"/><path fill="#000000" fill-opacity="0.0" d="m219.70433 302.58823l8.35701 -8.357025l25.060318 0l0 72.05246l-8.35701 8.356995l-25.060318 0zm0 0l25.060318 0l8.35701 -8.357025m-8.35701 8.357025l0 72.05243" fill-rule="evenodd"/><path fill="#e06666" d="m411.68982 302.90417l25.060333 0l0 72.05243l-25.060333 0z" fill-rule="evenodd"/><path fill="#b35151" d="m436.75015 302.90417l8.356995 -8.357025l0 72.05246l-8.356995 8.356995z" fill-rule="evenodd"/><path fill="#e68484" d="m411.68982 302.90417l8.356995 -8.357025l25.060333 0l-8.356995 8.357025z" fill-rule="evenodd"/><path fill="#000000" fill-opacity="0.0" d="m411.68982 302.90417l8.356995 -8.357025l25.060333 0l0 72.05246l-8.356995 8.356995l-25.060333 0zm0 0l25.060333 0l8.356995 -8.357025m-8.356995 8.357025l0 72.05243" fill-rule="evenodd"/><path fill="#93c47d" d="m507.80344 301.36758l25.060333 0l0 72.05243l-25.060333 0z" fill-rule="evenodd"/><path fill="#759c63" d="m532.8638 301.36758l8.356995 -8.356995l0 72.05243l-8.356995 8.356995z" fill-rule="evenodd"/><path fill="#a8cf97" d="m507.80344 301.36758l8.357025 -8.356995l25.060303 0l-8.356995 8.356995z" fill-rule="evenodd"/><path fill="#000000" fill-opacity="0.0" d="m507.80344 301.36758l8.357025 -8.356995l25.060303 0l0 72.05243l-8.356995 8.356995l-25.060333 0zm0 0l25.060333 0l8.356995 -8.356995m-8.356995 8.356995l0 72.05243" fill-rule="evenodd"/><path fill="#ffd966" d="m604.00073 303.12512l25.060364 0l0 72.05246l-25.060364 0z" fill-rule="evenodd"/><path fill="#cbad51" d="m629.0611 303.12512l8.356995 -8.356995l0 72.05243l-8.356995 8.357025z" fill-rule="evenodd"/><path fill="#ffe084" d="m604.00073 303.12512l8.356995 -8.356995l25.060364 0l-8.356995 8.356995z" fill-rule="evenodd"/><path fill="#000000" fill-opacity="0.0" d="m604.00073 303.12512l8.356995 -8.356995l25.060364 0l0 72.05243l-8.356995 8.357025l-25.060364 0zm0 0l25.060364 0l8.356995 -8.356995m-8.356995 8.356995l0 72.05246" fill-rule="evenodd"/><path fill="#8e7cc3" d="m703.40045 304.0484l25.060303 0l0 72.05243l-25.060303 0z" fill-rule="evenodd"/><path fill="#71639b" d="m728.46075 304.0484l8.356995 -8.356995l0 72.05243l-8.356995 8.356995z" fill-rule="evenodd"/><path fill="#a496cf" d="m703.40045 304.0484l8.356995 -8.356995l25.060303 0l-8.356995 8.356995z" fill-rule="evenodd"/><path fill="#000000" fill-opacity="0.0" d="m703.40045 304.0484l8.356995 -8.356995l25.060303 0l0 72.05243l-8.356995 8.356995l-25.060303 0zm0 0l25.060303 0l8.356995 -8.356995m-8.356995 8.356995l0 72.05243" fill-rule="evenodd"/><path fill="#8e7cc3" d="m802.8673 304.21594l25.060303 0l0 72.05246l-25.060303 0z" fill-rule="evenodd"/><path fill="#71639b" d="m827.9276 304.21594l8.356995 -8.356995l0 72.05243l-8.356995 8.357025z" fill-rule="evenodd"/><path fill="#a496cf" d="m802.8673 304.21594l8.356995 -8.356995l25.060303 0l-8.356995 8.356995z" fill-rule="evenodd"/><path fill="#000000" fill-opacity="0.0" d="m802.8673 304.21594l8.356995 -8.356995l25.060303 0l0 72.05243l-8.356995 8.357025l-25.060303 0zm0 0l25.060303 0l8.356995 -8.356995m-8.356995 8.356995l0 72.05246" fill-rule="evenodd"/><path fill="#8e7cc3" d="m507.74265 150.621l25.060333 0l0 72.052444l-25.060333 0z" fill-rule="evenodd"/><path fill="#71639b" d="m532.803 150.621l8.356995 -8.35701l0 72.052444l-8.356995 8.35701z" fill-rule="evenodd"/><path fill="#a496cf" d="m507.74265 150.621l8.356964 -8.35701l25.060364 0l-8.356995 8.35701z" fill-rule="evenodd"/><path fill="#000000" fill-opacity="0.0" d="m507.74265 150.621l8.356964 -8.35701l25.060364 0l0 72.052444l-8.356995 8.35701l-25.060333 0zm0 0l25.060333 0l8.356995 -8.35701m-8.356995 8.35701l0 72.052444" fill-rule="evenodd"/><path fill="#e06666" d="m603.9468 151.6403l25.060303 0l0 72.052444l-25.060303 0z" fill-rule="evenodd"/><path fill="#b35151" d="m629.0071 151.6403l8.356995 -8.356995l0 72.052444l-8.356995 8.356995z" fill-rule="evenodd"/><path fill="#e68484" d="m603.9468 151.6403l8.356995 -8.356995l25.060303 0l-8.356995 8.356995z" fill-rule="evenodd"/><path fill="#000000" fill-opacity="0.0" d="m603.9468 151.6403l8.356995 -8.356995l25.060303 0l0 72.052444l-8.356995 8.356995l-25.060303 0zm0 0l25.060303 0l8.356995 -8.356995m-8.356995 8.356995l0 72.052444" fill-rule="evenodd"/><path fill="#93c47d" d="m703.2662 151.85432l25.060303 0l0 72.052444l-25.060303 0z" fill-rule="evenodd"/><path fill="#759c63" d="m728.3265 151.85432l8.356995 -8.35701l0 72.052444l-8.356995 8.35701z" fill-rule="evenodd"/><path fill="#a8cf97" d="m703.2662 151.85432l8.356995 -8.35701l25.060303 0l-8.356995 8.35701z" fill-rule="evenodd"/><path fill="#000000" fill-opacity="0.0" d="m703.2662 151.85432l8.356995 -8.35701l25.060303 0l0 72.052444l-8.356995 8.35701l-25.060303 0zm0 0l25.060303 0l8.356995 -8.35701m-8.356995 8.35701l0 72.052444" fill-rule="evenodd"/><path fill="#93c47d" d="m802.82025 150.63368l25.060303 0l0 72.052444l-25.060303 0z" fill-rule="evenodd"/><path fill="#759c63" d="m827.88055 150.63368l8.356995 -8.35701l0 72.05246l-8.356995 8.356995z" fill-rule="evenodd"/><path fill="#a8cf97" d="m802.82025 150.63368l8.356995 -8.35701l25.060303 0l-8.356995 8.35701z" fill-rule="evenodd"/><path fill="#000000" fill-opacity="0.0" d="m802.82025 150.63368l8.356995 -8.35701l25.060303 0l0 72.05246l-8.356995 8.356995l-25.060303 0zm0 0l25.060303 0l8.356995 -8.35701m-8.356995 8.35701l0 72.052444" fill-rule="evenodd"/><path fill="#ffd966" d="m411.63593 151.52641l25.060333 0l0 72.052444l-25.060333 0z" fill-rule="evenodd"/><path fill="#cbad51" d="m436.69626 151.52641l8.356995 -8.356995l0 72.052444l-8.356995 8.356995z" fill-rule="evenodd"/><path fill="#ffe084" d="m411.63593 151.52641l8.356995 -8.356995l25.060333 0l-8.356995 8.356995z" fill-rule="evenodd"/><path fill="#000000" fill-opacity="0.0" d="m411.63593 151.52641l8.356995 -8.356995l25.060333 0l0 72.052444l-8.356995 8.356995l-25.060333 0zm0 0l25.060333 0l8.356995 -8.356995m-8.356995 8.356995l0 72.052444" fill-rule="evenodd"/><path fill="#93c47d" d="m315.52582 151.86438l25.060303 0l0 72.052444l-25.060303 0z" fill-rule="evenodd"/><path fill="#759c63" d="m340.58612 151.86438l8.357025 -8.35701l0 72.052444l-8.357025 8.35701z" fill-rule="evenodd"/><path fill="#a8cf97" d="m315.52582 151.86438l8.356995 -8.35701l25.060333 0l-8.357025 8.35701z" fill-rule="evenodd"/><path fill="#000000" fill-opacity="0.0" d="m315.52582 151.86438l8.356995 -8.35701l25.060333 0l0 72.052444l-8.357025 8.35701l-25.060303 0zm0 0l25.060303 0l8.357025 -8.35701m-8.357025 8.35701l0 72.052444" fill-rule="evenodd"/><path fill="#8e7cc3" d="m219.64351 151.84163l25.060318 0l0 72.052444l-25.060318 0z" fill-rule="evenodd"/><path fill="#71639b" d="m244.70383 151.84163l8.35701 -8.356995l0 72.052444l-8.35701 8.356995z" fill-rule="evenodd"/><path fill="#a496cf" d="m219.64351 151.84163l8.35701 -8.356995l25.060318 0l-8.35701 8.356995z" fill-rule="evenodd"/><path fill="#000000" fill-opacity="0.0" d="m219.64351 151.84163l8.35701 -8.356995l25.060318 0l0 72.052444l-8.35701 8.356995l-25.060318 0zm0 0l25.060318 0l8.35701 -8.356995m-8.35701 8.356995l0 72.052444" fill-rule="evenodd"/><path fill="#4a86e8" d="m768.63605 155.12122l0 0c2.0569458 0 3.7244263 -6.6699066 3.7244263 -14.897644c0 -8.227737 -1.6674805 -14.897636 -3.7244263 -14.897636l101.77954 0c2.0568848 0 3.7243652 6.669899 3.7243652 14.897636c0 8.227737 -1.6674805 14.897644 -3.7243652 14.897644z" fill-rule="evenodd"/><path fill="#92b6f1" d="m768.63605 155.12122l0 0c-2.0569458 0 -3.7244263 -6.6699066 -3.7244263 -14.897644c0 -8.227737 1.6674805 -14.897636 3.7244263 -14.897636l0 0c2.0569458 0 3.7244263 6.669899 3.7244263 14.897636c0 8.227737 -1.6674805 14.897644 -3.7244263 14.897644z" fill-rule="evenodd"/><path fill="#000000" fill-opacity="0.0" d="m768.63605 125.325935l0 0c2.0569458 0 3.7244263 6.669899 3.7244263 14.897636c0 8.227737 -1.6674805 14.897644 -3.7244263 14.897644l0 0c-2.0569458 0 -3.7244263 -6.6699066 -3.7244263 -14.897644c0 -8.227737 1.6674805 -14.897636 3.7244263 -14.897636l101.77954 0c2.0568848 0 3.7243652 6.669899 3.7243652 14.897636c0 8.227737 -1.6674805 14.897644 -3.7243652 14.897644l-101.77954 0" fill-rule="evenodd"/><path fill="#4a86e8" d="m669.082 155.33875l0 0c2.0569458 0 3.7244263 -6.6698914 3.7244263 -14.897629c0 -8.227737 -1.6674805 -14.897644 -3.7244263 -14.897644l101.77954 0c2.0569458 0 3.7244263 6.6699066 3.7244263 14.897644c0 8.227737 -1.6674805 14.897629 -3.7244263 14.897629z" fill-rule="evenodd"/><path fill="#92b6f1" d="m669.082 155.33875l0 0c-2.0569458 0 -3.7243652 -6.6698914 -3.7243652 -14.897629c0 -8.227737 1.6674194 -14.897644 3.7243652 -14.897644l0 0c2.0569458 0 3.7244263 6.6699066 3.7244263 14.897644c0 8.227737 -1.6674805 14.897629 -3.7244263 14.897629z" fill-rule="evenodd"/><path fill="#000000" fill-opacity="0.0" d="m669.082 125.54347l0 0c2.0569458 0 3.7244263 6.6699066 3.7244263 14.897644c0 8.227737 -1.6674805 14.897629 -3.7244263 14.897629l0 0c-2.0569458 0 -3.7243652 -6.6698914 -3.7243652 -14.897629c0 -8.227737 1.6674194 -14.897644 3.7243652 -14.897644l101.77954 0c2.0569458 0 3.7244263 6.6699066 3.7244263 14.897644c0 8.227737 -1.6674805 14.897629 -3.7244263 14.897629l-101.77954 0" fill-rule="evenodd"/><path fill="#4a86e8" d="m569.7626 155.12474l0 0c2.0569458 0 3.7243652 -6.6699066 3.7243652 -14.897644c0 -8.227737 -1.6674194 -14.897629 -3.7243652 -14.897629l101.77954 0c2.0568848 0 3.7243652 6.6698914 3.7243652 14.897629c0 8.227737 -1.6674805 14.897644 -3.7243652 14.897644z" fill-rule="evenodd"/><path fill="#92b6f1" d="m569.7626 155.12474l0 0c-2.0569458 0 -3.7244263 -6.6699066 -3.7244263 -14.897644c0 -8.227737 1.6674805 -14.897629 3.7244263 -14.897629l0 0c2.0569458 0 3.7243652 6.6698914 3.7243652 14.897629c0 8.227737 -1.6674194 14.897644 -3.7243652 14.897644z" fill-rule="evenodd"/><path fill="#000000" fill-opacity="0.0" d="m569.7626 125.32947l0 0c2.0569458 0 3.7243652 6.6698914 3.7243652 14.897629c0 8.227737 -1.6674194 14.897644 -3.7243652 14.897644l0 0c-2.0569458 0 -3.7244263 -6.6699066 -3.7244263 -14.897644c0 -8.227737 1.6674805 -14.897629 3.7244263 -14.897629l101.77954 0c2.0568848 0 3.7243652 6.6698914 3.7243652 14.897629c0 8.227737 -1.6674805 14.897644 -3.7243652 14.897644l-101.77954 0" fill-rule="evenodd"/><path fill="#4a86e8" d="m473.62036 154.9171l0 0c2.0569458 0 3.7244263 -6.6698914 3.7244263 -14.897629c0 -8.227737 -1.6674805 -14.897644 -3.7244263 -14.897644l101.77954 0c2.0569458 0 3.7244263 6.6699066 3.7244263 14.897644c0 8.227737 -1.6674805 14.897629 -3.7244263 14.897629z" fill-rule="evenodd"/><path fill="#92b6f1" d="m473.62036 154.9171l0 0c-2.0569458 0 -3.7243958 -6.6698914 -3.7243958 -14.897629c0 -8.227737 1.66745 -14.897644 3.7243958 -14.897644l0 0c2.0569458 0 3.7244263 6.6699066 3.7244263 14.897644c0 8.227737 -1.6674805 14.897629 -3.7244263 14.897629z" fill-rule="evenodd"/><path fill="#000000" fill-opacity="0.0" d="m473.62036 125.121826l0 0c2.0569458 0 3.7244263 6.6699066 3.7244263 14.897644c0 8.227737 -1.6674805 14.897629 -3.7244263 14.897629l0 0c-2.0569458 0 -3.7243958 -6.6698914 -3.7243958 -14.897629c0 -8.227737 1.66745 -14.897644 3.7243958 -14.897644l101.77954 0c2.0569458 0 3.7244263 6.6699066 3.7244263 14.897644c0 8.227737 -1.6674805 14.897629 -3.7244263 14.897629l-101.77954 0" fill-rule="evenodd"/><path fill="#4a86e8" d="m377.45175 155.01085l0 0c2.0569153 0 3.7243958 -6.6699066 3.7243958 -14.897644c0 -8.227737 -1.6674805 -14.897636 -3.7243958 -14.897636l101.77951 0c2.0569458 0 3.7244263 6.669899 3.7244263 14.897636c0 8.227737 -1.6674805 14.897644 -3.7244263 14.897644z" fill-rule="evenodd"/><path fill="#92b6f1" d="m377.45175 155.01085l0 0c-2.0569458 0 -3.7244263 -6.6699066 -3.7244263 -14.897644c0 -8.227737 1.6674805 -14.897636 3.7244263 -14.897636l0 0c2.0569153 0 3.7243958 6.669899 3.7243958 14.897636c0 8.227737 -1.6674805 14.897644 -3.7243958 14.897644z" fill-rule="evenodd"/><path fill="#000000" fill-opacity="0.0" d="m377.45175 125.21557l0 0c2.0569153 0 3.7243958 6.669899 3.7243958 14.897636c0 8.227737 -1.6674805 14.897644 -3.7243958 14.897644l0 0c-2.0569458 0 -3.7244263 -6.6699066 -3.7244263 -14.897644c0 -8.227737 1.6674805 -14.897636 3.7244263 -14.897636l101.77951 0c2.0569458 0 3.7244263 6.669899 3.7244263 14.897636c0 8.227737 -1.6674805 14.897644 -3.7244263 14.897644l-101.77951 0" fill-rule="evenodd"/><path fill="#4a86e8" d="m281.3416 155.34882l0 0c2.0569458 0 3.7244263 -6.6699066 3.7244263 -14.897644c0 -8.227737 -1.6674805 -14.897636 -3.7244263 -14.897636l101.77954 0c2.0569458 0 3.7243958 6.669899 3.7243958 14.897636c0 8.227737 -1.66745 14.897644 -3.7243958 14.897644z" fill-rule="evenodd"/><path fill="#92b6f1" d="m281.3416 155.34882l0 0c-2.0569153 0 -3.7243958 -6.6699066 -3.7243958 -14.897644c0 -8.227737 1.6674805 -14.897636 3.7243958 -14.897636l0 0c2.0569458 0 3.7244263 6.669899 3.7244263 14.897636c0 8.227737 -1.6674805 14.897644 -3.7244263 14.897644z" fill-rule="evenodd"/><path fill="#000000" fill-opacity="0.0" d="m281.3416 125.553535l0 0c2.0569458 0 3.7244263 6.669899 3.7244263 14.897636c0 8.227737 -1.6674805 14.897644 -3.7244263 14.897644l0 0c-2.0569153 0 -3.7243958 -6.6699066 -3.7243958 -14.897644c0 -8.227737 1.6674805 -14.897636 3.7243958 -14.897636l101.77954 0c2.0569458 0 3.7243958 6.669899 3.7243958 14.897636c0 8.227737 -1.66745 14.897644 -3.7243958 14.897644l-101.77954 0" fill-rule="evenodd"/><path fill="#4a86e8" d="m185.45932 155.32607l0 0c2.0569305 0 3.724411 -6.6698914 3.724411 -14.897644c0 -8.227737 -1.6674805 -14.897629 -3.724411 -14.897629l101.77954 0c2.0569153 0 3.7243958 6.6698914 3.7243958 14.897629c0 8.227753 -1.6674805 14.897644 -3.7243958 14.897644z" fill-rule="evenodd"/><path fill="#92b6f1" d="m185.45932 155.32607l0 0c-2.0569305 0 -3.724411 -6.6698914 -3.724411 -14.897644c0 -8.227737 1.6674805 -14.897629 3.724411 -14.897629l0 0c2.0569305 0 3.724411 6.6698914 3.724411 14.897629c0 8.227753 -1.6674805 14.897644 -3.724411 14.897644z" fill-rule="evenodd"/><path fill="#000000" fill-opacity="0.0" d="m185.45932 125.53079l0 0c2.0569305 0 3.724411 6.6698914 3.724411 14.897629c0 8.227753 -1.6674805 14.897644 -3.724411 14.897644l0 0c-2.0569305 0 -3.724411 -6.6698914 -3.724411 -14.897644c0 -8.227737 1.6674805 -14.897629 3.724411 -14.897629l101.77954 0c2.0569153 0 3.7243958 6.6698914 3.7243958 14.897629c0 8.227753 -1.6674805 14.897644 -3.7243958 14.897644l-101.77954 0" fill-rule="evenodd"/><path fill="#ffd966" d="m123.822136 302.95758l25.06031 0l0 72.05243l-25.06031 0z" fill-rule="evenodd"/><path fill="#cbad51" d="m148.88245 302.95758l8.35701 -8.356995l0 72.05243l-8.35701 8.356995z" fill-rule="evenodd"/><path fill="#ffe084" d="m123.822136 302.95758l8.357002 -8.356995l25.060318 0l-8.35701 8.356995z" fill-rule="evenodd"/><path fill="#000000" fill-opacity="0.0" d="m123.822136 302.95758l8.357002 -8.356995l25.060318 0l0 72.05243l-8.35701 8.356995l-25.06031 0zm0 0l25.06031 0l8.35701 -8.356995m-8.35701 8.356995l0 72.05243" fill-rule="evenodd"/><path fill="#4a86e8" d="m191.36688 363.13962l0 0c-2.0569305 0 -3.724411 6.6698914 -3.724411 14.897644c0 8.227722 1.6674805 14.897644 3.724411 14.897644l-101.779526 0c-2.0569382 0 -3.724411 -6.669922 -3.724411 -14.897644c0 -8.227753 1.6674728 -14.897644 3.724411 -14.897644z" fill-rule="evenodd"/><path fill="#92b6f1" d="m191.36688 363.13962l0 0c2.0569305 0 3.724411 6.6698914 3.724411 14.897644c0 8.227722 -1.6674805 14.897644 -3.724411 14.897644l0 0c-2.0569305 0 -3.724411 -6.669922 -3.724411 -14.897644c0 -8.227753 1.6674805 -14.897644 3.724411 -14.897644z" fill-rule="evenodd"/><path fill="#000000" fill-opacity="0.0" d="m191.36688 392.9349l0 0c-2.0569305 0 -3.724411 -6.669922 -3.724411 -14.897644c0 -8.227753 1.6674805 -14.897644 3.724411 -14.897644l0 0c2.0569305 0 3.724411 6.6698914 3.724411 14.897644c0 8.227722 -1.6674805 14.897644 -3.724411 14.897644l-101.779526 0c-2.0569382 0 -3.724411 -6.669922 -3.724411 -14.897644c0 -8.227753 1.6674728 -14.897644 3.724411 -14.897644l101.779526 0" fill-rule="evenodd"/><path fill="#ffffff" d="m140.72087 367.88632c-1.5624237 0 -3.0129852 0.40316772 -4.3516693 1.2094727c-1.3348236 0.8024292 -2.3880157 1.95401 -3.1595917 3.4547424c-0.76771545 1.4968567 -1.1515656 2.96286 -1.1515656 4.3979797l0 2.9686584c0 1.006897 0.14466858 1.9308777 0.43400574 2.771881c0.28933716 0.8371582 0.82943726 1.7514954 1.6203003 2.742981c0.7947235 0.98760986 1.4640656 1.6897583 2.0080261 2.1063843c0.5439606 0.4166565 1.2325897 0.7812195 2.0658875 1.0937195c1.0879059 0.40509033 2.1584625 0.6076355 3.21167 0.6076355c1.2152252 0 2.4150238 -0.26812744 3.5993805 -0.8043823c1.1882172 -0.5401001 2.2568512 -1.3425598 3.2058868 -2.407318c0.4976654 -0.54397583 0.7464905 -0.94903564 0.7464905 -1.2152405c0 -0.19674683 -0.06364441 -0.35879517 -0.19096375 -0.48608398c-0.12730408 -0.12731934 -0.29512024 -0.190979 -0.5034485 -0.190979c-0.24304199 0 -0.4629364 0.121520996 -0.6596985 0.364563c-0.92588806 1.0995178 -1.8845673 1.9212341 -2.8760376 2.46521c-0.98760986 0.5439453 -2.1063843 0.8159485 -3.3563385 0.8159485c-2.0832367 0 -3.9118652 -0.8005371 -5.4858704 -2.4015503c-1.5740204 -1.6048889 -2.361023 -3.4952393 -2.361023 -5.671112l0 -2.5519714c0 -1.0184937 0.16203308 -1.9328308 0.48609924 -2.742981c0.45137024 -1.0994873 1.0589752 -2.1006165 1.8228302 -3.003357c0.43980408 -0.520813 1.0300598 -0.9606323 1.7707672 -1.319397c0.9953308 -0.49768066 2.054306 -0.746521 3.176941 -0.746521c1.7128906 0 3.2406158 0.51504517 4.583145 1.545105c0.9953308 0.7522888 1.5219269 1.6145325 1.5798035 2.5867004c0.023147583 0.3125 0.10029602 0.5381775 0.23146057 0.677063c0.13502502 0.1388855 0.30091858 0.2083435 0.4976654 0.2083435c0.21990967 0 0.39543152 -0.07525635 0.52659607 -0.22570801c0.13504028 -0.15045166 0.20254517 -0.4050598 0.20254517 -0.763855l0 -4.0450134c0 -0.3471985 -0.06750488 -0.5960388 -0.20254517 -0.7464905c-0.13116455 -0.15045166 -0.3066864 -0.22567749 -0.52659607 -0.22567749c-0.21989441 0 -0.39735413 0.07522583 -0.53237915 0.22567749c-0.13116455 0.15045166 -0.19674683 0.399292 -0.19674683 0.7464905l0 1.024292c-1.7360382 -1.6434631 -3.8077087 -2.46521 -6.215027 -2.46521z" fill-rule="evenodd"/><path fill="#e06666" d="m123.768135 151.47276l25.06031 0l0 72.052444l-25.06031 0z" fill-rule="evenodd"/><path fill="#b35151" d="m148.82845 151.47276l8.35701 -8.35701l0 72.052444l-8.35701 8.35701z" fill-rule="evenodd"/><path fill="#e68484" d="m123.768135 151.47276l8.357002 -8.35701l25.060318 0l-8.35701 8.35701z" fill-rule="evenodd"/><path fill="#000000" fill-opacity="0.0" d="m123.768135 151.47276l8.357002 -8.35701l25.060318 0l0 72.052444l-8.35701 8.35701l-25.06031 0zm0 0l25.06031 0l8.35701 -8.35701m-8.35701 8.35701l0 72.052444" fill-rule="evenodd"/><path fill="#4a86e8" d="m89.58395 155.52682l0 0c2.0569305 0 3.7244034 -6.6699066 3.7244034 -14.897644c0 -8.227737 -1.6674728 -14.897636 -3.7244034 -14.897636l101.77952 0c2.0569458 0 3.724411 6.669899 3.724411 14.897636c0 8.227737 -1.6674652 14.897644 -3.724411 14.897644z" fill-rule="evenodd"/><path fill="#92b6f1" d="m89.58395 155.52682l0 0c-2.0569382 0 -3.724411 -6.6699066 -3.724411 -14.897644c0 -8.227737 1.6674728 -14.897636 3.724411 -14.897636l0 0c2.0569305 0 3.7244034 6.669899 3.7244034 14.897636c0 8.227737 -1.6674728 14.897644 -3.7244034 14.897644z" fill-rule="evenodd"/><path fill="#000000" fill-opacity="0.0" d="m89.58395 125.731544l0 0c2.0569305 0 3.7244034 6.669899 3.7244034 14.897636c0 8.227737 -1.6674728 14.897644 -3.7244034 14.897644l0 0c-2.0569382 0 -3.724411 -6.6699066 -3.724411 -14.897644c0 -8.227737 1.6674728 -14.897636 3.724411 -14.897636l101.77952 0c2.0569458 0 3.724411 6.669899 3.724411 14.897636c0 8.227737 -1.6674652 14.897644 -3.724411 14.897644l-101.77952 0" fill-rule="evenodd"/><path fill="#ffffff" d="m140.94464 129.90926c-1.6203003 0 -3.1190796 0.399292 -4.496338 1.197876c-1.3772583 0.798584 -2.4632416 1.9540253 -3.257965 3.4663086c-0.79086304 1.5084381 -1.1862946 3.0612488 -1.1862946 4.6584167l0 2.6735077c0 1.5856018 0.22761536 2.8934174 0.68284607 3.9234772c0.45907593 1.0300598 1.0994873 1.9617462 1.9212036 2.795044c0.82173157 0.833313 1.8247681 1.48143 3.00914 1.9443817c1.1882172 0.46295166 2.5635529 0.69441223 4.1259766 0.69441223c1.0995026 0 2.2009125 -0.15623474 3.3042603 -0.46871948c1.1072083 -0.3125 2.2163544 -0.7754364 3.3274078 -1.388855l0 -6.249771c0.5786896 0 0.92588806 -0.019302368 1.041626 -0.057876587c0.115737915 -0.042434692 0.21989441 -0.12730408 0.31248474 -0.2546234c0.09259033 -0.12730408 0.1388855 -0.26618958 0.1388855 -0.41664124c0 -0.21990967 -0.07522583 -0.39544678 -0.22567749 -0.5266113c-0.15046692 -0.13502502 -0.399292 -0.2025299 -0.74650574 -0.2025299l-7.0135956 -0.017364502c-0.3471985 0 -0.5960388 0.06944275 -0.7464905 0.20832825c-0.15045166 0.1388855 -0.22569275 0.31826782 -0.22569275 0.5381775c0 0.21989441 0.07524109 0.39735413 0.22569275 0.53237915c0.15045166 0.13116455 0.399292 0.19676208 0.7464905 0.19676208l5.017151 0l0 5.399109c-1.006897 0.46295166 -1.8864899 0.7870178 -2.6387787 0.9721985c-0.75227356 0.1851654 -1.568222 0.27775574 -2.447815 0.27775574c-2.6040497 0 -4.6467896 -0.71177673 -6.1282043 -2.1353302c-1.48143 -1.4235687 -2.2221375 -3.3448029 -2.2221375 -5.7637024l0 -2.6561584c0 -1.3656921 0.31248474 -2.5867157 0.9374695 -3.6630554c0.9374542 -1.6434631 1.9462891 -2.7564697 3.0264893 -3.3390198c1.0840607 -0.58639526 2.2973633 -0.8795929 3.6398926 -0.8795929c1.4235535 0 2.73909 0.31248474 3.9465942 0.9374695c1.2113647 0.6249695 1.8517761 1.4293518 1.9212189 2.4131165c0.011566162 0.33563232 0.08294678 0.5709686 0.21411133 0.70599365c0.13502502 0.13116455 0.30090332 0.19674683 0.4976654 0.19674683c0.20832825 0 0.3819275 -0.07136536 0.520813 -0.21411133c0.1388855 -0.14660645 0.20831299 -0.399292 0.20831299 -0.7580719l0 -3.2985077c0 -0.3471985 -0.06942749 -0.5960388 -0.20831299 -0.7464905c-0.1388855 -0.15046692 -0.31248474 -0.22569275 -0.520813 -0.22569275c-0.16203308 0 -0.30670166 0.04437256 -0.434021 0.13310242c-0.12730408 0.084869385 -0.21217346 0.1851654 -0.25460815 0.30090332c-0.03857422 0.115737915 -0.057876587 0.45716858 -0.057876587 1.0242767c-1.6203003 -1.2846832 -3.6051636 -1.9270172 -5.954605 -1.9270172z" fill-rule="evenodd"/><path fill="#4a86e8" d="m287.24908 362.77026l0 0c-2.0569458 0 -3.7244263 6.6698914 -3.7244263 14.897644c0 8.227722 1.6674805 14.897644 3.7244263 14.897644l-101.779526 0c-2.0569458 0 -3.724411 -6.669922 -3.724411 -14.897644c0 -8.227753 1.6674652 -14.897644 3.724411 -14.897644z" fill-rule="evenodd"/><path fill="#92b6f1" d="m287.24908 362.77026l0 0c2.0569153 0 3.7243958 6.6698914 3.7243958 14.897644c0 8.227722 -1.6674805 14.897644 -3.7243958 14.897644l0 0c-2.0569458 0 -3.7244263 -6.669922 -3.7244263 -14.897644c0 -8.227753 1.6674805 -14.897644 3.7244263 -14.897644z" fill-rule="evenodd"/><path fill="#000000" fill-opacity="0.0" d="m287.24908 392.56555l0 0c-2.0569458 0 -3.7244263 -6.669922 -3.7244263 -14.897644c0 -8.227753 1.6674805 -14.897644 3.7244263 -14.897644l0 0c2.0569153 0 3.7243958 6.6698914 3.7243958 14.897644c0 8.227722 -1.6674805 14.897644 -3.7243958 14.897644l-101.779526 0c-2.0569458 0 -3.724411 -6.669922 -3.724411 -14.897644c0 -8.227753 1.6674652 -14.897644 3.724411 -14.897644l101.779526 0" fill-rule="evenodd"/><path fill="#ffffff" d="m236.57516 368.9742l4.027603 10.6073l-8.471863 0l3.9060822 -10.6073zm-6.3539124 -1.4582825c-0.3471985 0 -0.5960388 0.0675354 -0.7464905 0.20254517c-0.15045166 0.13116455 -0.22569275 0.30670166 -0.22569275 0.5266113c0 0.21990967 0.07524109 0.39736938 0.22569275 0.53237915c0.15045166 0.13116455 0.399292 0.19674683 0.7464905 0.19674683l4.305374 0l-6.4407043 17.395233l-1.128418 0c-0.34721375 0 -0.5960388 0.0675354 -0.7464905 0.20254517c-0.15046692 0.13116455 -0.22569275 0.30670166 -0.22569275 0.5266113c0 0.20831299 0.07522583 0.3819275 0.22569275 0.520813c0.15045166 0.1388855 0.39927673 0.20831299 0.7464905 0.20831299l5.4511566 0c0.34721375 0 0.5960388 -0.06942749 0.74650574 -0.20831299c0.15045166 -0.1388855 0.22567749 -0.3125 0.22567749 -0.520813c0 -0.21990967 -0.07522583 -0.39544678 -0.22567749 -0.5266113c-0.15046692 -0.13500977 -0.399292 -0.20254517 -0.74650574 -0.20254517l-2.7950134 0l1.9617157 -5.329651l9.5829315 0l1.9964447 5.329651l-2.7776642 0c-0.3587799 0 -0.61338806 0.0675354 -0.763855 0.20254517c-0.15045166 0.13116455 -0.22567749 0.30670166 -0.22567749 0.5266113c0 0.20831299 0.07522583 0.3819275 0.22567749 0.520813c0.15046692 0.1388855 0.40507507 0.20831299 0.763855 0.20831299l5.4338074 0c0.34721375 0 0.5960388 -0.06942749 0.7464905 -0.20831299c0.15046692 -0.1388855 0.22569275 -0.3125 0.22569275 -0.520813c0 -0.21990967 -0.07522583 -0.39544678 -0.22569275 -0.5266113c-0.15045166 -0.13500977 -0.39927673 -0.20254517 -0.7464905 -0.20254517l-1.128418 0l-7.1177673 -18.853516z" fill-rule="evenodd"/><path fill="#ffffff" d="m229.8333 130.27812l0 6.510193c0 0.35879517 0.06944275 0.6134186 0.20832825 0.76387024c0.1388855 0.15045166 0.31248474 0.22569275 0.520813 0.22569275c0.21989441 0 0.39543152 -0.07524109 0.52659607 -0.22569275c0.13502502 -0.15045166 0.20254517 -0.40507507 0.20254517 -0.76387024l0 -5.051895l5.9719696 0l0 17.395233l-3.7845612 0c-0.34721375 0 -0.5960541 0.06750488 -0.74650574 0.2025299c-0.15045166 0.13116455 -0.22567749 0.30670166 -0.22567749 0.5266113c0 0.20832825 0.07522583 0.3819275 0.22567749 0.520813c0.15045166 0.1388855 0.399292 0.20832825 0.74650574 0.20832825l9.044754 0c0.34721375 0 0.5960388 -0.06944275 0.7464905 -0.20832825c0.15046692 -0.1388855 0.22569275 -0.31248474 0.22569275 -0.520813c0 -0.21990967 -0.07522583 -0.39544678 -0.22569275 -0.5266113c-0.15045166 -0.13502502 -0.39927673 -0.2025299 -0.7464905 -0.2025299l-3.7845612 0l0 -17.395233l5.9719696 0l0 5.051895c0 0.35879517 0.065582275 0.6134186 0.19674683 0.76387024c0.13502502 0.15045166 0.31248474 0.22569275 0.5323944 0.22569275c0.21989441 0 0.39543152 -0.07524109 0.52659607 -0.22569275c0.13502502 -0.15045166 0.2025299 -0.40507507 0.2025299 -0.76387024l0 -6.510193z" fill-rule="evenodd"/><path fill="#ffffff" d="m330.9777 131.75916l4.0276184 10.607269l-8.471863 0l3.9060974 -10.607269zm-6.353882 -1.4582825c-0.3471985 0 -0.5960388 0.06752014 -0.7464905 0.20254517c-0.15048218 0.13116455 -0.22570801 0.30670166 -0.22570801 0.52659607c0 0.21989441 0.07522583 0.39736938 0.22570801 0.5323944c0.15045166 0.13116455 0.399292 0.19674683 0.7464905 0.19674683l4.305359 0l-6.4407043 17.395233l-1.128418 0c-0.3471985 0 -0.5960388 0.06752014 -0.7464905 0.20254517c-0.15045166 0.13116455 -0.22567749 0.30670166 -0.22567749 0.52659607c0 0.20832825 0.07522583 0.38194275 0.22567749 0.520813c0.15045166 0.1388855 0.399292 0.20832825 0.7464905 0.20832825l5.451172 0c0.3471985 0 0.5960388 -0.06944275 0.7464905 -0.20832825c0.15045166 -0.13887024 0.22567749 -0.31248474 0.22567749 -0.520813c0 -0.21989441 -0.07522583 -0.39543152 -0.22567749 -0.52659607c-0.15045166 -0.13502502 -0.399292 -0.20254517 -0.7464905 -0.20254517l-2.7950134 0l1.9617004 -5.3296814l9.582947 0l1.9964294 5.3296814l-2.777649 0c-0.35879517 0 -0.6134033 0.06752014 -0.763855 0.20254517c-0.15045166 0.13116455 -0.22567749 0.30670166 -0.22567749 0.52659607c0 0.20832825 0.07522583 0.38194275 0.22567749 0.520813c0.15045166 0.1388855 0.4050598 0.20832825 0.763855 0.20832825l5.4338074 0c0.3471985 0 0.5960388 -0.06944275 0.7464905 -0.20832825c0.15045166 -0.13887024 0.22567749 -0.31248474 0.22567749 -0.520813c0 -0.21989441 -0.07522583 -0.39543152 -0.22567749 -0.52659607c-0.15045166 -0.13502502 -0.399292 -0.20254517 -0.7464905 -0.20254517l-1.1284485 0l-7.117737 -18.853516z" fill-rule="evenodd"/><path fill="#4a86e8" d="m383.20483 362.76526l0 0c-2.0569458 0 -3.7244263 6.6698914 -3.7244263 14.897644c0 8.227722 1.6674805 14.897614 3.7244263 14.897614l-101.77954 0c-2.0569153 0 -3.7243958 -6.6698914 -3.7243958 -14.897614c0 -8.227753 1.6674805 -14.897644 3.7243958 -14.897644z" fill-rule="evenodd"/><path fill="#92b6f1" d="m383.20483 362.76526l0 0c2.0569153 0 3.7243958 6.6698914 3.7243958 14.897644c0 8.227722 -1.6674805 14.897614 -3.7243958 14.897614l0 0c-2.0569458 0 -3.7244263 -6.6698914 -3.7244263 -14.897614c0 -8.227753 1.6674805 -14.897644 3.7244263 -14.897644z" fill-rule="evenodd"/><path fill="#000000" fill-opacity="0.0" d="m383.20483 392.56052l0 0c-2.0569458 0 -3.7244263 -6.6698914 -3.7244263 -14.897614c0 -8.227753 1.6674805 -14.897644 3.7244263 -14.897644l0 0c2.0569153 0 3.7243958 6.6698914 3.7243958 14.897644c0 8.227722 -1.6674805 14.897614 -3.7243958 14.897614l-101.77954 0c-2.0569153 0 -3.7243958 -6.6698914 -3.7243958 -14.897614c0 -8.227753 1.6674805 -14.897644 3.7243958 -14.897644l101.77954 0" fill-rule="evenodd"/><path fill="#ffffff" d="m325.84985 368.98618l0 6.510193c0 0.35879517 0.06945801 0.6134033 0.2083435 0.7638855c0.1388855 0.15045166 0.31246948 0.22567749 0.520813 0.22567749c0.21987915 0 0.39541626 -0.07522583 0.5265808 -0.22567749c0.13504028 -0.15048218 0.20254517 -0.40509033 0.20254517 -0.7638855l0 -5.0519104l5.971985 0l0 17.395233l-3.7845764 0c-0.3471985 0 -0.5960388 0.0675354 -0.7464905 0.20254517c-0.15045166 0.13116455 -0.22567749 0.30670166 -0.22567749 0.5266113c0 0.20831299 0.07522583 0.3819275 0.22567749 0.520813c0.15045166 0.1388855 0.399292 0.20831299 0.7464905 0.20831299l9.044769 0c0.3471985 0 0.5960388 -0.06942749 0.7464905 -0.20831299c0.15045166 -0.1388855 0.22567749 -0.3125 0.22567749 -0.520813c0 -0.21990967 -0.07522583 -0.39544678 -0.22567749 -0.5266113c-0.15045166 -0.13500977 -0.399292 -0.20254517 -0.7464905 -0.20254517l-3.7845764 0l0 -17.395233l5.971985 0l0 5.0519104c0 0.35879517 0.065582275 0.6134033 0.19674683 0.7638855c0.13500977 0.15045166 0.3125 0.22567749 0.53237915 0.22567749c0.21990967 0 0.39544678 -0.07522583 0.5266113 -0.22567749c0.13500977 -0.15048218 0.20254517 -0.40509033 0.20254517 -0.7638855l0 -6.510193z" fill-rule="evenodd"/><path fill="#4a86e8" d="m479.23456 363.0862l0 0c-2.0569153 0 -3.7243958 6.6698914 -3.7243958 14.897644c0 8.227722 1.6674805 14.897644 3.7243958 14.897644l-101.77951 0c-2.0569458 0 -3.7244263 -6.669922 -3.7244263 -14.897644c0 -8.227753 1.6674805 -14.897644 3.7244263 -14.897644z" fill-rule="evenodd"/><path fill="#92b6f1" d="m479.23456 363.0862l0 0c2.0569458 0 3.7244263 6.6698914 3.7244263 14.897644c0 8.227722 -1.6674805 14.897644 -3.7244263 14.897644l0 0c-2.0569153 0 -3.7243958 -6.669922 -3.7243958 -14.897644c0 -8.227753 1.6674805 -14.897644 3.7243958 -14.897644z" fill-rule="evenodd"/><path fill="#000000" fill-opacity="0.0" d="m479.23456 392.8815l0 0c-2.0569153 0 -3.7243958 -6.669922 -3.7243958 -14.897644c0 -8.227753 1.6674805 -14.897644 3.7243958 -14.897644l0 0c2.0569458 0 3.7244263 6.6698914 3.7244263 14.897644c0 8.227722 -1.6674805 14.897644 -3.7244263 14.897644l-101.77951 0c-2.0569458 0 -3.7244263 -6.669922 -3.7244263 -14.897644c0 -8.227753 1.6674805 -14.897644 3.7244263 -14.897644l101.77951 0" fill-rule="evenodd"/><path fill="#ffffff" d="m428.3861 367.83292c-1.6203003 0 -3.1190796 0.399292 -4.496338 1.197876c-1.3772583 0.798584 -2.4632263 1.9540405 -3.257965 3.4663086c-0.79086304 1.5084534 -1.1862793 3.0612488 -1.1862793 4.6584167l0 2.673523c0 1.5856018 0.2276001 2.893402 0.6828308 3.923462c0.45907593 1.0300598 1.0994873 1.9617615 1.9212341 2.795044c0.8217163 0.833313 1.8247681 1.4814453 3.0091248 1.944397c1.1882019 0.46292114 2.5635376 0.694397 4.1259766 0.694397c1.0994873 0 2.2009277 -0.15621948 3.3042603 -0.46871948c1.1072083 -0.3125 2.216339 -0.77545166 3.327423 -1.388855l0 -6.2497864c0.5786743 0 0.9258728 -0.01928711 1.0415955 -0.057861328c0.115753174 -0.042419434 0.21990967 -0.12731934 0.3125 -0.25460815c0.09259033 -0.12731934 0.1388855 -0.26620483 0.1388855 -0.4166565c0 -0.21990967 -0.07522583 -0.39544678 -0.22567749 -0.5266113c-0.15045166 -0.13500977 -0.399292 -0.20254517 -0.7464905 -0.20254517l-7.013611 -0.017333984c-0.3471985 0 -0.5960388 0.06942749 -0.7464905 0.20831299c-0.15045166 0.1388855 -0.22567749 0.31826782 -0.22567749 0.5381775c0 0.21990967 0.07522583 0.39736938 0.22567749 0.53237915c0.15045166 0.13116455 0.399292 0.19674683 0.7464905 0.19674683l5.017151 0l0 5.3991394c-1.006897 0.46295166 -1.8865051 0.7870178 -2.6387634 0.97216797c-0.7522888 0.18518066 -1.5682373 0.277771 -2.447815 0.277771c-2.604065 0 -4.64682 -0.7117615 -6.128235 -2.1353455c-1.4814148 -1.4235535 -2.2221375 -3.3447876 -2.2221375 -5.763672l0 -2.6561584c0 -1.3656921 0.3125 -2.586731 0.9374695 -3.663086c0.9374695 -1.6434631 1.9462891 -2.7564392 3.0264893 -3.3389893c1.0840759 -0.58639526 2.2973633 -0.87960815 3.6398926 -0.87960815c1.4235535 0 2.7391052 0.3125 3.9465942 0.9374695c1.2113953 0.6249695 1.8517761 1.4293518 1.9212341 2.4131165c0.011566162 0.33563232 0.08294678 0.57095337 0.21411133 0.70599365c0.13500977 0.13116455 0.30090332 0.19674683 0.49765015 0.19674683c0.2083435 0 0.3819275 -0.071380615 0.520813 -0.21411133c0.1388855 -0.14660645 0.2083435 -0.399292 0.2083435 -0.75808716l0 -3.2984924c0 -0.3471985 -0.06945801 -0.5960388 -0.2083435 -0.7464905c-0.1388855 -0.15045166 -0.31246948 -0.22567749 -0.520813 -0.22567749c-0.16201782 0 -0.30670166 0.04434204 -0.43399048 0.13308716c-0.12731934 0.084869385 -0.21218872 0.18518066 -0.25463867 0.30090332c-0.03857422 0.115753174 -0.057861328 0.45718384 -0.057861328 1.024292c-1.6203003 -1.2846985 -3.6051636 -1.9270325 -5.9546204 -1.9270325z" fill-rule="evenodd"/><path fill="#ffffff" d="m426.57974 129.9629c-1.5624084 0 -3.01297 0.40315247 -4.351654 1.2094574c-1.3348389 0.80244446 -2.388031 1.9540253 -3.159607 3.4547424c-0.7677002 1.4968567 -1.1515503 2.96286 -1.1515503 4.397995l0 2.9686432c0 1.0069122 0.14465332 1.9308777 0.43399048 2.7718964c0.28933716 0.8371582 0.82943726 1.7514801 1.6203003 2.7429657c0.79473877 0.98760986 1.4640808 1.6897583 2.0080261 2.1063995c0.54397583 0.4166565 1.232605 0.78123474 2.0658875 1.0937195c1.0879211 0.40507507 2.1584778 0.60762024 3.21167 0.60762024c1.2152405 0 2.415039 -0.26812744 3.5993958 -0.80436707c1.1882019 -0.54011536 2.256836 -1.3425598 3.2058716 -2.4073334c0.49768066 -0.5439606 0.7464905 -0.94903564 0.7464905 -1.2152405c0 -0.19674683 -0.06362915 -0.3587799 -0.19094849 -0.48608398c-0.12731934 -0.12731934 -0.2951355 -0.19096375 -0.5034485 -0.19096375c-0.24304199 0 -0.46295166 0.121520996 -0.6596985 0.364563c-0.9259033 1.0995026 -1.8845825 1.9212341 -2.8760376 2.4651947c-0.98760986 0.5439606 -2.1063843 0.8159485 -3.3563538 0.8159485c-2.0832214 0 -3.9118652 -0.80052185 -5.4858704 -2.401535c-1.5740051 -1.6048889 -2.361023 -3.4952545 -2.361023 -5.671112l0 -2.5519867c0 -1.0184937 0.16204834 -1.9328156 0.4861145 -2.7429657c0.45135498 -1.0995026 1.05896 -2.1006165 1.822815 -3.0033722c0.43981934 -0.520813 1.0300598 -0.96061707 1.7707825 -1.319397c0.9953308 -0.4976654 2.0542908 -0.74650574 3.176941 -0.74650574c1.7128906 0 3.2406006 0.5150299 4.58313 1.5450897c0.9953308 0.7522888 1.5219421 1.6145325 1.5798035 2.5867157c0.023162842 0.31248474 0.10031128 0.5381775 0.23147583 0.677063c0.13500977 0.1388855 0.30090332 0.20832825 0.49765015 0.20832825c0.21990967 0 0.39544678 -0.07522583 0.5266113 -0.22569275c0.13504028 -0.15045166 0.20254517 -0.40507507 0.20254517 -0.763855l0 -4.044998c0 -0.34721375 -0.06750488 -0.5960541 -0.20254517 -0.74650574c-0.13116455 -0.15046692 -0.30670166 -0.22569275 -0.5266113 -0.22569275c-0.21987915 0 -0.39733887 0.07522583 -0.53237915 0.22569275c-0.13116455 0.15045166 -0.19674683 0.399292 -0.19674683 0.74650574l0 1.0242615c-1.736023 -1.6434631 -3.8077087 -2.4651947 -6.215027 -2.4651947z" fill-rule="evenodd"/><path fill="#4a86e8" d="m575.3482 362.9378l0 0c-2.0569458 0 -3.7244263 6.6698914 -3.7244263 14.897644c0 8.227753 1.6674805 14.897644 3.7244263 14.897644l-101.77954 0c-2.0569153 0 -3.7243958 -6.6698914 -3.7243958 -14.897644c0 -8.227753 1.6674805 -14.897644 3.7243958 -14.897644z" fill-rule="evenodd"/><path fill="#92b6f1" d="m575.3482 362.9378l0 0c2.0569458 0 3.7244263 6.6698914 3.7244263 14.897644c0 8.227753 -1.6674805 14.897644 -3.7244263 14.897644l0 0c-2.0569458 0 -3.7244263 -6.6698914 -3.7244263 -14.897644c0 -8.227753 1.6674805 -14.897644 3.7244263 -14.897644z" fill-rule="evenodd"/><path fill="#000000" fill-opacity="0.0" d="m575.3482 392.7331l0 0c-2.0569458 0 -3.7244263 -6.6698914 -3.7244263 -14.897644c0 -8.227753 1.6674805 -14.897644 3.7244263 -14.897644l0 0c2.0569458 0 3.7244263 6.6698914 3.7244263 14.897644c0 8.227753 -1.6674805 14.897644 -3.7244263 14.897644l-101.77954 0c-2.0569153 0 -3.7243958 -6.6698914 -3.7243958 -14.897644c0 -8.227753 1.6674805 -14.897644 3.7243958 -14.897644l101.77954 0" fill-rule="evenodd"/><path fill="#ffffff" d="m524.67426 367.7536l4.027649 10.607269l-8.471863 0l3.906067 -10.607269zm-6.353882 -1.4582825c-0.347229 0 -0.5960083 0.06750488 -0.746521 0.20251465c-0.15045166 0.13116455 -0.22564697 0.30670166 -0.22564697 0.5266113c0 0.21990967 0.07519531 0.39736938 0.22564697 0.53237915c0.1505127 0.13119507 0.399292 0.19677734 0.746521 0.19677734l4.305359 0l-6.440674 17.395233l-1.128418 0c-0.347229 0 -0.59606934 0.06750488 -0.746521 0.20251465c-0.15045166 0.13119507 -0.22564697 0.30670166 -0.22564697 0.5266113c0 0.2083435 0.07519531 0.3819275 0.22564697 0.520813c0.15045166 0.1388855 0.399292 0.2083435 0.746521 0.2083435l5.451172 0c0.34716797 0 0.5960083 -0.06945801 0.74645996 -0.2083435c0.15045166 -0.1388855 0.22570801 -0.31246948 0.22570801 -0.520813c0 -0.21990967 -0.07525635 -0.39541626 -0.22570801 -0.5266113c-0.15045166 -0.13500977 -0.399292 -0.20251465 -0.74645996 -0.20251465l-2.795044 0l1.961731 -5.3296814l9.582947 0l1.9963989 5.3296814l-2.777649 0c-0.35876465 0 -0.6134033 0.06750488 -0.763855 0.20251465c-0.15045166 0.13119507 -0.22570801 0.30670166 -0.22570801 0.5266113c0 0.2083435 0.07525635 0.3819275 0.22570801 0.520813c0.15045166 0.1388855 0.40509033 0.2083435 0.763855 0.2083435l5.433838 0c0.34716797 0 0.5960083 -0.06945801 0.74645996 -0.2083435c0.15045166 -0.1388855 0.22570801 -0.31246948 0.22570801 -0.520813c0 -0.21990967 -0.07525635 -0.39541626 -0.22570801 -0.5266113c-0.15045166 -0.13500977 -0.399292 -0.20251465 -0.74645996 -0.20251465l-1.128479 0l-7.117737 -18.853516z" fill-rule="evenodd"/><path fill="#ffffff" d="m517.93243 129.0575l0 6.510193c0 0.3587799 0.06945801 0.6134033 0.20831299 0.763855c0.13885498 0.15046692 0.3125 0.22569275 0.520813 0.22569275c0.21990967 0 0.39544678 -0.07522583 0.5266113 -0.22569275c0.13500977 -0.15045166 0.20251465 -0.40507507 0.20251465 -0.763855l0 -5.0519104l5.971985 0l0 17.395233l-3.784546 0c-0.347229 0 -0.59606934 0.06750488 -0.746521 0.20254517c-0.15045166 0.13116455 -0.22570801 0.30670166 -0.22570801 0.52659607c0 0.20832825 0.07525635 0.3819275 0.22570801 0.520813c0.15045166 0.1388855 0.399292 0.20832825 0.746521 0.20832825l9.044739 0c0.347229 0 0.59606934 -0.06944275 0.746521 -0.20832825c0.15045166 -0.1388855 0.22564697 -0.31248474 0.22564697 -0.520813c0 -0.21989441 -0.07519531 -0.39543152 -0.22564697 -0.52659607c-0.15045166 -0.13504028 -0.399292 -0.20254517 -0.746521 -0.20254517l-3.784546 0l0 -17.395233l5.971924 0l0 5.0519104c0 0.3587799 0.06561279 0.6134033 0.19677734 0.763855c0.13500977 0.15046692 0.3125 0.22569275 0.53240967 0.22569275c0.21984863 0 0.39538574 -0.07522583 0.5265503 -0.22569275c0.1350708 -0.15045166 0.20257568 -0.40507507 0.20257568 -0.763855l0 -6.510193z" fill-rule="evenodd"/><path fill="#4a86e8" d="m671.5455 363.30716l0 0c-2.0568848 0 -3.7243652 6.669922 -3.7243652 14.897644c0 8.227753 1.6674805 14.897644 3.7243652 14.897644l-101.77948 0c-2.0569458 0 -3.7244263 -6.6698914 -3.7244263 -14.897644c0 -8.227722 1.6674805 -14.897644 3.7244263 -14.897644z" fill-rule="evenodd"/><path fill="#92b6f1" d="m671.5455 363.30716l0 0c2.0569458 0 3.7244263 6.669922 3.7244263 14.897644c0 8.227753 -1.6674805 14.897644 -3.7244263 14.897644l0 0c-2.0568848 0 -3.7243652 -6.6698914 -3.7243652 -14.897644c0 -8.227722 1.6674805 -14.897644 3.7243652 -14.897644z" fill-rule="evenodd"/><path fill="#000000" fill-opacity="0.0" d="m671.5455 393.10245l0 0c-2.0568848 0 -3.7243652 -6.6698914 -3.7243652 -14.897644c0 -8.227722 1.6674805 -14.897644 3.7243652 -14.897644l0 0c2.0569458 0 3.7244263 6.669922 3.7244263 14.897644c0 8.227753 -1.6674805 14.897644 -3.7244263 14.897644l-101.77948 0c-2.0569458 0 -3.7244263 -6.6698914 -3.7244263 -14.897644c0 -8.227722 1.6674805 -14.897644 3.7244263 -14.897644l101.77948 0" fill-rule="evenodd"/><path fill="#ffffff" d="m620.8995 368.0539c-1.562439 0 -3.0130005 0.4031372 -4.3516846 1.2094421c-1.3347778 0.8024292 -2.3880005 1.95401 -3.159546 3.4547424c-0.7677002 1.4968567 -1.1516113 2.96286 -1.1516113 4.3979797l0 2.9686584c0 1.006897 0.14471436 1.9308777 0.434021 2.771881c0.28936768 0.8371887 0.8294678 1.7514954 1.6203003 2.742981c0.79473877 0.98760986 1.4640503 1.6897583 2.0080566 2.1064148c0.5439453 0.41662598 1.232544 0.7812195 2.065857 1.093689c1.0879517 0.40509033 2.1585083 0.6076355 3.21167 0.6076355c1.21521 0 2.415039 -0.26812744 3.5993652 -0.8043823c1.1882324 -0.5401001 2.256897 -1.3425293 3.2059326 -2.407318c0.49761963 -0.54397583 0.74645996 -0.94903564 0.74645996 -1.2152405c0 -0.19674683 -0.06365967 -0.35879517 -0.19091797 -0.48608398c-0.12731934 -0.12731934 -0.29516602 -0.190979 -0.503479 -0.190979c-0.24304199 0 -0.46295166 0.121520996 -0.65966797 0.364563c-0.9259033 1.0995178 -1.8845825 1.9212341 -2.8760376 2.46521c-0.9876709 0.5439453 -2.1064453 0.8159485 -3.3563843 0.8159485c-2.083252 0 -3.9118652 -0.8005066 -5.48584 -2.4015503c-1.5740356 -1.6048889 -2.361023 -3.4952393 -2.361023 -5.6710815l0 -2.552002c0 -1.0184937 0.1619873 -1.9328003 0.48608398 -2.742981c0.45135498 -1.0994873 1.05896 -2.1006165 1.822815 -3.003357c0.43981934 -0.520813 1.0300903 -0.9606018 1.770752 -1.319397c0.9953613 -0.49768066 2.0543213 -0.7464905 3.177002 -0.7464905c1.7128906 0 3.2406006 0.51501465 4.58313 1.5450745c0.9953003 0.7522888 1.5219116 1.6145325 1.579773 2.5867004c0.023132324 0.3125 0.10028076 0.5381775 0.23150635 0.677063c0.13500977 0.1388855 0.30090332 0.2083435 0.49761963 0.2083435c0.21990967 0 0.39544678 -0.07522583 0.5266113 -0.22570801c0.13500977 -0.15045166 0.20251465 -0.4050598 0.20251465 -0.763855l0 -4.044983c0 -0.347229 -0.06750488 -0.5960388 -0.20251465 -0.746521c-0.13116455 -0.15045166 -0.30670166 -0.22567749 -0.5266113 -0.22567749c-0.21990967 0 -0.39733887 0.07522583 -0.53234863 0.22567749c-0.13116455 0.15048218 -0.19677734 0.399292 -0.19677734 0.746521l0 1.0242615c-1.736023 -1.6434631 -3.8076782 -2.4651794 -6.215027 -2.4651794z" fill-rule="evenodd"/><path fill="#ffffff" d="m621.1232 130.0768c-1.6203003 0 -3.1190796 0.399292 -4.496338 1.197876c-1.3772583 0.798584 -2.4631958 1.9540253 -3.2579346 3.4663239c-0.79089355 1.5084381 -1.1862793 3.0612335 -1.1862793 4.6584015l0 2.673523c0 1.5855865 0.2276001 2.8934174 0.6828003 3.9234772c0.45910645 1.0300598 1.0994873 1.961731 1.9212646 2.795044c0.8217163 0.8332977 1.8247681 1.48143 3.0090942 1.9443665c1.1882324 0.46295166 2.5635376 0.6944275 4.1259766 0.6944275c1.0994873 0 2.2009277 -0.15625 3.3042603 -0.46873474c1.1072388 -0.31248474 2.2163696 -0.7754364 3.3274536 -1.3888397l0 -6.2497864c0.5786743 0 0.9258423 -0.01928711 1.041565 -0.057861328c0.11578369 -0.04244995 0.21990967 -0.12731934 0.3125 -0.2546234c0.09259033 -0.12731934 0.13891602 -0.26620483 0.13891602 -0.4166565c0 -0.21989441 -0.07525635 -0.39543152 -0.22570801 -0.52659607c-0.15045166 -0.13504028 -0.399292 -0.20254517 -0.74645996 -0.20254517l-7.013611 -0.017364502c-0.347229 0 -0.59606934 0.06944275 -0.746521 0.20832825c-0.15045166 0.1388855 -0.22564697 0.31828308 -0.22564697 0.5381775c0 0.21989441 0.07519531 0.39735413 0.22564697 0.5323944c0.15045166 0.13116455 0.399292 0.19674683 0.746521 0.19674683l5.017151 0l0 5.399124c-1.006897 0.4629364 -1.8865356 0.78700256 -2.638794 0.9721832c-0.7522583 0.18518066 -1.5682373 0.277771 -2.447815 0.277771c-2.604065 0 -4.6467896 -0.71177673 -6.128235 -2.1353455c-1.4813843 -1.4235687 -2.222107 -3.3447876 -2.222107 -5.763687l0 -2.6561584c0 -1.3656921 0.3125 -2.5867157 0.93743896 -3.6630707c0.9375 -1.6434631 1.9462891 -2.7564697 3.0264893 -3.3390045c1.0841064 -0.58639526 2.2973633 -0.87960815 3.6398926 -0.87960815c1.423584 0 2.7391357 0.3125 3.9465942 0.9374695c1.2114258 0.62498474 1.8518066 1.4293518 1.9212646 2.4131165c0.0115356445 0.33563232 0.08294678 0.5709686 0.21411133 0.70599365c0.13500977 0.13116455 0.30090332 0.19674683 0.49761963 0.19674683c0.20837402 0 0.381958 -0.07136536 0.520813 -0.21411133c0.13891602 -0.14659119 0.20837402 -0.399292 0.20837402 -0.7580719l0 -3.2984924c0 -0.34721375 -0.06945801 -0.5960541 -0.20837402 -0.74650574c-0.13885498 -0.15045166 -0.31243896 -0.22569275 -0.520813 -0.22569275c-0.1619873 0 -0.30670166 0.04437256 -0.43395996 0.13310242c-0.12731934 0.084869385 -0.21221924 0.18518066 -0.25463867 0.30091858c-0.03857422 0.115737915 -0.057861328 0.45715332 -0.057861328 1.0242615c-1.6203003 -1.284668 -3.6051636 -1.9270172 -5.954651 -1.9270172z" fill-rule="evenodd"/><path fill="#ffffff" d="m718.7181 131.7491l4.027588 10.607269l-8.471863 0l3.906067 -10.607269zm-6.353943 -1.4582825c-0.34716797 0 -0.5960083 0.06750488 -0.74645996 0.2025299c-0.15045166 0.13117981 -0.22570801 0.30670166 -0.22570801 0.5266113c0 0.21989441 0.07525635 0.39735413 0.22570801 0.53237915c0.15045166 0.13117981 0.399292 0.19676208 0.74645996 0.19676208l4.30542 0l-6.440735 17.395233l-1.128418 0c-0.347229 0 -0.5960083 0.06750488 -0.74645996 0.20254517c-0.1505127 0.13116455 -0.22570801 0.30670166 -0.22570801 0.52659607c0 0.20832825 0.07519531 0.3819275 0.22570801 0.520813c0.15045166 0.1388855 0.39923096 0.20832825 0.74645996 0.20832825l5.451172 0c0.347229 0 0.5960083 -0.06944275 0.746521 -0.20832825c0.15045166 -0.1388855 0.22564697 -0.31248474 0.22564697 -0.520813c0 -0.21989441 -0.07519531 -0.39543152 -0.22564697 -0.52659607c-0.1505127 -0.13504028 -0.399292 -0.20254517 -0.746521 -0.20254517l-2.795044 0l1.961731 -5.3296814l9.582947 0l1.99646 5.3296814l-2.77771 0c-0.35876465 0 -0.6133423 0.06750488 -0.763855 0.20254517c-0.15045166 0.13116455 -0.22564697 0.30670166 -0.22564697 0.52659607c0 0.20832825 0.07519531 0.3819275 0.22564697 0.520813c0.1505127 0.1388855 0.40509033 0.20832825 0.763855 0.20832825l5.433838 0c0.347229 0 0.5960083 -0.06944275 0.74645996 -0.20832825c0.1505127 -0.1388855 0.22570801 -0.31248474 0.22570801 -0.520813c0 -0.21989441 -0.07519531 -0.39543152 -0.22570801 -0.52659607c-0.15045166 -0.13504028 -0.39923096 -0.20254517 -0.74645996 -0.20254517l-1.128418 0l-7.117798 -18.853516z" fill-rule="evenodd"/><path fill="#4a86e8" d="m770.9452 363.32483l0 0c-2.0569458 0 -3.7244263 6.6698914 -3.7244263 14.897644c0 8.227722 1.6674805 14.897614 3.7244263 14.897614l-101.77954 0c-2.0569458 0 -3.7244263 -6.6698914 -3.7244263 -14.897614c0 -8.227753 1.6674805 -14.897644 3.7244263 -14.897644z" fill-rule="evenodd"/><path fill="#92b6f1" d="m770.9452 363.32483l0 0c2.0569458 0 3.7244263 6.6698914 3.7244263 14.897644c0 8.227722 -1.6674805 14.897614 -3.7244263 14.897614l0 0c-2.0569458 0 -3.7244263 -6.6698914 -3.7244263 -14.897614c0 -8.227753 1.6674805 -14.897644 3.7244263 -14.897644z" fill-rule="evenodd"/><path fill="#000000" fill-opacity="0.0" d="m770.9452 393.1201l0 0c-2.0569458 0 -3.7244263 -6.6698914 -3.7244263 -14.897614c0 -8.227753 1.6674805 -14.897644 3.7244263 -14.897644l0 0c2.0569458 0 3.7244263 6.6698914 3.7244263 14.897644c0 8.227722 -1.6674805 14.897614 -3.7244263 14.897614l-101.77954 0c-2.0569458 0 -3.7244263 -6.6698914 -3.7244263 -14.897614c0 -8.227753 1.6674805 -14.897644 3.7244263 -14.897644l101.77954 0" fill-rule="evenodd"/><path fill="#ffffff" d="m713.5902 368.97614l0 6.510193c0 0.35876465 0.06945801 0.6134033 0.20831299 0.763855c0.13891602 0.15045166 0.3125 0.22567749 0.520813 0.22567749c0.21990967 0 0.39544678 -0.07522583 0.5266113 -0.22567749c0.13500977 -0.15045166 0.20257568 -0.40509033 0.20257568 -0.763855l0 -5.0519104l5.971924 0l0 17.395233l-3.784546 0c-0.347229 0 -0.5960083 0.06750488 -0.74645996 0.20254517c-0.1505127 0.13116455 -0.22570801 0.30670166 -0.22570801 0.5265808c0 0.2083435 0.07519531 0.3819275 0.22570801 0.520813c0.15045166 0.1388855 0.39923096 0.2083435 0.74645996 0.2083435l9.044739 0c0.347229 0 0.59606934 -0.06945801 0.746521 -0.2083435c0.15045166 -0.1388855 0.22570801 -0.31246948 0.22570801 -0.520813c0 -0.21987915 -0.07525635 -0.39541626 -0.22570801 -0.5265808c-0.15045166 -0.13504028 -0.399292 -0.20254517 -0.746521 -0.20254517l-3.784546 0l0 -17.395233l5.971985 0l0 5.0519104c0 0.35876465 0.06555176 0.6134033 0.19677734 0.763855c0.13500977 0.15045166 0.31243896 0.22567749 0.53234863 0.22567749c0.21990967 0 0.39544678 -0.07522583 0.5266113 -0.22567749c0.13500977 -0.15045166 0.20251465 -0.40509033 0.20251465 -0.763855l0 -6.510193z" fill-rule="evenodd"/><path fill="#ffffff" d="m818.2721 130.52846l4.027649 10.607285l-8.471863 0l3.906067 -10.607285zm-6.353882 -1.4582825c-0.347229 0 -0.59606934 0.06752014 -0.746521 0.20254517c-0.15045166 0.13116455 -0.22564697 0.30670166 -0.22564697 0.52659607c0 0.21990967 0.07519531 0.39736938 0.22564697 0.5323944c0.15045166 0.13116455 0.399292 0.19674683 0.746521 0.19674683l4.305359 0l-6.440674 17.395233l-1.128418 0c-0.347229 0 -0.59606934 0.06752014 -0.746521 0.20254517c-0.15045166 0.13116455 -0.22570801 0.30670166 -0.22570801 0.52659607c0 0.20832825 0.07525635 0.38194275 0.22570801 0.52082825c0.15045166 0.13887024 0.399292 0.20831299 0.746521 0.20831299l5.451172 0c0.34716797 0 0.5960083 -0.06944275 0.74645996 -0.20831299c0.15045166 -0.1388855 0.22570801 -0.3125 0.22570801 -0.52082825c0 -0.21989441 -0.07525635 -0.39543152 -0.22570801 -0.52659607c-0.15045166 -0.13502502 -0.399292 -0.20254517 -0.74645996 -0.20254517l-2.795044 0l1.961731 -5.329666l9.582947 0l1.9963989 5.329666l-2.777649 0c-0.35876465 0 -0.6134033 0.06752014 -0.763855 0.20254517c-0.15045166 0.13116455 -0.22570801 0.30670166 -0.22570801 0.52659607c0 0.20832825 0.07525635 0.38194275 0.22570801 0.52082825c0.15045166 0.13887024 0.40509033 0.20831299 0.763855 0.20831299l5.433777 0c0.347229 0 0.59606934 -0.06944275 0.746521 -0.20831299c0.15045166 -0.1388855 0.22570801 -0.3125 0.22570801 -0.52082825c0 -0.21989441 -0.07525635 -0.39543152 -0.22570801 -0.52659607c-0.15045166 -0.13502502 -0.399292 -0.20254517 -0.746521 -0.20254517l-1.128418 0l-7.117737 -18.853516z" fill-rule="evenodd"/><path fill="#4a86e8" d="m870.41205 363.49237l0 0c-2.0569458 0 -3.7244263 6.6698914 -3.7244263 14.897644c0 8.227722 1.6674805 14.897644 3.7244263 14.897644l-101.77954 0c-2.0569458 0 -3.7243652 -6.669922 -3.7243652 -14.897644c0 -8.227753 1.6674194 -14.897644 3.7243652 -14.897644z" fill-rule="evenodd"/><path fill="#92b6f1" d="m870.41205 363.49237l0 0c2.0569458 0 3.7244263 6.6698914 3.7244263 14.897644c0 8.227722 -1.6674805 14.897644 -3.7244263 14.897644l0 0c-2.0569458 0 -3.7244263 -6.669922 -3.7244263 -14.897644c0 -8.227753 1.6674805 -14.897644 3.7244263 -14.897644z" fill-rule="evenodd"/><path fill="#000000" fill-opacity="0.0" d="m870.41205 393.28766l0 0c-2.0569458 0 -3.7244263 -6.669922 -3.7244263 -14.897644c0 -8.227753 1.6674805 -14.897644 3.7244263 -14.897644l0 0c2.0569458 0 3.7244263 6.6698914 3.7244263 14.897644c0 8.227722 -1.6674805 14.897644 -3.7244263 14.897644l-101.77954 0c-2.0569458 0 -3.7243652 -6.669922 -3.7243652 -14.897644c0 -8.227753 1.6674194 -14.897644 3.7243652 -14.897644l101.77954 0" fill-rule="evenodd"/><path fill="#ffffff" d="m813.05707 369.14368l0 6.510193c0 0.35876465 0.06945801 0.6134033 0.20837402 0.763855c0.13885498 0.15045166 0.31243896 0.22567749 0.520813 0.22567749c0.21984863 0 0.39538574 -0.07522583 0.5265503 -0.22567749c0.1350708 -0.15045166 0.20257568 -0.40509033 0.20257568 -0.763855l0 -5.0519104l5.971985 0l0 17.395233l-3.784607 0c-0.34716797 0 -0.5960083 0.06750488 -0.74645996 0.20254517c-0.15045166 0.13116455 -0.22570801 0.30670166 -0.22570801 0.5265808c0 0.2083435 0.07525635 0.381958 0.22570801 0.5208435c0.15045166 0.13885498 0.399292 0.20831299 0.74645996 0.20831299l9.0448 0c0.34716797 0 0.5960083 -0.06945801 0.74645996 -0.20831299c0.15045166 -0.1388855 0.22570801 -0.3125 0.22570801 -0.5208435c0 -0.21987915 -0.07525635 -0.39541626 -0.22570801 -0.5265808c-0.15045166 -0.13504028 -0.399292 -0.20254517 -0.74645996 -0.20254517l-3.784607 0l0 -17.395233l5.971985 0l0 5.0519104c0 0.35876465 0.06561279 0.6134033 0.19677734 0.763855c0.13500977 0.15045166 0.31243896 0.22567749 0.53234863 0.22567749c0.21990967 0 0.39544678 -0.07522583 0.5266113 -0.22567749c0.13500977 -0.15045166 0.20251465 -0.40509033 0.20251465 -0.763855l0 -6.510193z" fill-rule="evenodd"/><path fill="#000000" fill-opacity="0.0" d="m140.92914 239.20473l0 39.716537" fill-rule="evenodd"/><path stroke="#ff0000" stroke-width="2.0" stroke-linejoin="round" stroke-linecap="butt" d="m140.92914 251.20473l0 15.716537" fill-rule="evenodd"/><path fill="#ff0000" stroke="#ff0000" stroke-width="2.0" stroke-linecap="butt" d="m144.2326 251.20473l-3.3034668 -9.076202l-3.3034668 9.076202z" fill-rule="evenodd"/><path fill="#ff0000" stroke="#ff0000" stroke-width="2.0" stroke-linecap="butt" d="m137.62567 266.92126l3.3034668 9.076202l3.3034668 -9.076202z" fill-rule="evenodd"/><path fill="#000000" fill-opacity="0.0" d="m236.34908 239.20473l0 39.716537" fill-rule="evenodd"/><path stroke="#ff0000" stroke-width="2.0" stroke-linejoin="round" stroke-linecap="butt" d="m236.34908 251.20473l0 15.716537" fill-rule="evenodd"/><path fill="#ff0000" stroke="#ff0000" stroke-width="2.0" stroke-linecap="butt" d="m239.65254 251.20473l-3.3034668 -9.076202l-3.3034515 9.076202z" fill-rule="evenodd"/><path fill="#ff0000" stroke="#ff0000" stroke-width="2.0" stroke-linecap="butt" d="m233.04562 266.92126l3.3034515 9.076202l3.3034668 -9.076202z" fill-rule="evenodd"/><path fill="#000000" fill-opacity="0.0" d="m332.36746 239.19948l0 39.716537" fill-rule="evenodd"/><path stroke="#ff0000" stroke-width="2.0" stroke-linejoin="round" stroke-linecap="butt" d="m332.36746 251.19948l0 15.716537" fill-rule="evenodd"/><path fill="#ff0000" stroke="#ff0000" stroke-width="2.0" stroke-linecap="butt" d="m335.67093 251.19948l-3.3034668 -9.076202l-3.3034668 9.076202z" fill-rule="evenodd"/><path fill="#ff0000" stroke="#ff0000" stroke-width="2.0" stroke-linecap="butt" d="m329.064 266.91602l3.3034668 9.076202l3.3034668 -9.076202z" fill-rule="evenodd"/><path fill="#000000" fill-opacity="0.0" d="m428.39896 239.20473l0 39.716537" fill-rule="evenodd"/><path stroke="#ff0000" stroke-width="2.0" stroke-linejoin="round" stroke-linecap="butt" d="m428.39896 251.20473l0 15.716537" fill-rule="evenodd"/><path fill="#ff0000" stroke="#ff0000" stroke-width="2.0" stroke-linecap="butt" d="m431.70242 251.20473l-3.3034668 -9.076202l-3.3034668 9.076202z" fill-rule="evenodd"/><path fill="#ff0000" stroke="#ff0000" stroke-width="2.0" stroke-linecap="butt" d="m425.0955 266.92126l3.3034668 9.076202l3.3034668 -9.076202z" fill-rule="evenodd"/><path fill="#000000" fill-opacity="0.0" d="m526.09186 237.98425l0 39.716522" fill-rule="evenodd"/><path stroke="#ff0000" stroke-width="2.0" stroke-linejoin="round" stroke-linecap="butt" d="m526.09186 249.98425l0 15.716522" fill-rule="evenodd"/><path fill="#ff0000" stroke="#ff0000" stroke-width="2.0" stroke-linecap="butt" d="m529.3953 249.98425l-3.3034668 -9.076202l-3.3034668 9.076202z" fill-rule="evenodd"/><path fill="#ff0000" stroke="#ff0000" stroke-width="2.0" stroke-linecap="butt" d="m522.7884 265.70078l3.3034668 9.076202l3.3034668 -9.076202z" fill-rule="evenodd"/><path fill="#000000" fill-opacity="0.0" d="m621.1076 239.3727l0 39.716537" fill-rule="evenodd"/><path stroke="#ff0000" stroke-width="2.0" stroke-linejoin="round" stroke-linecap="butt" d="m621.1076 251.3727l0 15.716537" fill-rule="evenodd"/><path fill="#ff0000" stroke="#ff0000" stroke-width="2.0" stroke-linecap="butt" d="m624.4111 251.3727l-3.3034668 -9.076187l-3.3034668 9.076187z" fill-rule="evenodd"/><path fill="#ff0000" stroke="#ff0000" stroke-width="2.0" stroke-linecap="butt" d="m617.80414 267.08923l3.3034668 9.076202l3.3034668 -9.076202z" fill-rule="evenodd"/><path fill="#000000" fill-opacity="0.0" d="m719.9711 239.47375l0 39.716522" fill-rule="evenodd"/><path stroke="#ff0000" stroke-width="2.0" stroke-linejoin="round" stroke-linecap="butt" d="m719.9711 251.47375l0 15.716522" fill-rule="evenodd"/><path fill="#ff0000" stroke="#ff0000" stroke-width="2.0" stroke-linecap="butt" d="m723.2746 251.47375l-3.3034668 -9.076202l-3.3034668 9.076202z" fill-rule="evenodd"/><path fill="#ff0000" stroke="#ff0000" stroke-width="2.0" stroke-linecap="butt" d="m716.66766 267.19028l3.3034668 9.076202l3.3034668 -9.076202z" fill-rule="evenodd"/><path fill="#000000" fill-opacity="0.0" d="m818.08136 239.41208l0 39.716522" fill-rule="evenodd"/><path stroke="#ff0000" stroke-width="2.0" stroke-linejoin="round" stroke-linecap="butt" d="m818.08136 251.41208l0 15.716522" fill-rule="evenodd"/><path fill="#ff0000" stroke="#ff0000" stroke-width="2.0" stroke-linecap="butt" d="m821.3848 251.41208l-3.3034668 -9.076202l-3.3034668 9.076202z" fill-rule="evenodd"/><path fill="#ff0000" stroke="#ff0000" stroke-width="2.0" stroke-linecap="butt" d="m814.7779 267.1286l3.3034668 9.076202l3.3034668 -9.076202z" fill-rule="evenodd"/><path fill="#ffffff" d="m220.8819 48.58005l491.74805 0l0 -13.244095l26.48816 26.48819l-26.48816 26.488186l0 -13.244087l-491.74805 0z" fill-rule="evenodd"/><path fill="#ffffff" d="m739.1181 470.0866l-491.74805 0l0 13.24411l-26.488174 -26.48819l26.488174 -26.48819l0 13.24408l491.74805 0z" fill-rule="evenodd"/><path fill="#ffd966" d="m891.14075 56.43858c-4.1366577 0 -7.830139 1.1416054 -11.080383 3.4248161c-2.336914 1.6385384 -3.5054321 2.9950294 -3.5054321 4.069481c0 0.42977905 0.16119385 0.8013611 0.4835205 1.1147461c0.32232666 0.3044281 0.711853 0.45664215 1.168457 0.45664215c0.29553223 0 0.5551758 -0.05819702 0.7789917 -0.1745987c0.23284912 -0.12535095 0.5640869 -0.45664215 0.9938965 -0.99386597c1.1818848 -1.3967896 2.753296 -2.4981003 4.7141724 -3.3039398c1.9609375 -0.80583954 4.1098633 -1.2087593 6.4467773 -1.2087593c3.3308716 0 6.0304565 0.9670067 8.098755 2.90102c2.0683594 1.9340134 3.102539 4.163498 3.102539 6.6884613c0 2.444374 -0.9894409 4.593277 -2.9682007 6.446701c-1.9698486 1.8534317 -4.472473 2.7801437 -7.5078125 2.7801437l-2.901062 -0.040290833c-0.6715088 0 -1.1774292 0.16117096 -1.5176392 0.48350525c-0.33129883 0.3223343 -0.49694824 0.72525024 -0.49694824 1.2087555c0 0.5103607 0.17456055 0.9222412 0.5238037 1.2356186c0.34918213 0.3044281 0.9266968 0.45664215 1.732544 0.45664215c2.498108 0 4.9694214 0.55960846 7.4138184 1.678833c2.444397 1.11026 4.315735 2.6324005 5.6140137 4.566414c1.307312 1.9340134 1.9609375 3.9083176 1.9609375 5.9229126c0 3.008461 -1.3251953 5.7438354 -3.975525 8.206123c-2.6414185 2.4533234 -5.9229736 3.6799927 -9.844788 3.6799927c-4.6470337 0 -9.052307 -1.5445251 -13.21582 -4.633568c-0.53723145 -0.40292358 -1.020752 -0.6043854 -1.4505615 -0.6043854c-0.42974854 0 -0.80133057 0.16117096 -1.1147461 0.48350525c-0.30444336 0.3223343 -0.45666504 0.6983948 -0.45666504 1.1281738c0 0.48350525 0.20147705 0.9401474 0.60443115 1.3699265c1.2355957 1.2893448 3.411377 2.5518188 6.5273438 3.7874374c3.1159058 1.2356186 6.1243896 1.8534317 9.025452 1.8534317c4.942505 0 9.056824 -1.5490036 12.3428955 -4.647003c3.294983 -3.1069565 4.942505 -6.6884537 4.942505 -10.744507c0 -2.6324081 -0.8192749 -5.16185 -2.4578247 -7.588318c-1.6385498 -2.4354172 -4.015808 -4.3515244 -7.131714 -5.748314c2.5518188 -1.2087555 4.48584 -2.8204346 5.802063 -4.8350296c1.3162231 -2.014595 1.9743042 -4.1500626 1.9743042 -6.40641c0 -3.5456924 -1.3699341 -6.5989227 -4.1098022 -9.1596985c-2.7398682 -2.5697289 -6.2453003 -3.8545914 -10.516296 -3.8545952z" fill-rule="evenodd"/><path fill="#ffd966" d="m935.18024 57.64734l2.8204956 21.15326c0.16113281 1.1281738 0.456604 1.9161072 0.8864136 2.3637924c0.42980957 0.43873596 0.98046875 0.6580963 1.6519775 0.6580963c0.64471436 0 1.1864014 -0.21936035 1.6251221 -0.6580963c0.44769287 -0.44768524 0.75213623 -1.2356186 0.9133301 -2.3637924l2.8204346 -21.15326z" fill-rule="evenodd"/><path fill="#ffd966" d="m38.17489 410.09476c-4.136677 0 -7.830139 1.1416016 -11.080385 3.4248047c-2.336954 1.6385498 -3.5054302 2.9950256 -3.5054302 4.0694885c0 0.42977905 0.16116905 0.8013611 0.48350716 1.1147461c0.3223381 0.30441284 0.71183205 0.45663452 1.168478 0.45663452c0.2954769 0 0.55513763 -0.05819702 0.77898407 -0.17459106c0.23279953 -0.12536621 0.56409264 -0.45663452 0.9938774 -0.99386597c1.1819077 -1.3967896 2.7533073 -2.498108 4.714199 -3.303955c1.9608917 -0.80581665 4.1098137 -1.2087402 6.4467697 -1.2087402c3.3308296 0 6.0304146 0.9670105 8.098751 2.901001c2.0683403 1.934021 3.1025085 4.163513 3.1025085 6.6884766c0 2.4443665 -0.98939896 4.5932617 -2.9682007 6.446686c-1.9698448 1.8534546 -4.4724464 2.7801514 -7.5077972 2.7801514l-2.9010468 -0.040283203c-0.6715393 0 -1.177433 0.16116333 -1.5176773 0.48349c-0.331295 0.32235718 -0.4969368 0.72525024 -0.4969368 1.2087708c0 0.51034546 0.1745987 0.9222412 0.5237999 1.2356262c0.3491974 0.30441284 0.92671967 0.45663452 1.7325668 0.45663452c2.4981232 0 4.9693832 0.55960083 7.413784 1.678833c2.4444008 1.11026 4.315754 2.6323853 5.6140594 4.5664062c1.3072624 1.934021 1.9608955 3.9083252 1.9608955 5.9229126c0 3.0084534 -1.3251724 5.7438354 -3.9755096 8.206116c-2.6413841 2.4533386 -5.922966 3.6799927 -9.844753 3.6799927c-4.647045 0 -9.052336 -1.5445251 -13.215874 -4.6335754c-0.53723145 -0.40289307 -1.0207386 -0.6043701 -1.4505234 -0.6043701c-0.42978477 0 -0.8013706 0.16116333 -1.1147537 0.4835205c-0.30443192 0.32232666 -0.45664597 0.6983948 -0.45664597 1.1281738c0 0.48349 0.20146179 0.9401245 0.60438347 1.3699036c1.235632 1.2893372 3.411415 2.5518188 6.5273533 3.787445c3.1159382 1.2356262 6.1244316 1.8534241 9.025478 1.8534241c4.94252 0 9.056812 -1.5489807 12.342873 -4.647003c3.2950172 -3.1069336 4.942524 -6.688446 4.942524 -10.744507c0 -2.6323853 -0.8192787 -5.1618347 -2.4578323 -7.588318c-1.6385536 -2.4353943 -4.0157967 -4.3515015 -7.1317368 -5.748291c2.5518456 -1.2087708 4.485878 -2.8204346 5.8020935 -4.8350525c1.3162155 -2.0145874 1.9743233 -4.150055 1.9743233 -6.4064026c0 -3.5456848 -1.3699379 -6.5989075 -4.1098175 -9.1596985c-2.7398758 -2.5697327 -6.245304 -3.8545837 -10.516289 -3.8545837z" fill-rule="evenodd"/><path fill="#ffd966" d="m82.21438 411.3035l2.8204575 21.15326c0.16117096 1.1281738 0.45664978 1.9161072 0.88642883 2.3638c0.42978668 0.4387207 0.98044586 0.6581116 1.6519852 0.6581116c0.6446762 0 1.1863861 -0.21939087 1.6251221 -0.6581116c0.44769287 -0.44769287 0.7521286 -1.2356262 0.91329193 -2.3638l2.820465 -21.15326z" fill-rule="evenodd"/><path fill="#ffd966" d="m25.321642 56.43858l0 22.4426c0 0.59095 0.14773941 1.0475922 0.44321632 1.3699265c0.2954769 0.3223343 0.68496895 0.48350525 1.1684761 0.48350525c0.3491993 0 0.9535847 -0.21489716 1.8131542 -0.6446762c3.5188618 -1.8534241 7.0377216 -2.7801437 10.5565815 -2.7801437c3.4382782 0 6.272171 1.1639938 8.501678 3.4919662c2.2295074 2.3190231 3.3442612 5.385689 3.3442612 9.199989c0 4.48584 -1.2893562 8.080765 -3.868061 10.784805c-2.5787086 2.6950836 -5.8423843 4.0426254 -9.791031 4.0426254c-4.781353 0 -9.200075 -1.8937225 -13.256168 -5.68116c-0.51036835 -0.48350525 -0.9938755 -0.7252579 -1.4505215 -0.7252579c-0.42978477 0 -0.80584717 0.17012024 -1.1281853 0.51036835c-0.3223381 0.33128357 -0.48350716 0.7386856 -0.48350716 1.2221832c0 0.59095 0.51036835 1.3296356 1.531107 2.2160568c1.7191391 1.4773712 3.6263084 2.7129898 5.721508 3.7068558c2.9547691 1.4236526 6.0304127 2.1354752 9.226938 2.1354752c4.8350754 0 8.864304 -1.6654053 12.087688 -4.9962006c3.2233849 -3.3307953 4.835079 -7.6823273 4.835079 -13.054581c0 -4.8618927 -1.4326172 -8.783638 -4.2978477 -11.765244c-2.8562775 -2.981598 -6.406475 -4.472397 -10.650597 -4.472397c-1.6385574 0 -3.3711243 0.21041107 -5.197708 0.6312332c-1.8265839 0.4118805 -3.733755 1.0341644 -5.721508 1.8668594l0 -16.559975l20.226738 0c0.80584335 0 1.3833694 -0.16117096 1.7325668 -0.48350525c0.3492012 -0.3223343 0.5237999 -0.72525406 0.5237999 -1.2087555c0 -0.51036453 -0.1745987 -0.92671585 -0.5237999 -1.2490501c-0.3491974 -0.3223343 -0.9267235 -0.48350525 -1.7325668 -0.48350525z" fill-rule="evenodd"/><path fill="#ffd966" d="m82.17408 56.43858l2.820465 21.153255c0.16117096 1.1281738 0.45664215 1.9161072 0.88642883 2.3637924c0.42978668 0.43873596 0.98044586 0.65810394 1.6519852 0.65810394c0.6446762 0 1.1863861 -0.21936798 1.6251221 -0.65810394c0.44769287 -0.44768524 0.752121 -1.2356186 0.91329193 -2.3637924l2.820465 -21.153255z" fill-rule="evenodd"/><path fill="#ffd966" d="m878.3295 410.71286l0 22.442596c0 0.5909424 0.14770508 1.0475769 0.44317627 1.3699341c0.29553223 0.32232666 0.68499756 0.48349 1.1685181 0.48349c0.34918213 0 0.95355225 -0.21487427 1.8131104 -0.6446533c3.5188599 -1.8534546 7.037781 -2.7801514 10.556641 -2.7801514c3.4382324 0 6.272156 1.1640015 8.501648 3.4919739c2.2294922 2.3190002 3.3442383 5.385681 3.3442383 9.199982c0 4.48584 -1.2893066 8.0807495 -3.868042 10.78479c-2.5786743 2.6950989 -5.842407 4.042633 -9.791016 4.042633c-4.781372 0 -9.200073 -1.8937073 -13.256165 -5.6811523c-0.510376 -0.4835205 -0.9938965 -0.72525024 -1.4505615 -0.72525024c-0.42974854 0 -0.80584717 0.17010498 -1.1281738 0.51034546c-0.32232666 0.33129883 -0.4835205 0.738678 -0.4835205 1.2221985c0 0.5909424 0.510376 1.3296204 1.5311279 2.2160645c1.7191162 1.477356 3.6263428 2.7129822 5.7214966 3.7068481c2.954773 1.423645 6.0304565 2.1354675 9.226929 2.1354675c4.835083 0 8.864319 -1.6654053 12.0877075 -4.9961853c3.2233887 -3.3308105 4.835083 -7.6823425 4.835083 -13.054596c0 -4.8618774 -1.4326172 -8.78363 -4.2978516 -11.765228c-2.8562622 -2.9816284 -6.406494 -4.472412 -10.650574 -4.472412c-1.6385498 0 -3.3711548 0.2104187 -5.197754 0.6312256c-1.8265381 0.41189575 -3.7337036 1.0341797 -5.7214966 1.8668823l0 -16.559998l20.226746 0c0.80584717 0 1.3833618 -0.16116333 1.732605 -0.48349c0.34918213 -0.32232666 0.5238037 -0.72525024 0.5238037 -1.2087708c0 -0.51034546 -0.17462158 -0.9266968 -0.5238037 -1.249054c-0.34924316 -0.32232666 -0.9267578 -0.48349 -1.732605 -0.48349z" fill-rule="evenodd"/><path fill="#ffd966" d="m935.18195 410.71286l2.8204956 21.15326c0.16113281 1.1281738 0.456604 1.9161072 0.8864136 2.3638c0.42974854 0.4387207 0.98046875 0.65808105 1.6519775 0.65808105c0.6446533 0 1.1864014 -0.21936035 1.6251221 -0.65808105c0.44769287 -0.44769287 0.75213623 -1.2356262 0.91326904 -2.3638l2.8204956 -21.15326z" fill-rule="evenodd"/></g></svg>