<svg version="1.1" viewBox="0.0 0.0 960.0 540.0" fill="none" stroke="none" stroke-linecap="square" stroke-miterlimit="10" xmlns:xlink="http://www.w3.org/1999/xlink" xmlns="http://www.w3.org/2000/svg"><clipPath id="p.0"><path d="m0 0l960.0 0l0 540.0l-960.0 0l0 -540.0z" clip-rule="nonzero"/></clipPath><g clip-path="url(#p.0)"><path fill="#000000" d="m0 0l960.0 0l0 540.0l-960.0 0z" fill-rule="evenodd"/><path fill="#ffd966" d="m-71.56795 385.0776l7.7480316 -6.330719l11.401573 13.952759l-7.7480316 6.330719z" fill-rule="evenodd"/><path fill="#8e7cc3" d="m-52.17115 381.15027l7.7480316 -6.3306885l5.5433083 6.803131l-7.7480316 6.330719z" fill-rule="evenodd"/><path fill="#93c47d" d="m-26.855705 360.48572l7.7480316 -6.3306885l5.5433064 6.803131l-7.7480316 6.330719z" fill-rule="evenodd"/><path fill="#8e7cc3" d="m-18.205057 343.39368l7.7480307 -6.330719l10.488189 12.818909l-7.7480316 6.330719z" fill-rule="evenodd"/><path fill="#e06666" d="m-8.712259 327.3333l7.748031 -6.330719l14.551181 17.826782l-7.7480316 6.3306885z" fill-rule="evenodd"/><path fill="#93c47d" d="m2.440042 313.30594l7.748031 -6.330719l16.818897 20.629944l-7.7480316 6.3306885z" fill-rule="evenodd"/><path fill="#ffd966" d="m13.792695 299.52402l7.7480326 -6.330719l19.086615 23.40158l-7.7480316 6.330719z" fill-rule="evenodd"/><path fill="#93c47d" d="m26.802004 287.7716l7.7480297 -6.3306885l19.622047 24.031494l-7.7480316 6.3306885z" fill-rule="evenodd"/><path fill="#e06666" d="m39.524715 277.38632l7.7480316 -6.330719l19.622051 24.031494l-7.7480354 6.330719z" fill-rule="evenodd"/><path fill="#8e7cc3" d="m53.08912 266.31393l7.7480316 -6.330719l19.622047 24.031494l-7.7480316 6.330719z" fill-rule="evenodd"/><path fill="#ffd966" d="m68.51557 257.52267l7.7480316 -6.3307037l17.858269 21.858261l-7.7480316 6.330719z" fill-rule="evenodd"/><path fill="#e06666" d="m84.47384 249.38293l7.7480316 -6.3307037l15.370079 18.83464l-7.7480316 6.330719z" fill-rule="evenodd"/><path fill="#93c47d" d="m102.024605 243.19412l7.7480316 -6.3307037l11.401573 13.952759l-7.7480316 6.3307037z" fill-rule="evenodd"/><path fill="#8e7cc3" d="m120.72071 238.40842l7.748024 -6.3307037l6.299225 7.716522l-7.7480392 6.330719z" fill-rule="evenodd"/><path fill="#8e7cc3" d="m148.88715 217.5348l7.7480316 -6.3307037l5.5433044 6.8031464l-7.7480316 6.330719z" fill-rule="evenodd"/><path fill="#93c47d" d="m157.53778 200.44275l7.7480316 -6.3307037l10.48819 12.818893l-7.7480316 6.330719z" fill-rule="evenodd"/><path fill="#ffd966" d="m167.03058 184.38239l7.7480316 -6.3307037l14.551193 17.826767l-7.7480316 6.3307037z" fill-rule="evenodd"/><path fill="#e06666" d="m178.18289 170.35503l7.7480316 -6.330719l16.818893 20.629929l-7.7480316 6.3307037z" fill-rule="evenodd"/><path fill="#8e7cc3" d="m189.53554 156.5731l7.7480316 -6.330719l19.086609 23.40158l-7.7480316 6.3307037z" fill-rule="evenodd"/><path fill="#ffd966" d="m202.72516 144.67351l7.7480316 -6.3307037l19.622055 24.031494l-7.7480316 6.3307037z" fill-rule="evenodd"/><path fill="#93c47d" d="m-49.635635 411.94614l7.7480316 -6.330719l-11.401573 -13.952759l-7.7480316 6.330719z" fill-rule="evenodd"/><path fill="#93c47d" d="m-41.90363 393.72867l7.7480316 -6.3306885l-5.5433044 -6.8031616l-7.7480316 6.330719z" fill-rule="evenodd"/><path fill="#8e7cc3" d="m-16.086206 373.67908l7.7480326 -6.330719l-5.5433073 -6.803131l-7.7480316 6.3306885z" fill-rule="evenodd"/><path fill="#93c47d" d="m2.3919487 368.62637l7.7480316 -6.330719l-10.488189 -12.818878l-7.7480316 6.3306885z" fill-rule="evenodd"/><path fill="#ffd966" d="m20.027954 362.54196l7.7480316 -6.3306885l-14.551181 -17.826782l-7.748032 6.330719z" fill-rule="evenodd"/><path fill="#93c47d" d="m36.004456 354.42456l7.7480316 -6.3306885l-16.818897 -20.629944l-7.7480316 6.330719z" fill-rule="evenodd"/><path fill="#e06666" d="m51.780605 346.06174l7.7480316 -6.330719l-19.086613 -23.40158l-7.7480316 6.330719z" fill-rule="evenodd"/><path fill="#8e7cc3" d="m65.9001 335.66937l7.7480316 -6.330719l-19.622047 -24.031494l-7.7480316 6.330719z" fill-rule="evenodd"/><path fill="#ffd966" d="m78.62279 325.28403l7.7480316 -6.3306885l-19.622047 -24.031494l-7.7480316 6.3306885z" fill-rule="evenodd"/><path fill="#93c47d" d="m92.18719 314.21164l7.7480316 -6.3306885l-19.622047 -24.031494l-7.7480316 6.3306885z" fill-rule="evenodd"/><path fill="#e06666" d="m103.889534 300.85812l7.7480316 -6.3306885l-17.858269 -21.858276l-7.7480316 6.3306885z" fill-rule="evenodd"/><path fill="#ffd966" d="m115.060074 286.85312l7.7480316 -6.330719l-15.370079 -18.834656l-7.7480316 6.330719z" fill-rule="evenodd"/><path fill="#8e7cc3" d="m124.63811 270.89716l7.7480316 -6.3306885l-11.401573 -13.952774l-7.7480316 6.3307037z" fill-rule="evenodd"/><path fill="#93c47d" d="m133.07082 253.5381l7.7480316 -6.3307037l-6.299225 -7.7165375l-7.748024 6.3307037z" fill-rule="evenodd"/><path fill="#93c47d" d="m159.65663 230.72816l7.7480316 -6.330719l-5.5433044 -6.8031464l-7.7480316 6.330719z" fill-rule="evenodd"/><path fill="#8e7cc3" d="m178.1348 225.67545l7.7480316 -6.3307037l-10.48819 -12.818893l-7.7480316 6.3307037z" fill-rule="evenodd"/><path fill="#e06666" d="m195.7708 219.59105l7.7480316 -6.3307037l-14.551178 -17.826782l-7.7480316 6.330719z" fill-rule="evenodd"/><path fill="#ffd966" d="m211.7473 211.47365l7.7480316 -6.3307037l-16.818893 -20.629929l-7.7480316 6.330719z" fill-rule="evenodd"/><path fill="#93c47d" d="m227.52345 203.11081l7.7480316 -6.330719l-19.086624 -23.401566l-7.7480316 6.3307037z" fill-rule="evenodd"/><path fill="#e06666" d="m241.82326 192.57126l7.7480316 -6.3307037l-19.622055 -24.031494l-7.7480316 6.3307037z" fill-rule="evenodd"/><path fill="#000000" fill-opacity="0.0" d="m-139.49457 421.2636c44.228348 -36.102356 76.82283 -41.311035 109.41732 -46.519684c32.59449 -5.2086487 65.18898 -10.417328 109.41733 -46.519684" fill-rule="evenodd"/><path stroke="#4a86e8" stroke-width="8.0" stroke-linejoin="round" stroke-linecap="butt" d="m-139.49457 421.2636c44.228348 -36.102356 76.82283 -41.311035 109.41732 -46.519684c32.59449 -5.2086487 65.18898 -10.417328 109.41733 -46.519684" fill-rule="evenodd"/><path fill="#000000" fill-opacity="0.0" d="m213.71318 132.94632c-44.228348 36.10237 -55.862198 66.99606 -67.49606 97.88977c-11.63385 30.893707 -23.267708 61.787384 -67.496056 97.88977" fill-rule="evenodd"/><path stroke="#4a86e8" stroke-width="8.0" stroke-linejoin="round" stroke-linecap="butt" d="m213.71318 132.94632c-44.228348 36.10237 -55.862198 66.99606 -67.49606 97.88977c-11.63385 30.893707 -23.267708 61.787384 -67.496056 97.88977" fill-rule="evenodd"/><path fill="#000000" fill-opacity="0.0" d="m-97.5765 472.61603c44.228344 -36.102386 55.8622 -66.99606 67.49606 -97.88977c11.633858 -30.893707 23.267715 -61.787415 67.49606 -97.88977" fill-rule="evenodd"/><path stroke="#4a86e8" stroke-width="8.0" stroke-linejoin="round" stroke-linecap="butt" d="m-97.5765 472.61603c44.228344 -36.102386 55.8622 -66.99606 67.49606 -97.88977c11.633858 -30.893707 23.267715 -61.787415 67.49606 -97.88977" fill-rule="evenodd"/><path fill="#000000" fill-opacity="0.0" d="m255.63126 184.29872c-44.228348 36.10237 -76.822845 41.31102 -109.41733 46.519684c-32.59449 5.208664 -65.18897 10.417328 -109.41732 46.5197" fill-rule="evenodd"/><path stroke="#4a86e8" stroke-width="8.0" stroke-linejoin="round" stroke-linecap="butt" d="m255.63126 184.29872c-44.228348 36.10237 -76.822845 41.31102 -109.41733 46.519684c-32.59449 5.208664 -65.18897 10.417328 -109.41732 46.5197" fill-rule="evenodd"/><path fill="#8e7cc3" d="m602.3821 -98.76976l-7.748047 6.3307114l-20.818909 -25.51181l7.748047 -6.3307114z" fill-rule="evenodd"/><path fill="#ffd966" d="m587.61127 -89.17529l-7.748047 6.3307037l-19.62201 -24.031494l7.747986 -6.3307114z" fill-rule="evenodd"/><path fill="#93c47d" d="m572.28754 -80.25822l-7.748047 6.3307114l-17.858276 -21.858269l7.748047 -6.3307114z" fill-rule="evenodd"/><path fill="#e06666" d="m556.2418 -72.22556l-7.747986 6.3307037l-15.370117 -18.83464l7.748047 -6.3307114z" fill-rule="evenodd"/><path fill="#ffd966" d="m538.6889 -66.03943l-7.748047 6.3307114l-11.40155 -13.952759l7.747986 -6.3307037z" fill-rule="evenodd"/><path fill="#8e7cc3" d="m519.2921 -62.112114l-7.748047 6.3307114l-5.5433044 -6.80315l7.7480164 -6.3307076z" fill-rule="evenodd"/><path fill="#93c47d" d="m493.97665 -41.44756l-7.748047 6.3307076l-5.5433044 -6.80315l7.748047 -6.3307076z" fill-rule="evenodd"/><path fill="#8e7cc3" d="m485.326 -24.355505l-7.7480164 6.3307095l-10.48819 -12.818897l7.7480164 -6.3307076z" fill-rule="evenodd"/><path fill="#e06666" d="m475.8332 -8.295137l-7.7480164 6.3307085l-14.551178 -17.82677l7.7480164 -6.3307095z" fill-rule="evenodd"/><path fill="#93c47d" d="m464.6809 5.7322273l-7.748047 6.3307085l-16.818878 -20.629921l7.7480164 -6.3307085z" fill-rule="evenodd"/><path fill="#ffd966" d="m453.32825 19.514149l-7.748047 6.3307095l-19.086609 -23.401575l7.748047 -6.3307085z" fill-rule="evenodd"/><path fill="#93c47d" d="m440.31894 31.266558l-7.748047 6.3307095l-19.62204 -24.031498l7.748047 -6.3307085z" fill-rule="evenodd"/><path fill="#e06666" d="m427.59622 41.651855l-7.7480164 6.3307114l-19.62207 -24.031498l7.748047 -6.3307076z" fill-rule="evenodd"/><path fill="#8e7cc3" d="m414.03183 52.72424l-7.748047 6.3307114l-19.62204 -24.031498l7.748047 -6.3307095z" fill-rule="evenodd"/><path fill="#ffd966" d="m398.60538 61.515484l-7.748047 6.3307076l-17.858246 -21.858265l7.7480164 -6.3307114z" fill-rule="evenodd"/><path fill="#e06666" d="m382.6471 69.65523l-7.7480164 6.3307114l-15.370087 -18.834648l7.748047 -6.3307076z" fill-rule="evenodd"/><path fill="#93c47d" d="m365.09634 75.84405l-7.748047 6.3307114l-11.401581 -13.952759l7.748047 -6.3307114z" fill-rule="evenodd"/><path fill="#8e7cc3" d="m346.40024 80.62975l-7.748047 6.3307114l-6.2991943 -7.7165375l7.7480164 -6.3307037z" fill-rule="evenodd"/><path fill="#8e7cc3" d="m318.2338 101.50336l-7.7480164 6.3307114l-5.5433044 -6.8031464l7.7480164 -6.3307114z" fill-rule="evenodd"/><path fill="#93c47d" d="m309.58316 118.59541l-7.748047 6.3307114l-10.48819 -12.818901l7.748047 -6.3307037z" fill-rule="evenodd"/><path fill="#ffd966" d="m300.09036 134.65578l-7.748047 6.330719l-14.551178 -17.826775l7.748047 -6.3307114z" fill-rule="evenodd"/><path fill="#e06666" d="m288.93805 148.68315l-7.7480164 6.3307037l-16.818909 -20.629913l7.748047 -6.330719z" fill-rule="evenodd"/><path fill="#8e7cc3" d="m277.5854 162.46507l-7.7480164 6.3307037l-19.086609 -23.40158l7.7480164 -6.3307037z" fill-rule="evenodd"/><path fill="#ffd966" d="m264.45587 174.3156l-7.7480164 6.330719l-19.622055 -24.03151l7.7480316 -6.3307037z" fill-rule="evenodd"/><path fill="#93c47d" d="m561.5786 -148.75668l-7.748047 6.3307037l20.818909 25.51181l7.748047 -6.3307114z" fill-rule="evenodd"/><path fill="#e06666" d="m549.2206 -136.20639l-7.747986 6.330719l19.62201 24.031487l7.748047 -6.3307037z" fill-rule="evenodd"/><path fill="#8e7cc3" d="m537.4155 -122.9787l-7.747986 6.3307037l17.858215 21.858269l7.748047 -6.3307114z" fill-rule="evenodd"/><path fill="#ffd966" d="m526.3324 -108.866585l-7.747986 6.3307114l15.370056 18.83464l7.748047 -6.3307037z" fill-rule="evenodd"/><path fill="#93c47d" d="m516.7566 -92.90796l-7.748047 6.3307114l11.40155 13.952751l7.748047 -6.3307037z" fill-rule="evenodd"/><path fill="#93c47d" d="m509.02457 -74.690506l-7.7480164 6.3307114l5.5433044 6.8031464l7.7480164 -6.3307114z" fill-rule="evenodd"/><path fill="#8e7cc3" d="m483.20715 -54.64091l-7.748047 6.3307114l5.5433044 6.8031464l7.748047 -6.3307076z" fill-rule="evenodd"/><path fill="#93c47d" d="m464.729 -49.5882l-7.748047 6.3307076l10.48819 12.818899l7.748047 -6.3307095z" fill-rule="evenodd"/><path fill="#ffd966" d="m447.093 -43.5038l-7.7480164 6.3307076l14.551178 17.826773l7.7480164 -6.3307095z" fill-rule="evenodd"/><path fill="#93c47d" d="m431.1165 -35.3864l-7.7480164 6.3307076l16.818878 20.629921l7.748047 -6.3307095z" fill-rule="evenodd"/><path fill="#e06666" d="m415.34033 -27.023554l-7.7480164 6.3307076l19.086609 23.401575l7.7480164 -6.3307085z" fill-rule="evenodd"/><path fill="#8e7cc3" d="m401.22086 -16.631197l-7.748047 6.3307085l19.62204 24.031496l7.748047 -6.3307085z" fill-rule="evenodd"/><path fill="#ffd966" d="m388.49817 -6.245865l-7.748047 6.3307085l19.62204 24.031496l7.748047 -6.3307095z" fill-rule="evenodd"/><path fill="#93c47d" d="m374.93375 4.826518l-7.7480164 6.3307085l19.62204 24.031498l7.748047 -6.3307095z" fill-rule="evenodd"/><path fill="#e06666" d="m363.2314 18.18004l-7.748047 6.3307076l17.858276 21.858267l7.7480164 -6.3307076z" fill-rule="evenodd"/><path fill="#ffd966" d="m352.06085 32.185062l-7.7480164 6.3307076l15.370087 18.834644l7.7480164 -6.3307076z" fill-rule="evenodd"/><path fill="#8e7cc3" d="m342.48282 48.14101l-7.7480164 6.3307076l11.401581 13.952759l7.7480164 -6.3307114z" fill-rule="evenodd"/><path fill="#93c47d" d="m334.05014 65.50007l-7.748047 6.3307037l6.299225 7.7165375l7.7480164 -6.3307114z" fill-rule="evenodd"/><path fill="#93c47d" d="m307.4643 88.31001l-7.7480164 6.3307037l5.5433044 6.803154l7.7480164 -6.3307114z" fill-rule="evenodd"/><path fill="#8e7cc3" d="m288.98615 93.36272l-7.7480164 6.3307114l10.48819 12.818901l7.7480164 -6.3307114z" fill-rule="evenodd"/><path fill="#e06666" d="m271.35013 99.44712l-7.7480164 6.3307114l14.551178 17.826767l7.748047 -6.3307114z" fill-rule="evenodd"/><path fill="#ffd966" d="m255.37364 107.56452l-7.7480316 6.3307037l16.818909 20.629921l7.7480164 -6.3307037z" fill-rule="evenodd"/><path fill="#93c47d" d="m239.59749 115.92737l-7.7480316 6.3307037l19.086624 23.40158l7.7480316 -6.330719z" fill-rule="evenodd"/><path fill="#e06666" d="m225.35779 126.41785l-7.7480316 6.3307037l19.622055 24.031494l7.7480316 -6.3307037z" fill-rule="evenodd"/><path fill="#000000" fill-opacity="0.0" d="m606.61554 -102.22544c-44.228394 36.102364 -76.822876 41.31102 -109.41736 46.519684c-32.594482 5.20866 -65.188965 10.41732 -109.41733 46.519684" fill-rule="evenodd"/><path stroke="#4a86e8" stroke-width="8.0" stroke-linejoin="round" stroke-linecap="butt" d="m606.61554 -102.22544c-44.228394 36.102364 -76.822876 41.31102 -109.41736 46.519684c-32.594482 5.20866 -65.188965 10.41732 -109.41733 46.519684" fill-rule="evenodd"/><path fill="#000000" fill-opacity="0.0" d="m253.46786 186.04279c44.228333 -36.102356 55.862213 -66.99606 67.49606 -97.88976c11.63385 -30.8937 23.2677 -61.7874 67.49606 -97.88976" fill-rule="evenodd"/><path stroke="#4a86e8" stroke-width="8.0" stroke-linejoin="round" stroke-linecap="butt" d="m253.46786 186.04279c44.228333 -36.102356 55.862213 -66.99606 67.49606 -97.88976c11.63385 -30.8937 23.2677 -61.7874 67.49606 -97.88976" fill-rule="evenodd"/><path fill="#000000" fill-opacity="0.0" d="m564.69745 -153.57785c-44.228333 36.102364 -55.862213 66.99606 -67.49606 97.88977c-11.63385 30.893702 -23.26773 61.787403 -67.49606 97.88976" fill-rule="evenodd"/><path stroke="#4a86e8" stroke-width="8.0" stroke-linejoin="round" stroke-linecap="butt" d="m564.69745 -153.57785c-44.228333 36.102364 -55.862213 66.99606 -67.49606 97.88977c-11.63385 30.893702 -23.26773 61.787403 -67.49606 97.88976" fill-rule="evenodd"/><path fill="#000000" fill-opacity="0.0" d="m211.54979 134.69038c44.228348 -36.102364 76.82283 -41.311028 109.41731 -46.519684c32.594513 -5.208664 65.188995 -10.417328 109.41733 -46.519688" fill-rule="evenodd"/><path stroke="#4a86e8" stroke-width="8.0" stroke-linejoin="round" stroke-linecap="butt" d="m211.54979 134.69038c44.228348 -36.102364 76.82283 -41.311028 109.41731 -46.519684c32.594513 -5.208664 65.188995 -10.417328 109.41733 -46.519688" fill-rule="evenodd"/><path fill="#8e7cc3" d="m-18.719687 83.257545l8.566928 5.1338577l-16.97638 28.220474l-8.566927 -5.1338577z" fill-rule="evenodd"/><path fill="#ffd966" d="m-4.6949124 93.91287l8.566929 5.1338577l-16.0 26.58268l-8.566929 -5.1338577z" fill-rule="evenodd"/><path fill="#93c47d" d="m8.879412 105.31765l8.566929 5.1338577l-14.55118 24.18898l-8.566929 -5.1338654z" fill-rule="evenodd"/><path fill="#e06666" d="m21.8656 117.70096l8.566929 5.1338577l-12.535433 20.850395l-8.56693 -5.1338654z" fill-rule="evenodd"/><path fill="#ffd966" d="m33.623882 132.12723l8.566929 5.1338654l-9.29134 15.464569l-8.566929 -5.1338654z" fill-rule="evenodd"/><path fill="#8e7cc3" d="m43.88007 149.05266l8.566929 5.1338654l-4.5354347 7.496063l-8.566929 -5.1338654z" fill-rule="evenodd"/><path fill="#93c47d" d="m71.88893 165.88713l8.566925 5.13385l-4.535431 7.496063l-8.566933 -5.13385z" fill-rule="evenodd"/><path fill="#8e7cc3" d="m90.89951 168.24716l8.566933 5.1338654l-8.503944 14.204712l-8.566925 -5.13385z" fill-rule="evenodd"/><path fill="#e06666" d="m109.22404 171.74866l8.566933 5.13385l-11.842522 19.716537l-8.566933 -5.1338654z" fill-rule="evenodd"/><path fill="#93c47d" d="m126.19664 177.49944l8.566925 5.1338654l-13.732277 22.803146l-8.566933 -5.13385z" fill-rule="evenodd"/><path fill="#ffd966" d="m143.00603 183.52179l8.566925 5.13385l-15.5590515 25.858276l-8.566933 -5.1338654z" fill-rule="evenodd"/><path fill="#93c47d" d="m158.4658 191.78958l8.566925 5.13385l-16.0 26.582672l-8.566925 -5.13385z" fill-rule="evenodd"/><path fill="#e06666" d="m172.54211 200.25003l8.566925 5.1338654l-16.0 26.582672l-8.566925 -5.13385z" fill-rule="evenodd"/><path fill="#8e7cc3" d="m187.5497 209.2702l8.566925 5.13385l-16.0 26.582687l-8.566925 -5.1338654z" fill-rule="evenodd"/><path fill="#ffd966" d="m201.04033 220.81421l8.56694 5.13385l-14.551193 24.18898l-8.566925 -5.1338654z" fill-rule="evenodd"/><path fill="#e06666" d="m214.09775 233.07903l8.566925 5.13385l-12.535431 20.850388l-8.56694 -5.13385z" fill-rule="evenodd"/><path fill="#93c47d" d="m225.8578 247.50233l8.566925 5.13385l-9.291336 15.464584l-8.566925 -5.1338806z" fill-rule="evenodd"/><path fill="#8e7cc3" d="m236.68481 263.47803l8.566925 5.1338806l-5.165344 8.535431l-8.56694 -5.1338806z" fill-rule="evenodd"/><path fill="#8e7cc3" d="m265.85464 282.92477l8.566925 5.13385l-4.535431 7.496063l-8.566925 -5.13385z" fill-rule="evenodd"/><path fill="#93c47d" d="m284.86523 285.2848l8.566925 5.1338806l-8.503937 14.204712l-8.566925 -5.13385z" fill-rule="evenodd"/><path fill="#ffd966" d="m303.18976 288.7863l8.566925 5.13385l-11.842499 19.716553l-8.566925 -5.13385z" fill-rule="evenodd"/><path fill="#e06666" d="m320.16235 294.53708l8.566956 5.13385l-13.7323 22.803162l-8.566925 -5.13385z" fill-rule="evenodd"/><path fill="#8e7cc3" d="m336.97174 300.55942l8.566925 5.1338806l-15.5590515 25.858246l-8.566925 -5.13385z" fill-rule="evenodd"/><path fill="#ffd966" d="m352.63104 308.9471l8.566925 5.1338806l-16.0 26.582672l-8.566925 -5.1338806z" fill-rule="evenodd"/><path fill="#93c47d" d="m-51.9604 138.56279l8.566933 5.1338654l16.976376 -28.220474l-8.566929 -5.1338577z" fill-rule="evenodd"/><path fill="#e06666" d="m-35.970024 145.9478l8.566929 5.13385l16.0 -26.582672l-8.56693 -5.1338577z" fill-rule="evenodd"/><path fill="#8e7cc3" d="m-19.5292 152.58334l8.566929 5.1338654l14.551182 -24.18898l-8.566929 -5.13385z" fill-rule="evenodd"/><path fill="#ffd966" d="m-2.5002387 158.24037l8.566929 5.13385l12.535433 -20.850388l-8.566929 -5.1338654z" fill-rule="evenodd"/><path fill="#93c47d" d="m15.756628 161.85442l8.566929 5.1338654l9.291338 -15.464569l-8.566929 -5.13385z" fill-rule="evenodd"/><path fill="#93c47d" d="m35.515587 162.96933l8.566929 5.13385l4.5354347 -7.496063l-8.566929 -5.13385z" fill-rule="evenodd"/><path fill="#8e7cc3" d="m63.11551 180.48418l8.566933 5.13385l4.535431 -7.496063l-8.566933 -5.13385z" fill-rule="evenodd"/><path fill="#93c47d" d="m74.12007 196.16447l8.566933 5.13385l8.503937 -14.204727l-8.566933 -5.13385z" fill-rule="evenodd"/><path fill="#ffd966" d="m85.8107 210.70331l8.566925 5.1338654l11.842522 -19.716537l-8.566925 -5.1338654z" fill-rule="evenodd"/><path fill="#93c47d" d="m98.85325 222.99284l8.566925 5.1338654l13.732285 -22.803146l-8.566933 -5.1338654z" fill-rule="evenodd"/><path fill="#e06666" d="m112.059006 235.01083l8.566933 5.13385l15.559059 -25.858261l-8.566933 -5.1338654z" fill-rule="evenodd"/><path fill="#8e7cc3" d="m126.61437 244.78337l8.566933 5.13385l16.0 -26.582672l-8.566925 -5.13385z" fill-rule="evenodd"/><path fill="#ffd966" d="m140.6907 253.24379l8.566925 5.1338654l16.0 -26.582672l-8.566925 -5.1338654z" fill-rule="evenodd"/><path fill="#93c47d" d="m155.69827 262.26395l8.56694 5.1338806l16.0 -26.582687l-8.56694 -5.1338654z" fill-rule="evenodd"/><path fill="#e06666" d="m172.22278 268.76028l8.56694 5.13385l14.551178 -24.188965l-8.566925 -5.1338654z" fill-rule="evenodd"/><path fill="#ffd966" d="m189.18053 274.5358l8.566925 5.13385l12.535446 -20.850403l-8.56694 -5.13385z" fill-rule="evenodd"/><path fill="#8e7cc3" d="m207.43561 278.1528l8.56694 5.1338806l9.291336 -15.464569l-8.566925 -5.1338806z" fill-rule="evenodd"/><path fill="#93c47d" d="m226.62375 280.21744l8.566925 5.13385l5.1653595 -8.535431l-8.566925 -5.13385z" fill-rule="evenodd"/><path fill="#93c47d" d="m257.08124 297.52182l8.566925 5.13385l4.535431 -7.496063l-8.566925 -5.13385z" fill-rule="evenodd"/><path fill="#8e7cc3" d="m268.08582 313.20212l8.566925 5.13385l8.503937 -14.204712l-8.566925 -5.1338806z" fill-rule="evenodd"/><path fill="#e06666" d="m279.77643 327.74094l8.566925 5.1338806l11.842529 -19.716553l-8.566925 -5.13385z" fill-rule="evenodd"/><path fill="#ffd966" d="m292.81897 340.0305l8.566925 5.13385l13.7323 -22.803131l-8.566925 -5.1338806z" fill-rule="evenodd"/><path fill="#93c47d" d="m306.02475 352.04846l8.566925 5.1338806l15.5590515 -25.858276l-8.566925 -5.13385z" fill-rule="evenodd"/><path fill="#e06666" d="m320.7796 361.94092l8.566925 5.13385l16.0 -26.582672l-8.566925 -5.13385z" fill-rule="evenodd"/><path fill="#000000" fill-opacity="0.0" d="m-23.403543 80.44236c48.92913 29.409447 64.850395 58.3189 80.77165 87.22834c15.921257 28.909454 31.842522 57.81891 80.77166 87.22835" fill-rule="evenodd"/><path stroke="#4a86e8" stroke-width="8.0" stroke-linejoin="round" stroke-linecap="butt" d="m-23.403543 80.44236c48.92913 29.409447 64.850395 58.3189 80.77165 87.22834c15.921257 28.909454 31.842522 57.81891 80.77166 87.22835" fill-rule="evenodd"/><path fill="#000000" fill-opacity="0.0" d="m367.38345 315.3213c-48.92914 -29.409454 -81.93701 -29.909454 -114.944885 -30.409454c-33.007874 -0.5 -66.01575 -1.0 -114.944885 -30.409454" fill-rule="evenodd"/><path stroke="#4a86e8" stroke-width="8.0" stroke-linejoin="round" stroke-linecap="butt" d="m367.38345 315.3213c-48.92914 -29.409454 -81.93701 -29.909454 -114.944885 -30.409454c-33.007874 -0.5 -66.01575 -1.0 -114.944885 -30.409454" fill-rule="evenodd"/><path fill="#000000" fill-opacity="0.0" d="m-57.552277 137.25836c48.929134 29.40944 81.93701 29.90944 114.944885 30.40944c33.007877 0.5 66.01575 1.0 114.944885 30.409454" fill-rule="evenodd"/><path stroke="#4a86e8" stroke-width="8.0" stroke-linejoin="round" stroke-linecap="butt" d="m-57.552277 137.25836c48.929134 29.40944 81.93701 29.90944 114.944885 30.40944c33.007877 0.5 66.01575 1.0 114.944885 30.409454" fill-rule="evenodd"/><path fill="#000000" fill-opacity="0.0" d="m333.2347 372.13727c-48.92914 -29.409454 -64.8504 -58.31888 -80.77165 -87.22833c-15.921265 -28.909454 -31.842514 -57.81891 -80.77165 -87.22835" fill-rule="evenodd"/><path stroke="#4a86e8" stroke-width="8.0" stroke-linejoin="round" stroke-linecap="butt" d="m333.2347 372.13727c-48.92914 -29.409454 -64.8504 -58.31888 -80.77165 -87.22833c-15.921265 -28.909454 -31.842514 -57.81891 -80.77165 -87.22835" fill-rule="evenodd"/><path fill="#8e7cc3" d="m716.8984 602.715l-8.566956 -5.13385l16.97638 -28.22052l8.566956 5.13385z" fill-rule="evenodd"/><path fill="#ffd966" d="m702.8736 592.0597l-8.566956 -5.13385l16.0 -26.582703l8.566956 5.13385z" fill-rule="evenodd"/><path fill="#93c47d" d="m689.29926 580.6549l-8.566895 -5.13385l14.551147 -24.188965l8.566956 5.13385z" fill-rule="evenodd"/><path fill="#e06666" d="m676.3131 568.2716l-8.566956 -5.13385l12.535461 -20.850403l8.566895 5.13385z" fill-rule="evenodd"/><path fill="#ffd966" d="m664.5548 553.84534l-8.566956 -5.13385l9.291382 -15.4646l8.566895 5.13385z" fill-rule="evenodd"/><path fill="#8e7cc3" d="m654.29865 536.9199l-8.566956 -5.133911l4.5354004 -7.4960327l8.566956 5.13385z" fill-rule="evenodd"/><path fill="#93c47d" d="m626.28973 520.08545l-8.566895 -5.133911l4.5354004 -7.4960327l8.566956 5.13385z" fill-rule="evenodd"/><path fill="#8e7cc3" d="m607.2792 517.7254l-8.566956 -5.13385l8.503967 -14.204742l8.566895 5.13385z" fill-rule="evenodd"/><path fill="#e06666" d="m588.95465 514.2239l-8.566956 -5.1338196l11.842529 -19.716553l8.566956 5.13385z" fill-rule="evenodd"/><path fill="#93c47d" d="m571.98206 508.4731l-8.566956 -5.13385l13.7323 -22.803162l8.566956 5.13385z" fill-rule="evenodd"/><path fill="#ffd966" d="m555.17267 502.45078l-8.566956 -5.1338806l15.559082 -25.858246l8.566895 5.13385z" fill-rule="evenodd"/><path fill="#93c47d" d="m539.7129 494.18298l-8.566956 -5.13385l16.0 -26.582703l8.566956 5.1338806z" fill-rule="evenodd"/><path fill="#e06666" d="m525.6366 485.7225l-8.566956 -5.13385l16.0 -26.582672l8.566956 5.13385z" fill-rule="evenodd"/><path fill="#8e7cc3" d="m510.629 476.70236l-8.566925 -5.1338806l16.0 -26.582672l8.566895 5.1338806z" fill-rule="evenodd"/><path fill="#ffd966" d="m497.13834 465.15836l-8.566925 -5.13385l14.551178 -24.188995l8.566956 5.13385z" fill-rule="evenodd"/><path fill="#e06666" d="m484.08093 452.89352l-8.566925 -5.13385l12.535431 -20.850403l8.566925 5.1338806z" fill-rule="evenodd"/><path fill="#93c47d" d="m472.3209 438.4702l-8.566925 -5.13385l9.291321 -15.464569l8.566925 5.13385z" fill-rule="evenodd"/><path fill="#8e7cc3" d="m461.49387 422.4945l-8.566925 -5.13385l5.165344 -8.535431l8.566925 5.13385z" fill-rule="evenodd"/><path fill="#8e7cc3" d="m432.32404 403.0478l-8.566925 -5.1338806l4.535431 -7.496063l8.566925 5.1338806z" fill-rule="evenodd"/><path fill="#93c47d" d="m413.31345 400.68774l-8.566925 -5.13385l8.503937 -14.204742l8.566925 5.1338806z" fill-rule="evenodd"/><path fill="#ffd966" d="m394.98892 397.18625l-8.566925 -5.13385l11.842499 -19.716522l8.566956 5.13385z" fill-rule="evenodd"/><path fill="#e06666" d="m378.01633 391.4355l-8.566925 -5.1338806l13.732269 -22.803131l8.566925 5.13385z" fill-rule="evenodd"/><path fill="#8e7cc3" d="m361.20694 385.41312l-8.566925 -5.13385l15.5590515 -25.858276l8.566925 5.1338806z" fill-rule="evenodd"/><path fill="#ffd966" d="m345.61417 377.0654l-8.566956 -5.13385l16.0 -26.582672l8.566956 5.13385z" fill-rule="evenodd"/><path fill="#93c47d" d="m750.1391 547.4097l-8.566956 -5.13385l-16.97638 28.22052l8.566956 5.13385z" fill-rule="evenodd"/><path fill="#e06666" d="m734.1487 540.0248l-8.566895 -5.133911l-16.0 26.582703l8.566895 5.13385z" fill-rule="evenodd"/><path fill="#8e7cc3" d="m717.7079 533.3892l-8.566956 -5.13385l-14.551147 24.188965l8.566895 5.13385z" fill-rule="evenodd"/><path fill="#ffd966" d="m700.6789 527.7322l-8.566895 -5.13385l-12.535461 20.850403l8.566956 5.13385z" fill-rule="evenodd"/><path fill="#93c47d" d="m682.42206 524.1181l-8.566956 -5.13385l-9.291321 15.4646l8.566956 5.13385z" fill-rule="evenodd"/><path fill="#93c47d" d="m662.6631 523.00323l-8.566895 -5.13385l-4.5354614 7.4960327l8.566956 5.13385z" fill-rule="evenodd"/><path fill="#8e7cc3" d="m635.0632 505.48837l-8.566895 -5.13385l-4.5354614 7.496063l8.566956 5.13385z" fill-rule="evenodd"/><path fill="#93c47d" d="m624.0586 489.80807l-8.566895 -5.13385l-8.503967 14.204712l8.566956 5.1338806z" fill-rule="evenodd"/><path fill="#ffd966" d="m612.368 475.26926l-8.566895 -5.1338806l-11.842529 19.716553l8.566895 5.13385z" fill-rule="evenodd"/><path fill="#93c47d" d="m599.32544 462.9797l-8.566956 -5.13385l-13.732239 22.803131l8.566895 5.1338806z" fill-rule="evenodd"/><path fill="#e06666" d="m586.1197 450.96173l-8.566956 -5.13385l-15.559021 25.858246l8.566895 5.13385z" fill-rule="evenodd"/><path fill="#8e7cc3" d="m571.56433 441.18918l-8.566956 -5.13385l-16.0 26.582672l8.566956 5.13385z" fill-rule="evenodd"/><path fill="#ffd966" d="m557.488 432.72876l-8.566956 -5.13385l-16.0 26.582672l8.566956 5.13385z" fill-rule="evenodd"/><path fill="#93c47d" d="m542.4804 423.7086l-8.566956 -5.13385l-16.0 26.582672l8.566956 5.13385z" fill-rule="evenodd"/><path fill="#e06666" d="m525.9559 417.21228l-8.566895 -5.1338806l-14.551178 24.188995l8.566925 5.13385z" fill-rule="evenodd"/><path fill="#ffd966" d="m508.99817 411.43677l-8.566956 -5.1338806l-12.535431 20.850403l8.566956 5.13385z" fill-rule="evenodd"/><path fill="#8e7cc3" d="m490.74307 407.81973l-8.566925 -5.13385l-9.291351 15.464569l8.566925 5.13385z" fill-rule="evenodd"/><path fill="#93c47d" d="m471.55493 405.75513l-8.566925 -5.1338806l-5.165344 8.535431l8.566925 5.1338806z" fill-rule="evenodd"/><path fill="#93c47d" d="m441.09744 388.45074l-8.566925 -5.1338806l-4.535431 7.496063l8.566925 5.1338806z" fill-rule="evenodd"/><path fill="#8e7cc3" d="m430.0929 372.77045l-8.566925 -5.13385l-8.503967 14.204712l8.566956 5.13385z" fill-rule="evenodd"/><path fill="#e06666" d="m418.40225 358.2316l-8.566925 -5.13385l-11.842529 19.716522l8.566956 5.1338806z" fill-rule="evenodd"/><path fill="#ffd966" d="m405.3597 345.94208l-8.566925 -5.1338806l-13.7323 22.803162l8.566956 5.13385z" fill-rule="evenodd"/><path fill="#93c47d" d="m392.15396 333.92407l-8.566956 -5.13385l-15.5590515 25.858276l8.566925 5.13385z" fill-rule="evenodd"/><path fill="#e06666" d="m377.46558 324.0716l-8.566925 -5.13385l-16.0 26.582672l8.566925 5.13385z" fill-rule="evenodd"/><path fill="#000000" fill-opacity="0.0" d="m721.5822 605.5302c-48.92914 -29.409485 -64.8504 -58.31891 -80.77167 -87.22833c-15.921204 -28.909485 -31.842468 -57.81894 -80.77161 -87.22836" fill-rule="evenodd"/><path stroke="#4a86e8" stroke-width="8.0" stroke-linejoin="round" stroke-linecap="butt" d="m721.5822 605.5302c-48.92914 -29.409485 -64.8504 -58.31891 -80.77167 -87.22833c-15.921204 -28.909485 -31.842468 -57.81894 -80.77161 -87.22836" fill-rule="evenodd"/><path fill="#000000" fill-opacity="0.0" d="m330.86172 370.69125c48.92914 29.409454 81.93701 29.909454 114.944885 30.409454c33.007874 0.5 66.01575 1.0 114.944916 30.409424" fill-rule="evenodd"/><path stroke="#4a86e8" stroke-width="8.0" stroke-linejoin="round" stroke-linecap="butt" d="m330.86172 370.69125c48.92914 29.409454 81.93701 29.909454 114.944885 30.409454c33.007874 0.5 66.01575 1.0 114.944916 30.409424" fill-rule="evenodd"/><path fill="#000000" fill-opacity="0.0" d="m755.73096 548.7142c-48.92914 -29.409424 -81.93701 -29.909424 -114.944885 -30.409424c-33.007874 -0.5 -66.01575 -1.0 -114.944885 -30.409454" fill-rule="evenodd"/><path stroke="#4a86e8" stroke-width="8.0" stroke-linejoin="round" stroke-linecap="butt" d="m755.73096 548.7142c-48.92914 -29.409424 -81.93701 -29.909424 -114.944885 -30.409424c-33.007874 -0.5 -66.01575 -1.0 -114.944885 -30.409454" fill-rule="evenodd"/><path fill="#000000" fill-opacity="0.0" d="m365.01047 313.87524c48.92914 29.409454 64.8504 58.31891 80.77167 87.22836c15.921234 28.909424 31.842499 57.81888 80.77164 87.22833" fill-rule="evenodd"/><path stroke="#4a86e8" stroke-width="8.0" stroke-linejoin="round" stroke-linecap="butt" d="m365.01047 313.87524c48.92914 29.409454 64.8504 58.31891 80.77167 87.22836c15.921234 28.909424 31.842499 57.81888 80.77164 87.22833" fill-rule="evenodd"/><path fill="#8e7cc3" d="m133.73814 351.21225l9.795273 -2.0472412l6.708664 32.251953l-9.795273 2.0472412z" fill-rule="evenodd"/><path fill="#ffd966" d="m151.2694 349.51355l9.795273 -2.0472717l6.330719 30.362213l-9.795288 2.0472412z" fill-rule="evenodd"/><path fill="#93c47d" d="m168.97874 348.6709l9.795288 -2.0472412l5.7637787 27.62204l-9.795288 2.0472717z" fill-rule="evenodd"/><path fill="#e06666" d="m186.92065 348.946l9.795273 -2.0472412l4.9763794 23.779541l-9.795288 2.0472412z" fill-rule="evenodd"/><path fill="#ffd966" d="m205.34805 351.55475l9.795273 -2.0472412l3.6850433 17.637787l-9.795273 2.0472412z" fill-rule="evenodd"/><path fill="#8e7cc3" d="m224.36937 357.0182l9.795273 -2.0472412l1.7952728 8.598419l-9.795273 2.0472412z" fill-rule="evenodd"/><path fill="#93c47d" d="m256.36298 350.36197l9.795258 -2.0472412l1.7952881 8.598419l-9.795288 2.0472412z" fill-rule="evenodd"/><path fill="#8e7cc3" d="m271.92288 339.18784l9.795258 -2.0472412l3.4015808 16.220459l-9.795288 2.0472412z" fill-rule="evenodd"/><path fill="#e06666" d="m287.75403 329.31754l9.795288 -2.0472412l4.6929016 22.519684l-9.795258 2.0472412z" fill-rule="evenodd"/><path fill="#93c47d" d="m304.11975 322.01654l9.795258 -2.0472412l5.417328 26.047241l-9.795288 2.0472412z" fill-rule="evenodd"/><path fill="#ffd966" d="m320.55 315.02573l9.795258 -2.0472412l6.141754 29.574799l-9.795288 2.0472412z" fill-rule="evenodd"/><path fill="#93c47d" d="m337.51382 310.59982l9.795288 -2.0472412l6.330719 30.362213l-9.795288 2.0472412z" fill-rule="evenodd"/><path fill="#e06666" d="m353.59277 307.25467l9.795258 -2.0472412l6.330719 30.362183l-9.795288 2.0472412z" fill-rule="evenodd"/><path fill="#8e7cc3" d="m370.7354 303.68817l9.795288 -2.0472412l6.3306885 30.362183l-9.795258 2.0472717z" fill-rule="evenodd"/><path fill="#ffd966" d="m388.47787 303.00458l9.795258 -2.0472412l5.763794 27.62204l-9.795288 2.0472412z" fill-rule="evenodd"/><path fill="#e06666" d="m406.3916 303.14435l9.795288 -2.0472717l4.976349 23.779541l-9.795258 2.0472412z" fill-rule="evenodd"/><path fill="#93c47d" d="m424.8183 305.74966l9.795288 -2.0472412l3.685028 17.637817l-9.795288 2.0472412z" fill-rule="evenodd"/><path fill="#8e7cc3" d="m443.61392 310.12827l9.795258 -2.0472412l2.0472412 9.763763l-9.795258 2.0472717z" fill-rule="evenodd"/><path fill="#8e7cc3" d="m478.23346 304.60178l9.795288 -2.0472412l1.7952576 8.598419l-9.795258 2.0472412z" fill-rule="evenodd"/><path fill="#93c47d" d="m493.79337 293.4276l9.795288 -2.0472412l3.4015503 16.22049l-9.795258 2.0472412z" fill-rule="evenodd"/><path fill="#ffd966" d="m509.62454 283.5573l9.795258 -2.0472412l4.692932 22.519684l-9.795288 2.0472717z" fill-rule="evenodd"/><path fill="#e06666" d="m525.99023 276.25635l9.795288 -2.0472717l5.4172974 26.047272l-9.795288 2.0472412z" fill-rule="evenodd"/><path fill="#8e7cc3" d="m542.4205 269.26553l9.795288 -2.0472412l6.1417236 29.574799l-9.795288 2.0472412z" fill-rule="evenodd"/><path fill="#ffd966" d="m559.6122 264.7922l9.795288 -2.0472412l6.3307495 30.362213l-9.795288 2.0472412z" fill-rule="evenodd"/><path fill="#93c47d" d="m146.88124 414.38562l9.795273 -2.0472412l-6.708664 -32.251984l-9.795273 2.0472412z" fill-rule="evenodd"/><path fill="#e06666" d="m163.6353 408.95132l9.795288 -2.0472412l-6.330719 -30.362213l-9.795273 2.0472412z" fill-rule="evenodd"/><path fill="#8e7cc3" d="m180.21127 402.66095l9.795273 -2.0472412l-5.7637787 -27.62204l-9.795273 2.0472412z" fill-rule="evenodd"/><path fill="#ffd966" d="m196.55469 395.25287l9.795273 -2.0472412l-4.9763794 -23.779541l-9.795273 2.0472412z" fill-rule="evenodd"/><path fill="#93c47d" d="m212.41261 385.51114l9.795273 -2.0472412l-3.6850433 -17.637787l-9.795273 2.0472412z" fill-rule="evenodd"/><path fill="#93c47d" d="m227.6766 372.91473l9.795273 -2.0472412l-1.7952728 -8.59845l-9.795273 2.0472412z" fill-rule="evenodd"/><path fill="#8e7cc3" d="m259.8319 367.0357l9.795258 -2.0472412l-1.7952576 -8.598419l-9.795288 2.0472412z" fill-rule="evenodd"/><path fill="#93c47d" d="m278.5573 371.07684l9.795288 -2.0472412l-3.4015808 -16.220459l-9.795288 2.0472412z" fill-rule="evenodd"/><path fill="#ffd966" d="m297.01147 373.81415l9.795258 -2.0472412l-4.6929016 -22.519684l-9.795288 2.0472412z" fill-rule="evenodd"/><path fill="#93c47d" d="m314.9311 373.98218l9.795258 -2.0472717l-5.417328 -26.047241l-9.795258 2.0472412z" fill-rule="evenodd"/><path fill="#e06666" d="m332.78616 373.83997l9.795288 -2.0472412l-6.141754 -29.574799l-9.795258 2.0472412z" fill-rule="evenodd"/><path fill="#8e7cc3" d="m350.1076 371.1329l9.795288 -2.0472412l-6.330719 -30.362213l-9.795258 2.0472412z" fill-rule="evenodd"/><path fill="#ffd966" d="m366.18652 367.7877l9.795288 -2.0472412l-6.330719 -30.362213l-9.795258 2.0472412z" fill-rule="evenodd"/><path fill="#93c47d" d="m383.3292 364.2212l9.795288 -2.0472412l-6.330719 -30.362213l-9.795288 2.0472412z" fill-rule="evenodd"/><path fill="#e06666" d="m399.87207 357.7718l9.795288 -2.0472412l-5.763794 -27.62204l-9.795288 2.0472412z" fill-rule="evenodd"/><path fill="#ffd966" d="m416.24365 350.49905l9.795288 -2.0472412l-4.9763794 -23.779541l-9.795288 2.0472412z" fill-rule="evenodd"/><path fill="#8e7cc3" d="m432.10226 340.7607l9.795288 -2.0472412l-3.6850586 -17.637787l-9.795258 2.0472412z" fill-rule="evenodd"/><path fill="#93c47d" d="m447.59198 329.24915l9.795258 -2.0472412l-2.0472412 -9.763794l-9.795258 2.0472412z" fill-rule="evenodd"/><path fill="#93c47d" d="m481.7024 321.27548l9.795288 -2.0472412l-1.7952881 -8.598419l-9.795288 2.0472412z" fill-rule="evenodd"/><path fill="#8e7cc3" d="m500.4278 325.31665l9.795288 -2.0472412l-3.4015808 -16.22049l-9.795258 2.0472412z" fill-rule="evenodd"/><path fill="#e06666" d="m518.88196 328.05396l9.795288 -2.0472412l-4.692932 -22.519684l-9.795288 2.0472412z" fill-rule="evenodd"/><path fill="#ffd966" d="m536.8016 328.22195l9.795288 -2.0472412l-5.4173584 -26.047241l-9.795227 2.0472412z" fill-rule="evenodd"/><path fill="#93c47d" d="m554.6567 328.07977l9.795227 -2.0472412l-6.1417236 -29.574799l-9.795227 2.0472412z" fill-rule="evenodd"/><path fill="#e06666" d="m572.206 325.3253l9.795288 -2.0472412l-6.3307495 -30.362213l-9.795227 2.0472412z" fill-rule="evenodd"/><path fill="#000000" fill-opacity="0.0" d="m128.38792 352.32535c55.897644 -11.62204 87.22441 -1.2047424 118.55119 9.212585c31.326752 10.417328 62.653534 20.834656 118.55118 9.212616" fill-rule="evenodd"/><path stroke="#4a86e8" stroke-width="8.0" stroke-linejoin="round" stroke-linecap="butt" d="m128.38792 352.32535c55.897644 -11.62204 87.22441 -1.2047424 118.55119 9.212585c31.326752 10.417328 62.653534 20.834656 118.55118 9.212616" fill-rule="evenodd"/><path fill="#000000" fill-opacity="0.0" d="m574.77106 259.45624c-55.897644 11.62204 -80.468475 33.661438 -105.03937 55.700806c-24.570862 22.039368 -49.141724 44.078735 -105.03937 55.700775" fill-rule="evenodd"/><path stroke="#4a86e8" stroke-width="8.0" stroke-linejoin="round" stroke-linecap="butt" d="m574.77106 259.45624c-55.897644 11.62204 -80.468475 33.661438 -105.03937 55.700806c-24.570862 22.039368 -49.141724 44.078735 -105.03937 55.700775" fill-rule="evenodd"/><path fill="#000000" fill-opacity="0.0" d="m141.89005 417.2244c55.897644 -11.62204 80.468506 -33.661438 105.03937 -55.700806c24.570862 -22.039368 49.141724 -44.078735 105.03937 -55.700775" fill-rule="evenodd"/><path stroke="#4a86e8" stroke-width="8.0" stroke-linejoin="round" stroke-linecap="butt" d="m141.89005 417.2244c55.897644 -11.62204 80.468506 -33.661438 105.03937 -55.700806c24.570862 -22.039368 49.141724 -44.078735 105.03937 -55.700775" fill-rule="evenodd"/><path fill="#000000" fill-opacity="0.0" d="m588.2732 324.3553c-55.897644 11.62207 -87.22443 1.2047424 -118.55118 -9.212585c-31.326782 -10.417328 -62.653564 -20.834656 -118.55118 -9.212616" fill-rule="evenodd"/><path stroke="#4a86e8" stroke-width="8.0" stroke-linejoin="round" stroke-linecap="butt" d="m588.2732 324.3553c-55.897644 11.62207 -87.22443 1.2047424 -118.55118 -9.212585c-31.326782 -10.417328 -62.653564 -20.834656 -118.55118 -9.212616" fill-rule="evenodd"/><path fill="#8e7cc3" d="m1026.5061 233.16452l-9.795227 2.0472412l-6.708679 -32.25197l9.795288 -2.0472412z" fill-rule="evenodd"/><path fill="#ffd966" d="m1008.9749 234.86322l-9.795288 2.0472412l-6.3306885 -30.362213l9.795288 -2.0472412z" fill-rule="evenodd"/><path fill="#93c47d" d="m991.26556 235.70584l-9.795288 2.0472565l-5.763794 -27.622055l9.795288 -2.0472412z" fill-rule="evenodd"/><path fill="#e06666" d="m973.32367 235.43073l-9.795288 2.0472565l-4.9763794 -23.779526l9.795288 -2.0472565z" fill-rule="evenodd"/><path fill="#ffd966" d="m954.89624 232.822l-9.795288 2.0472412l-3.6849976 -17.637787l9.795288 -2.0472565z" fill-rule="evenodd"/><path fill="#8e7cc3" d="m935.87494 227.35858l-9.795288 2.0472412l-1.7952881 -8.598434l9.795288 -2.0472412z" fill-rule="evenodd"/><path fill="#93c47d" d="m903.88135 234.01479l-9.795288 2.0472412l-1.7952881 -8.598434l9.795288 -2.0472412z" fill-rule="evenodd"/><path fill="#8e7cc3" d="m888.3214 245.18892l-9.795227 2.0472412l-3.4016113 -16.220459l9.795288 -2.0472565z" fill-rule="evenodd"/><path fill="#e06666" d="m872.4903 255.05922l-9.795288 2.0472565l-4.692932 -22.5197l9.795288 -2.0472412z" fill-rule="evenodd"/><path fill="#93c47d" d="m856.1246 262.36023l-9.795288 2.0472412l-5.4172974 -26.047256l9.795227 -2.0472412z" fill-rule="evenodd"/><path fill="#ffd966" d="m839.69434 269.351l-9.795288 2.0472412l-6.1417236 -29.574799l9.795288 -2.0472412z" fill-rule="evenodd"/><path fill="#93c47d" d="m822.73047 273.77692l-9.795288 2.0472412l-6.3306885 -30.362198l9.795288 -2.0472412z" fill-rule="evenodd"/><path fill="#e06666" d="m806.65155 277.1221l-9.795288 2.0472412l-6.3306885 -30.362213l9.795288 -2.0472412z" fill-rule="evenodd"/><path fill="#8e7cc3" d="m789.5089 280.6886l-9.795288 2.0472412l-6.3307495 -30.362213l9.795288 -2.0472412z" fill-rule="evenodd"/><path fill="#ffd966" d="m771.7664 281.3722l-9.795227 2.0472412l-5.763794 -27.622055l9.795288 -2.0472412z" fill-rule="evenodd"/><path fill="#e06666" d="m753.8527 281.23242l-9.795288 2.0472412l-4.9763794 -23.779541l9.795288 -2.0472412z" fill-rule="evenodd"/><path fill="#93c47d" d="m735.426 278.62708l-9.795288 2.0472412l-3.6850586 -17.637787l9.795288 -2.0472412z" fill-rule="evenodd"/><path fill="#8e7cc3" d="m716.6304 274.24847l-9.795288 2.0472412l-2.0472412 -9.763763l9.795288 -2.0472412z" fill-rule="evenodd"/><path fill="#8e7cc3" d="m682.01086 279.775l-9.795288 2.0472412l-1.7952881 -8.598419l9.795288 -2.0472412z" fill-rule="evenodd"/><path fill="#93c47d" d="m666.4509 290.94913l-9.795288 2.0472412l-3.4015503 -16.220459l9.795288 -2.0472412z" fill-rule="evenodd"/><path fill="#ffd966" d="m650.61975 300.81943l-9.795227 2.0472412l-4.692932 -22.519684l9.795288 -2.0472412z" fill-rule="evenodd"/><path fill="#e06666" d="m634.2541 308.12042l-9.795288 2.0472412l-5.4173584 -26.047241l9.795288 -2.0472412z" fill-rule="evenodd"/><path fill="#8e7cc3" d="m617.82385 315.11124l-9.795288 2.0472412l-6.1417236 -29.574799l9.795227 -2.0472717z" fill-rule="evenodd"/><path fill="#ffd966" d="m600.70807 319.56873l-9.795288 2.0472717l-6.3306885 -30.362213l9.795227 -2.0472412z" fill-rule="evenodd"/><path fill="#93c47d" d="m1013.36304 169.99115l-9.795227 2.0472412l6.708618 32.25197l9.795288 -2.0472412z" fill-rule="evenodd"/><path fill="#e06666" d="m996.609 175.42543l-9.795288 2.0472412l6.3306885 30.362213l9.795288 -2.0472412z" fill-rule="evenodd"/><path fill="#8e7cc3" d="m980.033 181.71579l-9.795288 2.0472412l5.763794 27.622055l9.795288 -2.0472412z" fill-rule="evenodd"/><path fill="#ffd966" d="m963.68964 189.1239l-9.795288 2.0472412l4.9763794 23.779526l9.795288 -2.0472412z" fill-rule="evenodd"/><path fill="#93c47d" d="m947.83167 198.86562l-9.795227 2.0472412l3.6849976 17.637802l9.795288 -2.0472565z" fill-rule="evenodd"/><path fill="#93c47d" d="m932.5677 211.46204l-9.795288 2.0472412l1.7952881 8.598419l9.795288 -2.0472412z" fill-rule="evenodd"/><path fill="#8e7cc3" d="m900.4124 217.34105l-9.795288 2.0472412l1.7952881 8.598434l9.795288 -2.0472412z" fill-rule="evenodd"/><path fill="#93c47d" d="m881.687 213.2999l-9.795288 2.0472412l3.4015503 16.220474l9.795288 -2.0472412z" fill-rule="evenodd"/><path fill="#ffd966" d="m863.23285 210.56259l-9.795288 2.0472412l4.692932 22.519684l9.795227 -2.0472412z" fill-rule="evenodd"/><path fill="#93c47d" d="m845.31323 210.39459l-9.795288 2.0472412l5.4172974 26.047241l9.795288 -2.0472412z" fill-rule="evenodd"/><path fill="#e06666" d="m827.4581 210.53677l-9.795288 2.0472412l6.1417847 29.574814l9.795227 -2.0472565z" fill-rule="evenodd"/><path fill="#8e7cc3" d="m810.13666 213.24385l-9.795227 2.0472565l6.3306885 30.362198l9.795288 -2.0472412z" fill-rule="evenodd"/><path fill="#ffd966" d="m794.05774 216.58907l-9.795227 2.0472412l6.3306885 30.362198l9.795288 -2.0472412z" fill-rule="evenodd"/><path fill="#93c47d" d="m776.9151 220.15556l-9.795288 2.0472412l6.3307495 30.362198l9.795227 -2.0472412z" fill-rule="evenodd"/><path fill="#e06666" d="m760.37225 226.60495l-9.795288 2.0472412l5.763794 27.62204l9.795227 -2.047226z" fill-rule="evenodd"/><path fill="#ffd966" d="m744.0007 233.8777l-9.795288 2.0472565l4.9763794 23.77951l9.795288 -2.0472412z" fill-rule="evenodd"/><path fill="#8e7cc3" d="m728.142 243.61604l-9.795288 2.0472412l3.6850586 17.637802l9.795288 -2.0472412z" fill-rule="evenodd"/><path fill="#93c47d" d="m712.65234 255.12762l-9.795288 2.0472412l2.0472412 9.763763l9.795288 -2.0472412z" fill-rule="evenodd"/><path fill="#93c47d" d="m678.54193 263.10126l-9.795288 2.0472412l1.7952881 8.598419l9.795227 -2.0472412z" fill-rule="evenodd"/><path fill="#8e7cc3" d="m659.81647 259.06012l-9.795227 2.0472412l3.4015503 16.220459l9.795288 -2.0472412z" fill-rule="evenodd"/><path fill="#e06666" d="m641.36237 256.32278l-9.795288 2.0472717l4.692871 22.519684l9.795288 -2.0472412z" fill-rule="evenodd"/><path fill="#ffd966" d="m623.44275 256.1548l-9.795288 2.0472412l5.4172974 26.047272l9.795288 -2.0472717z" fill-rule="evenodd"/><path fill="#93c47d" d="m605.58765 256.297l-9.795288 2.0472412l6.1417236 29.574799l9.795288 -2.0472412z" fill-rule="evenodd"/><path fill="#e06666" d="m588.11426 259.03568l-9.795288 2.0472412l6.3307495 30.362213l9.795288 -2.0472412z" fill-rule="evenodd"/><path fill="#000000" fill-opacity="0.0" d="m1031.8563 232.0514c-55.897583 11.622055 -87.224365 1.2047272 -118.55115 -9.212585c-31.326782 -10.417328 -62.653503 -20.834656 -118.55115 -9.212601" fill-rule="evenodd"/><path stroke="#4a86e8" stroke-width="8.0" stroke-linejoin="round" stroke-linecap="butt" d="m1031.8563 232.0514c-55.897583 11.622055 -87.224365 1.2047272 -118.55115 -9.212585c-31.326782 -10.417328 -62.653503 -20.834656 -118.55115 -9.212601" fill-rule="evenodd"/><path fill="#000000" fill-opacity="0.0" d="m585.5492 324.9047c55.897644 -11.62204 80.468506 -33.661407 105.03937 -55.700775c24.570862 -22.039368 49.141724 -44.078735 105.03937 -55.70079" fill-rule="evenodd"/><path stroke="#4a86e8" stroke-width="8.0" stroke-linejoin="round" stroke-linecap="butt" d="m585.5492 324.9047c55.897644 -11.62204 80.468506 -33.661407 105.03937 -55.700775c24.570862 -22.039368 49.141724 -44.078735 105.03937 -55.70079" fill-rule="evenodd"/><path fill="#000000" fill-opacity="0.0" d="m1018.35425 167.15236c-55.897644 11.622055 -80.468506 33.661423 -105.03937 55.70079c-24.570862 22.039368 -49.141724 44.078735 -105.03937 55.700775" fill-rule="evenodd"/><path stroke="#4a86e8" stroke-width="8.0" stroke-linejoin="round" stroke-linecap="butt" d="m1018.35425 167.15236c-55.897644 11.622055 -80.468506 33.661423 -105.03937 55.70079c-24.570862 22.039368 -49.141724 44.078735 -105.03937 55.700775" fill-rule="evenodd"/><path fill="#000000" fill-opacity="0.0" d="m572.04706 260.00565c55.897644 -11.62204 87.22443 -1.2047119 118.55121 9.212616c31.326782 10.417328 62.653503 20.834625 118.55115 9.212585" fill-rule="evenodd"/><path stroke="#4a86e8" stroke-width="8.0" stroke-linejoin="round" stroke-linecap="butt" d="m572.04706 260.00565c55.897644 -11.62204 87.22443 -1.2047119 118.55121 9.212616c31.326782 10.417328 62.653503 20.834625 118.55115 9.212585" fill-rule="evenodd"/><path fill="#8e7cc3" d="m137.91008 418.04483l-9.795273 2.0472412l-6.708664 -32.251953l9.795273 -2.0472412z" fill-rule="evenodd"/><path fill="#ffd966" d="m120.37883 419.74353l-9.795273 2.0472412l-6.3307114 -30.362183l9.79528 -2.0472412z" fill-rule="evenodd"/><path fill="#93c47d" d="m102.66948 420.58618l-9.795273 2.0472412l-5.7637787 -27.62207l9.795273 -2.0472412z" fill-rule="evenodd"/><path fill="#e06666" d="m84.727585 420.31107l-9.79528 2.0472412l-4.9763794 -23.779541l9.79528 -2.0472412z" fill-rule="evenodd"/><path fill="#ffd966" d="m66.30018 417.70233l-9.795273 2.0472412l-3.6850395 -17.637787l9.795273 -2.0472412z" fill-rule="evenodd"/><path fill="#8e7cc3" d="m47.278866 412.2389l-9.795277 2.0472412l-1.7952766 -8.598419l9.795277 -2.0472412z" fill-rule="evenodd"/><path fill="#93c47d" d="m15.285264 418.8951l-9.795275 2.0472412l-1.7952757 -8.598419l9.795275 -2.0472412z" fill-rule="evenodd"/><path fill="#8e7cc3" d="m-0.27463937 430.06924l-9.795276 2.0472412l-3.401575 -16.220459l9.795276 -2.0472412z" fill-rule="evenodd"/><path fill="#93c47d" d="m124.76699 354.87146l-9.795273 2.0472412l6.708664 32.251984l9.79528 -2.0472412z" fill-rule="evenodd"/><path fill="#e06666" d="m108.012924 360.30576l-9.795273 2.0472412l6.3307037 30.362213l9.79528 -2.0472412z" fill-rule="evenodd"/><path fill="#8e7cc3" d="m91.43696 366.59613l-9.795273 2.0472412l5.7637787 27.62204l9.795273 -2.0472412z" fill-rule="evenodd"/><path fill="#ffd966" d="m75.09354 374.0042l-9.795273 2.0472412l4.9763794 23.779541l9.795273 -2.0472412z" fill-rule="evenodd"/><path fill="#93c47d" d="m59.235622 383.74594l-9.795277 2.0472412l3.6850395 17.637787l9.795277 -2.0472412z" fill-rule="evenodd"/><path fill="#93c47d" d="m43.97162 396.34235l-9.795273 2.0472412l1.7952728 8.59845l9.795277 -2.0472717z" fill-rule="evenodd"/><path fill="#8e7cc3" d="m11.81633 402.22137l-9.795276 2.0472412l1.7952757 8.598419l9.795276 -2.0472412z" fill-rule="evenodd"/><path fill="#000000" fill-opacity="0.0" d="m143.2603 416.93173c-55.897636 11.62204 -87.22441 1.2047424 -118.55118 -9.212585c-31.32677 -10.417328 -62.65354 -20.834656 -118.55118 -9.212616" fill-rule="evenodd"/><path stroke="#4a86e8" stroke-width="8.0" stroke-linejoin="round" stroke-linecap="butt" d="m143.2603 416.93173c-55.897636 11.62204 -87.22441 1.2047424 -118.55118 -9.212585c-31.32677 -10.417328 -62.65354 -20.834656 -118.55118 -9.212616" fill-rule="evenodd"/><path fill="#000000" fill-opacity="0.0" d="m129.75818 352.03268c-55.89763 11.62204 -80.4685 33.661407 -105.03937 55.700775c-24.570866 22.039398 -49.14173 44.078766 -105.03937 55.700806" fill-rule="evenodd"/><path stroke="#4a86e8" stroke-width="8.0" stroke-linejoin="round" stroke-linecap="butt" d="m129.75818 352.03268c-55.89763 11.62204 -80.4685 33.661407 -105.03937 55.700775c-24.570866 22.039398 -49.14173 44.078766 -105.03937 55.700806" fill-rule="evenodd"/><path fill="#8e7cc3" d="m567.2346 -162.42694l5.4802856 8.37796l-27.590576 17.984253l-5.4802856 -8.37796z" fill-rule="evenodd"/><path fill="#ffd966" d="m575.2049 -146.7201l5.4802856 8.377945l-25.984253 16.944885l-5.4802856 -8.377945z" fill-rule="evenodd"/><path fill="#93c47d" d="m582.4429 -130.53545l5.4802856 8.37796l-23.62201 15.433067l-5.4803467 -8.377953z" fill-rule="evenodd"/><path fill="#e06666" d="m588.7247 -113.72693l5.4803467 8.377953l-20.346497 13.32283l-5.4802856 -8.377953z" fill-rule="evenodd"/><path fill="#ffd966" d="m593.01025 -95.61593l5.4803467 8.377953l-15.08667 9.858269l-5.4802856 -8.377953z" fill-rule="evenodd"/><path fill="#8e7cc3" d="m594.8538 -75.9116l5.4803467 8.377953l-7.370117 4.818901l-5.4802856 -8.377953z" fill-rule="evenodd"/><path fill="#93c47d" d="m612.7108 -48.54331l5.4803467 8.377953l-7.370117 4.8188972l-5.4802856 -8.377953z" fill-rule="evenodd"/><path fill="#8e7cc3" d="m628.7867 -38.12512l5.4803467 8.3779545l-13.858276 9.070866l-5.4803467 -8.377953z" fill-rule="evenodd"/><path fill="#e06666" d="m643.7472 -26.979193l5.4803467 8.377953l-19.275574 12.535434l-5.4803467 -8.377953z" fill-rule="evenodd"/><path fill="#93c47d" d="m656.5099 -14.39923l5.4802856 8.377953l-22.299194 14.551182l-5.4803467 -8.377953z" fill-rule="evenodd"/><path fill="#ffd966" d="m669.0072 -1.6461368l5.4802856 8.377953l-25.29132 16.503937l-5.4803467 -8.377952z" fill-rule="evenodd"/><path fill="#93c47d" d="m679.3104 12.538533l5.4802856 8.377954l-25.984253 16.94488l-5.4802856 -8.377951z" fill-rule="evenodd"/><path fill="#e06666" d="m688.2847 26.292934l5.4802856 8.377953l-25.984253 16.944881l-5.4802856 -8.377953z" fill-rule="evenodd"/><path fill="#8e7cc3" d="m697.8528 40.95728l5.4802856 8.377953l-25.984253 16.944881l-5.4802856 -8.377953z" fill-rule="evenodd"/><path fill="#ffd966" d="m704.9547 57.230694l5.4802856 8.377956l-23.62201 15.433067l-5.4803467 -8.377953z" fill-rule="evenodd"/><path fill="#e06666" d="m711.3523 73.96366l5.4803467 8.377953l-20.346497 13.322838l-5.4802856 -8.377953z" fill-rule="evenodd"/><path fill="#93c47d" d="m715.64075 92.07278l5.4803467 8.377953l-15.086609 9.858269l-5.4803467 -8.377953z" fill-rule="evenodd"/><path fill="#8e7cc3" d="m718.41235 111.171616l5.4803467 8.377953l-8.346497 5.4488144l-5.4802856 -8.377953z" fill-rule="evenodd"/><path fill="#8e7cc3" d="m736.17426 141.39696l5.4802856 8.37796l-7.370056 4.8188934l-5.4803467 -8.37796z" fill-rule="evenodd"/><path fill="#93c47d" d="m752.25006 151.81516l5.4803467 8.377945l-13.858276 9.070862l-5.4802856 -8.377945z" fill-rule="evenodd"/><path fill="#ffd966" d="m767.2106 162.96107l5.4803467 8.377945l-19.275574 12.535446l-5.4803467 -8.37796z" fill-rule="evenodd"/><path fill="#e06666" d="m779.97327 175.54103l5.4802856 8.37796l-22.299194 14.551178l-5.4802856 -8.377945z" fill-rule="evenodd"/><path fill="#8e7cc3" d="m792.4706 188.29413l5.4802856 8.37796l-25.29132 16.503937l-5.4803467 -8.37796z" fill-rule="evenodd"/><path fill="#ffd966" d="m802.901 202.67374l5.4802856 8.377945l-25.984253 16.944885l-5.4802856 -8.377945z" fill-rule="evenodd"/><path fill="#93c47d" d="m513.1942 -127.167175l5.4802856 8.377953l27.590576 -17.984245l-5.4803467 -8.37796z" fill-rule="evenodd"/><path fill="#e06666" d="m524.36 -113.54533l5.4803467 8.377953l25.984253 -16.944878l-5.4803467 -8.377953z" fill-rule="evenodd"/><path fill="#8e7cc3" d="m536.2581 -100.40128l5.4803467 8.377953l23.62201 -15.433075l-5.4802856 -8.377953z" fill-rule="evenodd"/><path fill="#ffd966" d="m549.1124 -87.8811l5.4802856 8.377953l20.346497 -13.322838l-5.4803467 -8.377953z" fill-rule="evenodd"/><path fill="#93c47d" d="m563.96295 -76.663414l5.4802856 8.377953l15.086609 -9.858269l-5.4802856 -8.377953z" fill-rule="evenodd"/><path fill="#93c47d" d="m581.25543 -67.039055l5.4803467 8.377953l7.370056 -4.8188972l-5.4802856 -8.377956z" fill-rule="evenodd"/><path fill="#8e7cc3" d="m598.44763 -39.236988l5.4802856 8.377951l7.370117 -4.8188953l-5.4803467 -8.377956z" fill-rule="evenodd"/><path fill="#93c47d" d="m601.5079 -20.32649l5.4802856 8.377954l13.858276 -9.070867l-5.4802856 -8.377953z" fill-rule="evenodd"/><path fill="#ffd966" d="m605.6835 -2.143722l5.4802856 8.377953l19.275635 -12.535433l-5.4803467 -8.377953z" fill-rule="evenodd"/><path fill="#93c47d" d="m612.0569 14.605008l5.4803467 8.377952l22.299194 -14.55118l-5.4802856 -8.377954z" fill-rule="evenodd"/><path fill="#e06666" d="m618.6957 31.180607l5.4803467 8.377953l25.29132 -16.503937l-5.4802856 -8.377953z" fill-rule="evenodd"/><path fill="#8e7cc3" d="m627.52856 46.32463l5.4803467 8.377953l25.984253 -16.944885l-5.4803467 -8.377951z" fill-rule="evenodd"/><path fill="#ffd966" d="m636.5029 60.079006l5.4803467 8.377956l25.984253 -16.944885l-5.4803467 -8.377953z" fill-rule="evenodd"/><path fill="#93c47d" d="m646.071 74.743355l5.4803467 8.377953l25.984253 -16.944885l-5.4803467 -8.377949z" fill-rule="evenodd"/><path fill="#e06666" d="m658.10516 87.79863l5.4802856 8.377953l23.62207 -15.433067l-5.4802856 -8.377953z" fill-rule="evenodd"/><path fill="#ffd966" d="m670.8436 100.394356l5.4803467 8.377953l20.346436 -13.322838l-5.4802856 -8.377953z" fill-rule="evenodd"/><path fill="#8e7cc3" d="m685.6913 111.61393l5.4802856 8.377953l15.08667 -9.858261l-5.4803467 -8.377953z" fill-rule="evenodd"/><path fill="#93c47d" d="m702.0558 121.84379l5.4803467 8.377953l8.346436 -5.448822l-5.4802856 -8.377953z" fill-rule="evenodd"/><path fill="#93c47d" d="m721.911 150.70328l5.4803467 8.377945l7.370056 -4.8188934l-5.4802856 -8.377945z" fill-rule="evenodd"/><path fill="#8e7cc3" d="m724.97125 169.61378l5.4803467 8.377945l13.858215 -9.070862l-5.4802856 -8.37796z" fill-rule="evenodd"/><path fill="#e06666" d="m729.14685 187.79654l5.4802856 8.37796l19.275635 -12.535431l-5.4803467 -8.37796z" fill-rule="evenodd"/><path fill="#ffd966" d="m735.5203 204.54527l5.4802856 8.37796l22.299194 -14.551193l-5.4802856 -8.377945z" fill-rule="evenodd"/><path fill="#93c47d" d="m742.1591 221.12088l5.4802856 8.377945l25.29132 -16.503937l-5.4802856 -8.377945z" fill-rule="evenodd"/><path fill="#e06666" d="m751.11914 236.45982l5.4803467 8.37796l25.984253 -16.944885l-5.4803467 -8.377945z" fill-rule="evenodd"/><path fill="#000000" fill-opacity="0.0" d="m564.2484 -167.00368c31.196838 47.8189 32.91339 80.78347 34.629944 113.74804c1.7164917 32.964565 3.4330444 65.92913 34.629883 113.74803" fill-rule="evenodd"/><path stroke="#4a86e8" stroke-width="8.0" stroke-linejoin="round" stroke-linecap="butt" d="m564.2484 -167.00368c31.196838 47.8189 32.91339 80.78347 34.629944 113.74804c1.7164917 32.964565 3.4330444 65.92913 34.629883 113.74803" fill-rule="evenodd"/><path fill="#000000" fill-opacity="0.0" d="m813.3939 214.84589c-31.196838 -47.818893 -60.677124 -62.673233 -90.15747 -77.52756c-29.480286 -14.854332 -58.960632 -29.708664 -90.15747 -77.52756" fill-rule="evenodd"/><path stroke="#4a86e8" stroke-width="8.0" stroke-linejoin="round" stroke-linecap="butt" d="m813.3939 214.84589c-31.196838 -47.818893 -60.677124 -62.673233 -90.15747 -77.52756c-29.480286 -14.854332 -58.960632 -29.708664 -90.15747 -77.52756" fill-rule="evenodd"/><path fill="#000000" fill-opacity="0.0" d="m508.7318 -130.78073c31.196838 47.818893 60.677185 62.673225 90.15747 77.52756c29.480347 14.854332 58.960632 29.708662 90.15747 77.52756" fill-rule="evenodd"/><path stroke="#4a86e8" stroke-width="8.0" stroke-linejoin="round" stroke-linecap="butt" d="m508.7318 -130.78073c31.196838 47.818893 60.677185 62.673225 90.15747 77.52756c29.480347 14.854332 58.960632 29.708662 90.15747 77.52756" fill-rule="evenodd"/><path fill="#000000" fill-opacity="0.0" d="m757.8773 251.06882c-31.196838 -47.818893 -32.91339 -80.78346 -34.629883 -113.74803c-1.7165527 -32.96456 -3.4331055 -65.92913 -34.629944 -113.748024" fill-rule="evenodd"/><path stroke="#4a86e8" stroke-width="8.0" stroke-linejoin="round" stroke-linecap="butt" d="m757.8773 251.06882c-31.196838 -47.818893 -32.91339 -80.78346 -34.629883 -113.74803c-1.7165527 -32.96456 -3.4331055 -65.92913 -34.629944 -113.748024" fill-rule="evenodd"/><path fill="#8e7cc3" d="m1002.49005 625.9402l-5.4803467 -8.377991l27.590515 -17.984253l5.4803467 8.377991z" fill-rule="evenodd"/><path fill="#ffd966" d="m994.5197 610.23334l-5.4802856 -8.377991l25.984253 -16.944824l5.4802856 8.37793z" fill-rule="evenodd"/><path fill="#93c47d" d="m987.28174 594.0487l-5.4802856 -8.377991l23.62207 -15.433044l5.4802856 8.37793z" fill-rule="evenodd"/><path fill="#e06666" d="m980.99994 577.2402l-5.4802856 -8.37793l20.346436 -13.322876l5.4802856 8.377991z" fill-rule="evenodd"/><path fill="#ffd966" d="m976.71436 559.12915l-5.4802856 -8.37793l15.086609 -9.858276l5.4802856 8.37793z" fill-rule="evenodd"/><path fill="#8e7cc3" d="m974.8708 539.4248l-5.4803467 -8.37793l7.370117 -4.8189087l5.4802856 8.377991z" fill-rule="evenodd"/><path fill="#93c47d" d="m957.0138 512.0565l-5.4803467 -8.37793l7.370117 -4.8189087l5.4802856 8.37796z" fill-rule="evenodd"/><path fill="#8e7cc3" d="m940.9379 501.63837l-5.4803467 -8.37796l13.858276 -9.070862l5.4803467 8.37793z" fill-rule="evenodd"/><path fill="#e06666" d="m925.9774 490.49243l-5.4803467 -8.37796l19.275635 -12.535431l5.4802856 8.37796z" fill-rule="evenodd"/><path fill="#93c47d" d="m913.2147 477.91248l-5.4802856 -8.37796l22.299194 -14.551178l5.4803467 8.37796z" fill-rule="evenodd"/><path fill="#ffd966" d="m900.71747 465.15936l-5.4803467 -8.37793l25.29132 -16.503937l5.4803467 8.37793z" fill-rule="evenodd"/><path fill="#93c47d" d="m890.41425 450.9747l-5.4803467 -8.37796l25.984253 -16.944885l5.4803467 8.37796z" fill-rule="evenodd"/><path fill="#e06666" d="m881.4399 437.2203l-5.4802856 -8.37796l25.984253 -16.944885l5.4802856 8.37796z" fill-rule="evenodd"/><path fill="#8e7cc3" d="m871.8718 422.55597l-5.4802856 -8.37796l25.984253 -16.944885l5.4802856 8.37796z" fill-rule="evenodd"/><path fill="#ffd966" d="m864.7699 406.28253l-5.4802856 -8.37793l23.62207 -15.433075l5.4802856 8.37793z" fill-rule="evenodd"/><path fill="#e06666" d="m858.3723 389.54956l-5.4802856 -8.37793l20.346436 -13.322845l5.4802856 8.37796z" fill-rule="evenodd"/><path fill="#93c47d" d="m854.08386 371.44046l-5.4803467 -8.37796l15.086609 -9.858276l5.4803467 8.37796z" fill-rule="evenodd"/><path fill="#8e7cc3" d="m851.31226 352.3416l-5.4803467 -8.37796l8.346497 -5.4487915l5.4802856 8.37793z" fill-rule="evenodd"/><path fill="#8e7cc3" d="m833.5504 322.11627l-5.4803467 -8.37796l7.370117 -4.818878l5.4802856 8.37796z" fill-rule="evenodd"/><path fill="#93c47d" d="m817.47455 311.6981l-5.4803467 -8.37796l13.858276 -9.070862l5.4803467 8.37796z" fill-rule="evenodd"/><path fill="#ffd966" d="m802.51404 300.55215l-5.4803467 -8.37796l19.275574 -12.535431l5.4803467 8.37796z" fill-rule="evenodd"/><path fill="#e06666" d="m789.75134 287.9722l-5.4802856 -8.37796l22.299194 -14.551178l5.4803467 8.37796z" fill-rule="evenodd"/><path fill="#8e7cc3" d="m777.254 275.21912l-5.4802856 -8.37796l25.29132 -16.503937l5.4803467 8.37796z" fill-rule="evenodd"/><path fill="#ffd966" d="m766.866 260.90448l-5.4802856 -8.37796l25.984253 -16.94487l5.4802856 8.377945z" fill-rule="evenodd"/><path fill="#93c47d" d="m1056.5304 590.6804l-5.4803467 -8.377991l-27.590515 17.984253l5.4802856 8.377991z" fill-rule="evenodd"/><path fill="#e06666" d="m1045.3646 577.05853l-5.4803467 -8.37793l-25.984253 16.944885l5.4803467 8.37793z" fill-rule="evenodd"/><path fill="#8e7cc3" d="m1033.4664 563.9145l-5.4802246 -8.37793l-23.62207 15.433105l5.4802856 8.37793z" fill-rule="evenodd"/><path fill="#ffd966" d="m1020.6122 551.39435l-5.4802856 -8.377991l-20.346497 13.322876l5.4803467 8.37793z" fill-rule="evenodd"/><path fill="#93c47d" d="m1005.76166 540.17664l-5.4802856 -8.37793l-15.086609 9.858276l5.4802856 8.37793z" fill-rule="evenodd"/><path fill="#93c47d" d="m988.4692 530.5523l-5.4803467 -8.377991l-7.370056 4.8189087l5.4802856 8.377991z" fill-rule="evenodd"/><path fill="#8e7cc3" d="m971.277 502.7502l-5.4802856 -8.37793l-7.370117 4.818878l5.4803467 8.37796z" fill-rule="evenodd"/><path fill="#93c47d" d="m968.21674 483.83972l-5.4802856 -8.37796l-13.858276 9.070892l5.4802856 8.37793z" fill-rule="evenodd"/><path fill="#ffd966" d="m964.04114 465.65695l-5.4802856 -8.37796l-19.275574 12.535461l5.4802856 8.37793z" fill-rule="evenodd"/><path fill="#93c47d" d="m957.6677 448.90823l-5.4803467 -8.37796l-22.299194 14.551178l5.4802856 8.37796z" fill-rule="evenodd"/><path fill="#e06666" d="m951.02893 432.33264l-5.4803467 -8.37796l-25.29132 16.503937l5.4802856 8.37796z" fill-rule="evenodd"/><path fill="#8e7cc3" d="m942.19604 417.1886l-5.4803467 -8.37793l-25.984253 16.944855l5.4803467 8.37796z" fill-rule="evenodd"/><path fill="#ffd966" d="m933.2217 403.43423l-5.4802856 -8.37796l-25.984253 16.944885l5.4802856 8.37796z" fill-rule="evenodd"/><path fill="#93c47d" d="m923.6536 388.7699l-5.4802856 -8.37796l-25.984253 16.944885l5.4802856 8.37793z" fill-rule="evenodd"/><path fill="#e06666" d="m911.61945 375.7146l-5.4802856 -8.37796l-23.62207 15.433075l5.4803467 8.37796z" fill-rule="evenodd"/><path fill="#ffd966" d="m898.881 363.1189l-5.4803467 -8.37796l-20.346436 13.322815l5.4802856 8.37796z" fill-rule="evenodd"/><path fill="#8e7cc3" d="m884.0333 351.8993l-5.4802856 -8.37793l-15.086609 9.858246l5.4802856 8.37796z" fill-rule="evenodd"/><path fill="#93c47d" d="m867.6688 341.66943l-5.4803467 -8.37793l-8.346436 5.448822l5.4803467 8.37793z" fill-rule="evenodd"/><path fill="#93c47d" d="m847.8136 312.80997l-5.4803467 -8.37796l-7.370056 4.8189087l5.4803467 8.37793z" fill-rule="evenodd"/><path fill="#8e7cc3" d="m844.75336 293.89944l-5.4802856 -8.37793l-13.858276 9.070862l5.4802856 8.37796z" fill-rule="evenodd"/><path fill="#e06666" d="m840.57776 275.7167l-5.4802856 -8.37796l-19.275635 12.535431l5.4803467 8.37796z" fill-rule="evenodd"/><path fill="#ffd966" d="m834.20435 258.96796l-5.4803467 -8.377945l-22.299194 14.551163l5.4802856 8.37796z" fill-rule="evenodd"/><path fill="#93c47d" d="m827.56555 242.39236l-5.4803467 -8.37796l-25.29132 16.503937l5.4802856 8.37796z" fill-rule="evenodd"/><path fill="#e06666" d="m818.6478 227.11838l-5.4802856 -8.377945l-25.984253 16.944885l5.4802856 8.377945z" fill-rule="evenodd"/><path fill="#000000" fill-opacity="0.0" d="m1005.4762 630.5169c-31.196838 -47.81891 -32.91339 -80.78345 -34.629883 -113.74805c-1.7165527 -32.96454 -3.4331055 -65.92911 -34.629944 -113.74802" fill-rule="evenodd"/><path stroke="#4a86e8" stroke-width="8.0" stroke-linejoin="round" stroke-linecap="butt" d="m1005.4762 630.5169c-31.196838 -47.81891 -32.91339 -80.78345 -34.629883 -113.74805c-1.7165527 -32.96454 -3.4331055 -65.92911 -34.629944 -113.74802" fill-rule="evenodd"/><path fill="#000000" fill-opacity="0.0" d="m756.3731 248.73233c31.196838 47.81888 60.677124 62.673218 90.15747 77.52756c29.480286 14.85434 58.960632 29.708649 90.15747 77.52756" fill-rule="evenodd"/><path stroke="#4a86e8" stroke-width="8.0" stroke-linejoin="round" stroke-linecap="butt" d="m756.3731 248.73233c31.196838 47.81888 60.677124 62.673218 90.15747 77.52756c29.480286 14.85434 58.960632 29.708649 90.15747 77.52756" fill-rule="evenodd"/><path fill="#000000" fill-opacity="0.0" d="m1060.9928 594.29395c-31.1969 -47.818848 -60.677185 -62.673218 -90.15747 -77.52753c-29.480347 -14.85434 -58.960632 -29.70868 -90.15747 -77.52756" fill-rule="evenodd"/><path stroke="#4a86e8" stroke-width="8.0" stroke-linejoin="round" stroke-linecap="butt" d="m1060.9928 594.29395c-31.1969 -47.818848 -60.677185 -62.673218 -90.15747 -77.52753c-29.480347 -14.85434 -58.960632 -29.70868 -90.15747 -77.52756" fill-rule="evenodd"/><path fill="#000000" fill-opacity="0.0" d="m811.88965 212.50938c31.1969 47.818893 32.91339 80.78346 34.629944 113.74803c1.7165527 32.96457 3.4331055 65.92914 34.629944 113.74805" fill-rule="evenodd"/><path stroke="#4a86e8" stroke-width="8.0" stroke-linejoin="round" stroke-linecap="butt" d="m811.88965 212.50938c31.1969 47.818893 32.91339 80.78346 34.629944 113.74803c1.7165527 32.96457 3.4331055 65.92914 34.629944 113.74805" fill-rule="evenodd"/><path fill="#000000" fill-opacity="0.6798" d="m-1.9868766 -3.2283463l966.3622 0l0 546.2362l-966.3622 0z" fill-rule="evenodd"/></g></svg>