<svg version="1.1" viewBox="0.0 0.0 960.0 540.0" fill="none" stroke="none" stroke-linecap="square" stroke-miterlimit="10" xmlns:xlink="http://www.w3.org/1999/xlink" xmlns="http://www.w3.org/2000/svg"><clipPath id="p.0"><path d="m0 0l960.0 0l0 540.0l-960.0 0l0 -540.0z" clip-rule="nonzero"/></clipPath><g clip-path="url(#p.0)"><path fill="#000000" fill-opacity="0.0" d="m0 0l960.0 0l0 540.0l-960.0 0z" fill-rule="evenodd"/><path fill="#8e7cc3" d="m546.32825 383.37878l18.236267 0l0 74.078766l-18.236267 0z" fill-rule="evenodd"/><path fill="#71639b" d="m564.5645 383.37878l6.0787354 -6.0787354l0 74.078735l-6.0787354 6.078766z" fill-rule="evenodd"/><path fill="#a496cf" d="m546.32825 383.37878l6.0787964 -6.0787354l18.236206 0l-6.0787354 6.0787354z" fill-rule="evenodd"/><path fill="#000000" fill-opacity="0.0" d="m546.32825 383.37878l6.0787964 -6.0787354l18.236206 0l0 74.078735l-6.0787354 6.078766l-18.236267 0zm0 0l18.236267 0l6.0787354 -6.0787354m-6.0787354 6.0787354l0 74.078766" fill-rule="evenodd"/><path fill="#ffd966" d="m592.33844 383.37878l18.236267 0l0 74.078766l-18.236267 0z" fill-rule="evenodd"/><path fill="#cbad51" d="m610.5747 383.37878l6.0787354 -6.0787354l0 74.078735l-6.0787354 6.078766z" fill-rule="evenodd"/><path fill="#ffe084" d="m592.33844 383.37878l6.0787964 -6.0787354l18.236206 0l-6.0787354 6.0787354z" fill-rule="evenodd"/><path fill="#000000" fill-opacity="0.0" d="m592.33844 383.37878l6.0787964 -6.0787354l18.236206 0l0 74.078735l-6.0787354 6.078766l-18.236267 0zm0 0l18.236267 0l6.0787354 -6.0787354m-6.0787354 6.0787354l0 74.078766" fill-rule="evenodd"/><path fill="#8e7cc3" d="m647.32684 383.37878l18.236206 0l0 74.078766l-18.236206 0z" fill-rule="evenodd"/><path fill="#71639b" d="m665.56305 383.37878l6.0787354 -6.0787354l0 74.078735l-6.0787354 6.078766z" fill-rule="evenodd"/><path fill="#a496cf" d="m647.32684 383.37878l6.0787354 -6.0787354l18.236206 0l-6.0787354 6.0787354z" fill-rule="evenodd"/><path fill="#000000" fill-opacity="0.0" d="m647.32684 383.37878l6.0787354 -6.0787354l18.236206 0l0 74.078735l-6.0787354 6.078766l-18.236206 0zm0 0l18.236206 0l6.0787354 -6.0787354m-6.0787354 6.0787354l0 74.078766" fill-rule="evenodd"/><path fill="#93c47d" d="m702.31525 383.37878l18.236206 0l0 74.078766l-18.236206 0z" fill-rule="evenodd"/><path fill="#759c63" d="m720.55145 383.37878l6.0787354 -6.0787354l0 74.078735l-6.0787354 6.078766z" fill-rule="evenodd"/><path fill="#a8cf97" d="m702.31525 383.37878l6.0787354 -6.0787354l18.236206 0l-6.0787354 6.0787354z" fill-rule="evenodd"/><path fill="#000000" fill-opacity="0.0" d="m702.31525 383.37878l6.0787354 -6.0787354l18.236206 0l0 74.078735l-6.0787354 6.078766l-18.236206 0zm0 0l18.236206 0l6.0787354 -6.0787354m-6.0787354 6.0787354l0 74.078766" fill-rule="evenodd"/><path fill="#e06666" d="m757.0151 383.37878l18.236267 0l0 74.078766l-18.236267 0z" fill-rule="evenodd"/><path fill="#b35151" d="m775.25134 383.37878l6.0787354 -6.0787354l0 74.078735l-6.0787354 6.078766z" fill-rule="evenodd"/><path fill="#e68484" d="m757.0151 383.37878l6.0787354 -6.0787354l18.236267 0l-6.0787354 6.0787354z" fill-rule="evenodd"/><path fill="#000000" fill-opacity="0.0" d="m757.0151 383.37878l6.0787354 -6.0787354l18.236267 0l0 74.078735l-6.0787354 6.078766l-18.236267 0zm0 0l18.236267 0l6.0787354 -6.0787354m-6.0787354 6.0787354l0 74.078766" fill-rule="evenodd"/><path fill="#8e7cc3" d="m812.292 383.37878l18.236206 0l0 74.078766l-18.236206 0z" fill-rule="evenodd"/><path fill="#71639b" d="m830.5282 383.37878l6.0787354 -6.0787354l0 74.078735l-6.0787354 6.078766z" fill-rule="evenodd"/><path fill="#a496cf" d="m812.292 383.37878l6.0787354 -6.0787354l18.236206 0l-6.0787354 6.0787354z" fill-rule="evenodd"/><path fill="#000000" fill-opacity="0.0" d="m812.292 383.37878l6.0787354 -6.0787354l18.236206 0l0 74.078735l-6.0787354 6.078766l-18.236206 0zm0 0l18.236206 0l6.0787354 -6.0787354m-6.0787354 6.0787354l0 74.078766" fill-rule="evenodd"/><path fill="#e06666" d="m867.28033 383.37878l18.236206 0l0 74.078766l-18.236206 0z" fill-rule="evenodd"/><path fill="#b35151" d="m885.51654 383.37878l6.0787354 -6.0787354l0 74.078735l-6.0787354 6.078766z" fill-rule="evenodd"/><path fill="#e68484" d="m867.28033 383.37878l6.0787354 -6.0787354l18.236206 0l-6.0787354 6.0787354z" fill-rule="evenodd"/><path fill="#000000" fill-opacity="0.0" d="m867.28033 383.37878l6.0787354 -6.0787354l18.236206 0l0 74.078735l-6.0787354 6.078766l-18.236206 0zm0 0l18.236206 0l6.0787354 -6.0787354m-6.0787354 6.0787354l0 74.078766" fill-rule="evenodd"/><path fill="#8e7cc3" d="m922.26874 383.37878l18.236206 0l0 74.078766l-18.236206 0z" fill-rule="evenodd"/><path fill="#71639b" d="m940.50494 383.37878l6.0787354 -6.0787354l0 74.078735l-6.0787354 6.078766z" fill-rule="evenodd"/><path fill="#a496cf" d="m922.26874 383.37878l6.0787354 -6.0787354l18.236206 0l-6.0787354 6.0787354z" fill-rule="evenodd"/><path fill="#000000" fill-opacity="0.0" d="m922.26874 383.37878l6.0787354 -6.0787354l18.236206 0l0 74.078735l-6.0787354 6.078766l-18.236206 0zm0 0l18.236206 0l6.0787354 -6.0787354m-6.0787354 6.0787354l0 74.078766" fill-rule="evenodd"/><path fill="#93c47d" d="m537.3501 88.89132l18.236206 0l0 66.14173l-18.236206 0z" fill-rule="evenodd"/><path fill="#759c63" d="m555.5863 88.89132l6.0787354 -6.0787354l0 66.14173l-6.0787354 6.0787354z" fill-rule="evenodd"/><path fill="#a8cf97" d="m537.3501 88.89132l6.0787354 -6.0787354l18.236206 0l-6.0787354 6.0787354z" fill-rule="evenodd"/><path fill="#000000" fill-opacity="0.0" d="m537.3501 88.89132l6.0787354 -6.0787354l18.236206 0l0 66.14173l-6.0787354 6.0787354l-18.236206 0zm0 0l18.236206 0l6.0787354 -6.0787354m-6.0787354 6.0787354l0 66.14173" fill-rule="evenodd"/><path fill="#e06666" d="m592.33844 88.89132l18.236267 0l0 66.14173l-18.236267 0z" fill-rule="evenodd"/><path fill="#b35151" d="m610.5747 88.89132l6.0787354 -6.0787354l0 66.14173l-6.0787354 6.0787354z" fill-rule="evenodd"/><path fill="#e68484" d="m592.33844 88.89132l6.0787964 -6.0787354l18.236206 0l-6.0787354 6.0787354z" fill-rule="evenodd"/><path fill="#000000" fill-opacity="0.0" d="m592.33844 88.89132l6.0787964 -6.0787354l18.236206 0l0 66.14173l-6.0787354 6.0787354l-18.236267 0zm0 0l18.236267 0l6.0787354 -6.0787354m-6.0787354 6.0787354l0 66.14173" fill-rule="evenodd"/><path fill="#93c47d" d="m647.32684 88.89132l18.236206 0l0 66.14173l-18.236206 0z" fill-rule="evenodd"/><path fill="#759c63" d="m665.56305 88.89132l6.0787354 -6.0787354l0 66.14173l-6.0787354 6.0787354z" fill-rule="evenodd"/><path fill="#a8cf97" d="m647.32684 88.89132l6.0787354 -6.0787354l18.236206 0l-6.0787354 6.0787354z" fill-rule="evenodd"/><path fill="#000000" fill-opacity="0.0" d="m647.32684 88.89132l6.0787354 -6.0787354l18.236206 0l0 66.14173l-6.0787354 6.0787354l-18.236206 0zm0 0l18.236206 0l6.0787354 -6.0787354m-6.0787354 6.0787354l0 66.14173" fill-rule="evenodd"/><path fill="#8e7cc3" d="m702.31525 88.89132l18.236206 0l0 66.14173l-18.236206 0z" fill-rule="evenodd"/><path fill="#71639b" d="m720.55145 88.89132l6.0787354 -6.0787354l0 66.14173l-6.0787354 6.0787354z" fill-rule="evenodd"/><path fill="#a496cf" d="m702.31525 88.89132l6.0787354 -6.0787354l18.236206 0l-6.0787354 6.0787354z" fill-rule="evenodd"/><path fill="#000000" fill-opacity="0.0" d="m702.31525 88.89132l6.0787354 -6.0787354l18.236206 0l0 66.14173l-6.0787354 6.0787354l-18.236206 0zm0 0l18.236206 0l6.0787354 -6.0787354m-6.0787354 6.0787354l0 66.14173" fill-rule="evenodd"/><path fill="#ffd966" d="m757.3036 88.89132l18.236206 0l0 66.14173l-18.236206 0z" fill-rule="evenodd"/><path fill="#cbad51" d="m775.5398 88.89132l6.0787354 -6.0787354l0 66.14173l-6.0787354 6.0787354z" fill-rule="evenodd"/><path fill="#ffe084" d="m757.3036 88.89132l6.0787354 -6.0787354l18.236206 0l-6.0787354 6.0787354z" fill-rule="evenodd"/><path fill="#000000" fill-opacity="0.0" d="m757.3036 88.89132l6.0787354 -6.0787354l18.236206 0l0 66.14173l-6.0787354 6.0787354l-18.236206 0zm0 0l18.236206 0l6.0787354 -6.0787354m-6.0787354 6.0787354l0 66.14173" fill-rule="evenodd"/><path fill="#93c47d" d="m812.0035 88.89132l18.236206 0l0 66.14173l-18.236206 0z" fill-rule="evenodd"/><path fill="#759c63" d="m830.2397 88.89132l6.0787354 -6.0787354l0 66.14173l-6.0787354 6.0787354z" fill-rule="evenodd"/><path fill="#a8cf97" d="m812.0035 88.89132l6.0787354 -6.0787354l18.236206 0l-6.0787354 6.0787354z" fill-rule="evenodd"/><path fill="#000000" fill-opacity="0.0" d="m812.0035 88.89132l6.0787354 -6.0787354l18.236206 0l0 66.14173l-6.0787354 6.0787354l-18.236206 0zm0 0l18.236206 0l6.0787354 -6.0787354m-6.0787354 6.0787354l0 66.14173" fill-rule="evenodd"/><path fill="#ffd966" d="m867.28033 88.89132l18.236206 0l0 66.14173l-18.236206 0z" fill-rule="evenodd"/><path fill="#cbad51" d="m885.51654 88.89132l6.0787354 -6.0787354l0 66.14173l-6.0787354 6.0787354z" fill-rule="evenodd"/><path fill="#ffe084" d="m867.28033 88.89132l6.0787354 -6.0787354l18.236206 0l-6.0787354 6.0787354z" fill-rule="evenodd"/><path fill="#000000" fill-opacity="0.0" d="m867.28033 88.89132l6.0787354 -6.0787354l18.236206 0l0 66.14173l-6.0787354 6.0787354l-18.236206 0zm0 0l18.236206 0l6.0787354 -6.0787354m-6.0787354 6.0787354l0 66.14173" fill-rule="evenodd"/><path fill="#93c47d" d="m921.9802 88.89132l18.236206 0l0 66.14173l-18.236206 0z" fill-rule="evenodd"/><path fill="#759c63" d="m940.21643 88.89132l6.0787354 -6.0787354l0 66.14173l-6.0787354 6.0787354z" fill-rule="evenodd"/><path fill="#a8cf97" d="m921.9802 88.89132l6.0787354 -6.0787354l18.236206 0l-6.0787354 6.0787354z" fill-rule="evenodd"/><path fill="#000000" fill-opacity="0.0" d="m921.9802 88.89132l6.0787354 -6.0787354l18.236206 0l0 66.14173l-6.0787354 6.0787354l-18.236206 0zm0 0l18.236206 0l6.0787354 -6.0787354m-6.0787354 6.0787354l0 66.14173" fill-rule="evenodd"/><path fill="#4a86e8" d="m960.0 444.42007l0 0c-1.2207031E-4 0 -2.4414062E-4 5.873169 -2.4414062E-4 13.118103c0 7.244934 1.2207031E-4 13.118103 2.4414062E-4 13.118103l-457.7953 0c-1.2207031E-4 0 -2.1362305E-4 -5.873169 -2.1362305E-4 -13.118103c0 -7.244934 9.1552734E-5 -13.118103 2.1362305E-4 -13.118103z" fill-rule="evenodd"/><path fill="#92b6f1" d="m960.0 444.42007l0 0c1.2207031E-4 0 2.4414062E-4 5.873169 2.4414062E-4 13.118103c0 7.244934 -1.2207031E-4 13.118103 -2.4414062E-4 13.118103l0 0c-1.2207031E-4 0 -2.4414062E-4 -5.873169 -2.4414062E-4 -13.118103c0 -7.244934 1.2207031E-4 -13.118103 2.4414062E-4 -13.118103z" fill-rule="evenodd"/><path fill="#000000" fill-opacity="0.0" d="m960.0 470.65628l0 0c-1.2207031E-4 0 -2.4414062E-4 -5.873169 -2.4414062E-4 -13.118103c0 -7.244934 1.2207031E-4 -13.118103 2.4414062E-4 -13.118103l0 0c1.2207031E-4 0 2.4414062E-4 5.873169 2.4414062E-4 13.118103c0 7.244934 -1.2207031E-4 13.118103 -2.4414062E-4 13.118103l-457.7953 0c-1.2207031E-4 0 -2.1362305E-4 -5.873169 -2.1362305E-4 -13.118103c0 -7.244934 9.1552734E-5 -13.118103 2.1362305E-4 -13.118103l457.7953 0" fill-rule="evenodd"/><path fill="#4a86e8" d="m505.48532 95.58131l0 0c1.8112488 0 3.279541 -5.8731766 3.279541 -13.118103c0 -7.244934 -1.4682922 -13.118111 -3.279541 -13.118111l451.23624 0c1.8112183 0 3.279541 5.8731766 3.279541 13.118111c0 7.2449265 -1.4683228 13.118103 -3.279541 13.118103z" fill-rule="evenodd"/><path fill="#92b6f1" d="m505.48532 95.58131l0 0c-1.8112183 0 -3.279541 -5.8731766 -3.279541 -13.118103c0 -7.244934 1.4683228 -13.118111 3.279541 -13.118111l0 0c1.8112488 0 3.279541 5.8731766 3.279541 13.118111c0 7.2449265 -1.4682922 13.118103 -3.279541 13.118103z" fill-rule="evenodd"/><path fill="#000000" fill-opacity="0.0" d="m505.48532 69.34509l0 0c1.8112488 0 3.279541 5.8731766 3.279541 13.118111c0 7.2449265 -1.4682922 13.118103 -3.279541 13.118103l0 0c-1.8112183 0 -3.279541 -5.8731766 -3.279541 -13.118103c0 -7.244934 1.4683228 -13.118111 3.279541 -13.118111l451.23624 0c1.8112183 0 3.279541 5.8731766 3.279541 13.118111c0 7.2449265 -1.4683228 13.118103 -3.279541 13.118103l-451.23624 0" fill-rule="evenodd"/><path fill="#990000" d="m452.66013 494.82043l0 0c9.181061 0 16.62381 -100.65485 16.62381 -224.81888c0 -124.16406 -7.442749 -224.81891 -16.62381 -224.81891l107.94925 0c9.18103 0 16.62378 100.65485 16.62378 224.81891c0 124.16403 -7.442749 224.81888 -16.62378 224.81888z" fill-rule="evenodd"/><path fill="#c16666" d="m452.66013 494.82043l0 0c-9.181091 0 -16.62381 -100.65485 -16.62381 -224.81888c0 -124.16406 7.4427185 -224.81891 16.62381 -224.81891l0 0c9.181061 0 16.62381 100.65485 16.62381 224.81891c0 124.16403 -7.442749 224.81888 -16.62381 224.81888z" fill-rule="evenodd"/><path fill="#000000" fill-opacity="0.0" d="m452.66013 45.182644l0 0c9.181061 0 16.62381 100.65485 16.62381 224.81891c0 124.16403 -7.442749 224.81888 -16.62381 224.81888l0 0c-9.181091 0 -16.62381 -100.65485 -16.62381 -224.81888c0 -124.16406 7.4427185 -224.81891 16.62381 -224.81891l107.94925 0c9.18103 0 16.62378 100.65485 16.62378 224.81891c0 124.16403 -7.442749 224.81888 -16.62378 224.81888l-107.94925 0" fill-rule="evenodd"/><path fill="#8e7cc3" d="m27.583675 271.99435l18.236221 0l0 74.078735l-18.236221 0z" fill-rule="evenodd"/><path fill="#71639b" d="m45.819897 271.99435l6.078739 -6.0787354l0 74.078735l-6.078739 6.0787354z" fill-rule="evenodd"/><path fill="#a496cf" d="m27.583675 271.99435l6.078739 -6.0787354l18.236221 0l-6.078739 6.0787354z" fill-rule="evenodd"/><path fill="#000000" fill-opacity="0.0" d="m27.583675 271.99435l6.078739 -6.0787354l18.236221 0l0 74.078735l-6.078739 6.0787354l-18.236221 0zm0 0l18.236221 0l6.078739 -6.0787354m-6.078739 6.0787354l0 74.078735" fill-rule="evenodd"/><path fill="#ffd966" d="m82.57205 271.99435l18.236221 0l0 74.078735l-18.236221 0z" fill-rule="evenodd"/><path fill="#cbad51" d="m100.80827 271.99435l6.0787354 -6.0787354l0 74.078735l-6.0787354 6.0787354z" fill-rule="evenodd"/><path fill="#ffe084" d="m82.57205 271.99435l6.0787354 -6.0787354l18.236221 0l-6.0787354 6.0787354z" fill-rule="evenodd"/><path fill="#000000" fill-opacity="0.0" d="m82.57205 271.99435l6.0787354 -6.0787354l18.236221 0l0 74.078735l-6.0787354 6.0787354l-18.236221 0zm0 0l18.236221 0l6.0787354 -6.0787354m-6.0787354 6.0787354l0 74.078735" fill-rule="evenodd"/><path fill="#93c47d" d="m137.56042 271.99435l18.236221 0l0 74.078735l-18.236221 0z" fill-rule="evenodd"/><path fill="#759c63" d="m155.79665 271.99435l6.0787354 -6.0787354l0 74.078735l-6.0787354 6.0787354z" fill-rule="evenodd"/><path fill="#a8cf97" d="m137.56042 271.99435l6.0787354 -6.0787354l18.236221 0l-6.0787354 6.0787354z" fill-rule="evenodd"/><path fill="#000000" fill-opacity="0.0" d="m137.56042 271.99435l6.0787354 -6.0787354l18.236221 0l0 74.078735l-6.0787354 6.0787354l-18.236221 0zm0 0l18.236221 0l6.0787354 -6.0787354m-6.0787354 6.0787354l0 74.078735" fill-rule="evenodd"/><path fill="#ffd966" d="m192.5488 271.99435l18.236221 0l0 74.078735l-18.236221 0z" fill-rule="evenodd"/><path fill="#cbad51" d="m210.78502 271.99435l6.0787506 -6.0787354l0 74.078735l-6.0787506 6.0787354z" fill-rule="evenodd"/><path fill="#ffe084" d="m192.5488 271.99435l6.0787506 -6.0787354l18.236221 0l-6.0787506 6.0787354z" fill-rule="evenodd"/><path fill="#000000" fill-opacity="0.0" d="m192.5488 271.99435l6.0787506 -6.0787354l18.236221 0l0 74.078735l-6.0787506 6.0787354l-18.236221 0zm0 0l18.236221 0l6.0787506 -6.0787354m-6.0787506 6.0787354l0 74.078735" fill-rule="evenodd"/><path fill="#93c47d" d="m247.24867 271.99435l18.236221 0l0 74.078735l-18.236221 0z" fill-rule="evenodd"/><path fill="#759c63" d="m265.4849 271.99435l6.0787354 -6.0787354l0 74.078735l-6.0787354 6.0787354z" fill-rule="evenodd"/><path fill="#a8cf97" d="m247.24867 271.99435l6.0787506 -6.0787354l18.236206 0l-6.0787354 6.0787354z" fill-rule="evenodd"/><path fill="#000000" fill-opacity="0.0" d="m247.24867 271.99435l6.0787506 -6.0787354l18.236206 0l0 74.078735l-6.0787354 6.0787354l-18.236221 0zm0 0l18.236221 0l6.0787354 -6.0787354m-6.0787354 6.0787354l0 74.078735" fill-rule="evenodd"/><path fill="#8e7cc3" d="m302.52554 271.99435l18.236237 0l0 74.078735l-18.236237 0z" fill-rule="evenodd"/><path fill="#71639b" d="m320.76178 271.99435l6.0787354 -6.0787354l0 74.078735l-6.0787354 6.0787354z" fill-rule="evenodd"/><path fill="#a496cf" d="m302.52554 271.99435l6.0787354 -6.0787354l18.236237 0l-6.0787354 6.0787354z" fill-rule="evenodd"/><path fill="#000000" fill-opacity="0.0" d="m302.52554 271.99435l6.0787354 -6.0787354l18.236237 0l0 74.078735l-6.0787354 6.0787354l-18.236237 0zm0 0l18.236237 0l6.0787354 -6.0787354m-6.0787354 6.0787354l0 74.078735" fill-rule="evenodd"/><path fill="#e06666" d="m357.51392 271.99435l18.236237 0l0 74.078735l-18.236237 0z" fill-rule="evenodd"/><path fill="#b35151" d="m375.75015 271.99435l6.0787354 -6.0787354l0 74.078735l-6.0787354 6.0787354z" fill-rule="evenodd"/><path fill="#e68484" d="m357.51392 271.99435l6.078766 -6.0787354l18.236206 0l-6.0787354 6.0787354z" fill-rule="evenodd"/><path fill="#000000" fill-opacity="0.0" d="m357.51392 271.99435l6.078766 -6.0787354l18.236206 0l0 74.078735l-6.0787354 6.0787354l-18.236237 0zm0 0l18.236237 0l6.0787354 -6.0787354m-6.0787354 6.0787354l0 74.078735" fill-rule="evenodd"/><path fill="#8e7cc3" d="m412.5023 271.99435l18.236237 0l0 74.078735l-18.236237 0z" fill-rule="evenodd"/><path fill="#71639b" d="m430.73853 271.99435l6.0787354 -6.0787354l0 74.078735l-6.0787354 6.0787354z" fill-rule="evenodd"/><path fill="#a496cf" d="m412.5023 271.99435l6.078766 -6.0787354l18.236206 0l-6.0787354 6.0787354z" fill-rule="evenodd"/><path fill="#000000" fill-opacity="0.0" d="m412.5023 271.99435l6.078766 -6.0787354l18.236206 0l0 74.078735l-6.0787354 6.0787354l-18.236237 0zm0 0l18.236237 0l6.0787354 -6.0787354m-6.0787354 6.0787354l0 74.078735" fill-rule="evenodd"/><path fill="#93c47d" d="m27.872175 211.94125l18.23622 0l0 66.14172l-18.23622 0z" fill-rule="evenodd"/><path fill="#759c63" d="m46.108395 211.94125l6.078739 -6.0787354l0 66.14172l-6.078739 6.0787354z" fill-rule="evenodd"/><path fill="#a8cf97" d="m27.872175 211.94125l6.078741 -6.0787354l18.236217 0l-6.078739 6.0787354z" fill-rule="evenodd"/><path fill="#000000" fill-opacity="0.0" d="m27.872175 211.94125l6.078741 -6.0787354l18.236217 0l0 66.14172l-6.078739 6.0787354l-18.23622 0zm0 0l18.23622 0l6.078739 -6.0787354m-6.078739 6.0787354l0 66.14172" fill-rule="evenodd"/><path fill="#e06666" d="m82.86055 211.94125l18.236221 0l0 66.14172l-18.236221 0z" fill-rule="evenodd"/><path fill="#b35151" d="m101.09677 211.94125l6.0787354 -6.0787354l0 66.14172l-6.0787354 6.0787354z" fill-rule="evenodd"/><path fill="#e68484" d="m82.86055 211.94125l6.078743 -6.0787354l18.236214 0l-6.0787354 6.0787354z" fill-rule="evenodd"/><path fill="#000000" fill-opacity="0.0" d="m82.86055 211.94125l6.078743 -6.0787354l18.236214 0l0 66.14172l-6.0787354 6.0787354l-18.236221 0zm0 0l18.236221 0l6.0787354 -6.0787354m-6.0787354 6.0787354l0 66.14172" fill-rule="evenodd"/><path fill="#8e7cc3" d="m137.84892 211.94125l18.236221 0l0 66.14172l-18.236221 0z" fill-rule="evenodd"/><path fill="#71639b" d="m156.08514 211.94125l6.0787354 -6.0787354l0 66.14172l-6.0787354 6.0787354z" fill-rule="evenodd"/><path fill="#a496cf" d="m137.84892 211.94125l6.0787354 -6.0787354l18.236221 0l-6.0787354 6.0787354z" fill-rule="evenodd"/><path fill="#000000" fill-opacity="0.0" d="m137.84892 211.94125l6.0787354 -6.0787354l18.236221 0l0 66.14172l-6.0787354 6.0787354l-18.236221 0zm0 0l18.236221 0l6.0787354 -6.0787354m-6.0787354 6.0787354l0 66.14172" fill-rule="evenodd"/><path fill="#e06666" d="m192.8373 211.94125l18.236221 0l0 66.14172l-18.236221 0z" fill-rule="evenodd"/><path fill="#b35151" d="m211.07352 211.94125l6.0787506 -6.0787354l0 66.14172l-6.0787506 6.0787354z" fill-rule="evenodd"/><path fill="#e68484" d="m192.8373 211.94125l6.0787506 -6.0787354l18.236221 0l-6.0787506 6.0787354z" fill-rule="evenodd"/><path fill="#000000" fill-opacity="0.0" d="m192.8373 211.94125l6.0787506 -6.0787354l18.236221 0l0 66.14172l-6.0787506 6.0787354l-18.236221 0zm0 0l18.236221 0l6.0787506 -6.0787354m-6.0787506 6.0787354l0 66.14172" fill-rule="evenodd"/><path fill="#8e7cc3" d="m247.82567 211.94125l18.236221 0l0 66.14172l-18.236221 0z" fill-rule="evenodd"/><path fill="#71639b" d="m266.0619 211.94125l6.0787354 -6.0787354l0 66.14172l-6.0787354 6.0787354z" fill-rule="evenodd"/><path fill="#a496cf" d="m247.82567 211.94125l6.0787506 -6.0787354l18.236206 0l-6.0787354 6.0787354z" fill-rule="evenodd"/><path fill="#000000" fill-opacity="0.0" d="m247.82567 211.94125l6.0787506 -6.0787354l18.236206 0l0 66.14172l-6.0787354 6.0787354l-18.236221 0zm0 0l18.236221 0l6.0787354 -6.0787354m-6.0787354 6.0787354l0 66.14172" fill-rule="evenodd"/><path fill="#93c47d" d="m302.52554 211.94125l18.236237 0l0 66.14172l-18.236237 0z" fill-rule="evenodd"/><path fill="#759c63" d="m320.76178 211.94125l6.0787354 -6.0787354l0 66.14172l-6.0787354 6.0787354z" fill-rule="evenodd"/><path fill="#a8cf97" d="m302.52554 211.94125l6.0787354 -6.0787354l18.236237 0l-6.0787354 6.0787354z" fill-rule="evenodd"/><path fill="#000000" fill-opacity="0.0" d="m302.52554 211.94125l6.0787354 -6.0787354l18.236237 0l0 66.14172l-6.0787354 6.0787354l-18.236237 0zm0 0l18.236237 0l6.0787354 -6.0787354m-6.0787354 6.0787354l0 66.14172" fill-rule="evenodd"/><path fill="#ffd966" d="m357.80243 211.94125l18.236206 0l0 66.14172l-18.236206 0z" fill-rule="evenodd"/><path fill="#cbad51" d="m376.03864 211.94125l6.078766 -6.0787354l0 66.14172l-6.078766 6.0787354z" fill-rule="evenodd"/><path fill="#ffe084" d="m357.80243 211.94125l6.0787354 -6.0787354l18.236237 0l-6.078766 6.0787354z" fill-rule="evenodd"/><path fill="#000000" fill-opacity="0.0" d="m357.80243 211.94125l6.0787354 -6.0787354l18.236237 0l0 66.14172l-6.078766 6.0787354l-18.236206 0zm0 0l18.236206 0l6.078766 -6.0787354m-6.078766 6.0787354l0 66.14172" fill-rule="evenodd"/><path fill="#93c47d" d="m412.5023 211.94125l18.236237 0l0 66.14172l-18.236237 0z" fill-rule="evenodd"/><path fill="#759c63" d="m430.73853 211.94125l6.0787354 -6.0787354l0 66.14172l-6.0787354 6.0787354z" fill-rule="evenodd"/><path fill="#a8cf97" d="m412.5023 211.94125l6.078766 -6.0787354l18.236206 0l-6.0787354 6.0787354z" fill-rule="evenodd"/><path fill="#000000" fill-opacity="0.0" d="m412.5023 211.94125l6.078766 -6.0787354l18.236206 0l0 66.14172l-6.0787354 6.0787354l-18.236237 0zm0 0l18.236237 0l6.0787354 -6.0787354m-6.0787354 6.0787354l0 66.14172" fill-rule="evenodd"/><path fill="#4a86e8" d="m3.2795277 215.81038l0 0c1.811233 0 3.2795277 -5.873184 3.2795277 -13.118118c0 -7.244934 -1.4682946 -13.118103 -3.2795277 -13.118103l451.2362 0c1.8112488 0 3.279541 5.873169 3.279541 13.118103c0 7.244934 -1.4682922 13.118118 -3.279541 13.118118z" fill-rule="evenodd"/><path fill="#92b6f1" d="m3.2795277 215.81038l0 0c-1.8112332 0 -3.2795277 -5.873184 -3.2795277 -13.118118c-1.988475E-15 -7.244934 1.4682945 -13.118103 3.2795277 -13.118103l0 0c1.811233 0 3.2795277 5.873169 3.2795277 13.118103c0 7.244934 -1.4682946 13.118118 -3.2795277 13.118118z" fill-rule="evenodd"/><path fill="#000000" fill-opacity="0.0" d="m3.2795277 189.57416l0 0c1.811233 0 3.2795277 5.873169 3.2795277 13.118103c0 7.244934 -1.4682946 13.118118 -3.2795277 13.118118l0 0c-1.8112332 0 -3.2795277 -5.873184 -3.2795277 -13.118118c-1.9884753E-15 -7.244934 1.4682945 -13.118103 3.2795277 -13.118103l451.2362 0c1.8112488 0 3.279541 5.873169 3.279541 13.118103c0 7.244934 -1.4682922 13.118118 -3.279541 13.118118l-451.2362 0" fill-rule="evenodd"/><path fill="#4a86e8" d="m457.78323 339.67505l0 0c-1.2207031E-4 0 -2.1362305E-4 5.873169 -2.1362305E-4 13.118103c0 7.244934 9.1552734E-5 13.118103 2.1362305E-4 13.118103l-457.7953 0c-1.207497E-4 0 -2.1863542E-4 -5.873169 -2.1863542E-4 -13.118103c0 -7.244934 9.788573E-5 -13.118103 2.1863542E-4 -13.118103z" fill-rule="evenodd"/><path fill="#92b6f1" d="m457.78323 339.67505l0 0c1.2207031E-4 0 2.1362305E-4 5.873169 2.1362305E-4 13.118103c0 7.244934 -9.1552734E-5 13.118103 -2.1362305E-4 13.118103l0 0c-1.2207031E-4 0 -2.1362305E-4 -5.873169 -2.1362305E-4 -13.118103c0 -7.244934 9.1552734E-5 -13.118103 2.1362305E-4 -13.118103z" fill-rule="evenodd"/><path fill="#000000" fill-opacity="0.0" d="m457.78323 365.91125l0 0c-1.2207031E-4 0 -2.1362305E-4 -5.873169 -2.1362305E-4 -13.118103c0 -7.244934 9.1552734E-5 -13.118103 2.1362305E-4 -13.118103l0 0c1.2207031E-4 0 2.1362305E-4 5.873169 2.1362305E-4 13.118103c0 7.244934 -9.1552734E-5 13.118103 -2.1362305E-4 13.118103l-457.7953 0c-1.207497E-4 0 -2.1863542E-4 -5.873169 -2.1863542E-4 -13.118103c0 -7.244934 9.788573E-5 -13.118103 2.1863542E-4 -13.118103l457.7953 0" fill-rule="evenodd"/><path fill="#cfe2f3" d="m496.93527 240.67505c-0.6954346 0 -1.1919556 0.13470459 -1.489563 0.40411377c-0.2944641 0.26626587 -0.4416809 0.61553955 -0.4416809 1.0478363c0 0.39471436 0.12844849 0.7236328 0.38531494 0.98677063c0.26000977 0.26313782 0.6437378 0.41819763 1.1512146 0.46517944l0 11.305466c-0.043121338 -5.493164E-4 -0.085357666 -8.239746E-4 -0.12670898 -8.239746E-4c-0.6618042 0 -1.098877 0.070755005 -1.3111572 0.21228027c-0.46047974 0.2913208 -0.69073486 0.700119 -0.69073486 1.2263947c0 0.432312 0.14724731 0.7831421 0.44171143 1.0525513c0.2975769 0.26626587 0.7940979 0.39941406 1.4895325 0.39941406l3.5382996 0c0.6954346 0 1.1903687 -0.1331482 1.4848328 -0.39941406c0.29760742 -0.26940918 0.44641113 -0.61553955 0.44641113 -1.0384521c0 -0.43229675 -0.14880371 -0.78157043 -0.44641113 -1.0478516c-0.2944641 -0.26939392 -0.7893982 -0.4040985 -1.4848328 -0.4040985l-0.45111084 0l0 -4.1866913l6.1743774 0l0 4.1866913l-0.45111084 0c-0.68603516 0 -1.1794128 0.13470459 -1.480133 0.4040985c-0.30075073 0.26628113 -0.45111084 0.6108551 -0.45111084 1.0337524c0 0.432312 0.14724731 0.7831421 0.44171143 1.0525513c0.2975769 0.26626587 0.7940979 0.39941406 1.4895325 0.39941406l3.5382996 0c0.6954346 0 1.1903687 -0.1331482 1.4848328 -0.39941406c0.29760742 -0.26940918 0.44641113 -0.61553955 0.44641113 -1.0384521c0 -0.53567505 -0.23025513 -0.949173 -0.69073486 -1.2404938c-0.216156 -0.14097595 -0.6954651 -0.2114563 -1.4378662 -0.2114563l0 -11.305466c0.5074768 -0.04698181 0.88964844 -0.20204163 1.1465149 -0.46517944c0.26000977 -0.26313782 0.39001465 -0.5920563 0.39001465 -0.98677063c0 -0.43229675 -0.14880371 -0.78001404 -0.44638062 -1.0431366c-0.29449463 -0.26313782 -0.7894287 -0.39471436 -1.4848633 -0.39471436l-2.946228 -0.014099121c-0.6954346 0 -1.1919556 0.13470459 -1.4895325 0.40411377c-0.2944641 0.26626587 -0.44171143 0.61553955 -0.44171143 1.0478363c0 0.43229675 0.14724731 0.7831421 0.44171143 1.0525513c0.2975769 0.26626587 0.7940979 0.3993988 1.4895325 0.3993988l0.45111084 0l0 4.2289734l-6.1743774 0l0 -4.2289734l0.45111084 0c0.6954346 0 1.1903687 -0.13313293 1.4848328 -0.3993988c0.29760742 -0.26940918 0.44641113 -0.6202545 0.44641113 -1.0525513c0 -0.43229675 -0.14880371 -0.78001404 -0.44641113 -1.0431366c-0.2944641 -0.26313782 -0.7893982 -0.39471436 -1.4848328 -0.39471436l-2.946228 -0.014099121z" fill-rule="evenodd"/><path fill="#cfe2f3" d="m519.5323 247.4837c0.9868164 0 1.8372803 0.20518494 2.5515137 0.6155548c0.7142334 0.40724182 1.2922363 1.024353 1.7339478 1.8513489l-8.570862 0c0.45111084 -0.82699585 1.0338135 -1.444107 1.7480469 -1.8513489c0.7142334 -0.41036987 1.5599976 -0.6155548 2.5373535 -0.6155548zm-0.07043457 -2.889801c-1.954773 0 -3.682373 0.6374817 -5.1829224 1.9124451c-1.4973755 1.2718201 -2.2460938 2.9226837 -2.2460938 4.952591c0 1.9077454 0.6923218 3.5147552 2.0769653 4.8210297c1.3876953 1.3063049 3.2375488 1.9594421 5.5493774 1.9594421c1.3438721 0 2.7441406 -0.15664673 4.2008057 -0.46987915c1.456665 -0.31640625 2.3729858 -0.648468 2.7489014 -0.9961853c0.2819214 -0.26312256 0.4229126 -0.5826416 0.4229126 -0.9585571c0 -0.41349792 -0.1315918 -0.7565155 -0.39471436 -1.0290527c-0.2631836 -0.27252197 -0.58740234 -0.40879822 -0.9727173 -0.40879822c-0.2819214 0 -0.7893677 0.09397888 -1.5223999 0.28193665c-1.7761841 0.46047974 -3.1999512 0.69073486 -4.2713013 0.69073486c-1.3063354 0 -2.3432007 -0.23025513 -3.1107178 -0.69073486c-0.76434326 -0.460495 -1.296875 -1.0666504 -1.5975952 -1.8184662l11.855347 0l0 -1.2263947c0 -0.93977356 -0.15039062 -1.7667847 -0.45111084 -2.4810028c-0.44171143 -1.024353 -1.0008545 -1.8842468 -1.6774902 -2.5796814c-0.47930908 -0.47927856 -1.2107544 -0.92567444 -2.194397 -1.3391724c-0.9805298 -0.41349792 -2.0581665 -0.6202545 -3.2328491 -0.6202545z" fill-rule="evenodd"/><path fill="#cfe2f3" d="m533.3189 239.49094c-0.6954346 0 -1.1919556 0.13470459 -1.489563 0.40411377c-0.2944336 0.26626587 -0.44171143 0.61083984 -0.44171143 1.0337372c0 0.43229675 0.15039062 0.7831421 0.45111084 1.0525513c0.3007202 0.26626587 0.7941284 0.3993988 1.4801636 0.3993988l2.3259277 0l0 12.503677l-3.4677734 0c-0.6954346 0 -1.1919556 0.13470459 -1.489563 0.4040985c-0.2944336 0.26628113 -0.4416504 0.6108551 -0.4416504 1.0337524c0 0.432312 0.1472168 0.7831421 0.4416504 1.0525513c0.29760742 0.26626587 0.7941284 0.39941406 1.489563 0.39941406l9.825439 0c0.6954346 0 1.1903687 -0.1331482 1.4848633 -0.39941406c0.2975464 -0.26940918 0.4463501 -0.61553955 0.4463501 -1.0384521c0 -0.43229675 -0.14880371 -0.78157043 -0.4463501 -1.0478516c-0.29449463 -0.26939392 -0.7894287 -0.4040985 -1.4848633 -0.4040985l-3.4678345 0l0 -15.393478z" fill-rule="evenodd"/><path fill="#cfe2f3" d="m552.01117 239.49094l0 3.05896l3.4395752 0l0 -3.05896zm-1.3814697 5.4835815c-0.6954346 0 -1.1919556 0.13470459 -1.489563 0.4040985c-0.29449463 0.26626587 -0.44171143 0.6108551 -0.44171143 1.0337524c0 0.43229675 0.15039062 0.7831421 0.45111084 1.052536c0.3007202 0.26628113 0.7941284 0.39941406 1.4801636 0.39941406l2.3259277 0l0 7.020096l-3.4677734 0c-0.6954346 0 -1.1919556 0.13470459 -1.489563 0.4040985c-0.2944336 0.26628113 -0.44171143 0.6108551 -0.44171143 1.0337524c0 0.432312 0.14727783 0.7831421 0.44171143 1.0525513c0.29760742 0.26626587 0.7941284 0.39941406 1.489563 0.39941406l9.825378 0c0.6954346 0 1.1904297 -0.1331482 1.4848633 -0.39941406c0.29760742 -0.26940918 0.44641113 -0.61553955 0.44641113 -1.0384521c0 -0.43229675 -0.14880371 -0.78157043 -0.44641113 -1.0478516c-0.2944336 -0.26939392 -0.7894287 -0.4040985 -1.4848633 -0.4040985l-3.4677734 0l0 -9.909897z" fill-rule="evenodd"/><path fill="#cfe2f3" d="m502.8136 279.17755c-2.2084656 0 -3.9987488 0.6750488 -5.3708496 2.0252075c-1.3720703 1.3470154 -2.0581055 3.0495605 -2.0581055 5.107666c0 2.170868 0.8457947 3.881256 2.5374146 5.1311646c1.2499084 0.9303589 2.9978943 1.3955383 5.2439575 1.3955383c2.499817 0 4.3981934 -0.4275818 5.695099 -1.2827759c0.8739929 -0.5732727 1.3109741 -1.1794128 1.3109741 -1.8184509c0 -0.39471436 -0.144104 -0.73773193 -0.4322815 -1.0290527c-0.2850647 -0.29135132 -0.6249695 -0.43701172 -1.0196838 -0.43701172c-0.32891846 0 -0.6954346 0.18170166 -1.0995483 0.54507446c-0.40408325 0.36026 -0.83169556 0.61553955 -1.2827759 0.7659302c-0.76123047 0.24432373 -1.7433167 0.3664856 -2.946228 0.3664856c-1.8325806 0 -3.1435547 -0.32577515 -3.9329834 -0.97735596c-0.7894287 -0.6546936 -1.1841125 -1.545929 -1.1841125 -2.673645c0 -1.2217102 0.41036987 -2.231964 1.2311096 -3.0307617c0.82388306 -0.7988281 1.9171448 -1.1982117 3.2798462 -1.1982117c1.1841125 0 2.1567688 0.2255249 2.9179993 0.67663574c0.432312 0.25372314 0.704834 0.6421814 0.81762695 1.1653137c0.11276245 0.52001953 0.26782227 0.8645935 0.46517944 1.0337524c0.2725525 0.22555542 0.60617065 0.33831787 1.0008545 0.33831787c0.432312 0 0.7815857 -0.1456604 1.0478821 -0.43701172c0.26937866 -0.2913208 0.40408325 -0.7846985 0.40408325 -1.480133l0 -1.8607483c0 -0.68603516 -0.13470459 -1.1762695 -0.40408325 -1.4707336c-0.2662964 -0.29760742 -0.60617065 -0.44641113 -1.0196838 -0.44641113c-0.3665161 0 -0.7236328 0.16445923 -1.0713501 0.4933777c-0.5826416 -0.3007202 -1.2170105 -0.5262451 -1.9030457 -0.67663574c-0.68603516 -0.1503601 -1.4284668 -0.2255249 -2.227295 -0.2255249z" fill-rule="evenodd"/><path fill="#cfe2f3" d="m519.16583 286.8461c0.97735596 0 2.0440063 0.11276245 3.1999512 0.33831787l0 1.2404785c-0.6860962 0.46990967 -1.4692383 0.841095 -2.3494873 1.1136475c-0.87713623 0.27252197 -1.6633911 0.40878296 -2.3588257 0.40878296c-0.81762695 0 -1.4613647 -0.15505981 -1.9312744 -0.46517944c-0.25372314 -0.16915894 -0.38061523 -0.39001465 -0.38061523 -0.6625366c0 -0.37591553 0.26312256 -0.74713135 0.7894287 -1.113617c0.8458252 -0.5732727 1.8560791 -0.8598938 3.0308228 -0.8598938zm0.42285156 -7.6685486c-0.6014404 0 -1.2733765 0.059509277 -2.015808 0.17855835c-0.74243164 0.11590576 -1.4707642 0.27252197 -2.1849976 0.46987915c-0.53564453 0.1503601 -0.8880615 0.280365 -1.057251 0.39001465c-0.16918945 0.10650635 -0.3007202 0.24902344 -0.39471436 0.4275818c-0.09399414 0.17855835 -0.14093018 0.39001465 -0.14093018 0.6343384c0 0.432312 0.13311768 0.7878418 0.39935303 1.0666504c0.26940918 0.27566528 0.59680176 0.41351318 0.9821167 0.41351318c0.2819214 0 0.67663574 -0.06109619 1.184082 -0.18325806c1.3627319 -0.33831787 2.4716187 -0.5074768 3.3268433 -0.5074768c1.0431519 0 1.7495728 0.13626099 2.1192017 0.40878296c0.37280273 0.2725525 0.5592041 0.6249695 0.5592041 1.057251l0 0.69073486c-1.1465454 -0.18795776 -2.1567993 -0.2819214 -3.0308228 -0.2819214c-2.1802979 0 -3.8890991 0.519989 -5.126526 1.5600281c-1.2342529 1.0368652 -1.8513184 2.1614685 -1.8513184 3.3737793c0 0.9961548 0.48394775 1.9061584 1.4519043 2.7300415c0.9680176 0.82073975 2.227295 1.2310791 3.777954 1.2310791c0.7142334 0 1.5083618 -0.09710693 2.3823242 -0.2913208c0.87402344 -0.19107056 1.6728516 -0.47927856 2.3964844 -0.8645935l0 0.67663574l3.3831787 0c0.6954346 0 1.1903687 -0.13311768 1.4848633 -0.39938354c0.29760742 -0.26940918 0.44641113 -0.61557007 0.44641113 -1.0384521c0 -0.432312 -0.14880371 -0.7815857 -0.44641113 -1.0478516c-0.29449463 -0.26940918 -0.7894287 -0.40411377 -1.4848633 -0.40411377l-0.49334717 0l0 -5.948761c0 -1.3438721 -0.496521 -2.4026794 -1.489563 -3.176422c-0.9899292 -0.776886 -2.3823853 -1.1653137 -4.177368 -1.1653137z" fill-rule="evenodd"/><path fill="#cfe2f3" d="m537.0827 279.17755c-1.9171143 0 -3.4677734 0.46987915 -4.6519165 1.4096375c-0.8739624 0.68603516 -1.3109741 1.545929 -1.3109741 2.5796814c0 1.0055542 0.39001465 1.8513489 1.170044 2.537384c0.7800293 0.6954346 2.3306274 1.1653137 4.6519165 1.409668c1.5600586 0.16915894 2.5891113 0.37591553 3.0871582 0.62023926c0.4981079 0.24435425 0.74713135 0.5544739 0.74713135 0.9303894c0 0.22555542 -0.17382812 0.4416809 -0.5215454 0.6484375c-0.7330322 0.41351318 -1.762085 0.62023926 -3.0872192 0.62023926c-0.8081665 0 -1.5224609 -0.09552002 -2.1427002 -0.2866211c-0.62023926 -0.19421387 -1.1512451 -0.47927856 -1.5928955 -0.8551941c-0.1315918 -0.46987915 -0.31481934 -0.800354 -0.5498047 -0.9914551c-0.23492432 -0.19421387 -0.5262451 -0.2913208 -0.8739624 -0.2913208c-0.432312 0 -0.7831421 0.14880371 -1.0525513 0.44638062c-0.2662964 0.2944641 -0.39941406 0.7893982 -0.39941406 1.4848328l0 0.97268677c0 0.6954346 0.13311768 1.191925 0.39941406 1.4895325c0.26940918 0.2944641 0.6296387 0.4416809 1.0807495 0.4416809c0.16912842 0 0.33361816 -0.03289795 0.49334717 -0.09866333c0.15979004 -0.0657959 0.31011963 -0.15975952 0.45111084 -0.2819214c0.592041 0.2819214 1.2420654 0.49493408 1.9500122 0.6390381c0.7111206 0.1472168 1.4848633 0.2208252 2.321289 0.2208252c2.0863037 0 3.7825928 -0.5027771 5.088928 -1.5083313c0.91156006 -0.6954346 1.3673706 -1.5599976 1.3673706 -2.59375c0 -0.76123047 -0.26782227 -1.4848633 -0.80352783 -2.1708984c-0.53564453 -0.68603516 -1.296875 -1.2029114 -2.2836304 -1.5506287c-0.75183105 -0.26312256 -2.0863647 -0.5262451 -4.003479 -0.7893982c-1.0431519 -0.1409607 -1.7150879 -0.2866211 -2.0158691 -0.4369812c-0.39465332 -0.20675659 -0.592041 -0.4182129 -0.592041 -0.6343689c0 -0.18792725 0.14569092 -0.3617859 0.43701172 -0.5215454c0.6578369 -0.3665161 1.5459595 -0.54977417 2.6642456 -0.54977417c0.5639038 0 1.104248 0.0736084 1.6211548 0.2208252c0.5168457 0.144104 1.0102539 0.3618164 1.4801636 0.6531677c0.07519531 0.3571167 0.24432373 0.6437378 0.5074463 0.8598938c0.2631836 0.21612549 0.5686035 0.32421875 0.9163208 0.32421875c0.5168457 0 0.9256592 -0.216156 1.2263794 -0.648468c0.15039062 -0.2255249 0.22558594 -0.6531372 0.22558594 -1.2827759l0 -0.704834c0 -0.6954346 -0.1315918 -1.1903687 -0.39471436 -1.4848328c-0.26312256 -0.29760742 -0.59210205 -0.44638062 -0.9867554 -0.44638062c-0.1315918 0 -0.2756958 0.03286743 -0.432312 0.09866333c-0.15350342 0.0657959 -0.31951904 0.16445923 -0.4981079 0.2960205c-0.5638428 -0.26312256 -1.1543579 -0.45733643 -1.7714844 -0.5826416c-0.6140137 -0.12844849 -1.2545776 -0.19265747 -1.921875 -0.19265747z" fill-rule="evenodd"/><path fill="#cfe2f3" d="m554.18207 282.06735c0.9867554 0 1.8372803 0.20516968 2.5515137 0.61553955c0.7142334 0.40722656 1.2921753 1.024353 1.7338867 1.8513489l-8.570801 0c0.4510498 -0.82699585 1.0337524 -1.4441223 1.7479858 -1.8513489c0.7142334 -0.41036987 1.5599976 -0.61553955 2.5374146 -0.61553955zm-0.070495605 -2.889801c-1.954773 0 -3.682373 0.6374817 -5.1829224 1.9124146c-1.4973755 1.2718506 -2.2460327 2.922699 -2.2460327 4.952606c0 1.9077454 0.69226074 3.5147705 2.0769043 4.821045c1.3877563 1.3062744 3.2375488 1.9594116 5.5493774 1.9594116c1.3439331 0 2.7442017 -0.15661621 4.2008667 -0.46987915c1.456665 -0.31637573 2.3729248 -0.6484375 2.7488403 -0.9961548c0.2819214 -0.26312256 0.4229126 -0.5826416 0.4229126 -0.9585571c0 -0.41351318 -0.1315918 -0.75653076 -0.39471436 -1.0290527c-0.26312256 -0.2725525 -0.5873413 -0.40881348 -0.97265625 -0.40881348c-0.28198242 0 -0.7894287 0.09399414 -1.5224609 0.2819519c-1.7761841 0.46047974 -3.1999512 0.69070435 -4.2713013 0.69070435c-1.3063354 0 -2.3432007 -0.23022461 -3.1107178 -0.69070435c-0.76434326 -0.46051025 -1.296875 -1.0666504 -1.5975952 -1.8184814l11.855347 0l0 -1.2264099c0 -0.9397583 -0.15039062 -1.7667542 -0.45111084 -2.4809875c-0.44171143 -1.024353 -1.0008545 -1.8842468 -1.6774902 -2.5796814c-0.47930908 -0.47927856 -1.2107544 -0.9256592 -2.194397 -1.3391724c-0.9805298 -0.41348267 -2.0581055 -0.62023926 -3.2328491 -0.62023926z" fill-rule="evenodd"/><path fill="#ffffff" d="m82.944885 76.43044l231.50394 0l0 -24.425194l60.40158 48.850395l-60.40158 48.850395l0 -24.425201l-231.50394 0z" fill-rule="evenodd"/></g></svg>