<svg version="1.1" viewBox="0.0 0.0 960.0 540.0" fill="none" stroke="none" stroke-linecap="square" stroke-miterlimit="10" xmlns:xlink="http://www.w3.org/1999/xlink" xmlns="http://www.w3.org/2000/svg"><clipPath id="p.0"><path d="m0 0l960.0 0l0 540.0l-960.0 0l0 -540.0z" clip-rule="nonzero"/></clipPath><g clip-path="url(#p.0)"><path fill="#000000" fill-opacity="0.0" d="m0 0l960.0 0l0 540.0l-960.0 0z" fill-rule="evenodd"/><path fill="#8e7cc3" d="m156.41147 97.21408l14.337051 -1.110115l3.161026 41.234413l-14.337051 1.1101074z" fill-rule="evenodd"/><path fill="#71639b" d="m170.74852 96.103966l4.4145203 -5.151535l3.161026 41.234413l-4.4145203 5.151535z" fill-rule="evenodd"/><path fill="#a496cf" d="m156.41147 97.21408l4.4145203 -5.151535l14.337051 -1.110115l-4.4145203 5.151535z" fill-rule="evenodd"/><path fill="#000000" fill-opacity="0.0" d="m156.41147 97.21408l4.4145203 -5.151535l14.337051 -1.110115l3.161026 41.234413l-4.4145203 5.151535l-14.337051 1.1101074zm0 0l14.337051 -1.110115l4.4145203 -5.151535m-4.4145203 5.151535l3.161026 41.234413" fill-rule="evenodd"/><path fill="#93c47d" d="m101.42754 100.612144l14.337051 -1.110115l3.161026 41.234406l-14.337059 1.1101227z" fill-rule="evenodd"/><path fill="#759c63" d="m115.764595 99.50203l4.4145203 -5.151535l3.161026 41.234406l-4.4145203 5.151535z" fill-rule="evenodd"/><path fill="#a8cf97" d="m101.42754 100.612144l4.4145203 -5.151535l14.337051 -1.110115l-4.4145203 5.151535z" fill-rule="evenodd"/><path fill="#000000" fill-opacity="0.0" d="m101.42754 100.612144l4.4145203 -5.151535l14.337051 -1.110115l3.161026 41.234406l-4.4145203 5.151535l-14.337059 1.1101227zm0 0l14.337051 -1.110115l4.4145203 -5.151535m-4.4145203 5.151535l3.161026 41.234406" fill-rule="evenodd"/><path fill="#e06666" d="m211.3218 92.31063l14.337051 -1.110115l3.161026 41.234406l-14.337051 1.1101227z" fill-rule="evenodd"/><path fill="#b35151" d="m225.65884 91.200516l4.4145203 -5.151535l3.161026 41.234406l-4.4145203 5.151535z" fill-rule="evenodd"/><path fill="#e68484" d="m211.3218 92.31063l4.4145203 -5.151535l14.337051 -1.110115l-4.4145203 5.151535z" fill-rule="evenodd"/><path fill="#000000" fill-opacity="0.0" d="m211.3218 92.31063l4.4145203 -5.151535l14.337051 -1.110115l3.161026 41.234406l-4.4145203 5.151535l-14.337051 1.1101227zm0 0l14.337051 -1.110115l4.4145203 -5.151535m-4.4145203 5.151535l3.161026 41.234406" fill-rule="evenodd"/><path fill="#93c47d" d="m266.26324 87.18468l14.337067 -1.1101227l3.1610107 41.234413l-14.337067 1.110115z" fill-rule="evenodd"/><path fill="#759c63" d="m280.6003 86.074554l4.4145203 -5.151535l3.1610107 41.234413l-4.4145203 5.151535z" fill-rule="evenodd"/><path fill="#a8cf97" d="m266.26324 87.18468l4.4145203 -5.151535l14.337067 -1.1101227l-4.4145203 5.151535z" fill-rule="evenodd"/><path fill="#000000" fill-opacity="0.0" d="m266.26324 87.18468l4.4145203 -5.151535l14.337067 -1.1101227l3.1610107 41.234413l-4.4145203 5.151535l-14.337067 1.110115zm0 0l14.337067 -1.1101227l4.4145203 -5.151535m-4.4145203 5.151535l3.1610107 41.234413" fill-rule="evenodd"/><path fill="#ffd966" d="m321.3981 83.94037l14.337067 -1.110115l3.1610107 41.234406l-14.337036 1.1101227z" fill-rule="evenodd"/><path fill="#cbad51" d="m335.73517 82.83025l4.4145203 -5.151535l3.1610107 41.234406l-4.4145203 5.151535z" fill-rule="evenodd"/><path fill="#ffe084" d="m321.3981 83.94037l4.4145203 -5.151535l14.337067 -1.110115l-4.4145203 5.151535z" fill-rule="evenodd"/><path fill="#000000" fill-opacity="0.0" d="m321.3981 83.94037l4.4145203 -5.151535l14.337067 -1.110115l3.1610107 41.234406l-4.4145203 5.151535l-14.337036 1.1101227zm0 0l14.337067 -1.110115l4.4145203 -5.151535m-4.4145203 5.151535l3.1610107 41.234406" fill-rule="evenodd"/><path fill="#8e7cc3" d="m378.32898 80.077095l14.337036 -1.110115l3.1610413 41.234406l-14.337067 1.1101227z" fill-rule="evenodd"/><path fill="#71639b" d="m392.66602 78.96698l4.4145203 -5.151535l3.1610413 41.234406l-4.4145203 5.151535z" fill-rule="evenodd"/><path fill="#a496cf" d="m378.32898 80.077095l4.4145203 -5.151535l14.337036 -1.110115l-4.4145203 5.151535z" fill-rule="evenodd"/><path fill="#000000" fill-opacity="0.0" d="m378.32898 80.077095l4.4145203 -5.151535l14.337036 -1.110115l3.1610413 41.234406l-4.4145203 5.151535l-14.337067 1.1101227zm0 0l14.337036 -1.110115l4.4145203 -5.151535m-4.4145203 5.151535l3.1610413 41.234406" fill-rule="evenodd"/><path fill="#8e7cc3" d="m435.2649 75.77832l14.337036 -1.110115l3.1610413 41.234413l-14.337067 1.110115z" fill-rule="evenodd"/><path fill="#71639b" d="m449.60193 74.668205l4.4145203 -5.151535l3.1610413 41.234406l-4.4145203 5.1515427z" fill-rule="evenodd"/><path fill="#a496cf" d="m435.2649 75.77832l4.4145203 -5.151535l14.337036 -1.110115l-4.4145203 5.151535z" fill-rule="evenodd"/><path fill="#000000" fill-opacity="0.0" d="m435.2649 75.77832l4.4145203 -5.151535l14.337036 -1.110115l3.1610413 41.234406l-4.4145203 5.1515427l-14.337067 1.110115zm0 0l14.337036 -1.110115l4.4145203 -5.151535m-4.4145203 5.151535l3.1610413 41.234413" fill-rule="evenodd"/><path fill="#8e7cc3" d="m263.25293 48.51343l14.337036 -1.1101189l3.1610413 41.234413l-14.337067 1.110115z" fill-rule="evenodd"/><path fill="#71639b" d="m277.58997 47.403313l4.4145203 -5.151535l3.1610413 41.234406l-4.4145203 5.1515427z" fill-rule="evenodd"/><path fill="#a496cf" d="m263.25293 48.51343l4.4145203 -5.151535l14.337036 -1.1101189l-4.4145203 5.151535z" fill-rule="evenodd"/><path fill="#000000" fill-opacity="0.0" d="m263.25293 48.51343l4.4145203 -5.151535l14.337036 -1.1101189l3.1610413 41.234406l-4.4145203 5.1515427l-14.337067 1.110115zm0 0l14.337036 -1.1101189l4.4145203 -5.151535m-4.4145203 5.151535l3.1610413 41.234413" fill-rule="evenodd"/><path fill="#e06666" d="m318.35907 44.84631l14.337067 -1.1101189l3.1610107 41.234406l-14.337036 1.1101227z" fill-rule="evenodd"/><path fill="#b35151" d="m332.69614 43.73619l4.4145203 -5.151535l3.1610107 41.234406l-4.4145203 5.151535z" fill-rule="evenodd"/><path fill="#e68484" d="m318.35907 44.84631l4.4145203 -5.151539l14.337067 -1.110115l-4.4145203 5.151535z" fill-rule="evenodd"/><path fill="#000000" fill-opacity="0.0" d="m318.35907 44.84631l4.4145203 -5.151539l14.337067 -1.110115l3.1610107 41.234406l-4.4145203 5.151535l-14.337036 1.1101227zm0 0l14.337067 -1.1101189l4.4145203 -5.151535m-4.4145203 5.151535l3.1610107 41.234406" fill-rule="evenodd"/><path fill="#93c47d" d="m375.21265 40.580643l14.337067 -1.1101189l3.1610107 41.23441l-14.337036 1.110115z" fill-rule="evenodd"/><path fill="#759c63" d="m389.5497 39.470524l4.4145203 -5.151535l3.1610107 41.23441l-4.4145203 5.151535z" fill-rule="evenodd"/><path fill="#a8cf97" d="m375.21265 40.580643l4.4145203 -5.151539l14.337067 -1.110115l-4.4145203 5.151535z" fill-rule="evenodd"/><path fill="#000000" fill-opacity="0.0" d="m375.21265 40.580643l4.4145203 -5.151539l14.337067 -1.110115l3.1610107 41.23441l-4.4145203 5.151535l-14.337036 1.110115zm0 0l14.337067 -1.1101189l4.4145203 -5.151535m-4.4145203 5.151535l3.1610107 41.23441" fill-rule="evenodd"/><path fill="#93c47d" d="m432.13715 35.48351l14.337036 -1.1101189l3.1610413 41.234413l-14.337067 1.110115z" fill-rule="evenodd"/><path fill="#759c63" d="m446.47418 34.37339l4.4145203 -5.151535l3.1610413 41.234406l-4.4145203 5.1515427z" fill-rule="evenodd"/><path fill="#a8cf97" d="m432.13715 35.48351l4.4145203 -5.151537l14.337036 -1.110117l-4.4145203 5.151535z" fill-rule="evenodd"/><path fill="#000000" fill-opacity="0.0" d="m432.13715 35.48351l4.4145203 -5.151537l14.337036 -1.110117l3.1610413 41.234406l-4.4145203 5.1515427l-14.337067 1.110115zm0 0l14.337036 -1.1101189l4.4145203 -5.151535m-4.4145203 5.151535l3.1610413 41.234413" fill-rule="evenodd"/><path fill="#ffd966" d="m208.28755 53.277843l14.337051 -1.1101189l3.161026 41.234406l-14.337051 1.1101227z" fill-rule="evenodd"/><path fill="#cbad51" d="m222.6246 52.167725l4.4145203 -5.151535l3.161026 41.234406l-4.4145203 5.151535z" fill-rule="evenodd"/><path fill="#ffe084" d="m208.28755 53.277843l4.4145203 -5.151539l14.337051 -1.110115l-4.4145203 5.151535z" fill-rule="evenodd"/><path fill="#000000" fill-opacity="0.0" d="m208.28755 53.277843l4.4145203 -5.151539l14.337051 -1.110115l3.161026 41.234406l-4.4145203 5.151535l-14.337051 1.1101227zm0 0l14.337051 -1.1101189l4.4145203 -5.151535m-4.4145203 5.151535l3.161026 41.234406" fill-rule="evenodd"/><path fill="#93c47d" d="m153.29517 57.71763l14.337051 -1.110115l3.161026 41.234406l-14.337067 1.1101227z" fill-rule="evenodd"/><path fill="#759c63" d="m167.63222 56.607513l4.4145203 -5.151539l3.161026 41.23441l-4.4145203 5.151535z" fill-rule="evenodd"/><path fill="#a8cf97" d="m153.29517 57.71763l4.4145203 -5.151535l14.337051 -1.1101189l-4.4145203 5.151539z" fill-rule="evenodd"/><path fill="#000000" fill-opacity="0.0" d="m153.29517 57.71763l4.4145203 -5.151535l14.337051 -1.1101189l3.161026 41.23441l-4.4145203 5.151535l-14.337067 1.1101227zm0 0l14.337051 -1.110115l4.4145203 -5.151539m-4.4145203 5.151539l3.161026 41.234406" fill-rule="evenodd"/><path fill="#8e7cc3" d="m98.41722 61.940903l14.337051 -1.110115l3.1610184 41.234406l-14.337051 1.1101227z" fill-rule="evenodd"/><path fill="#71639b" d="m112.75427 60.830788l4.4145203 -5.151539l3.1610184 41.23441l-4.4145203 5.151535z" fill-rule="evenodd"/><path fill="#a496cf" d="m98.41722 61.940903l4.4145203 -5.151535l14.337051 -1.1101189l-4.4145203 5.151539z" fill-rule="evenodd"/><path fill="#000000" fill-opacity="0.0" d="m98.41722 61.940903l4.4145203 -5.151535l14.337051 -1.1101189l3.1610184 41.23441l-4.4145203 5.151535l-14.337051 1.1101227zm0 0l14.337051 -1.110115l4.4145203 -5.151539m-4.4145203 5.151539l3.1610184 41.234406" fill-rule="evenodd"/><path fill="#4a86e8" d="m412.77545 39.562817l0 0c1.1784668 -0.09147644 1.8377075 -3.9870758 1.4724121 -8.701065c-0.3652954 -4.7139893 -1.6167603 -8.461277 -2.7952576 -8.369802l58.22052 -4.5191326c1.1784668 -0.09147453 2.4299622 3.6558132 2.7952576 8.369802c0.3652954 4.713991 -0.2939453 8.609591 -1.4724121 8.701063z" fill-rule="evenodd"/><path fill="#92b6f1" d="m412.77545 39.562817l0 0c-1.1784973 0.09147644 -2.4299622 -3.6558151 -2.7952576 -8.369802c-0.3652954 -4.713991 0.2939148 -8.609589 1.4724121 -8.701065l0 0c1.1784973 -0.09147453 2.4299622 3.6558132 2.7952576 8.369802c0.3652954 4.7139893 -0.2939453 8.609589 -1.4724121 8.701065z" fill-rule="evenodd"/><path fill="#000000" fill-opacity="0.0" d="m411.4526 22.49195l0 0c1.1784973 -0.09147453 2.4299622 3.6558132 2.7952576 8.369802c0.3652954 4.7139893 -0.2939453 8.609589 -1.4724121 8.701065l0 0c-1.1784973 0.09147644 -2.4299622 -3.6558151 -2.7952576 -8.369802c-0.3652954 -4.713991 0.2939148 -8.609589 1.4724121 -8.701065l58.22052 -4.5191326c1.1784668 -0.09147453 2.4299622 3.6558132 2.7952576 8.369802c0.3652954 4.713991 -0.2939453 8.609591 -1.4724121 8.701063l-58.22052 4.5191345" fill-rule="evenodd"/><path fill="#4a86e8" d="m355.80664 44.085842l0 0c1.1784973 -0.09147644 1.8377075 -3.9870758 1.4724121 -8.701065c-0.3652954 -4.7139893 -1.6167603 -8.461277 -2.7952576 -8.369802l58.22052 -4.5191326c1.1784973 -0.09147453 2.4299622 3.6558132 2.7952576 8.369802c0.3652954 4.713991 -0.2939453 8.609591 -1.4724121 8.701063z" fill-rule="evenodd"/><path fill="#92b6f1" d="m355.80664 44.085842l0 0c-1.1784973 0.091472626 -2.4299622 -3.6558151 -2.7952576 -8.369804c-0.3652954 -4.7139893 0.2939453 -8.609587 1.4724121 -8.701063l0 0c1.1784973 -0.09147453 2.4299622 3.6558132 2.7952576 8.369802c0.3652954 4.7139893 -0.2939148 8.609589 -1.4724121 8.701065z" fill-rule="evenodd"/><path fill="#000000" fill-opacity="0.0" d="m354.4838 27.014975l0 0c1.1784973 -0.09147453 2.4299622 3.6558132 2.7952576 8.369802c0.3652954 4.7139893 -0.2939148 8.609589 -1.4724121 8.701065l0 0c-1.1784973 0.091472626 -2.4299622 -3.6558151 -2.7952576 -8.369804c-0.3652954 -4.7139893 0.2939453 -8.609587 1.4724121 -8.701063l58.22052 -4.5191326c1.1784973 -0.09147453 2.4299622 3.6558132 2.7952576 8.369802c0.3652954 4.713991 -0.2939453 8.609591 -1.4724121 8.701063l-58.22052 4.5191345" fill-rule="evenodd"/><path fill="#4a86e8" d="m298.95306 48.35151l0 0c1.1784668 -0.09147644 1.8377075 -3.9870758 1.4724121 -8.701065c-0.3652954 -4.7139893 -1.6167603 -8.461277 -2.7952576 -8.369802l58.22052 -4.5191326c1.1784973 -0.09147453 2.4299622 3.6558132 2.7952576 8.369804c0.3652954 4.7139893 -0.2939453 8.609589 -1.4724121 8.701061z" fill-rule="evenodd"/><path fill="#92b6f1" d="m298.95306 48.35151l0 0c-1.1784973 0.091472626 -2.4299622 -3.6558151 -2.7952576 -8.369804c-0.3652954 -4.7139893 0.2939453 -8.609587 1.4724121 -8.701063l0 0c1.1784973 -0.09147453 2.4299622 3.6558132 2.7952576 8.369802c0.3652954 4.7139893 -0.2939453 8.609589 -1.4724121 8.701065z" fill-rule="evenodd"/><path fill="#000000" fill-opacity="0.0" d="m297.63022 31.280642l0 0c1.1784973 -0.09147453 2.4299622 3.6558132 2.7952576 8.369802c0.3652954 4.7139893 -0.2939453 8.609589 -1.4724121 8.701065l0 0c-1.1784973 0.091472626 -2.4299622 -3.6558151 -2.7952576 -8.369804c-0.3652954 -4.7139893 0.2939453 -8.609587 1.4724121 -8.701063l58.22052 -4.5191326c1.1784973 -0.09147453 2.4299622 3.6558132 2.7952576 8.369804c0.3652954 4.7139893 -0.2939453 8.609589 -1.4724121 8.701061l-58.22052 4.5191345" fill-rule="evenodd"/><path fill="#4a86e8" d="m243.9182 52.480446l0 0c1.178482 -0.09147644 1.8377075 -3.9870758 1.4724274 -8.701065c-0.3652954 -4.7139893 -1.6167755 -8.461277 -2.7952576 -8.369801l58.22052 -4.5191345c1.1784668 -0.09147453 2.4299622 3.6558151 2.7952576 8.369804c0.3652954 4.7139893 -0.2939453 8.609589 -1.4724426 8.701061z" fill-rule="evenodd"/><path fill="#92b6f1" d="m243.9182 52.480446l0 0c-1.178482 0.09147644 -2.4299622 -3.6558151 -2.7952576 -8.369804c-0.36528015 -4.7139893 0.2939453 -8.609589 1.4724274 -8.701061l0 0c1.178482 -0.09147644 2.4299622 3.6558113 2.7952576 8.369801c0.36528015 4.7139893 -0.2939453 8.609589 -1.4724274 8.701065z" fill-rule="evenodd"/><path fill="#000000" fill-opacity="0.0" d="m242.59537 35.40958l0 0c1.178482 -0.09147644 2.4299622 3.6558113 2.7952576 8.369801c0.36528015 4.7139893 -0.2939453 8.609589 -1.4724274 8.701065l0 0c-1.178482 0.09147644 -2.4299622 -3.6558151 -2.7952576 -8.369804c-0.36528015 -4.7139893 0.2939453 -8.609589 1.4724274 -8.701061l58.22052 -4.5191345c1.1784668 -0.09147453 2.4299622 3.6558151 2.7952576 8.369804c0.3652954 4.7139893 -0.2939453 8.609589 -1.4724426 8.701061l-58.220505 4.5191345" fill-rule="evenodd"/><path fill="#4a86e8" d="m188.88153 56.78304l0 0c1.178482 -0.091472626 1.8377075 -3.987072 1.4724274 -8.701061c-0.3652954 -4.7139893 -1.6167755 -8.461277 -2.7952576 -8.369804l58.22052 -4.5191307c1.178482 -0.09147644 2.4299622 3.6558113 2.7952423 8.369801c0.3652954 4.7139893 -0.29393005 8.609589 -1.4724121 8.701065z" fill-rule="evenodd"/><path fill="#92b6f1" d="m188.88153 56.78304l0 0c-1.178482 0.09147644 -2.4299622 -3.6558113 -2.7952576 -8.369801c-0.36528015 -4.7139893 0.2939453 -8.609589 1.4724274 -8.701065l0 0c1.178482 -0.091472626 2.4299622 3.6558151 2.7952576 8.369804c0.36528015 4.7139893 -0.2939453 8.609589 -1.4724274 8.701061z" fill-rule="evenodd"/><path fill="#000000" fill-opacity="0.0" d="m187.5587 39.712173l0 0c1.178482 -0.091472626 2.4299622 3.6558151 2.7952576 8.369804c0.36528015 4.7139893 -0.2939453 8.609589 -1.4724274 8.701061l0 0c-1.178482 0.09147644 -2.4299622 -3.6558113 -2.7952576 -8.369801c-0.36528015 -4.7139893 0.2939453 -8.609589 1.4724274 -8.701065l58.22052 -4.5191307c1.178482 -0.09147644 2.4299622 3.6558113 2.7952423 8.369801c0.3652954 4.7139893 -0.29393005 8.609589 -1.4724121 8.701065l-58.22052 4.5191307" fill-rule="evenodd"/><path fill="#4a86e8" d="m133.88914 61.222828l0 0c1.178482 -0.09147644 1.8377075 -3.987072 1.4724121 -8.701061c-0.36528015 -4.713993 -1.6167603 -8.461281 -2.7952423 -8.369804l58.220505 -4.5191345c1.178482 -0.091472626 2.4299622 3.6558151 2.7952576 8.369804c0.3652954 4.7139893 -0.29393005 8.609589 -1.4724121 8.701065z" fill-rule="evenodd"/><path fill="#92b6f1" d="m133.88914 61.222828l0 0c-1.178482 0.09147644 -2.4299622 -3.6558113 -2.7952576 -8.369801c-0.3652954 -4.7139893 0.29393005 -8.609589 1.4724274 -8.701065l0 0c1.178482 -0.09147644 2.4299622 3.6558113 2.7952423 8.369804c0.3652954 4.7139893 -0.29393005 8.609585 -1.4724121 8.701061z" fill-rule="evenodd"/><path fill="#000000" fill-opacity="0.0" d="m132.56631 44.151962l0 0c1.178482 -0.09147644 2.4299622 3.6558113 2.7952423 8.369804c0.3652954 4.7139893 -0.29393005 8.609585 -1.4724121 8.701061l0 0c-1.178482 0.09147644 -2.4299622 -3.6558113 -2.7952576 -8.369801c-0.3652954 -4.7139893 0.29393005 -8.609589 1.4724274 -8.701065l58.220505 -4.5191345c1.178482 -0.091472626 2.4299622 3.6558151 2.7952576 8.369804c0.3652954 4.7139893 -0.29393005 8.609589 -1.4724121 8.701065l-58.22052 4.5191307" fill-rule="evenodd"/><path fill="#4a86e8" d="m79.0112 65.446106l0 0c1.178482 -0.09147644 1.8377075 -3.9870758 1.4724197 -8.701065c-0.36528778 -4.7139893 -1.6167679 -8.461281 -2.7952576 -8.369804l58.220512 -4.5191307c1.1784973 -0.09147644 2.4299622 3.6558113 2.7952576 8.369801c0.3652954 4.7139893 -0.29393005 8.609589 -1.4724121 8.701065z" fill-rule="evenodd"/><path fill="#92b6f1" d="m79.0112 65.446106l0 0c-1.178482 0.09146881 -2.4299622 -3.6558151 -2.7952576 -8.369804c-0.36528778 -4.7139893 0.29393768 -8.609589 1.4724197 -8.701065l0 0c1.1784897 -0.09147644 2.4299698 3.6558151 2.7952576 8.369804c0.36528778 4.7139893 -0.29393768 8.609589 -1.4724197 8.701065z" fill-rule="evenodd"/><path fill="#000000" fill-opacity="0.0" d="m77.68836 48.375237l0 0c1.1784897 -0.09147644 2.4299698 3.6558151 2.7952576 8.369804c0.36528778 4.7139893 -0.29393768 8.609589 -1.4724197 8.701065l0 0c-1.178482 0.09146881 -2.4299622 -3.6558151 -2.7952576 -8.369804c-0.36528778 -4.7139893 0.29393768 -8.609589 1.4724197 -8.701065l58.220512 -4.5191307c1.1784973 -0.09147644 2.4299622 3.6558113 2.7952576 8.369801c0.3652954 4.7139893 -0.29393005 8.609589 -1.4724121 8.701065l-58.22052 4.5191345" fill-rule="evenodd"/><path fill="#ffd966" d="m46.566986 105.05983l14.337051 -1.110115l3.161026 41.234413l-14.337055 1.1101074z" fill-rule="evenodd"/><path fill="#cbad51" d="m60.904037 103.949715l4.4145203 -5.151535l3.161026 41.234413l-4.4145203 5.151535z" fill-rule="evenodd"/><path fill="#ffe084" d="m46.566986 105.05983l4.4145203 -5.151535l14.337051 -1.110115l-4.4145203 5.151535z" fill-rule="evenodd"/><path fill="#000000" fill-opacity="0.0" d="m46.566986 105.05983l4.4145203 -5.151535l14.337051 -1.110115l3.161026 41.234413l-4.4145203 5.151535l-14.337055 1.1101074zm0 0l14.337051 -1.110115l4.4145203 -5.151535m-4.4145203 5.151535l3.161026 41.234413" fill-rule="evenodd"/><path fill="#4a86e8" d="m87.88461 136.52267l0 0c-1.1784897 0.09147644 -1.8377151 3.9870758 -1.4724197 8.701065c0.36528778 4.7139893 1.6167679 8.461273 2.79525 8.369797l-58.220512 4.5191345c-1.1784859 0.09147644 -2.429964 -3.6558075 -2.7952538 -8.369797c-0.3652916 -4.7139893 0.29393387 -8.609589 1.4724197 -8.701065z" fill-rule="evenodd"/><path fill="#92b6f1" d="m87.88461 136.52267l0 0c1.178482 -0.09147644 2.4299622 3.6558228 2.79525 8.369812c0.36528778 4.7139893 -0.29393005 8.609589 -1.4724197 8.70105l0 0c-1.178482 0.09147644 -2.4299622 -3.6558075 -2.79525 -8.369797c-0.3652954 -4.7139893 0.29393005 -8.609589 1.4724197 -8.701065z" fill-rule="evenodd"/><path fill="#000000" fill-opacity="0.0" d="m89.20744 153.59354l0 0c-1.178482 0.09147644 -2.4299622 -3.6558075 -2.79525 -8.369797c-0.3652954 -4.7139893 0.29393005 -8.609589 1.4724197 -8.701065l0 0c1.178482 -0.09147644 2.4299622 3.6558228 2.79525 8.369812c0.36528778 4.7139893 -0.29393005 8.609589 -1.4724197 8.70105l-58.220512 4.5191345c-1.1784859 0.09147644 -2.429964 -3.6558075 -2.7952538 -8.369797c-0.3652916 -4.7139893 0.29393387 -8.609589 1.4724197 -8.701065l58.22052 -4.5191345" fill-rule="evenodd"/><path fill="#ffffff" d="m59.109966 141.47597c-0.8942337 0.06903076 -1.7066307 0.36386108 -2.4371834 0.8844757c-0.7285156 0.5182495 -1.280426 1.223877 -1.6557312 2.1168823c-0.3732643 0.890625 -0.52819824 1.7466278 -0.4648018 2.5680237l0.13113785 1.6990662c0.04447937 0.57629395 0.16809464 1.0987091 0.3708458 1.567276c0.20258331 0.46635437 0.5520897 0.9657898 1.0485268 1.4983215c0.49847412 0.5301361 0.91257477 0.90242004 1.2423058 1.1168518c0.3297348 0.21443176 0.73996353 0.39266968 1.2306938 0.5346985c0.6405449 0.18377686 1.2622108 0.25239563 1.8649902 0.20585632c0.6955185 -0.05368042 1.3703575 -0.26016235 2.0245209 -0.6194c0.6562004 -0.36161804 1.2323685 -0.868103 1.7284927 -1.5194397c0.26080322 -0.33332825 0.38532257 -0.5761566 0.37356567 -0.7285156c-0.00868988 -0.11260986 -0.05228424 -0.2025299 -0.13076782 -0.2697754c-0.07849121 -0.067230225 -0.17734528 -0.09625244 -0.29657745 -0.08705139c-0.13910675 0.0107421875 -0.25959015 0.0900116 -0.36146164 0.23780823c-0.48134995 0.67019653 -0.99373245 1.1828613 -1.5371552 1.5379944c-0.5412178 0.3549652 -1.1695175 0.5600586 -1.8849068 0.61528015c-1.1923141 0.092056274 -2.2742615 -0.2853241 -3.2458458 -1.1321106c-0.971756 -0.84898376 -1.5056915 -1.8961334 -1.6018105 -3.1414642l-0.11273193 -1.4606018c-0.044994354 -0.58291626 0.0073547363 -1.1133728 0.15703583 -1.5913696c0.20976257 -0.64923096 0.51329803 -1.249054 0.91060257 -1.7994843c0.22870255 -0.31752014 0.54709625 -0.5953064 0.9551811 -0.833374c0.5476761 -0.32881165 1.1427765 -0.51802063 1.7853012 -0.56762695c0.9803467 -0.075668335 1.8774605 0.15159607 2.6913452 0.68182373c0.6028938 0.38658142 0.94237137 0.8568115 1.0184364 1.410675c0.027053833 0.17782593 0.08118439 0.30358887 0.16238785 0.37727356c0.083415985 0.073532104 0.181427 0.10594177 0.29403687 0.09724426c0.12585449 -0.00970459 0.22299576 -0.060516357 0.29141998 -0.1524353c0.070632935 -0.09207153 0.09802246 -0.24078369 0.08217621 -0.44613647l-0.17868805 -2.315094c-0.015338898 -0.19873047 -0.06496811 -0.33816528 -0.14889526 -0.41830444c-0.081718445 -0.080322266 -0.18550491 -0.115615845 -0.3113594 -0.105911255c-0.1258583 0.009719849 -0.22410202 0.06062317 -0.29473495 0.1526947c-0.068424225 0.09190369 -0.09496689 0.2372284 -0.079631805 0.4359436l0.04524994 0.5862274c-1.0661964 -0.86390686 -2.2881851 -1.242691 -3.6659698 -1.136322z" fill-rule="evenodd"/><path fill="#e06666" d="m43.527946 65.965775l14.337055 -1.1101227l3.1610222 41.234413l-14.337055 1.110115z" fill-rule="evenodd"/><path fill="#b35151" d="m57.865 64.85565l4.4145203 -5.151535l3.1610222 41.234413l-4.4145203 5.151535z" fill-rule="evenodd"/><path fill="#e68484" d="m43.527946 65.965775l4.4145203 -5.151539l14.337055 -1.1101189l-4.4145203 5.151535z" fill-rule="evenodd"/><path fill="#000000" fill-opacity="0.0" d="m43.527946 65.965775l4.4145203 -5.151539l14.337055 -1.1101189l3.1610222 41.234413l-4.4145203 5.151535l-14.337055 1.110115zm0 0l14.337055 -1.1101227l4.4145203 -5.151535m-4.4145203 5.151535l3.1610222 41.234413" fill-rule="evenodd"/><path fill="#4a86e8" d="m24.147097 69.79699l0 0c1.178484 -0.09147644 1.8377094 -3.9870758 1.4724197 -8.701061c-0.3652916 -4.7139893 -1.6167698 -8.461281 -2.7952557 -8.369804l58.220516 -4.5191307c1.178482 -0.09147644 2.4299622 3.6558113 2.7952576 8.369801c0.36528778 4.7139893 -0.29393768 8.609592 -1.4724197 8.701061z" fill-rule="evenodd"/><path fill="#92b6f1" d="m24.147097 69.79699l0 0c-1.1784859 0.09147644 -2.429964 -3.6558151 -2.7952557 -8.369801c-0.3652897 -4.7139893 0.29393387 -8.609589 1.4724197 -8.701065l0 0c1.1784859 -0.09147644 2.429964 3.6558151 2.7952557 8.369804c0.3652897 4.7139854 -0.29393578 8.609585 -1.4724197 8.701061z" fill-rule="evenodd"/><path fill="#000000" fill-opacity="0.0" d="m22.82426 52.726124l0 0c1.1784859 -0.09147644 2.429964 3.6558151 2.7952557 8.369804c0.3652897 4.7139854 -0.29393578 8.609585 -1.4724197 8.701061l0 0c-1.1784859 0.09147644 -2.429964 -3.6558151 -2.7952557 -8.369801c-0.3652897 -4.7139893 0.29393387 -8.609589 1.4724197 -8.701065l58.220516 -4.5191307c1.178482 -0.09147644 2.4299622 3.6558113 2.7952576 8.369801c0.36528778 4.7139893 -0.29393768 8.609592 -1.4724197 8.701061l-58.22052 4.5191345" fill-rule="evenodd"/><path fill="#ffffff" d="m52.40867 52.866974c-0.9273529 0.07159042 -1.7675209 0.36634064 -2.5204926 0.88425064c-0.75297546 0.51791 -1.3234825 1.2271919 -1.711525 2.1278458c-0.3860016 0.8982773 -0.54372406 1.8044739 -0.47317123 2.7185936l0.11810303 1.5301552c0.07004166 0.9074974 0.25808716 1.645958 0.5641327 2.2153854c0.30825043 0.5692558 0.71593475 1.0741959 1.2230453 1.5148239c0.5071144 0.44062424 1.1098213 0.7672539 1.8081245 0.9798851c0.70051193 0.21247101 1.4978828 0.2841797 2.3921204 0.21514893c0.6292763 -0.048576355 1.2527542 -0.1866684 1.8704338 -0.41426086c0.6198883 -0.22776794 1.2342377 -0.5417404 1.8430405 -0.94190216l-0.2760849 -3.5769844c0.33119965 -0.025569916 0.529068 -0.051948547 0.5936012 -0.079143524c0.06436539 -0.029399872 0.12023163 -0.08258057 0.16759872 -0.15953445c0.047367096 -0.0769577 0.06772995 -0.15848923 0.061084747 -0.2446022c-0.009716034 -0.1258583 -0.060523987 -0.22299957 -0.15243149 -0.2914238c-0.09207535 -0.070632935 -0.23747253 -0.098278046 -0.43619156 -0.08293915l-4.0148926 0.29994202c-0.19871902 0.015342712 -0.3380661 0.066078186 -0.41804123 0.15221405c-0.07997513 0.086135864 -0.11510849 0.19213486 -0.105392456 0.31798935c0.009712219 0.1258583 0.06060791 0.22410202 0.15268326 0.29473495c0.0919075 0.06842804 0.23722076 0.0949707 0.4359398 0.07962799l2.8714867 -0.22166824l0.23850632 3.0901184c-0.5558357 0.30944824 -1.044941 0.5337868 -1.4673195 0.67300797c-0.42237854 0.139225 -0.8852768 0.22826767 -1.3886986 0.26712418c-1.4903908 0.1150589 -2.6909637 -0.20207214 -3.601715 -0.95137405c-0.91075516 -0.7493057 -1.4195595 -1.8161736 -1.526413 -3.2005997l-0.11733246 -1.5202179c-0.060329437 -0.7816391 0.06457901 -1.4942818 0.37472534 -2.1379318c0.46393967 -0.9820328 0.9921646 -1.66362 1.5846672 -2.044754c0.59453964 -0.38351822 1.276001 -0.6049309 2.0443802 -0.6642494c0.81474686 -0.06289673 1.5814743 0.05783081 2.3001823 0.3621788c0.72091675 0.30417633 1.1229782 0.73625183 1.2061768 1.2962303c0.021450043 0.19158554 0.072696686 0.32312012 0.1537323 0.39460754c0.08307266 0.069107056 0.18091583 0.09931183 0.29352188 0.09061813c0.11923218 -0.00920105 0.21543884 -0.057720184 0.28862 -0.14555359c0.07300949 -0.090042114 0.10159302 -0.23773575 0.08574295 -0.4430809l-0.14570999 -1.8878517c-0.015338898 -0.19872284 -0.06607437 -0.33807373 -0.15220642 -0.41804886c-0.086135864 -0.07997513 -0.18881989 -0.115364075 -0.30804825 -0.10615921c-0.09273529 0.007160187 -0.17357635 0.038944244 -0.24251938 0.09535217c-0.069114685 0.054203033 -0.11325836 0.11536026 -0.13243484 0.1834755c-0.016967773 0.06794739 -0.012924194 0.26420593 0.012126923 0.5887871c-0.98410416 -0.66368103 -2.148491 -0.9436188 -3.4931564 -0.83981705z" fill-rule="evenodd"/><path fill="#4a86e8" d="m142.74516 132.075l0 0c-1.178482 0.09147644 -1.8377075 3.9870758 -1.4724121 8.701065c0.36528015 4.7139893 1.6167603 8.461273 2.7952576 8.369797l-58.22052 4.5191345c-1.1784897 0.09147644 -2.4299622 -3.6558228 -2.7952576 -8.369812c-0.36528778 -4.7139893 0.29393768 -8.609589 1.4724197 -8.70105z" fill-rule="evenodd"/><path fill="#92b6f1" d="m142.74516 132.075l0 0c1.178482 -0.09147644 2.4299622 3.6558075 2.7952576 8.369797c0.3652954 4.7139893 -0.29393005 8.609589 -1.4724121 8.701065l0 0c-1.1784973 0.09147644 -2.4299774 -3.6558075 -2.7952576 -8.369797c-0.3652954 -4.7139893 0.29393005 -8.609589 1.4724121 -8.701065z" fill-rule="evenodd"/><path fill="#000000" fill-opacity="0.0" d="m144.06801 149.14586l0 0c-1.1784973 0.09147644 -2.4299774 -3.6558075 -2.7952576 -8.369797c-0.3652954 -4.7139893 0.29393005 -8.609589 1.4724121 -8.701065l0 0c1.178482 -0.09147644 2.4299622 3.6558075 2.7952576 8.369797c0.3652954 4.7139893 -0.29393005 8.609589 -1.4724121 8.701065l-58.22052 4.5191345c-1.1784897 0.09147644 -2.4299622 -3.6558228 -2.7952576 -8.369812c-0.36528778 -4.7139893 0.29393768 -8.609589 1.4724197 -8.70105l58.220512 -4.5191345" fill-rule="evenodd"/><path fill="#ffffff" d="m114.01892 137.86356l2.7737122 5.89299l-4.8487396 0.37431335l1.7670135 -6.2435303zm-3.7009811 -0.5539093c-0.19871521 0.015350342 -0.33815002 0.06498718 -0.4182968 0.14891052c-0.080314636 0.081726074 -0.115615845 0.1855011 -0.105903625 0.31137085c0.009712219 0.12585449 0.06060791 0.22409058 0.15268707 0.2947235c0.09190369 0.06843567 0.23721313 0.0949707 0.43593597 0.07963562l2.4641113 -0.19023132l-2.917801 10.240524l-0.6458359 0.049850464c-0.19872284 0.015335083 -0.33815765 0.064971924 -0.41830444 0.14891052c-0.080314636 0.081710815 -0.115615845 0.1855011 -0.105903625 0.3113556c0.00920105 0.11923218 0.059928894 0.215271 0.1521759 0.28811646c0.09224701 0.07284546 0.23773193 0.10159302 0.43644714 0.086242676l3.1198883 -0.24084473c0.19872284 -0.015335083 0.3380661 -0.06607056 0.41804504 -0.15220642c0.07997131 -0.086135864 0.115364075 -0.18882751 0.106155396 -0.3080597c-0.009712219 -0.12585449 -0.060523987 -0.22299194 -0.15242767 -0.2914276c-0.09207153 -0.070632935 -0.23747253 -0.0982666 -0.43619537 -0.08293152l-1.5996857 0.12348938l0.8873291 -3.1370544l5.484642 -0.42338562l1.378067 2.9621582l-1.5897522 0.12272644c-0.20533752 0.015853882 -0.3480835 0.06573486 -0.4282303 0.14967346c-0.080314636 0.081710815 -0.115623474 0.1855011 -0.105903625 0.3113556c0.00920105 0.11924744 0.059928894 0.215271 0.15216827 0.28811646c0.09224701 0.07284546 0.24104309 0.10133362 0.44638824 0.08547974l3.1099548 -0.24006653c0.19871521 -0.015350342 0.3380661 -0.066085815 0.4180374 -0.15222168c0.07997894 -0.086135864 0.115364075 -0.18882751 0.106163025 -0.3080597c-0.009712219 -0.12585449 -0.060523987 -0.22299194 -0.15242767 -0.29141235c-0.09207916 -0.070632935 -0.23748016 -0.09828186 -0.43619537 -0.08294678l-0.6458359 0.049865723l-4.9065857 -10.476105z" fill-rule="evenodd"/><path fill="#ffffff" d="m103.2992 49.1508l0.28759003 3.7260284c0.015846252 0.20534515 0.066841125 0.3480072 0.15297699 0.42798233c0.086128235 0.07997513 0.18881226 0.115364075 0.30804443 0.10615921c0.12585449 -0.009716034 0.22299957 -0.0605278 0.29141998 -0.1524353c0.070632935 -0.09207916 0.09802246 -0.24079132 0.08217621 -0.44613647l-0.22316742 -2.8913994l3.4179688 -0.26385498l0.768425 9.955948l-2.166031 0.16720963c-0.19872284 0.015342712 -0.33815765 0.06497574 -0.41830444 0.1489029c-0.080314636 0.08172226 -0.115615845 0.18550873 -0.105903625 0.31136703c0.009208679 0.11923218 0.059928894 0.215271 0.1521759 0.28810883c0.09224701 0.072841644 0.23773193 0.10159302 0.43644714 0.08625412l5.176628 -0.39962006c0.19872284 -0.015342712 0.3380661 -0.066078186 0.41804504 -0.15221786c0.07997894 -0.086135864 0.115364075 -0.18881989 0.106163025 -0.30805206c-0.009719849 -0.1258583 -0.060523987 -0.22299957 -0.1524353 -0.2914238c-0.09207153 -0.070632935 -0.23747253 -0.098278046 -0.43618774 -0.08293915l-2.1660385 0.16721344l-0.7684326 -9.955948l3.4179688 -0.26385498l0.22316742 2.8913956c0.015846252 0.20534515 0.0646286 0.34817886 0.14634705 0.4284935c0.08393097 0.08014679 0.18881989 0.115364075 0.31467438 0.10564804c0.12585449 -0.009716034 0.22299957 -0.0605278 0.29141998 -0.1524353c0.070632935 -0.09207916 0.09803009 -0.24079132 0.08217621 -0.44613647l-0.2875824 -3.7260284z" fill-rule="evenodd"/><path fill="#ffffff" d="m161.25323 45.52966l2.7737122 5.892994l-4.8487396 0.37430573l1.7670135 -6.2435226zm-3.7009735 -0.55389786c-0.19871521 0.015338898 -0.33815002 0.06497574 -0.41830444 0.1489029c-0.08030701 0.081718445 -0.115615845 0.18550873 -0.105895996 0.31136322c0.00970459 0.1258583 0.06060791 0.22410202 0.15267944 0.29473495c0.09190369 0.06842804 0.2372284 0.0949707 0.4359436 0.07962799l2.4641113 -0.19021988l-2.917801 10.240513l-0.6458435 0.04985428c-0.19871521 0.015342712 -0.33815002 0.06497574 -0.41828918 0.1489029c-0.080322266 0.08172226 -0.1156311 0.18550873 -0.105911255 0.31136703c0.00920105 0.11923218 0.059921265 0.215271 0.1521759 0.28810883c0.09223938 0.072841644 0.23773193 0.10159302 0.43644714 0.08625412l3.1198883 -0.24084854c0.19871521 -0.015338898 0.33805847 -0.066078186 0.41804504 -0.15221405c0.07997131 -0.086135864 0.115356445 -0.18881989 0.106155396 -0.30805206c-0.009719849 -0.1258583 -0.060516357 -0.22299957 -0.1524353 -0.2914238c-0.09207153 -0.070632935 -0.23747253 -0.098278046 -0.43618774 -0.08293915l-1.5996857 0.12348938l0.8873291 -3.1370468l5.4846344 -0.42339706l1.378067 2.9621658l-1.5897369 0.122722626c-0.20535278 0.015853882 -0.34809875 0.06574249 -0.42823792 0.14967346c-0.080322266 0.081718445 -0.115615845 0.18550873 -0.105911255 0.31136322c0.00920105 0.11923218 0.059936523 0.215271 0.1521759 0.28811264c0.09225464 0.072841644 0.24104309 0.10133362 0.44638062 0.08548355l3.1099548 -0.24007797c0.19871521 -0.015342712 0.33807373 -0.066082 0.41804504 -0.15221786c0.07997131 -0.086135864 0.115356445 -0.18881989 0.106155396 -0.30805206c-0.00970459 -0.1258583 -0.060516357 -0.22299957 -0.15242004 -0.2914238c-0.09208679 -0.070632935 -0.23747253 -0.098278046 -0.436203 -0.08293915l-0.64582825 0.049858093l-4.9065857 -10.476097z" fill-rule="evenodd"/><path fill="#4a86e8" d="m197.66393 127.83259l0 0c-1.1784973 0.09147644 -1.8377228 3.9870682 -1.4724274 8.701057c0.3652954 4.7139893 1.6167755 8.461288 2.7952576 8.369812l-58.22052 4.5191345c-1.178482 0.09147644 -2.4299622 -3.6558228 -2.7952576 -8.369812c-0.36528015 -4.7139893 0.2939453 -8.609589 1.4724274 -8.701065z" fill-rule="evenodd"/><path fill="#92b6f1" d="m197.66393 127.83259l0 0c1.178482 -0.09147644 2.4299622 3.6558151 2.7952423 8.369804c0.3652954 4.7139893 -0.29393005 8.609589 -1.4724121 8.701065l0 0c-1.178482 0.09147644 -2.4299622 -3.6558228 -2.7952576 -8.369812c-0.3652954 -4.7139893 0.29393005 -8.609581 1.4724274 -8.701057z" fill-rule="evenodd"/><path fill="#000000" fill-opacity="0.0" d="m198.98676 144.90346l0 0c-1.178482 0.09147644 -2.4299622 -3.6558228 -2.7952576 -8.369812c-0.3652954 -4.7139893 0.29393005 -8.609581 1.4724274 -8.701057l0 0c1.178482 -0.09147644 2.4299622 3.6558151 2.7952423 8.369804c0.3652954 4.7139893 -0.29393005 8.609589 -1.4724121 8.701065l-58.22052 4.5191345c-1.178482 0.09147644 -2.4299622 -3.6558228 -2.7952576 -8.369812c-0.36528015 -4.7139893 0.2939453 -8.609589 1.4724274 -8.701065l58.22052 -4.519127" fill-rule="evenodd"/><path fill="#ffffff" d="m165.11464 133.92604l0.28759766 3.7260284c0.015838623 0.20535278 0.066833496 0.3480072 0.15296936 0.42797852c0.086135864 0.07998657 0.18881226 0.115371704 0.30804443 0.106170654c0.12585449 -0.009719849 0.2230072 -0.060531616 0.2914276 -0.1524353c0.070632935 -0.09208679 0.09802246 -0.24079895 0.08216858 -0.44613647l-0.22315979 -2.8914032l3.4179688 -0.26385498l0.7684326 9.955948l-2.1660461 0.16720581c-0.19871521 0.015350342 -0.33815002 0.064971924 -0.41828918 0.14891052c-0.080322266 0.081710815 -0.1156311 0.1855011 -0.105911255 0.3113556c0.00920105 0.11923218 0.059921265 0.215271 0.1521759 0.28811646c0.09223938 0.07284546 0.23773193 0.10159302 0.43644714 0.086257935l5.1766205 -0.3996277c0.19873047 -0.015335083 0.33807373 -0.06607056 0.41804504 -0.15220642c0.07998657 -0.08615112 0.115371704 -0.18882751 0.106170654 -0.3080597c-0.009719849 -0.12585449 -0.060531616 -0.2230072 -0.1524353 -0.2914276c-0.09207153 -0.070632935 -0.23747253 -0.09828186 -0.43618774 -0.08293152l-2.1660461 0.16720581l-0.7684326 -9.955948l3.4179688 -0.26385498l0.22317505 2.8914032c0.015838623 0.20533752 0.06463623 0.34817505 0.14634705 0.42848206c0.08392334 0.08015442 0.18881226 0.115371704 0.31466675 0.105651855c0.12585449 -0.009719849 0.2230072 -0.060531616 0.2914276 -0.1524353c0.070632935 -0.09207153 0.09802246 -0.24078369 0.08216858 -0.44613647l-0.2875824 -3.7260284z" fill-rule="evenodd"/><path fill="#4a86e8" d="m252.63942 123.773476l0 0c-1.178482 0.09147644 -1.8377075 3.9870758 -1.4724121 8.701057c0.36528015 4.7139893 1.6167603 8.461288 2.7952423 8.369812l-58.220505 4.5191345c-1.1784973 0.09147644 -2.4299622 -3.6558228 -2.7952576 -8.369812c-0.3652954 -4.7139893 0.29393005 -8.609589 1.4724121 -8.701065z" fill-rule="evenodd"/><path fill="#92b6f1" d="m252.63942 123.773476l0 0c1.178482 -0.09147644 2.4299622 3.6558151 2.7952576 8.369804c0.36528015 4.7139893 -0.29393005 8.609589 -1.4724274 8.701065l0 0c-1.178482 0.09147644 -2.4299622 -3.6558228 -2.7952423 -8.369812c-0.3652954 -4.7139816 0.29393005 -8.609581 1.4724121 -8.701057z" fill-rule="evenodd"/><path fill="#000000" fill-opacity="0.0" d="m253.96225 140.84435l0 0c-1.178482 0.09147644 -2.4299622 -3.6558228 -2.7952423 -8.369812c-0.3652954 -4.7139816 0.29393005 -8.609581 1.4724121 -8.701057l0 0c1.178482 -0.09147644 2.4299622 3.6558151 2.7952576 8.369804c0.36528015 4.7139893 -0.29393005 8.609589 -1.4724274 8.701065l-58.220505 4.5191345c-1.1784973 0.09147644 -2.4299622 -3.6558228 -2.7952576 -8.369812c-0.3652954 -4.7139893 0.29393005 -8.609589 1.4724121 -8.701065l58.22052 -4.519127" fill-rule="evenodd"/><path fill="#ffffff" d="m223.74892 128.7357c-0.9273529 0.07159424 -1.7675323 0.36634827 -2.5204926 0.8842468c-0.75297546 0.5179138 -1.3234863 1.2272034 -1.7115326 2.1278534c-0.3860016 0.8982849 -0.5437317 1.8044739 -0.47317505 2.7185974l0.11810303 1.5301514c0.0700531 0.9075012 0.25808716 1.6459503 0.5641327 2.2153778c0.30825806 0.56925964 0.7159424 1.0742035 1.223053 1.5148315c0.5071106 0.44062805 1.1098175 0.7672577 1.8081207 0.9798889c0.70051575 0.21246338 1.497879 0.2841797 2.3921204 0.21514893c0.62927246 -0.048583984 1.2527618 -0.18667603 1.8704376 -0.41426086c0.6198883 -0.22776794 1.2342377 -0.54174805 1.8430328 -0.9419098l-0.27607727 -3.5769806c0.33119202 -0.02557373 0.529068 -0.051956177 0.5935974 -0.07914734c0.06436157 -0.029403687 0.12023926 -0.08258057 0.16760254 -0.15953064c0.04736328 -0.07695007 0.067733765 -0.15849304 0.061080933 -0.24459839c-0.009719849 -0.12585449 -0.060531616 -0.2230072 -0.1524353 -0.2914276c-0.09207153 -0.070632935 -0.23747253 -0.09828186 -0.43618774 -0.08293152l-4.0148926 0.29992676c-0.19871521 0.015350342 -0.33805847 0.066085815 -0.41804504 0.15222168c-0.07997131 0.086135864 -0.115097046 0.19213867 -0.105392456 0.31799316c0.009719849 0.12585449 0.06060791 0.22410583 0.1526947 0.29473877c0.09190369 0.06842041 0.23721313 0.094955444 0.43592834 0.07962036l2.8714905 -0.22166443l0.23851013 3.0901184c-0.5558319 0.30944824 -1.0449371 0.53378296 -1.4673157 0.67300415c-0.42237854 0.13922119 -0.8852844 0.22827148 -1.3887024 0.26712036c-1.490387 0.11506653 -2.6909637 -0.20207214 -3.601715 -0.95137024c-0.91075134 -0.74931335 -1.4195557 -1.8161774 -1.526413 -3.200592l-0.11734009 -1.5202332c-0.060317993 -0.78163147 0.064590454 -1.494278 0.37472534 -2.1379242c0.46394348 -0.9820404 0.99217224 -1.66362 1.584671 -2.044754c0.59454346 -0.3835144 1.276001 -0.6049347 2.0443878 -0.6642456c0.81474304 -0.06289673 1.5814667 0.05783081 2.300171 0.36216736c0.72091675 0.30418396 1.1229858 0.7362671 1.2061768 1.2962341c0.021453857 0.19158936 0.07270813 0.32312012 0.1537323 0.39460754c0.08308411 0.069107056 0.18092346 0.09931946 0.29353333 0.09062195c0.11923218 -0.00920105 0.21543884 -0.057724 0.28862 -0.14555359c0.07299805 -0.090042114 0.10159302 -0.23773193 0.085739136 -0.44308472l-0.14570618 -1.8878479c-0.015350342 -0.19873047 -0.066085815 -0.33807373 -0.15220642 -0.41804504c-0.086135864 -0.07998657 -0.18882751 -0.115371704 -0.3080597 -0.106155396c-0.09272766 0.007156372 -0.17356873 0.03894043 -0.24250793 0.09535217c-0.069122314 0.05419922 -0.11326599 0.115356445 -0.13244629 0.18347168c-0.016967773 0.06794739 -0.012924194 0.26420593 0.012130737 0.58877563c-0.98410034 -0.66368103 -2.1484833 -0.9436188 -3.4931488 -0.83981323z" fill-rule="evenodd"/><path fill="#ffffff" d="m215.89043 40.27769c-0.8942261 0.06903076 -1.7066345 0.36385727 -2.4371796 0.8844795c-0.7285156 0.5182419 -1.280426 1.2238693 -1.6557312 2.1168785c-0.3732605 0.8906288 -0.52819824 1.7466354 -0.46479797 2.568016l0.13113403 1.69907c0.04447937 0.57629395 0.16809082 1.0987206 0.3708496 1.5672836c0.20257568 0.46635818 0.55207825 0.9657936 1.048523 1.4983139c0.49847412 0.5301361 0.91256714 0.90242386 1.2423096 1.1168556c0.32972717 0.21443176 0.7399597 0.39266586 1.2306824 0.5346985c0.6405487 0.18377304 1.2622223 0.25239563 1.8649902 0.20586014c0.6955261 -0.05368805 1.3703613 -0.26015854 2.0245209 -0.6194c0.6562042 -0.36162186 1.2323761 -0.868103 1.7285004 -1.5194473c0.26080322 -0.3333168 0.38531494 -0.5761528 0.37356567 -0.7285042c-0.00869751 -0.11260986 -0.05227661 -0.20253372 -0.13076782 -0.2697754c-0.07849121 -0.067237854 -0.1773529 -0.096256256 -0.29658508 -0.08705139c-0.13909912 0.010738373 -0.25958252 0.09000397 -0.3614502 0.23780441c-0.48135376 0.6701927 -0.9937439 1.1828575 -1.5371704 1.5379906c-0.541214 0.35496902 -1.1695099 0.5600624 -1.884903 0.6152878c-1.1923065 0.09204483 -2.2742615 -0.2853279 -3.2458344 -1.1321106c-0.971756 -0.8489914 -1.5056915 -1.8961487 -1.6018219 -3.141468l-0.11273193 -1.4606018c-0.04498291 -0.58291626 0.0073547363 -1.1133766 0.15704346 -1.5913773c0.20976257 -0.64922714 0.5132904 -1.249054 0.91059875 -1.7994804c0.22869873 -0.3175125 0.5471039 -0.5953064 0.95518494 -0.83337784c0.54766846 -0.32880783 1.1427765 -0.5180168 1.7852936 -0.5676155c0.9803467 -0.07567978 1.8774719 0.15159225 2.6913452 0.6818161c0.6029053 0.38658524 0.9423828 0.8568115 1.0184479 1.410675c0.027053833 0.17782593 0.08117676 0.30358887 0.16238403 0.3772812c0.0834198 0.07352066 0.181427 0.10593796 0.29403687 0.09724426c0.12585449 -0.009716034 0.22299194 -0.0605278 0.29141235 -0.1524353c0.070632935 -0.09207916 0.09802246 -0.24079132 0.08218384 -0.44613647l-0.17869568 -2.3151054c-0.015335083 -0.19872284 -0.064971924 -0.33815384 -0.14889526 -0.41830063c-0.081710815 -0.08031845 -0.1855011 -0.11561966 -0.3113556 -0.105903625c-0.12585449 0.009716034 -0.22410583 0.060611725 -0.29473877 0.15269089c-0.06842041 0.0919075 -0.094955444 0.23722076 -0.07962036 0.4359436l0.04524231 0.5862274c-1.0661926 -0.8639107 -2.2881775 -1.2426872 -3.6659698 -1.1363258z" fill-rule="evenodd"/><path fill="#4a86e8" d="m307.6422 119.442024l0 0c-1.1784973 0.09147644 -1.837738 3.9870758 -1.4724426 8.701073c0.3652954 4.7139893 1.6167908 8.461273 2.7952576 8.369797l-58.220505 4.5191345c-1.1784973 0.09147644 -2.4299622 -3.6558075 -2.7952576 -8.369797c-0.3652954 -4.713997 0.29393005 -8.609596 1.4724121 -8.701073z" fill-rule="evenodd"/><path fill="#92b6f1" d="m307.6422 119.442024l0 0c1.1784668 -0.09146881 2.4299622 3.6558151 2.795227 8.369804c0.3652954 4.7139893 -0.2939148 8.609589 -1.4724121 8.701065l0 0c-1.1784668 0.09147644 -2.4299622 -3.6558075 -2.7952576 -8.369797c-0.3652954 -4.713997 0.2939453 -8.609596 1.4724426 -8.701073z" fill-rule="evenodd"/><path fill="#000000" fill-opacity="0.0" d="m308.96503 136.5129l0 0c-1.1784668 0.09147644 -2.4299622 -3.6558075 -2.7952576 -8.369797c-0.3652954 -4.713997 0.2939453 -8.609596 1.4724426 -8.701073l0 0c1.1784668 -0.09146881 2.4299622 3.6558151 2.795227 8.369804c0.3652954 4.7139893 -0.2939148 8.609589 -1.4724121 8.701065l-58.220505 4.5191345c-1.1784973 0.09147644 -2.4299622 -3.6558075 -2.7952576 -8.369797c-0.3652954 -4.713997 0.29393005 -8.609596 1.4724121 -8.701073l58.220535 -4.5191345" fill-rule="evenodd"/><path fill="#ffffff" d="m278.8546 124.43608l2.7737122 5.89299l-4.8487244 0.37431335l1.7669983 -6.2435303zm-3.7009583 -0.5539017c-0.19873047 0.015342712 -0.33816528 0.064971924 -0.41830444 0.1489029c-0.080322266 0.081718445 -0.1156311 0.18550873 -0.105895996 0.31136322c0.00970459 0.12586212 0.06060791 0.22410583 0.15267944 0.29473877c0.09188843 0.06842041 0.23721313 0.094963074 0.4359131 0.07962799l2.4641418 -0.1902237l-2.9178162 10.240517l-0.6458435 0.049850464c-0.19869995 0.015335083 -0.33813477 0.064971924 -0.41830444 0.14891052c-0.08029175 0.081710815 -0.115600586 0.1855011 -0.105895996 0.3113556c0.009216309 0.11923218 0.059936523 0.215271 0.15219116 0.28811646c0.09222412 0.07284546 0.23770142 0.10159302 0.43643188 0.086242676l3.1199036 -0.24084473c0.19869995 -0.015335083 0.3380432 -0.06607056 0.4180298 -0.15220642c0.07998657 -0.086135864 0.115356445 -0.18882751 0.106170654 -0.3080597c-0.009735107 -0.12585449 -0.060546875 -0.22299194 -0.1524353 -0.29141235c-0.09207153 -0.070632935 -0.2374878 -0.09828186 -0.43618774 -0.08294678l-1.5997009 0.12348938l0.8873291 -3.1370392l5.4846497 -0.42340088l1.3780518 2.9621582l-1.5897522 0.12272644c-0.20532227 0.015853882 -0.3480835 0.06575012 -0.42822266 0.14967346c-0.080322266 0.081726074 -0.1156311 0.1855011 -0.105895996 0.31137085c0.009185791 0.11923218 0.059906006 0.215271 0.15216064 0.2881012c0.09225464 0.07284546 0.24105835 0.10133362 0.44638062 0.085494995l3.1099548 -0.24008179c0.19873047 -0.015350342 0.33807373 -0.066085815 0.4180603 -0.15222168c0.079956055 -0.086135864 0.115356445 -0.18881226 0.10614014 -0.30804443c-0.00970459 -0.12586975 -0.060516357 -0.2230072 -0.1524353 -0.2914276c-0.09207153 -0.070632935 -0.23745728 -0.09828186 -0.43618774 -0.08294678l-0.6458435 0.049865723l-4.9065857 -10.476097z" fill-rule="evenodd"/><path fill="#ffffff" d="m268.13492 35.723324l0.28756714 3.7260284c0.01586914 0.20534515 0.066833496 0.3480072 0.15298462 0.42798615c0.086120605 0.07997513 0.18881226 0.11536026 0.30804443 0.106155396c0.12585449 -0.009716034 0.22299194 -0.0605278 0.29141235 -0.1524353c0.07064819 -0.09207916 0.09802246 -0.2407875 0.08218384 -0.44613647l-0.22317505 -2.8913956l3.4179688 -0.2638588l0.7684326 9.955948l-2.1660461 0.16721344c-0.19869995 0.015338898 -0.33813477 0.064971924 -0.41827393 0.1489029c-0.080322266 0.081718445 -0.1156311 0.18550873 -0.10592651 0.31136322c0.009216309 0.11923599 0.059936523 0.215271 0.15219116 0.28811264c0.09225464 0.072841644 0.23773193 0.1015892 0.43643188 0.086250305l5.1766357 -0.39962006c0.19873047 -0.015338898 0.33807373 -0.066078186 0.4180603 -0.15221405c0.079956055 -0.086135864 0.115356445 -0.18881989 0.10614014 -0.30805206c-0.00970459 -0.1258583 -0.060516357 -0.22299957 -0.1524353 -0.2914238c-0.09207153 -0.070632935 -0.23745728 -0.09828186 -0.43618774 -0.08293915l-2.1660156 0.16720963l-0.7684326 -9.955948l3.4179688 -0.26385498l0.22314453 2.8913994c0.01586914 0.20534515 0.06463623 0.34817505 0.1463623 0.4284935c0.08392334 0.08014679 0.18881226 0.11536026 0.31466675 0.10564804c0.12585449 -0.009716034 0.22299194 -0.0605278 0.29141235 -0.1524353c0.07064819 -0.09207916 0.09802246 -0.24079132 0.08218384 -0.44613647l-0.28759766 -3.7260284z" fill-rule="evenodd"/><path fill="#4a86e8" d="m362.71573 115.40321l0 0c-1.1784668 0.09147644 -1.8377075 3.9870758 -1.4724121 8.701065c0.3652954 4.7139893 1.6167603 8.461273 2.7952576 8.369797l-58.22052 4.5191345c-1.1784973 0.09147644 -2.4299622 -3.6558075 -2.7952576 -8.369797c-0.3652954 -4.7139893 0.2939453 -8.609589 1.4724121 -8.701065z" fill-rule="evenodd"/><path fill="#92b6f1" d="m362.71573 115.40321l0 0c1.1784973 -0.09147644 2.4299622 3.6558151 2.7952576 8.369804c0.3652954 4.7139816 -0.2939148 8.609581 -1.4724121 8.701057l0 0c-1.1784973 0.09147644 -2.4299622 -3.6558075 -2.7952576 -8.369797c-0.3652954 -4.7139893 0.2939453 -8.609589 1.4724121 -8.701065z" fill-rule="evenodd"/><path fill="#000000" fill-opacity="0.0" d="m364.03857 132.47408l0 0c-1.1784973 0.09147644 -2.4299622 -3.6558075 -2.7952576 -8.369797c-0.3652954 -4.7139893 0.2939453 -8.609589 1.4724121 -8.701065l0 0c1.1784973 -0.09147644 2.4299622 3.6558151 2.7952576 8.369804c0.3652954 4.7139816 -0.2939148 8.609581 -1.4724121 8.701057l-58.22052 4.5191345c-1.1784973 0.09147644 -2.4299622 -3.6558075 -2.7952576 -8.369797c-0.3652954 -4.7139893 0.2939453 -8.609589 1.4724121 -8.701065l58.22052 -4.5191345" fill-rule="evenodd"/><path fill="#ffffff" d="m333.9411 120.3565c-0.8942566 0.06903839 -1.7066345 0.36386108 -2.4371948 0.88448334c-0.7285156 0.5182419 -1.280426 1.2238693 -1.6557312 2.1168747c-0.3732605 0.8906326 -0.52819824 1.7466431 -0.46481323 2.5680237l0.13116455 1.6990662c0.04446411 0.5762863 0.16809082 1.0987167 0.3708496 1.5672836c0.20257568 0.46635437 0.552063 0.9657898 1.048523 1.4983063c0.49847412 0.53015137 0.91256714 0.9024353 1.2423096 1.1168671c0.3297119 0.21443176 0.7399597 0.39265442 1.2306824 0.5346985c0.64053345 0.18377686 1.262207 0.25239563 1.8649902 0.20585632c0.6955261 -0.05369568 1.3703613 -0.26016235 2.0245056 -0.6194c0.6562195 -0.36161804 1.2323914 -0.868103 1.7285156 -1.5194397c0.26080322 -0.33332825 0.38531494 -0.5761566 0.37356567 -0.7285156c-0.00869751 -0.11260986 -0.05227661 -0.2025299 -0.13076782 -0.2697754c-0.07849121 -0.067230225 -0.17736816 -0.09625244 -0.29660034 -0.08705139c-0.13909912 0.0107421875 -0.25958252 0.0900116 -0.3614502 0.23780823c-0.48135376 0.67019653 -0.9937439 1.1828613 -1.5371704 1.5379944c-0.54119873 0.3549652 -1.1694946 0.5600586 -1.8848877 0.61528015c-1.1923218 0.092041016 -2.2742615 -0.2853241 -3.2458496 -1.1321106c-0.9717407 -0.84898376 -1.5056763 -1.8961487 -1.6018066 -3.1414642l-0.11273193 -1.4606018c-0.04498291 -0.58291626 0.0073547363 -1.1133728 0.15704346 -1.5913773c0.20974731 -0.64923096 0.51327515 -1.249054 0.9105835 -1.7994766c0.22869873 -0.3175125 0.54711914 -0.5953064 0.9552002 -0.83338165c0.54766846 -0.32881165 1.1427612 -0.518013 1.7852783 -0.5676117c0.9803467 -0.075683594 1.8774719 0.15158844 2.6913452 0.6818161c0.6029053 0.38658142 0.9423828 0.8568115 1.0184631 1.410675c0.027038574 0.17782593 0.08117676 0.30358124 0.16238403 0.3772812c0.08340454 0.073516846 0.181427 0.10593414 0.29403687 0.09724426c0.12585449 -0.009719849 0.22299194 -0.060531616 0.29141235 -0.1524353c0.070617676 -0.09207916 0.09802246 -0.24079132 0.08218384 -0.44613647l-0.17871094 -2.3151093c-0.015319824 -0.19872284 -0.064971924 -0.33815765 -0.14889526 -0.41830444c-0.08169556 -0.080314636 -0.18548584 -0.115615845 -0.31134033 -0.105895996c-0.12585449 0.009712219 -0.2241211 0.06060791 -0.29473877 0.15268707c-0.06842041 0.091911316 -0.0949707 0.23722076 -0.07962036 0.4359436l0.04522705 0.5862274c-1.0661926 -0.8639145 -2.2881775 -1.2426834 -3.6659546 -1.1363297z" fill-rule="evenodd"/><path fill="#ffffff" d="m327.2398 31.747513c-0.92736816 0.071588516 -1.7675171 0.36633682 -2.5205078 0.8842468c-0.7529602 0.51791 -1.3234863 1.2271957 -1.7115173 2.1278496c-0.38601685 0.8982773 -0.5437317 1.8044739 -0.47317505 2.7185936l0.11810303 1.5301552c0.07003784 0.9074936 0.25808716 1.6459541 0.56411743 2.2153816c0.30825806 0.56925964 0.7159424 1.0741997 1.223053 1.5148239c0.5071106 0.44062805 1.1098328 0.7672577 1.808136 0.97989273c0.7005005 0.21246338 1.4978943 0.28417587 2.3921204 0.21514511c0.62927246 -0.048576355 1.2527466 -0.18666458 1.8704224 -0.41426468c0.61990356 -0.22776794 1.2342529 -0.5417328 1.8430481 -0.94189835l-0.27609253 -3.5769882c0.33120728 -0.025566101 0.52908325 -0.051948547 0.5935974 -0.07913971c0.06439209 -0.029403687 0.12023926 -0.08258057 0.16760254 -0.15953827c0.04736328 -0.07695389 0.06774902 -0.15848923 0.06109619 -0.24459839c-0.00970459 -0.1258583 -0.060516357 -0.22299957 -0.1524353 -0.2914238c-0.09207153 -0.070632935 -0.2374878 -0.09828186 -0.43618774 -0.08293915l-4.0148926 0.29994202c-0.19873047 0.015338898 -0.33807373 0.066078186 -0.4180298 0.15221405c-0.07998657 0.086135864 -0.115112305 0.19213104 -0.105407715 0.31798935c0.00970459 0.1258583 0.06060791 0.22410202 0.15267944 0.29473495c0.091918945 0.068424225 0.23721313 0.09496689 0.4359436 0.07962799l2.8714905 -0.22167206l0.23849487 3.0901222c-0.55581665 0.30944824 -1.0449219 0.53378296 -1.4673157 0.67300797c-0.42236328 0.13922119 -0.8852844 0.22826385 -1.3887024 0.26712418c-1.490387 0.115055084 -2.6909485 -0.20207214 -3.601715 -0.95137405c-0.9107361 -0.7493057 -1.4195557 -1.8161736 -1.5263977 -3.2005997l-0.11734009 -1.5202179c-0.060333252 -0.7816391 0.064575195 -1.4942818 0.37472534 -2.1379318c0.46392822 -0.9820366 0.992157 -1.66362 1.5846558 -2.0447578c0.59454346 -0.3835144 1.276001 -0.6049309 2.044403 -0.6642456c0.8147278 -0.06289673 1.5814514 0.057826996 2.300171 0.362175c0.72091675 0.30418015 1.1229858 0.73625565 1.2061768 1.2962303c0.021453857 0.19158936 0.07269287 0.32312393 0.15374756 0.39460754c0.08306885 0.069107056 0.1809082 0.09931564 0.29351807 0.09062195c0.11923218 -0.0092048645 0.21542358 -0.057724 0.28860474 -0.14555359c0.073028564 -0.090042114 0.10159302 -0.23773575 0.085754395 -0.4430809l-0.14572144 -1.8878555c-0.015319824 -0.19871902 -0.06607056 -0.33806992 -0.15219116 -0.41804695c-0.08615112 -0.07997513 -0.18884277 -0.11536217 -0.30807495 -0.1061573c-0.0927124 0.0071582794 -0.17355347 0.038942337 -0.24249268 0.09535217c-0.069122314 0.054201126 -0.11328125 0.11536026 -0.13244629 0.1834755c-0.016967773 0.06794357 -0.012939453 0.26420593 0.0121154785 0.58878326c-0.98410034 -0.6636791 -2.148468 -0.94361687 -3.4931335 -0.83981323z" fill-rule="evenodd"/><path fill="#ffffff" d="m383.17075 28.392672l2.7737122 5.892992l-4.848755 0.37430954l1.7670288 -6.2435226zm-3.7009888 -0.55389786c-0.19873047 0.015340805 -0.33816528 0.06497383 -0.41830444 0.1489029c-0.080322266 0.08172035 -0.115600586 0.18550873 -0.105895996 0.31136513c0.00970459 0.1258564 0.06060791 0.22410202 0.15267944 0.29473495c0.091918945 0.06842613 0.23721313 0.09496689 0.4359436 0.07962608l2.4641113 -0.19022179l-2.9178162 10.240513l-0.645813 0.049858093c-0.19873047 0.015338898 -0.33816528 0.064971924 -0.41830444 0.1489029c-0.080322266 0.081718445 -0.1156311 0.18550873 -0.105895996 0.31136322c0.009185791 0.11923599 0.059906006 0.215271 0.15216064 0.28811264c0.09225464 0.072841644 0.23773193 0.10159302 0.4364624 0.086250305l3.119873 -0.24084473c0.19873047 -0.015338898 0.33807373 -0.066078186 0.4180298 -0.15221405c0.07998657 -0.086135864 0.11538696 -0.1888237 0.106170654 -0.30805588c-0.00970459 -0.12585449 -0.060516357 -0.22299576 -0.1524353 -0.29141998c-0.09207153 -0.07063675 -0.23745728 -0.09828186 -0.43618774 -0.08293915l-1.5996704 0.12348938l0.8872986 -3.1370506l5.4846497 -0.42339706l1.3780823 2.9621696l-1.5897522 0.122722626c-0.20535278 0.015853882 -0.3480835 0.06574249 -0.42825317 0.14966965c-0.08029175 0.081718445 -0.115600586 0.18550873 -0.105895996 0.31136703c0.009216309 0.11923218 0.059936523 0.21526718 0.15219116 0.28810883c0.09222412 0.072841644 0.24102783 0.10133743 0.44638062 0.08548355l3.1099548 -0.24007797c0.19869995 -0.015338898 0.3380432 -0.066078186 0.4180298 -0.15221405c0.07998657 -0.086135864 0.115356445 -0.18881989 0.106170654 -0.30805206c-0.009735107 -0.1258583 -0.060546875 -0.22299957 -0.1524353 -0.2914238c-0.09207153 -0.070632935 -0.2374878 -0.09828186 -0.43618774 -0.08293915l-0.6458435 0.04985428l-4.9065857 -10.476095z" fill-rule="evenodd"/><path fill="#4a86e8" d="m419.60657 111.02162l0 0c-1.1784668 0.09147644 -1.8377075 3.9870758 -1.4724121 8.701065c0.3652954 4.7139893 1.6167908 8.461273 2.7952576 8.369797l-58.22052 4.5191345c-1.1784668 0.09147644 -2.4299622 -3.6558075 -2.7952576 -8.369804c-0.3652649 -4.7139893 0.2939453 -8.609589 1.4724426 -8.701057z" fill-rule="evenodd"/><path fill="#92b6f1" d="m419.60657 111.02162l0 0c1.1784973 -0.09147644 2.4299927 3.6558151 2.7952576 8.369804c0.3652954 4.7139893 -0.2939148 8.609581 -1.4724121 8.701057l0 0c-1.1784668 0.09147644 -2.4299622 -3.6558075 -2.7952576 -8.369797c-0.3652954 -4.7139893 0.2939453 -8.609589 1.4724121 -8.701065z" fill-rule="evenodd"/><path fill="#000000" fill-opacity="0.0" d="m420.9294 128.09248l0 0c-1.1784668 0.09147644 -2.4299622 -3.6558075 -2.7952576 -8.369797c-0.3652954 -4.7139893 0.2939453 -8.609589 1.4724121 -8.701065l0 0c1.1784973 -0.09147644 2.4299927 3.6558151 2.7952576 8.369804c0.3652954 4.7139893 -0.2939148 8.609581 -1.4724121 8.701057l-58.22052 4.5191345c-1.1784668 0.09147644 -2.4299622 -3.6558075 -2.7952576 -8.369804c-0.3652649 -4.7139893 0.2939453 -8.609589 1.4724426 -8.701057l58.22049 -4.5191345" fill-rule="evenodd"/><path fill="#ffffff" d="m387.03214 116.789055l0.28759766 3.7260284c0.015838623 0.20534515 0.066833496 0.3480072 0.15298462 0.42798615c0.086120605 0.07997131 0.18881226 0.115356445 0.30804443 0.106155396c0.12585449 -0.009712219 0.22299194 -0.060523987 0.29141235 -0.1524353c0.070617676 -0.09207916 0.09802246 -0.24079132 0.08218384 -0.44613647l-0.22317505 -2.8913956l3.4179688 -0.26385498l0.7684326 9.95594l-2.1660461 0.16721344c-0.19873047 0.015342712 -0.33813477 0.06497955 -0.41830444 0.1489029c-0.080322266 0.081718445 -0.115600586 0.18550873 -0.105895996 0.31137085c0.009216309 0.11923218 0.059936523 0.215271 0.15216064 0.2881012c0.09225464 0.07284546 0.23773193 0.10159302 0.4364624 0.086257935l5.1766357 -0.39962006c0.19869995 -0.015342712 0.33807373 -0.066078186 0.4180298 -0.15221405c0.07998657 -0.086135864 0.115356445 -0.18881989 0.106170654 -0.30805206c-0.00970459 -0.12586212 -0.060516357 -0.22299957 -0.1524353 -0.2914276c-0.09207153 -0.070632935 -0.23745728 -0.09827423 -0.43618774 -0.08293915l-2.1660461 0.16721344l-0.7684326 -9.955948l3.4179688 -0.26385498l0.22317505 2.8913956c0.015838623 0.20534515 0.06463623 0.34817505 0.1463623 0.4284973c0.08392334 0.08014679 0.18881226 0.115364075 0.31466675 0.105644226c0.12585449 -0.009712219 0.22299194 -0.060523987 0.29141235 -0.1524353c0.070617676 -0.09207916 0.09802246 -0.24079132 0.08218384 -0.44613647l-0.28759766 -3.7260284z" fill-rule="evenodd"/><path fill="#ffffff" d="m440.0952 23.29554l2.7737122 5.892992l-4.8487244 0.37430763l1.7669983 -6.2435226zm-3.7009583 -0.55389977c-0.19873047 0.015340805 -0.33816528 0.06497574 -0.41830444 0.1489029c-0.080322266 0.08172035 -0.1156311 0.18550873 -0.10592651 0.31136513c0.009735107 0.1258583 0.060638428 0.22410202 0.15270996 0.29473495c0.09188843 0.06842613 0.23721313 0.09496689 0.4359131 0.07962799l2.4641418 -0.1902237l-2.9178162 10.240513l-0.6458435 0.049858093c-0.19873047 0.015338898 -0.33813477 0.06497574 -0.41830444 0.1489029c-0.080322266 0.081718445 -0.115600586 0.18550873 -0.105895996 0.31136703c0.009216309 0.11923218 0.059936523 0.21526718 0.15216064 0.28810883c0.09225464 0.072841644 0.23773193 0.10159302 0.4364624 0.086250305l3.119873 -0.24084473c0.19873047 -0.015338898 0.33807373 -0.066078186 0.4180603 -0.15221405c0.07998657 -0.086135864 0.115356445 -0.18881989 0.106170654 -0.30805588c-0.009735107 -0.12585449 -0.060546875 -0.22299576 -0.1524353 -0.29141998c-0.09207153 -0.07063675 -0.2374878 -0.09828186 -0.43618774 -0.08293915l-1.5997009 0.12348938l0.8873291 -3.1370487l5.4846497 -0.42339706l1.3780518 2.9621677l-1.5897522 0.122722626c-0.20532227 0.015853882 -0.3480835 0.06574249 -0.42822266 0.14966965c-0.080322266 0.08172226 -0.1156311 0.18550873 -0.105895996 0.31136703c0.009185791 0.11923218 0.059906006 0.215271 0.15216064 0.28810883c0.09225464 0.072841644 0.24105835 0.10133743 0.44638062 0.085487366l3.1099548 -0.24008179c0.19873047 -0.015338898 0.33807373 -0.066078186 0.4180603 -0.15221405c0.079956055 -0.086135864 0.115356445 -0.18881989 0.10614014 -0.30805206c-0.00970459 -0.1258583 -0.060516357 -0.22299957 -0.1524353 -0.2914238c-0.09207153 -0.070632935 -0.23745728 -0.098278046 -0.43618774 -0.08293915l-0.6458435 0.049858093l-4.9065857 -10.476099z" fill-rule="evenodd"/><path fill="#4a86e8" d="m476.5425 106.72285l0 0c-1.1784973 0.09147644 -1.837738 3.9870758 -1.4724426 8.701065c0.3652954 4.7139893 1.6167908 8.461281 2.7952576 8.369804l-58.22052 4.5191345c-1.1784668 0.09147644 -2.4299622 -3.6558151 -2.7952576 -8.369804c-0.3652649 -4.7139893 0.2939453 -8.609589 1.4724426 -8.701065z" fill-rule="evenodd"/><path fill="#92b6f1" d="m476.5425 106.72285l0 0c1.1784668 -0.09147644 2.4299622 3.6558151 2.795227 8.369804c0.3652954 4.7139893 -0.2939148 8.609589 -1.4724121 8.701065l0 0c-1.1784668 0.09147644 -2.4299622 -3.6558151 -2.7952576 -8.369804c-0.3652954 -4.7139893 0.2939453 -8.609589 1.4724426 -8.701065z" fill-rule="evenodd"/><path fill="#000000" fill-opacity="0.0" d="m477.86533 123.79372l0 0c-1.1784668 0.09147644 -2.4299622 -3.6558151 -2.7952576 -8.369804c-0.3652954 -4.7139893 0.2939453 -8.609589 1.4724426 -8.701065l0 0c1.1784668 -0.09147644 2.4299622 3.6558151 2.795227 8.369804c0.3652954 4.7139893 -0.2939148 8.609589 -1.4724121 8.701065l-58.22052 4.5191345c-1.1784668 0.09147644 -2.4299622 -3.6558151 -2.7952576 -8.369804c-0.3652649 -4.7139893 0.2939453 -8.609589 1.4724426 -8.701065l58.22052 -4.5191345" fill-rule="evenodd"/><path fill="#ffffff" d="m443.96805 112.49028l0.28759766 3.7260284c0.015838623 0.20534515 0.066833496 0.3480072 0.15298462 0.42798615c0.086120605 0.07997894 0.18881226 0.115364075 0.30804443 0.106155396c0.12585449 -0.009712219 0.22299194 -0.060523987 0.29141235 -0.1524353c0.07064819 -0.09207916 0.09802246 -0.24079132 0.08218384 -0.44613647l-0.22317505 -2.8913956l3.4179688 -0.26385498l0.7684326 9.955948l-2.1660461 0.16720581c-0.19869995 0.015342712 -0.33813477 0.06497955 -0.41830444 0.1489029c-0.08029175 0.081726074 -0.115600586 0.18550873 -0.105895996 0.31137085c0.009216309 0.11923218 0.059936523 0.215271 0.15219116 0.28810883c0.09222412 0.07284546 0.23770142 0.10159302 0.43643188 0.086250305l5.1766357 -0.39962006c0.19869995 -0.015342712 0.33807373 -0.066078186 0.4180298 -0.15221405c0.07998657 -0.086135864 0.115356445 -0.18881989 0.106170654 -0.30805206c-0.00970459 -0.12585449 -0.060516357 -0.22299957 -0.1524353 -0.2914276c-0.09207153 -0.070632935 -0.23745728 -0.09827423 -0.43618774 -0.08293152l-2.1660461 0.16720581l-0.7684326 -9.955948l3.4179688 -0.26385498l0.22317505 2.8913956c0.015838623 0.20534515 0.06463623 0.34818268 0.1463623 0.4284973c0.08392334 0.08014679 0.18881226 0.115364075 0.31466675 0.105644226c0.12585449 -0.009712219 0.22299194 -0.060523987 0.29141235 -0.1524353c0.07064819 -0.09207916 0.09802246 -0.24078369 0.08218384 -0.44613647l-0.28759766 -3.7260284z" fill-rule="evenodd"/><path fill="#000000" fill-opacity="0.0" d="m251.93033 118.94534l0 0c1.591629 -14.02021 14.247498 -24.095566 28.26773 -22.503944l0 0c6.732727 0.764328 12.886078 4.171921 17.106384 9.473145c4.2203064 5.3012238 6.161865 12.061836 5.3975525 18.794579l0 0c-1.5916443 14.020203 -14.247528 24.09555 -28.26773 22.503937l0 0c-14.020203 -1.591629 -24.095566 -14.247513 -22.503937 -28.267715z" fill-rule="evenodd"/><path stroke="#ff0000" stroke-width="4.0" stroke-linejoin="round" stroke-linecap="butt" d="m251.93033 118.94534l0 0c1.591629 -14.02021 14.247498 -24.095566 28.26773 -22.503944l0 0c6.732727 0.764328 12.886078 4.171921 17.106384 9.473145c4.2203064 5.3012238 6.161865 12.061836 5.3975525 18.794579l0 0c-1.5916443 14.020203 -14.247528 24.09555 -28.26773 22.503937l0 0c-14.020203 -1.591629 -24.095566 -14.247513 -22.503937 -28.267715z" fill-rule="evenodd"/><path fill="#000000" fill-opacity="0.0" d="m293.22885 141.81552l110.456696 105.732285" fill-rule="evenodd"/><path stroke="#ff0000" stroke-width="4.0" stroke-linejoin="round" stroke-linecap="butt" d="m293.22885 141.81552l93.119415 89.136536" fill-rule="evenodd"/><path fill="#ff0000" stroke="#ff0000" stroke-width="4.0" stroke-linecap="butt" d="m381.77963 235.72482l17.681671 7.779419l-8.544434 -17.324936z" fill-rule="evenodd"/><path fill="#ffffff" d="m446.74634 337.86395c2.2384644 0 4.235962 0.95336914 5.992523 2.860138c1.7565613 1.9015503 2.6348267 4.305725 2.6348267 7.212494c0 2.9067688 -0.8782654 5.308319 -2.6348267 7.204712c-1.7565613 1.8963928 -3.7540588 2.8446045 -5.992523 2.8446045c-2.2229004 0 -4.212616 -0.95080566 -5.9691772 -2.852356c-1.7565613 -1.9067688 -2.6348267 -4.3057556 -2.6348267 -7.1969604c0 -2.8912354 0.8782654 -5.2927856 2.6348267 -7.2047424c1.7565613 -1.9119263 3.7462769 -2.8678894 5.9691772 -2.8678894zm0 -4.779846c-3.186676 0 -6.062439 1.173584 -8.627319 3.5207825c-3.1711426 2.9223022 -4.756714 6.699524 -4.756714 11.331696c0 4.6321716 1.5855713 8.401611 4.756714 11.30838c2.5648804 2.347168 5.4406433 3.520752 8.627319 3.520752c3.54422 0 6.6635437 -1.4093323 9.357971 -4.227997c2.6996155 -2.823883 4.049408 -6.3575745 4.049408 -10.601135c0 -4.259094 -1.3497925 -7.798004 -4.049408 -10.616669c-2.6944275 -2.8238525 -5.813751 -4.2358093 -9.357971 -4.2358093z" fill-rule="evenodd"/><path fill="#ffffff" d="m446.74634 222.5716c2.2384644 0 4.235962 0.95336914 5.992523 2.8601227c1.7565613 1.9015656 2.6348267 4.3057404 2.6348267 7.212494c0 2.9067688 -0.8782654 5.3083344 -2.6348267 7.204727c-1.7565613 1.8963928 -3.7540588 2.8445892 -5.992523 2.8445892c-2.2229004 0 -4.212616 -0.9507904 -5.9691772 -2.852356c-1.7565613 -1.9067535 -2.6348267 -4.3057404 -2.6348267 -7.1969604c0 -2.8912048 0.8782654 -5.2927856 2.6348267 -7.204727c1.7565613 -1.9119263 3.7462769 -2.8678894 5.9691772 -2.8678894zm0 -4.779831c-3.186676 0 -6.062439 1.173584 -8.627319 3.520752c-3.1711426 2.9223022 -4.756714 6.699539 -4.756714 11.331696c0 4.6321716 1.5855713 8.401627 4.756714 11.308395c2.5648804 2.347168 5.4406433 3.520752 8.627319 3.520752c3.54422 0 6.6635437 -1.4093323 9.357971 -4.228012c2.6996155 -2.8238678 4.049408 -6.3575745 4.049408 -10.601135c0 -4.259094 -1.3497925 -7.797989 -4.049408 -10.616669c-2.6944275 -2.8238525 -5.813751 -4.235779 -9.357971 -4.235779z" fill-rule="evenodd"/><path fill="#ffffff" d="m500.76865 280.21848c2.2384338 0 4.235962 0.95336914 5.992523 2.860138c1.7565308 1.9015808 2.6348267 4.305725 2.6348267 7.212494c0 2.9067688 -0.8782959 5.308319 -2.6348267 7.204712c-1.7565613 1.8963928 -3.7540894 2.8446045 -5.992523 2.8446045c-2.2229004 0 -4.2126465 -0.95080566 -5.969208 -2.852356c-1.7565613 -1.9067688 -2.6348267 -4.3057556 -2.6348267 -7.1969604c0 -2.8912048 0.8782654 -5.2927856 2.6348267 -7.204712c1.7565613 -1.9119568 3.7463074 -2.86792 5.969208 -2.86792zm0 -4.7798157c-3.186676 0 -6.0624695 1.173584 -8.62735 3.520752c-3.1711426 2.9223022 -4.756714 6.699524 -4.756714 11.331696c0 4.6321716 1.5855713 8.401611 4.756714 11.30838c2.5648804 2.347168 5.440674 3.520752 8.62735 3.520752c3.54422 0 6.663513 -1.4093323 9.357941 -4.227997c2.699646 -2.823883 4.0494385 -6.3575745 4.0494385 -10.601135c0 -4.259094 -1.3497925 -7.798004 -4.0494385 -10.616669c-2.6944275 -2.8238525 -5.8137207 -4.235779 -9.357941 -4.235779z" fill-rule="evenodd"/><path fill="#ffffff" d="m389.8565 278.71716c2.2384644 0 4.235962 0.95336914 5.992523 2.860138c1.7565613 1.9015808 2.6348267 4.305725 2.6348267 7.212494c0 2.9067688 -0.8782654 5.308319 -2.6348267 7.204712c-1.7565613 1.8963928 -3.7540588 2.8446045 -5.992523 2.8446045c-2.2229004 0 -4.212616 -0.95080566 -5.9691772 -2.852356c-1.7565613 -1.9067688 -2.6348572 -4.3057556 -2.6348572 -7.1969604c0 -2.8912048 0.8782959 -5.2927856 2.6348572 -7.2047424c1.7565613 -1.9119263 3.7462769 -2.8678894 5.9691772 -2.8678894zm0 -4.7798157c-3.186676 0 -6.062439 1.173584 -8.62735 3.520752c-3.171112 2.9223022 -4.7566833 6.699524 -4.7566833 11.331696c0 4.6321716 1.5855713 8.401611 4.7566833 11.30838c2.564911 2.347168 5.440674 3.520752 8.62735 3.520752c3.54422 0 6.6635437 -1.4093323 9.357971 -4.227997c2.6996155 -2.823883 4.049408 -6.3575745 4.049408 -10.601135c0 -4.259094 -1.3497925 -7.798004 -4.049408 -10.616669c-2.6944275 -2.8238525 -5.813751 -4.235779 -9.357971 -4.235779z" fill-rule="evenodd"/><path fill="#ffffff" d="m447.92953 280.4574c1.8342896 0 3.2436829 0.41967773 4.22818 1.2590637c0.98968506 0.839386 1.4845276 1.8186646 1.4845276 2.9378357c0 1.3212585 -0.6114197 2.4533997 -1.8342896 3.3964233c-1.2176819 0.9378357 -2.8680115 1.4067383 -4.9510193 1.4067383l-4.430237 0l0 -9.000061zm-11.029022 -4.8031616c-1.1502991 0 -1.9715881 0.22280884 -2.4638367 0.668396c-0.48709106 0.4404297 -0.73062134 1.018158 -0.73062134 1.7331848c0 0.71502686 0.24353027 1.2953491 0.73062134 1.7409363c0.49224854 0.4404297 1.3135376 0.66064453 2.4638367 0.66064453l0.7461548 0l0 18.699615l-0.7461548 0c-1.1347656 0 -1.9508667 0.22280884 -2.4483032 0.6684265c-0.49743652 0.44039917 -0.7461548 1.0103455 -0.7461548 1.7098389c0 0.71502686 0.24353027 1.2953491 0.73062134 1.7409668c0.49224854 0.44039917 1.3135376 0.660614 2.4638367 0.660614l10.352814 0c1.1503296 0 1.9690247 -0.22021484 2.4560852 -0.660614c0.49224854 -0.44561768 0.7383728 -1.018158 0.7383728 -1.7176514c0 -0.71502686 -0.24612427 -1.2927551 -0.7383728 -1.7331543c-0.48706055 -0.44561768 -1.3057556 -0.6684265 -2.4560852 -0.6684265l-4.8266296 0l0 -4.9197083l4.523529 0c1.9275513 0 3.4768372 -0.22799683 4.647888 -0.68395996c1.1762085 -0.46115112 2.3265076 -1.1450806 3.4509277 -2.0518188c1.1295776 -0.91192627 1.9353333 -1.8342285 2.4172058 -2.7668762c0.6373291 -1.2435303 0.95599365 -2.5647888 0.95599365 -3.963745c0 -2.533722 -0.9456177 -4.6813965 -2.836914 -6.4430847c-1.8860779 -1.7668457 -4.445801 -2.6502686 -7.6791077 -2.6502686l-11.005707 -0.02331543z" fill-rule="evenodd"/><path fill="#ffffff" d="m353.6078 270.6403l0 4.360138l19.959473 0l0 -4.360138z" fill-rule="evenodd"/><path fill="#ffffff" d="m464.28336 331.4211l0 4.3601685l19.959473 0l0 -4.3601685z" fill-rule="evenodd"/><path fill="#00ffff" d="m407.23096 286.37665l20.094513 0l0 5.291321l-20.094513 0z" fill-rule="evenodd"/><path fill="#00ffff" d="m462.87796 286.37534l20.094482 0l0 5.291321l-20.094482 0z" fill-rule="evenodd"/><path fill="#00ffff" d="m448.9462 308.2047l0 20.094513l-5.2913513 0l0 -20.094513z" fill-rule="evenodd"/><path fill="#00ffff" d="m444.9449 251.27559l0 20.094498l-5.2913513 0l0 -20.094498z" fill-rule="evenodd"/><path fill="#00ffff" d="m452.9449 251.27559l0 20.094498l-5.2913513 0l0 -20.094498z" fill-rule="evenodd"/><path fill="#000000" fill-opacity="0.0" d="m515.31104 299.82285l42.91864 24.446198l0 72.25458l51.065613 -26.078735" fill-rule="evenodd"/><path stroke="#ffff00" stroke-width="4.0" stroke-linejoin="round" stroke-linecap="butt" d="m515.31104 299.82285l42.91864 24.446198l0 72.25458l51.065613 -26.078735" fill-rule="evenodd"/><path fill="#ffffff" d="m632.96484 350.18567c2.2384644 0 4.235962 0.95336914 5.9924927 2.860138c1.7565918 1.9015503 2.6348267 4.305725 2.6348267 7.212494c0 2.9067688 -0.87823486 5.308319 -2.6348267 7.204712c-1.7565308 1.8963928 -3.7540283 2.8446045 -5.9924927 2.8446045c-2.2229004 0 -4.2126465 -0.95080566 -5.9691772 -2.852356c-1.7565918 -1.9067688 -2.6348877 -4.3057556 -2.6348877 -7.1969604c0 -2.8912354 0.8782959 -5.2927856 2.6348877 -7.2047424c1.7565308 -1.9119263 3.7462769 -2.8678894 5.9691772 -2.8678894zm0 -4.779846c-3.1867065 0 -6.062439 1.1736145 -8.62738 3.5207825c-3.1710815 2.9223022 -4.756653 6.699524 -4.756653 11.331696c0 4.6321716 1.5855713 8.401611 4.756653 11.30838c2.5649414 2.347168 5.440674 3.520752 8.62738 3.520752c3.5441895 0 6.663513 -1.4093323 9.357971 -4.227997c2.699585 -2.823883 4.0493774 -6.3575745 4.0493774 -10.601135c0 -4.259094 -1.3497925 -7.798004 -4.0493774 -10.616669c-2.694458 -2.8238525 -5.8137817 -4.2358093 -9.357971 -4.2358093z" fill-rule="evenodd"/><path fill="#000000" fill-opacity="0.0" d="m707.73096 323.67453l-0.007873535 0.9081421l0 72.25461l-51.065613 -26.078735" fill-rule="evenodd"/><path stroke="#ffff00" stroke-width="4.0" stroke-linejoin="round" stroke-linecap="butt" d="m707.73096 323.67453l-0.007873535 0.9081421l0 72.25461l-51.065613 -26.078735" fill-rule="evenodd"/><path fill="#ffff00" d="m603.437 453.8123l-46.431763 -55.733124l1.8084106 -3.1479187l52.276917 45.558197z" fill-rule="evenodd"/><path fill="#ffff00" d="m662.84906 453.81235l46.431763 -55.733124l-1.8083496 -3.1479187l-52.276917 45.558197z" fill-rule="evenodd"/><path fill="#ffff00" d="m603.4366 440.50262l59.433105 0l0 13.322815l-59.433105 0z" fill-rule="evenodd"/><path fill="#ffff00" d="m608.72833 451.2047l0 20.094513l-5.291321 0l0 -20.094513z" fill-rule="evenodd"/><path fill="#ffffff" d="m605.62823 481.32852c2.2384644 0 4.235962 0.95336914 5.9924927 2.860138c1.7565918 1.9015503 2.6348877 4.305725 2.6348877 7.212494c0 2.9067688 -0.8782959 5.308319 -2.6348877 7.204712c-1.7565308 1.8963928 -3.7540283 2.8446045 -5.9924927 2.8446045c-2.2229004 0 -4.2126465 -0.95080566 -5.9691772 -2.852356c-1.7565918 -1.9067688 -2.6348267 -4.3057556 -2.6348267 -7.1969604c0 -2.8912354 0.87823486 -5.2927856 2.6348267 -7.2047424c1.7565308 -1.9119263 3.7462769 -2.8678894 5.9691772 -2.8678894zm0 -4.779846c-3.1866455 0 -6.062439 1.173584 -8.627319 3.520752c-3.1711426 2.9223328 -4.756714 6.6995544 -4.756714 11.331726c0 4.6321716 1.5855713 8.401611 4.756714 11.30838c2.5648804 2.347168 5.440674 3.520752 8.627319 3.520752c3.5441895 0 6.663513 -1.4093323 9.357971 -4.227997c2.699585 -2.823883 4.0493774 -6.3575745 4.0493774 -10.601135c0 -4.2591248 -1.3497925 -7.798004 -4.0493774 -10.616669c-2.694458 -2.823883 -5.8137817 -4.2358093 -9.357971 -4.2358093z" fill-rule="evenodd"/><path fill="#ffffff" d="m625.168 477.24817c-1.1503296 0 -1.9716187 0.22280884 -2.4638672 0.668396c-0.48706055 0.4404297 -0.7305908 1.018158 -0.7305908 1.7331848c0 0.65286255 0.21246338 1.1968994 0.6373291 1.6321411c0.4300537 0.4352417 1.0648193 0.6917114 1.9042358 0.7694397l0 18.699646c-0.07128906 -9.1552734E-4 -0.14117432 -0.001373291 -0.20959473 -0.001373291c-1.0947266 0 -1.817627 0.11703491 -2.1687622 0.35110474c-0.7616577 0.48187256 -1.1425171 1.1580505 -1.1425171 2.028534c0 0.71502686 0.24353027 1.2953186 0.7305908 1.7409363c0.49224854 0.44039917 1.3135376 0.660614 2.4638672 0.660614l5.8526 0c1.1503296 0 1.9689941 -0.22021484 2.4560547 -0.660614c0.49224854 -0.44561768 0.7384033 -1.018158 0.7384033 -1.7176208c0 -0.7150574 -0.24615479 -1.2927856 -0.7384033 -1.7331848c-0.48706055 -0.44561768 -1.3057251 -0.668396 -2.4560547 -0.668396l-0.7461548 0l0 -6.9249268l10.212891 0l0 6.9249268l-0.7461548 0c-1.1347656 0 -1.9508667 0.22277832 -2.4483032 0.668396c-0.4973755 0.44039917 -0.74609375 1.010376 -0.74609375 1.7098694c0 0.71502686 0.24353027 1.2953186 0.7305908 1.7409363c0.49224854 0.44039917 1.3135376 0.660614 2.4638062 0.660614l5.852661 0c1.1502686 0 1.9689941 -0.22021484 2.4560547 -0.660614c0.49224854 -0.44561768 0.7383423 -1.018158 0.7383423 -1.7176208c0 -0.88604736 -0.38079834 -1.5699768 -1.1425171 -2.0518494c-0.35754395 -0.2331543 -1.1503296 -0.34973145 -2.378357 -0.34973145l0 -18.699646c0.8394165 -0.07772827 1.4715576 -0.334198 1.8964844 -0.7694397c0.4300537 -0.4352417 0.64508057 -0.97927856 0.64508057 -1.6321411c0 -0.71502686 -0.24609375 -1.2901611 -0.7383423 -1.7254028c-0.48706055 -0.4352417 -1.3057861 -0.65286255 -2.4561157 -0.65286255l-4.873291 -0.02331543c-1.1502686 0 -1.9715576 0.22280884 -2.4638062 0.668396c-0.48706055 0.4404297 -0.7305908 1.018158 -0.7305908 1.7331848c0 0.71502686 0.24353027 1.2953491 0.7305908 1.7409363c0.49224854 0.4404297 1.3135376 0.66064453 2.4638062 0.66064453l0.7461548 0l0 6.994873l-10.212891 0l0 -6.994873l0.7461548 0c1.1503296 0 1.9689941 -0.22021484 2.4560547 -0.66064453c0.49224854 -0.44558716 0.7384033 -1.0259094 0.7384033 -1.7409363c0 -0.71502686 -0.24615479 -1.2901611 -0.7384033 -1.7254028c-0.48706055 -0.4352417 -1.3057251 -0.65286255 -2.4560547 -0.65286255l-4.873291 -0.02331543z" fill-rule="evenodd"/><path fill="#ffffff" d="m695.50256 288.40204c-1.1503296 0 -1.9716187 0.22280884 -2.4638672 0.668396c-0.48706055 0.4404297 -0.7305908 1.0181274 -0.7305908 1.7331848c0 0.71502686 0.24353027 1.2953491 0.7305908 1.7409363c0.49224854 0.4404297 1.3135376 0.660614 2.4638672 0.660614l0.74609375 0l0 18.699646c-1.010376 0 -1.7565308 0.22540283 -2.2384033 0.676178c-0.4819336 0.45077515 -0.72283936 1.018158 -0.72283936 1.7020874c0 0.71502686 0.24353027 1.2953491 0.7305908 1.7409668c0.49224854 0.44039917 1.3135376 0.660614 2.4638672 0.660614l6.272278 0c1.1503296 0 1.9690552 -0.22021484 2.4561157 -0.660614c0.49224854 -0.44561768 0.7383423 -1.018158 0.7383423 -1.7176514c0 -0.71502686 -0.24609375 -1.2927551 -0.7383423 -1.7331848c-0.48706055 -0.44558716 -1.3057861 -0.668396 -2.4561157 -0.668396l-1.7254639 0l0 -14.456085l12.288147 19.235931l4.7333984 0l0 -23.479492c0.99487305 0 1.7332153 -0.22537231 2.215149 -0.67614746c0.48187256 -0.45080566 0.72283936 -1.02594 0.72283936 -1.7254028c0 -0.7150574 -0.24615479 -1.2901917 -0.7384033 -1.7254028c-0.48706055 -0.4352417 -1.3057861 -0.65286255 -2.4560547 -0.65286255l-6.272339 -0.02331543c-1.1503296 0 -1.9716187 0.22280884 -2.4638672 0.668396c-0.48706055 0.4404297 -0.7305908 1.0181274 -0.7305908 1.7331848c0 0.71502686 0.24353027 1.2953491 0.7305908 1.7409363c0.49224854 0.4404297 1.3135376 0.660614 2.4638672 0.660614l1.7254639 0l0 14.386139l-12.218201 -19.165955l-5.526123 -0.02331543z" fill-rule="evenodd"/><path fill="#ffffff" d="m697.5048 174.52473c-1.1503296 0 -1.9715576 0.22280884 -2.4638062 0.668396c-0.48712158 0.4404297 -0.73065186 1.0181427 -0.73065186 1.7331848c0 0.71502686 0.24353027 1.2953491 0.73065186 1.7409515c0.49224854 0.44041443 1.3134766 0.660614 2.4638062 0.660614l0.7461548 0l0 18.699646c-1.010376 0 -1.7565308 0.22538757 -2.2384644 0.676178c-0.48187256 0.45077515 -0.72283936 1.0181427 -0.72283936 1.7020874c0 0.71502686 0.24359131 1.2953491 0.73065186 1.7409515c0.49224854 0.44041443 1.3135376 0.660614 2.4638062 0.660614l6.272339 0c1.1503296 0 1.9689941 -0.22019958 2.4560547 -0.660614c0.49224854 -0.44560242 0.7384033 -1.018158 0.7384033 -1.7176361c0 -0.71502686 -0.24615479 -1.2927551 -0.7384033 -1.7331848c-0.48706055 -0.44558716 -1.3057251 -0.668396 -2.4560547 -0.668396l-1.7254639 0l0 -14.456085l12.288147 19.235916l4.7333984 0l0 -23.479477c0.994812 0 1.7332153 -0.22538757 2.215088 -0.6761627c0.4819336 -0.4507904 0.72283936 -1.0259247 0.72283936 -1.7254028c0 -0.7150421 -0.24609375 -1.2901764 -0.7383423 -1.7254028c-0.48712158 -0.4352417 -1.3057861 -0.65286255 -2.4561157 -0.65286255l-6.272278 -0.02331543c-1.1503296 0 -1.9716187 0.22280884 -2.4638672 0.668396c-0.48706055 0.4404297 -0.7305908 1.0181427 -0.7305908 1.7331848c0 0.71502686 0.24353027 1.2953491 0.7305908 1.7409515c0.49224854 0.44041443 1.3135376 0.660614 2.4638672 0.660614l1.7254639 0l0 14.386139l-12.218201 -19.16597l-5.526184 -0.02331543z" fill-rule="evenodd"/><path fill="#000000" fill-opacity="0.0" d="m690.9182 284.37283l-26.0 -35.950134l29.874023 -41.601044" fill-rule="evenodd"/><path stroke="#00ff00" stroke-width="4.0" stroke-linejoin="round" stroke-linecap="butt" d="m690.9182 284.37283l-26.0 -35.950134l29.874023 -41.601044" fill-rule="evenodd"/><path fill="#000000" fill-opacity="0.0" d="m672.66724 249.39613l27.501343 -39.123367" fill-rule="evenodd"/><path stroke="#00ff00" stroke-width="4.0" stroke-linejoin="round" stroke-linecap="butt" d="m672.66724 249.39613l27.501343 -39.123367" fill-rule="evenodd"/><path fill="#000000" fill-opacity="0.0" d="m723.37756 303.155l55.0 -17.874023l0.12335205 -73.5748l-52.0 -17.02626" fill-rule="evenodd"/><path stroke="#00ff00" stroke-width="4.0" stroke-linejoin="round" stroke-linecap="butt" d="m723.37756 303.155l55.0 -17.874023l0.12335205 -73.5748l-52.0 -17.02626" fill-rule="evenodd"/><path fill="#000000" fill-opacity="0.0" d="m785.84735 215.90958l0 66.01575" fill-rule="evenodd"/><path stroke="#00ff00" stroke-width="4.0" stroke-linejoin="round" stroke-linecap="butt" d="m785.84735 215.90958l0 66.01575" fill-rule="evenodd"/><path fill="#000000" fill-opacity="0.0" d="m778.86835 212.26785l63.375366 -36.026245l39.926514 22.926498" fill-rule="evenodd"/><path stroke="#00ff00" stroke-width="4.0" stroke-linejoin="round" stroke-linecap="butt" d="m778.86835 212.26785l63.375366 -36.026245l39.926514 22.926498" fill-rule="evenodd"/><path fill="#ffffff" d="m887.7309 203.18025c-1.1503296 0 -1.9716187 0.22279358 -2.4638672 0.668396c-0.48706055 0.44041443 -0.7305908 1.0181427 -0.7305908 1.7331696c0 0.7150421 0.24353027 1.2953491 0.7305908 1.7409515c0.49224854 0.44041443 1.3135376 0.6606293 2.4638672 0.6606293l0.7461548 0l0 18.699646c-1.010437 0 -1.7565918 0.22538757 -2.2384644 0.6761627c-0.48187256 0.4507904 -0.72283936 1.0181427 -0.72283936 1.7020874c0 0.7150421 0.24353027 1.2953491 0.7305908 1.7409515c0.49224854 0.44041443 1.3135376 0.6606293 2.4638672 0.6606293l6.272339 0c1.1502686 0 1.9689941 -0.22021484 2.4560547 -0.6606293c0.49224854 -0.44560242 0.7383423 -1.0181427 0.7383423 -1.7176361c0 -0.71502686 -0.24609375 -1.2927551 -0.7383423 -1.7331696c-0.48706055 -0.44560242 -1.3057861 -0.668396 -2.4560547 -0.668396l-1.7254639 0l0 -14.456085l12.288086 19.235916l4.7333984 0l0 -23.479477c0.99487305 0 1.7332764 -0.22538757 2.215149 -0.676178c0.48187256 -0.45077515 0.72283936 -1.0259094 0.72283936 -1.7254028c0 -0.71502686 -0.24615479 -1.2901611 -0.7384033 -1.7254028c-0.48706055 -0.43522644 -1.3057251 -0.6528473 -2.4560547 -0.6528473l-6.272339 -0.02331543c-1.1502686 0 -1.9715576 0.22279358 -2.4638062 0.668396c-0.48712158 0.44041443 -0.73065186 1.0181427 -0.73065186 1.7331696c0 0.7150421 0.24353027 1.2953491 0.73065186 1.7409515c0.49224854 0.44041443 1.3135376 0.6606293 2.4638062 0.6606293l1.7254639 0l0 14.386139l-12.21814 -19.16597l-5.526184 -0.02331543z" fill-rule="evenodd"/><path fill="#000000" fill-opacity="0.0" d="m841.91956 184.3689l36.24933 20.748032" fill-rule="evenodd"/><path stroke="#00ff00" stroke-width="4.0" stroke-linejoin="round" stroke-linecap="butt" d="m841.91956 184.3689l36.24933 20.748032" fill-rule="evenodd"/><path fill="#ffffff" d="m830.1272 299.5569c-1.1503296 0 -1.9715576 0.22280884 -2.4638062 0.668396c-0.48712158 0.4404297 -0.73065186 1.018158 -0.73065186 1.7331848c0 0.71502686 0.24353027 1.2953491 0.73065186 1.7409363c0.49224854 0.4404297 1.3134766 0.66064453 2.4638062 0.66064453l0.7461548 0l0 18.699646c-1.010376 0 -1.7565308 0.22537231 -2.2384644 0.67614746c-0.48187256 0.45080566 -0.72283936 1.018158 -0.72283936 1.7020874c0 0.7150574 0.24359131 1.2953491 0.73065186 1.7409668c0.49224854 0.44039917 1.3135376 0.660614 2.4638062 0.660614l6.272339 0c1.1503296 0 1.9689941 -0.22021484 2.4560547 -0.660614c0.49224854 -0.44561768 0.7384033 -1.018158 0.7384033 -1.7176514c0 -0.71502686 -0.24615479 -1.2927551 -0.7384033 -1.7331543c-0.48706055 -0.44561768 -1.3057251 -0.668396 -2.4560547 -0.668396l-1.7254639 0l0 -14.456085l12.288147 19.2359l4.7333984 0l0 -23.479462c0.994812 0 1.7332153 -0.22540283 2.215088 -0.676178c0.4819336 -0.45077515 0.72283936 -1.0259094 0.72283936 -1.7254028c0 -0.71502686 -0.24609375 -1.2901611 -0.7383423 -1.7254028c-0.48712158 -0.4352417 -1.3057861 -0.65286255 -2.4561157 -0.65286255l-6.272278 -0.02331543c-1.1503296 0 -1.9716187 0.22280884 -2.4638672 0.668396c-0.48706055 0.4404297 -0.7305908 1.018158 -0.7305908 1.7331848c0 0.71502686 0.24353027 1.2953491 0.7305908 1.7409363c0.49224854 0.4404297 1.3135376 0.66064453 2.4638672 0.66064453l1.7254639 0l0 14.386139l-12.218201 -19.165985l-5.526184 -0.02331543z" fill-rule="evenodd"/><path fill="#000000" fill-opacity="0.0" d="m905.11774 237.56706l0 47.80052l-42.0 24.32547" fill-rule="evenodd"/><path stroke="#00ff00" stroke-width="4.0" stroke-linejoin="round" stroke-linecap="butt" d="m905.11774 237.56706l0 47.80052l-42.0 24.32547" fill-rule="evenodd"/><path fill="#000000" fill-opacity="0.0" d="m859.8697 302.69305l37.874023 -21.24936" fill-rule="evenodd"/><path stroke="#00ff00" stroke-width="4.0" stroke-linejoin="round" stroke-linecap="butt" d="m859.8697 302.69305l37.874023 -21.24936" fill-rule="evenodd"/><path fill="#000000" fill-opacity="0.0" d="m778.56915 285.14188l44.125977 25.574799" fill-rule="evenodd"/><path stroke="#00ff00" stroke-width="4.0" stroke-linejoin="round" stroke-linecap="butt" d="m778.56915 285.14188l44.125977 25.574799" fill-rule="evenodd"/><path fill="#ffffff" d="m830.12854 94.510956c-1.1503296 0 -1.9716187 0.22280121 -2.4638672 0.6684036c-0.48706055 0.44041443 -0.7305908 1.0181427 -0.7305908 1.7331696c0 0.7150345 0.24353027 1.2953491 0.7305908 1.7409515c0.49224854 0.44042206 1.3135376 0.6606293 2.4638672 0.6606293l0.7461548 0l0 18.699638c-1.010437 0 -1.7565918 0.2253952 -2.2384644 0.676178c-0.48187256 0.45077515 -0.72283936 1.0181427 -0.72283936 1.7020798c0 0.7150345 0.24353027 1.2953491 0.7305908 1.7409515c0.49224854 0.44041443 1.3135376 0.6606293 2.4638672 0.6606293l6.272278 0c1.1503296 0 1.9690552 -0.22021484 2.4561157 -0.6606293c0.49224854 -0.44560242 0.7383423 -1.0181427 0.7383423 -1.7176285c0 -0.7150345 -0.24609375 -1.2927628 -0.7383423 -1.7331772c-0.48706055 -0.44560242 -1.3057861 -0.6684036 -2.4561157 -0.6684036l-1.7254639 0l0 -14.456078l12.288147 19.235916l4.7333984 0l0 -23.479477c0.99487305 0 1.7332764 -0.2253952 2.215149 -0.67617035c0.48187256 -0.45078278 0.72283936 -1.025917 0.72283936 -1.7254105c0 -0.71502686 -0.24615479 -1.2901611 -0.7384033 -1.7254028c-0.48706055 -0.43523407 -1.3057251 -0.6528549 -2.4560547 -0.6528549l-6.272339 -0.02331543c-1.1503296 0 -1.9715576 0.22280121 -2.4638672 0.6684036c-0.48706055 0.44041443 -0.7305908 1.0181427 -0.7305908 1.7331696c0 0.7150345 0.24353027 1.2953491 0.7305908 1.7409515c0.49230957 0.44042206 1.3135376 0.6606293 2.4638672 0.6606293l1.7254639 0l0 14.386131l-12.218201 -19.16597l-5.526123 -0.02331543z" fill-rule="evenodd"/><path fill="#ffffff" d="m861.18695 94.510956c-1.1502686 0 -1.9715576 0.22280121 -2.4638062 0.6684036c-0.48706055 0.44041443 -0.7305908 1.0181427 -0.7305908 1.7331696c0 0.65286255 0.21240234 1.196907 0.6373291 1.6321411c0.4300537 0.43523407 1.0648193 0.69171906 1.9042358 0.7694397l0 18.699638c-0.0713501 -9.1552734E-4 -0.14123535 -0.0013656616 -0.20965576 -0.0013656616c-1.0946655 0 -1.8175659 0.11703491 -2.1687012 0.35111237c-0.76171875 0.48187256 -1.1425781 1.1580429 -1.1425781 2.028511c0 0.7150345 0.24353027 1.2953491 0.73065186 1.7409515c0.49224854 0.44041443 1.3135376 0.6606293 2.4638062 0.6606293l5.8526 0c1.1503296 0 1.9690552 -0.22021484 2.4561157 -0.6606293c0.49224854 -0.44560242 0.7383423 -1.0181427 0.7383423 -1.7176285c0 -0.7150345 -0.24609375 -1.2927628 -0.7383423 -1.7331772c-0.48706055 -0.44560242 -1.3057861 -0.6684036 -2.4561157 -0.6684036l-0.7461548 0l0 -6.9249268l10.212952 0l0 6.9249268l-0.7461548 0c-1.1347656 0 -1.9508667 0.22280121 -2.4483032 0.6684036c-0.49743652 0.44041443 -0.7461548 1.0103683 -0.7461548 1.7098541c0 0.7150345 0.24353027 1.2953491 0.7305908 1.7409515c0.49224854 0.44041443 1.3135376 0.6606293 2.4638672 0.6606293l5.8526 0c1.1503296 0 1.9689941 -0.22021484 2.4560547 -0.6606293c0.49224854 -0.44560242 0.7384033 -1.0181427 0.7384033 -1.7176285c0 -0.8860245 -0.38085938 -1.5699615 -1.1425171 -2.051834c-0.35754395 -0.23316193 -1.1503296 -0.3497467 -2.378357 -0.3497467l0 -18.699638c0.8394165 -0.07772064 1.4715576 -0.33420563 1.8964233 -0.7694397c0.43011475 -0.43523407 0.6451416 -0.97927856 0.6451416 -1.6321411c0 -0.71502686 -0.24615479 -1.2901611 -0.7384033 -1.7254028c-0.48706055 -0.43523407 -1.3057251 -0.6528549 -2.4560547 -0.6528549l-4.873291 -0.02331543c-1.1503296 0 -1.9716187 0.22280121 -2.4638672 0.6684036c-0.48706055 0.44041443 -0.7305908 1.0181427 -0.7305908 1.7331696c0 0.7150345 0.24353027 1.2953491 0.7305908 1.7409515c0.49224854 0.44042206 1.3135376 0.6606293 2.4638672 0.6606293l0.7461548 0l0 6.994873l-10.212952 0l0 -6.994873l0.7461548 0c1.1503296 0 1.9690552 -0.22020721 2.4561157 -0.6606293c0.49224854 -0.44560242 0.7383423 -1.025917 0.7383423 -1.7409515c0 -0.71502686 -0.24609375 -1.2901611 -0.7383423 -1.7254028c-0.48706055 -0.43523407 -1.3057861 -0.6528549 -2.4561157 -0.6528549l-4.873291 -0.02331543z" fill-rule="evenodd"/><path fill="#ffffff" d="m893.2088 115.32762c-1.1067505 0 -2.1323242 0.23904419 -3.0767822 0.71713257c-0.9414673 0.47808838 -1.6586304 1.1155396 -2.1514893 1.9123535c-0.4899292 0.79681396 -0.7348633 1.460823 -0.7348633 1.9920349c0 0.35414124 0.13427734 0.6640091 0.40283203 0.92961884c0.2715454 0.2656021 0.5932617 0.39840698 0.9650879 0.39840698c0.3187256 0 0.5858154 -0.0796814 0.80126953 -0.23904419c0.21844482 -0.1593628 0.3895874 -0.42497253 0.5135498 -0.79681396c0.20361328 -0.5931854 0.47369385 -1.0402832 0.8101196 -1.3413086c0.6463623 -0.5666199 1.4564819 -0.8499298 2.43042 -0.8499298c0.9650879 0 1.7368164 0.2552719 2.3153076 0.76582336c0.58135986 0.5075989 0.8720703 1.0934067 0.8720703 1.7574158c0 0.53121185 -0.25671387 1.0934067 -0.7702637 1.6865921c-1.0181885 1.1598053 -3.9798584 3.7627258 -8.884888 7.808777l0 2.8818054l12.404297 0l0 -1.3014679c0 -0.66400146 -0.12243652 -1.1332397 -0.36743164 -1.4076996c-0.2420044 -0.27445984 -0.5710449 -0.41168213 -0.9871826 -0.41168213c-0.2921753 0 -0.6021118 0.13279724 -0.9296875 0.39840698l-5.9630737 0c2.7181396 -2.3107681 4.5464478 -3.9132462 5.4849854 -4.8074493c1.1952515 -1.1332474 1.9493408 -2.0200653 2.262146 -2.660469c0.3157959 -0.6433563 0.47369385 -1.341301 0.47369385 -2.0938492c0 -1.4785309 -0.5489502 -2.7372055 -1.6468506 -3.7760086c-1.0978394 -1.0417633 -2.5056152 -1.562645 -4.2232666 -1.562645z" fill-rule="evenodd"/><path fill="#000000" fill-opacity="0.0" d="m842.2437 176.31772l-0.12597656 -48.12599" fill-rule="evenodd"/><path stroke="#00ff00" stroke-width="4.0" stroke-linejoin="round" stroke-linecap="butt" d="m842.2437 176.31772l-0.12597656 -48.12599" fill-rule="evenodd"/></g></svg>