<svg version="1.1" viewBox="0.0 0.0 960.0 540.0" fill="none" stroke="none" stroke-linecap="square" stroke-miterlimit="10" xmlns:xlink="http://www.w3.org/1999/xlink" xmlns="http://www.w3.org/2000/svg"><clipPath id="p.0"><path d="m0 0l960.0 0l0 540.0l-960.0 0l0 -540.0z" clip-rule="nonzero"/></clipPath><g clip-path="url(#p.0)"><path fill="#000000" fill-opacity="0.0" d="m0 0l960.0 0l0 540.0l-960.0 0z" fill-rule="evenodd"/><path fill="#93c47d" d="m698.86957 91.707664l18.236206 0l0 66.14173l-18.236206 0z" fill-rule="evenodd"/><path fill="#759c63" d="m717.1058 91.707664l6.0787354 -6.078743l0 66.14174l-6.0787354 6.0787354z" fill-rule="evenodd"/><path fill="#a8cf97" d="m698.86957 91.707664l6.0787354 -6.078743l18.236206 0l-6.0787354 6.078743z" fill-rule="evenodd"/><path fill="#000000" fill-opacity="0.0" d="m698.86957 91.707664l6.0787354 -6.078743l18.236206 0l0 66.14174l-6.0787354 6.0787354l-18.236206 0zm0 0l18.236206 0l6.0787354 -6.078743m-6.0787354 6.078743l0 66.14173" fill-rule="evenodd"/><path fill="#e06666" d="m753.8579 91.707664l18.236206 0l0 66.14173l-18.236206 0z" fill-rule="evenodd"/><path fill="#b35151" d="m772.0941 91.707664l6.0787964 -6.078743l0 66.14174l-6.0787964 6.0787354z" fill-rule="evenodd"/><path fill="#e68484" d="m753.8579 91.707664l6.0787354 -6.078743l18.236267 0l-6.0787964 6.078743z" fill-rule="evenodd"/><path fill="#000000" fill-opacity="0.0" d="m753.8579 91.707664l6.0787354 -6.078743l18.236267 0l0 66.14174l-6.0787964 6.0787354l-18.236206 0zm0 0l18.236206 0l6.0787964 -6.078743m-6.0787964 6.078743l0 66.14173" fill-rule="evenodd"/><path fill="#93c47d" d="m808.8463 91.707664l18.236206 0l0 66.14173l-18.236206 0z" fill-rule="evenodd"/><path fill="#759c63" d="m827.0825 91.707664l6.0787354 -6.078743l0 66.14174l-6.0787354 6.0787354z" fill-rule="evenodd"/><path fill="#a8cf97" d="m808.8463 91.707664l6.0787354 -6.078743l18.236206 0l-6.0787354 6.078743z" fill-rule="evenodd"/><path fill="#000000" fill-opacity="0.0" d="m808.8463 91.707664l6.0787354 -6.078743l18.236206 0l0 66.14174l-6.0787354 6.0787354l-18.236206 0zm0 0l18.236206 0l6.0787354 -6.078743m-6.0787354 6.078743l0 66.14173" fill-rule="evenodd"/><path fill="#ffd966" d="m863.83466 91.707664l18.236267 0l0 66.14173l-18.236267 0z" fill-rule="evenodd"/><path fill="#cbad51" d="m882.0709 91.707664l6.0787354 -6.078743l0 66.14174l-6.0787354 6.0787354z" fill-rule="evenodd"/><path fill="#ffe084" d="m863.83466 91.707664l6.0787354 -6.078743l18.236267 0l-6.0787354 6.078743z" fill-rule="evenodd"/><path fill="#000000" fill-opacity="0.0" d="m863.83466 91.707664l6.0787354 -6.078743l18.236267 0l0 66.14174l-6.0787354 6.0787354l-18.236267 0zm0 0l18.236267 0l6.0787354 -6.078743m-6.0787354 6.078743l0 66.14173" fill-rule="evenodd"/><path fill="#8e7cc3" d="m918.82306 91.707664l18.236206 0l0 66.14173l-18.236206 0z" fill-rule="evenodd"/><path fill="#71639b" d="m937.05927 91.707664l6.0787354 -6.078743l0 66.14174l-6.0787354 6.0787354z" fill-rule="evenodd"/><path fill="#a496cf" d="m918.82306 91.707664l6.0787354 -6.078743l18.236206 0l-6.0787354 6.078743z" fill-rule="evenodd"/><path fill="#000000" fill-opacity="0.0" d="m918.82306 91.707664l6.0787354 -6.078743l18.236206 0l0 66.14174l-6.0787354 6.0787354l-18.236206 0zm0 0l18.236206 0l6.0787354 -6.078743m-6.0787354 6.078743l0 66.14173" fill-rule="evenodd"/><path fill="#93c47d" d="m973.52295 91.707664l18.236206 0l0 66.14173l-18.236206 0z" fill-rule="evenodd"/><path fill="#759c63" d="m991.75916 91.707664l6.0787354 -6.078743l0 66.14174l-6.0787354 6.0787354z" fill-rule="evenodd"/><path fill="#a8cf97" d="m973.52295 91.707664l6.0787354 -6.078743l18.236206 0l-6.0787354 6.078743z" fill-rule="evenodd"/><path fill="#000000" fill-opacity="0.0" d="m973.52295 91.707664l6.0787354 -6.078743l18.236206 0l0 66.14174l-6.0787354 6.0787354l-18.236206 0zm0 0l18.236206 0l6.0787354 -6.078743m-6.0787354 6.078743l0 66.14173" fill-rule="evenodd"/><path fill="#ffd966" d="m1028.7998 91.707664l18.236206 0l0 66.14173l-18.236206 0z" fill-rule="evenodd"/><path fill="#cbad51" d="m1047.036 91.707664l6.0787354 -6.078743l0 66.14174l-6.0787354 6.0787354z" fill-rule="evenodd"/><path fill="#ffe084" d="m1028.7998 91.707664l6.0787354 -6.078743l18.236206 0l-6.0787354 6.078743z" fill-rule="evenodd"/><path fill="#000000" fill-opacity="0.0" d="m1028.7998 91.707664l6.0787354 -6.078743l18.236206 0l0 66.14174l-6.0787354 6.0787354l-18.236206 0zm0 0l18.236206 0l6.0787354 -6.078743m-6.0787354 6.078743l0 66.14173" fill-rule="evenodd"/><path fill="#93c47d" d="m1083.4996 91.707664l18.236206 0l0 66.14173l-18.236206 0z" fill-rule="evenodd"/><path fill="#759c63" d="m1101.7358 91.707664l6.0788574 -6.078743l0 66.14174l-6.0788574 6.0787354z" fill-rule="evenodd"/><path fill="#a8cf97" d="m1083.4996 91.707664l6.0787354 -6.078743l18.236328 0l-6.0788574 6.078743z" fill-rule="evenodd"/><path fill="#000000" fill-opacity="0.0" d="m1083.4996 91.707664l6.0787354 -6.078743l18.236328 0l0 66.14174l-6.0788574 6.0787354l-18.236206 0zm0 0l18.236206 0l6.0788574 -6.078743m-6.0788574 6.078743l0 66.14173" fill-rule="evenodd"/><path fill="#4a86e8" d="m674.2769 95.576775l0 0c1.8112183 0 3.279541 -5.8731766 3.279541 -13.118111c0 -7.2449265 -1.4683228 -13.118111 -3.279541 -13.118111l451.23627 0c1.8111572 0 3.279419 5.873184 3.279419 13.118111c0 7.244934 -1.4682617 13.118111 -3.279419 13.118111z" fill-rule="evenodd"/><path fill="#92b6f1" d="m674.2769 95.576775l0 0c-1.8112183 0 -3.279541 -5.8731766 -3.279541 -13.118111c0 -7.2449265 1.4683228 -13.118111 3.279541 -13.118111l0 0c1.8112183 0 3.279541 5.873184 3.279541 13.118111c0 7.244934 -1.4683228 13.118111 -3.279541 13.118111z" fill-rule="evenodd"/><path fill="#000000" fill-opacity="0.0" d="m674.2769 69.34055l0 0c1.8112183 0 3.279541 5.873184 3.279541 13.118111c0 7.244934 -1.4683228 13.118111 -3.279541 13.118111l0 0c-1.8112183 0 -3.279541 -5.8731766 -3.279541 -13.118111c0 -7.2449265 1.4683228 -13.118111 3.279541 -13.118111l451.23627 0c1.8111572 0 3.279419 5.873184 3.279419 13.118111c0 7.244934 -1.4682617 13.118111 -3.279419 13.118111l-451.23627 0" fill-rule="evenodd"/><path fill="#8e7cc3" d="m270.74298 383.37616l18.236206 0l0 74.078766l-18.236206 0z" fill-rule="evenodd"/><path fill="#71639b" d="m288.9792 383.37616l6.0787354 -6.0787354l0 74.078735l-6.0787354 6.078766z" fill-rule="evenodd"/><path fill="#a496cf" d="m270.74298 383.37616l6.0787354 -6.0787354l18.236206 0l-6.0787354 6.0787354z" fill-rule="evenodd"/><path fill="#000000" fill-opacity="0.0" d="m270.74298 383.37616l6.0787354 -6.0787354l18.236206 0l0 74.078735l-6.0787354 6.078766l-18.236206 0zm0 0l18.236206 0l6.0787354 -6.0787354m-6.0787354 6.0787354l0 74.078766" fill-rule="evenodd"/><path fill="#ffd966" d="m316.75317 383.37616l18.236206 0l0 74.078766l-18.236206 0z" fill-rule="evenodd"/><path fill="#cbad51" d="m334.98938 383.37616l6.0787354 -6.0787354l0 74.078735l-6.0787354 6.078766z" fill-rule="evenodd"/><path fill="#ffe084" d="m316.75317 383.37616l6.0787354 -6.0787354l18.236206 0l-6.0787354 6.0787354z" fill-rule="evenodd"/><path fill="#000000" fill-opacity="0.0" d="m316.75317 383.37616l6.0787354 -6.0787354l18.236206 0l0 74.078735l-6.0787354 6.078766l-18.236206 0zm0 0l18.236206 0l6.0787354 -6.0787354m-6.0787354 6.0787354l0 74.078766" fill-rule="evenodd"/><path fill="#8e7cc3" d="m371.74155 383.37616l18.236206 0l0 74.078766l-18.236206 0z" fill-rule="evenodd"/><path fill="#71639b" d="m389.97775 383.37616l6.0787354 -6.0787354l0 74.078735l-6.0787354 6.078766z" fill-rule="evenodd"/><path fill="#a496cf" d="m371.74155 383.37616l6.0787354 -6.0787354l18.236206 0l-6.0787354 6.0787354z" fill-rule="evenodd"/><path fill="#000000" fill-opacity="0.0" d="m371.74155 383.37616l6.0787354 -6.0787354l18.236206 0l0 74.078735l-6.0787354 6.078766l-18.236206 0zm0 0l18.236206 0l6.0787354 -6.0787354m-6.0787354 6.0787354l0 74.078766" fill-rule="evenodd"/><path fill="#93c47d" d="m426.72992 383.37616l18.236206 0l0 74.078766l-18.236206 0z" fill-rule="evenodd"/><path fill="#759c63" d="m444.96613 383.37616l6.0787354 -6.0787354l0 74.078735l-6.0787354 6.078766z" fill-rule="evenodd"/><path fill="#a8cf97" d="m426.72992 383.37616l6.0787354 -6.0787354l18.236206 0l-6.0787354 6.0787354z" fill-rule="evenodd"/><path fill="#000000" fill-opacity="0.0" d="m426.72992 383.37616l6.0787354 -6.0787354l18.236206 0l0 74.078735l-6.0787354 6.078766l-18.236206 0zm0 0l18.236206 0l6.0787354 -6.0787354m-6.0787354 6.0787354l0 74.078766" fill-rule="evenodd"/><path fill="#e06666" d="m481.42978 383.37616l18.236237 0l0 74.078766l-18.236237 0z" fill-rule="evenodd"/><path fill="#b35151" d="m499.66602 383.37616l6.0787354 -6.0787354l0 74.078735l-6.0787354 6.078766z" fill-rule="evenodd"/><path fill="#e68484" d="m481.42978 383.37616l6.078766 -6.0787354l18.236206 0l-6.0787354 6.0787354z" fill-rule="evenodd"/><path fill="#000000" fill-opacity="0.0" d="m481.42978 383.37616l6.078766 -6.0787354l18.236206 0l0 74.078735l-6.0787354 6.078766l-18.236237 0zm0 0l18.236237 0l6.0787354 -6.0787354m-6.0787354 6.0787354l0 74.078766" fill-rule="evenodd"/><path fill="#8e7cc3" d="m536.70667 383.37616l18.236206 0l0 74.078766l-18.236206 0z" fill-rule="evenodd"/><path fill="#71639b" d="m554.9429 383.37616l6.0787354 -6.0787354l0 74.078735l-6.0787354 6.078766z" fill-rule="evenodd"/><path fill="#a496cf" d="m536.70667 383.37616l6.0787354 -6.0787354l18.236206 0l-6.0787354 6.0787354z" fill-rule="evenodd"/><path fill="#000000" fill-opacity="0.0" d="m536.70667 383.37616l6.0787354 -6.0787354l18.236206 0l0 74.078735l-6.0787354 6.078766l-18.236206 0zm0 0l18.236206 0l6.0787354 -6.0787354m-6.0787354 6.0787354l0 74.078766" fill-rule="evenodd"/><path fill="#e06666" d="m591.69507 383.37616l18.236206 0l0 74.078766l-18.236206 0z" fill-rule="evenodd"/><path fill="#b35151" d="m609.9313 383.37616l6.0787354 -6.0787354l0 74.078735l-6.0787354 6.078766z" fill-rule="evenodd"/><path fill="#e68484" d="m591.69507 383.37616l6.0787354 -6.0787354l18.236206 0l-6.0787354 6.0787354z" fill-rule="evenodd"/><path fill="#000000" fill-opacity="0.0" d="m591.69507 383.37616l6.0787354 -6.0787354l18.236206 0l0 74.078735l-6.0787354 6.078766l-18.236206 0zm0 0l18.236206 0l6.0787354 -6.0787354m-6.0787354 6.0787354l0 74.078766" fill-rule="evenodd"/><path fill="#8e7cc3" d="m646.6834 383.37616l18.236206 0l0 74.078766l-18.236206 0z" fill-rule="evenodd"/><path fill="#71639b" d="m664.9196 383.37616l6.0787354 -6.0787354l0 74.078735l-6.0787354 6.078766z" fill-rule="evenodd"/><path fill="#a496cf" d="m646.6834 383.37616l6.0787354 -6.0787354l18.236206 0l-6.0787354 6.0787354z" fill-rule="evenodd"/><path fill="#000000" fill-opacity="0.0" d="m646.6834 383.37616l6.0787354 -6.0787354l18.236206 0l0 74.078735l-6.0787354 6.078766l-18.236206 0zm0 0l18.236206 0l6.0787354 -6.0787354m-6.0787354 6.0787354l0 74.078766" fill-rule="evenodd"/><path fill="#93c47d" d="m261.7648 88.888695l18.236206 0l0 66.14173l-18.236206 0z" fill-rule="evenodd"/><path fill="#759c63" d="m280.001 88.888695l6.0787354 -6.0787354l0 66.14173l-6.0787354 6.0787354z" fill-rule="evenodd"/><path fill="#a8cf97" d="m261.7648 88.888695l6.0787354 -6.0787354l18.236206 0l-6.0787354 6.0787354z" fill-rule="evenodd"/><path fill="#000000" fill-opacity="0.0" d="m261.7648 88.888695l6.0787354 -6.0787354l18.236206 0l0 66.14173l-6.0787354 6.0787354l-18.236206 0zm0 0l18.236206 0l6.0787354 -6.0787354m-6.0787354 6.0787354l0 66.14173" fill-rule="evenodd"/><path fill="#e06666" d="m316.75317 88.888695l18.236206 0l0 66.14173l-18.236206 0z" fill-rule="evenodd"/><path fill="#b35151" d="m334.98938 88.888695l6.0787354 -6.0787354l0 66.14173l-6.0787354 6.0787354z" fill-rule="evenodd"/><path fill="#e68484" d="m316.75317 88.888695l6.0787354 -6.0787354l18.236206 0l-6.0787354 6.0787354z" fill-rule="evenodd"/><path fill="#000000" fill-opacity="0.0" d="m316.75317 88.888695l6.0787354 -6.0787354l18.236206 0l0 66.14173l-6.0787354 6.0787354l-18.236206 0zm0 0l18.236206 0l6.0787354 -6.0787354m-6.0787354 6.0787354l0 66.14173" fill-rule="evenodd"/><path fill="#93c47d" d="m371.74155 88.888695l18.236206 0l0 66.14173l-18.236206 0z" fill-rule="evenodd"/><path fill="#759c63" d="m389.97775 88.888695l6.0787354 -6.0787354l0 66.14173l-6.0787354 6.0787354z" fill-rule="evenodd"/><path fill="#a8cf97" d="m371.74155 88.888695l6.0787354 -6.0787354l18.236206 0l-6.0787354 6.0787354z" fill-rule="evenodd"/><path fill="#000000" fill-opacity="0.0" d="m371.74155 88.888695l6.0787354 -6.0787354l18.236206 0l0 66.14173l-6.0787354 6.0787354l-18.236206 0zm0 0l18.236206 0l6.0787354 -6.0787354m-6.0787354 6.0787354l0 66.14173" fill-rule="evenodd"/><path fill="#8e7cc3" d="m426.72992 88.888695l18.236206 0l0 66.14173l-18.236206 0z" fill-rule="evenodd"/><path fill="#71639b" d="m444.96613 88.888695l6.0787354 -6.0787354l0 66.14173l-6.0787354 6.0787354z" fill-rule="evenodd"/><path fill="#a496cf" d="m426.72992 88.888695l6.0787354 -6.0787354l18.236206 0l-6.0787354 6.0787354z" fill-rule="evenodd"/><path fill="#000000" fill-opacity="0.0" d="m426.72992 88.888695l6.0787354 -6.0787354l18.236206 0l0 66.14173l-6.0787354 6.0787354l-18.236206 0zm0 0l18.236206 0l6.0787354 -6.0787354m-6.0787354 6.0787354l0 66.14173" fill-rule="evenodd"/><path fill="#ffd966" d="m481.7183 88.888695l18.236206 0l0 66.14173l-18.236206 0z" fill-rule="evenodd"/><path fill="#cbad51" d="m499.9545 88.888695l6.078766 -6.0787354l0 66.14173l-6.078766 6.0787354z" fill-rule="evenodd"/><path fill="#ffe084" d="m481.7183 88.888695l6.0787354 -6.0787354l18.236237 0l-6.078766 6.0787354z" fill-rule="evenodd"/><path fill="#000000" fill-opacity="0.0" d="m481.7183 88.888695l6.0787354 -6.0787354l18.236237 0l0 66.14173l-6.078766 6.0787354l-18.236206 0zm0 0l18.236206 0l6.078766 -6.0787354m-6.078766 6.0787354l0 66.14173" fill-rule="evenodd"/><path fill="#93c47d" d="m536.41815 88.888695l18.236206 0l0 66.14173l-18.236206 0z" fill-rule="evenodd"/><path fill="#759c63" d="m554.65436 88.888695l6.0787964 -6.0787354l0 66.14173l-6.0787964 6.0787354z" fill-rule="evenodd"/><path fill="#a8cf97" d="m536.41815 88.888695l6.0787354 -6.0787354l18.236267 0l-6.0787964 6.0787354z" fill-rule="evenodd"/><path fill="#000000" fill-opacity="0.0" d="m536.41815 88.888695l6.0787354 -6.0787354l18.236267 0l0 66.14173l-6.0787964 6.0787354l-18.236206 0zm0 0l18.236206 0l6.0787964 -6.0787354m-6.0787964 6.0787354l0 66.14173" fill-rule="evenodd"/><path fill="#ffd966" d="m591.69507 88.888695l18.236206 0l0 66.14173l-18.236206 0z" fill-rule="evenodd"/><path fill="#cbad51" d="m609.9313 88.888695l6.0787354 -6.0787354l0 66.14173l-6.0787354 6.0787354z" fill-rule="evenodd"/><path fill="#ffe084" d="m591.69507 88.888695l6.0787354 -6.0787354l18.236206 0l-6.0787354 6.0787354z" fill-rule="evenodd"/><path fill="#000000" fill-opacity="0.0" d="m591.69507 88.888695l6.0787354 -6.0787354l18.236206 0l0 66.14173l-6.0787354 6.0787354l-18.236206 0zm0 0l18.236206 0l6.0787354 -6.0787354m-6.0787354 6.0787354l0 66.14173" fill-rule="evenodd"/><path fill="#93c47d" d="m646.3949 88.888695l18.236267 0l0 66.14173l-18.236267 0z" fill-rule="evenodd"/><path fill="#759c63" d="m664.63116 88.888695l6.0787354 -6.0787354l0 66.14173l-6.0787354 6.0787354z" fill-rule="evenodd"/><path fill="#a8cf97" d="m646.3949 88.888695l6.0787354 -6.0787354l18.236267 0l-6.0787354 6.0787354z" fill-rule="evenodd"/><path fill="#000000" fill-opacity="0.0" d="m646.3949 88.888695l6.0787354 -6.0787354l18.236267 0l0 66.14173l-6.0787354 6.0787354l-18.236267 0zm0 0l18.236267 0l6.0787354 -6.0787354m-6.0787354 6.0787354l0 66.14173" fill-rule="evenodd"/><path fill="#4a86e8" d="m684.4147 444.41745l0 0c-1.2207031E-4 0 -1.8310547E-4 5.873169 -1.8310547E-4 13.118103c0 7.244934 6.1035156E-5 13.118103 1.8310547E-4 13.118103l-457.79526 0c-1.0681152E-4 0 -2.1362305E-4 -5.873169 -2.1362305E-4 -13.118103c0 -7.244934 1.0681152E-4 -13.118103 2.1362305E-4 -13.118103z" fill-rule="evenodd"/><path fill="#92b6f1" d="m684.4147 444.41745l0 0c1.2207031E-4 0 2.4414062E-4 5.873169 2.4414062E-4 13.118103c0 7.244934 -1.2207031E-4 13.118103 -2.4414062E-4 13.118103l0 0c-1.2207031E-4 0 -1.8310547E-4 -5.873169 -1.8310547E-4 -13.118103c0 -7.244934 6.1035156E-5 -13.118103 1.8310547E-4 -13.118103z" fill-rule="evenodd"/><path fill="#000000" fill-opacity="0.0" d="m684.4147 470.65366l0 0c-1.2207031E-4 0 -1.8310547E-4 -5.873169 -1.8310547E-4 -13.118103c0 -7.244934 6.1035156E-5 -13.118103 1.8310547E-4 -13.118103l0 0c1.2207031E-4 0 2.4414062E-4 5.873169 2.4414062E-4 13.118103c0 7.244934 -1.2207031E-4 13.118103 -2.4414062E-4 13.118103l-457.79526 0c-1.0681152E-4 0 -2.1362305E-4 -5.873169 -2.1362305E-4 -13.118103c0 -7.244934 1.0681152E-4 -13.118103 2.1362305E-4 -13.118103l457.79526 0" fill-rule="evenodd"/><path fill="#4a86e8" d="m229.90002 95.57868l0 0c1.8112335 0 3.2795258 -5.8731766 3.2795258 -13.118111c0 -7.2449265 -1.4682922 -13.118103 -3.2795258 -13.118103l451.2362 0c1.8112183 0 3.279541 5.8731766 3.279541 13.118103c0 7.244934 -1.4683228 13.118111 -3.279541 13.118111z" fill-rule="evenodd"/><path fill="#92b6f1" d="m229.90002 95.57868l0 0c-1.8112335 0 -3.2795258 -5.8731766 -3.2795258 -13.118111c0 -7.2449265 1.4682922 -13.118103 3.2795258 -13.118103l0 0c1.8112335 0 3.2795258 5.8731766 3.2795258 13.118103c0 7.244934 -1.4682922 13.118111 -3.2795258 13.118111z" fill-rule="evenodd"/><path fill="#000000" fill-opacity="0.0" d="m229.90002 69.34247l0 0c1.8112335 0 3.2795258 5.8731766 3.2795258 13.118103c0 7.244934 -1.4682922 13.118111 -3.2795258 13.118111l0 0c-1.8112335 0 -3.2795258 -5.8731766 -3.2795258 -13.118111c0 -7.2449265 1.4682922 -13.118103 3.2795258 -13.118103l451.2362 0c1.8112183 0 3.279541 5.8731766 3.279541 13.118103c0 7.244934 -1.4683228 13.118111 -3.279541 13.118111l-451.2362 0" fill-rule="evenodd"/><path fill="#990000" d="m177.07483 494.8178l0 0c9.181076 0 16.62381 -100.65485 16.62381 -224.81888c0 -124.16406 -7.442734 -224.81891 -16.62381 -224.81891l107.94922 0c9.181091 0 16.62381 100.65485 16.62381 224.81891c0 124.16403 -7.4427185 224.81888 -16.62381 224.81888z" fill-rule="evenodd"/><path fill="#c16666" d="m177.07483 494.8178l0 0c-9.181091 0 -16.623825 -100.65485 -16.623825 -224.81888c0 -124.16406 7.442734 -224.81891 16.623825 -224.81891l0 0c9.181076 0 16.62381 100.65485 16.62381 224.81891c0 124.16403 -7.442734 224.81888 -16.62381 224.81888z" fill-rule="evenodd"/><path fill="#000000" fill-opacity="0.0" d="m177.07483 45.18002l0 0c9.181076 0 16.62381 100.65485 16.62381 224.81891c0 124.16403 -7.442734 224.81888 -16.62381 224.81888l0 0c-9.181091 0 -16.623825 -100.65485 -16.623825 -224.81888c0 -124.16406 7.442734 -224.81891 16.623825 -224.81891l107.94922 0c9.181091 0 16.62381 100.65485 16.62381 224.81891c0 124.16403 -7.4427185 224.81888 -16.62381 224.81888l-107.94922 0" fill-rule="evenodd"/><path fill="#8e7cc3" d="m-248.00163 271.99173l18.236221 0l0 74.078735l-18.236221 0z" fill-rule="evenodd"/><path fill="#71639b" d="m-229.76541 271.99173l6.0787506 -6.0787354l0 74.078735l-6.0787506 6.0787354z" fill-rule="evenodd"/><path fill="#a496cf" d="m-248.00163 271.99173l6.0787506 -6.0787354l18.236221 0l-6.0787506 6.0787354z" fill-rule="evenodd"/><path fill="#000000" fill-opacity="0.0" d="m-248.00163 271.99173l6.0787506 -6.0787354l18.236221 0l0 74.078735l-6.0787506 6.0787354l-18.236221 0zm0 0l18.236221 0l6.0787506 -6.0787354m-6.0787506 6.0787354l0 74.078735" fill-rule="evenodd"/><path fill="#ffd966" d="m-193.01324 271.99173l18.236221 0l0 74.078735l-18.236221 0z" fill-rule="evenodd"/><path fill="#cbad51" d="m-174.77702 271.99173l6.0787354 -6.0787354l0 74.078735l-6.0787354 6.0787354z" fill-rule="evenodd"/><path fill="#ffe084" d="m-193.01324 271.99173l6.0787354 -6.0787354l18.236221 0l-6.0787354 6.0787354z" fill-rule="evenodd"/><path fill="#000000" fill-opacity="0.0" d="m-193.01324 271.99173l6.0787354 -6.0787354l18.236221 0l0 74.078735l-6.0787354 6.0787354l-18.236221 0zm0 0l18.236221 0l6.0787354 -6.0787354m-6.0787354 6.0787354l0 74.078735" fill-rule="evenodd"/><path fill="#93c47d" d="m-138.02487 271.99173l18.236214 0l0 74.078735l-18.236214 0z" fill-rule="evenodd"/><path fill="#759c63" d="m-119.78866 271.99173l6.078743 -6.0787354l0 74.078735l-6.078743 6.0787354z" fill-rule="evenodd"/><path fill="#a8cf97" d="m-138.02487 271.99173l6.0787354 -6.0787354l18.236221 0l-6.078743 6.0787354z" fill-rule="evenodd"/><path fill="#000000" fill-opacity="0.0" d="m-138.02487 271.99173l6.0787354 -6.0787354l18.236221 0l0 74.078735l-6.078743 6.0787354l-18.236214 0zm0 0l18.236214 0l6.078743 -6.0787354m-6.078743 6.0787354l0 74.078735" fill-rule="evenodd"/><path fill="#ffd966" d="m-83.0365 271.99173l18.236221 0l0 74.078735l-18.236221 0z" fill-rule="evenodd"/><path fill="#cbad51" d="m-64.80028 271.99173l6.078739 -6.0787354l0 74.078735l-6.078739 6.0787354z" fill-rule="evenodd"/><path fill="#ffe084" d="m-83.0365 271.99173l6.078743 -6.0787354l18.236217 0l-6.078739 6.0787354z" fill-rule="evenodd"/><path fill="#000000" fill-opacity="0.0" d="m-83.0365 271.99173l6.078743 -6.0787354l18.236217 0l0 74.078735l-6.078739 6.0787354l-18.236221 0zm0 0l18.236221 0l6.078739 -6.0787354m-6.078739 6.0787354l0 74.078735" fill-rule="evenodd"/><path fill="#93c47d" d="m-28.336624 271.99173l18.236221 0l0 74.078735l-18.236221 0z" fill-rule="evenodd"/><path fill="#759c63" d="m-10.100403 271.99173l6.07874 -6.0787354l0 74.078735l-6.07874 6.0787354z" fill-rule="evenodd"/><path fill="#a8cf97" d="m-28.336624 271.99173l6.078741 -6.0787354l18.236221 0l-6.07874 6.0787354z" fill-rule="evenodd"/><path fill="#000000" fill-opacity="0.0" d="m-28.336624 271.99173l6.078741 -6.0787354l18.236221 0l0 74.078735l-6.07874 6.0787354l-18.236221 0zm0 0l18.236221 0l6.07874 -6.0787354m-6.07874 6.0787354l0 74.078735" fill-rule="evenodd"/><path fill="#8e7cc3" d="m26.94025 271.99173l18.236221 0l0 74.078735l-18.236221 0z" fill-rule="evenodd"/><path fill="#71639b" d="m45.17647 271.99173l6.078739 -6.0787354l0 74.078735l-6.078739 6.0787354z" fill-rule="evenodd"/><path fill="#a496cf" d="m26.94025 271.99173l6.078739 -6.0787354l18.236221 0l-6.078739 6.0787354z" fill-rule="evenodd"/><path fill="#000000" fill-opacity="0.0" d="m26.94025 271.99173l6.078739 -6.0787354l18.236221 0l0 74.078735l-6.078739 6.0787354l-18.236221 0zm0 0l18.236221 0l6.078739 -6.0787354m-6.078739 6.0787354l0 74.078735" fill-rule="evenodd"/><path fill="#e06666" d="m81.92863 271.99173l18.236221 0l0 74.078735l-18.236221 0z" fill-rule="evenodd"/><path fill="#b35151" d="m100.16485 271.99173l6.0787354 -6.0787354l0 74.078735l-6.0787354 6.0787354z" fill-rule="evenodd"/><path fill="#e68484" d="m81.92863 271.99173l6.078743 -6.0787354l18.236214 0l-6.0787354 6.0787354z" fill-rule="evenodd"/><path fill="#000000" fill-opacity="0.0" d="m81.92863 271.99173l6.078743 -6.0787354l18.236214 0l0 74.078735l-6.0787354 6.0787354l-18.236221 0zm0 0l18.236221 0l6.0787354 -6.0787354m-6.0787354 6.0787354l0 74.078735" fill-rule="evenodd"/><path fill="#8e7cc3" d="m136.917 271.99173l18.236221 0l0 74.078735l-18.236221 0z" fill-rule="evenodd"/><path fill="#71639b" d="m155.15323 271.99173l6.0787354 -6.0787354l0 74.078735l-6.0787354 6.0787354z" fill-rule="evenodd"/><path fill="#a496cf" d="m136.917 271.99173l6.0787354 -6.0787354l18.236221 0l-6.0787354 6.0787354z" fill-rule="evenodd"/><path fill="#000000" fill-opacity="0.0" d="m136.917 271.99173l6.0787354 -6.0787354l18.236221 0l0 74.078735l-6.0787354 6.0787354l-18.236221 0zm0 0l18.236221 0l6.0787354 -6.0787354m-6.0787354 6.0787354l0 74.078735" fill-rule="evenodd"/><path fill="#93c47d" d="m-247.71313 211.93863l18.236221 0l0 66.14172l-18.236221 0z" fill-rule="evenodd"/><path fill="#759c63" d="m-229.47691 211.93863l6.0787506 -6.0787354l0 66.14172l-6.0787506 6.0787354z" fill-rule="evenodd"/><path fill="#a8cf97" d="m-247.71313 211.93863l6.0787506 -6.0787354l18.236221 0l-6.0787506 6.0787354z" fill-rule="evenodd"/><path fill="#000000" fill-opacity="0.0" d="m-247.71313 211.93863l6.0787506 -6.0787354l18.236221 0l0 66.14172l-6.0787506 6.0787354l-18.236221 0zm0 0l18.236221 0l6.0787506 -6.0787354m-6.0787506 6.0787354l0 66.14172" fill-rule="evenodd"/><path fill="#e06666" d="m-192.72475 211.93863l18.236221 0l0 66.14172l-18.236221 0z" fill-rule="evenodd"/><path fill="#b35151" d="m-174.48853 211.93863l6.0787354 -6.0787354l0 66.14172l-6.0787354 6.0787354z" fill-rule="evenodd"/><path fill="#e68484" d="m-192.72475 211.93863l6.0787354 -6.0787354l18.236221 0l-6.0787354 6.0787354z" fill-rule="evenodd"/><path fill="#000000" fill-opacity="0.0" d="m-192.72475 211.93863l6.0787354 -6.0787354l18.236221 0l0 66.14172l-6.0787354 6.0787354l-18.236221 0zm0 0l18.236221 0l6.0787354 -6.0787354m-6.0787354 6.0787354l0 66.14172" fill-rule="evenodd"/><path fill="#8e7cc3" d="m-137.73637 211.93863l18.236214 0l0 66.14172l-18.236214 0z" fill-rule="evenodd"/><path fill="#71639b" d="m-119.50016 211.93863l6.078743 -6.0787354l0 66.14172l-6.078743 6.0787354z" fill-rule="evenodd"/><path fill="#a496cf" d="m-137.73637 211.93863l6.0787354 -6.0787354l18.236221 0l-6.078743 6.0787354z" fill-rule="evenodd"/><path fill="#000000" fill-opacity="0.0" d="m-137.73637 211.93863l6.0787354 -6.0787354l18.236221 0l0 66.14172l-6.078743 6.0787354l-18.236214 0zm0 0l18.236214 0l6.078743 -6.0787354m-6.078743 6.0787354l0 66.14172" fill-rule="evenodd"/><path fill="#e06666" d="m-82.748 211.93863l18.236221 0l0 66.14172l-18.236221 0z" fill-rule="evenodd"/><path fill="#b35151" d="m-64.51178 211.93863l6.078739 -6.0787354l0 66.14172l-6.078739 6.0787354z" fill-rule="evenodd"/><path fill="#e68484" d="m-82.748 211.93863l6.078743 -6.0787354l18.236217 0l-6.078739 6.0787354z" fill-rule="evenodd"/><path fill="#000000" fill-opacity="0.0" d="m-82.748 211.93863l6.078743 -6.0787354l18.236217 0l0 66.14172l-6.078739 6.0787354l-18.236221 0zm0 0l18.236221 0l6.078739 -6.0787354m-6.078739 6.0787354l0 66.14172" fill-rule="evenodd"/><path fill="#8e7cc3" d="m-27.759626 211.93863l18.236221 0l0 66.14172l-18.236221 0z" fill-rule="evenodd"/><path fill="#71639b" d="m-9.523406 211.93863l6.07874 -6.0787354l0 66.14172l-6.07874 6.0787354z" fill-rule="evenodd"/><path fill="#a496cf" d="m-27.759626 211.93863l6.078741 -6.0787354l18.23622 0l-6.07874 6.0787354z" fill-rule="evenodd"/><path fill="#000000" fill-opacity="0.0" d="m-27.759626 211.93863l6.078741 -6.0787354l18.23622 0l0 66.14172l-6.07874 6.0787354l-18.236221 0zm0 0l18.236221 0l6.07874 -6.0787354m-6.07874 6.0787354l0 66.14172" fill-rule="evenodd"/><path fill="#93c47d" d="m26.94025 211.93863l18.236221 0l0 66.14172l-18.236221 0z" fill-rule="evenodd"/><path fill="#759c63" d="m45.17647 211.93863l6.078739 -6.0787354l0 66.14172l-6.078739 6.0787354z" fill-rule="evenodd"/><path fill="#a8cf97" d="m26.94025 211.93863l6.078739 -6.0787354l18.236221 0l-6.078739 6.0787354z" fill-rule="evenodd"/><path fill="#000000" fill-opacity="0.0" d="m26.94025 211.93863l6.078739 -6.0787354l18.236221 0l0 66.14172l-6.078739 6.0787354l-18.236221 0zm0 0l18.236221 0l6.078739 -6.0787354m-6.078739 6.0787354l0 66.14172" fill-rule="evenodd"/><path fill="#ffd966" d="m82.217125 211.93863l18.236221 0l0 66.14172l-18.236221 0z" fill-rule="evenodd"/><path fill="#cbad51" d="m100.45335 211.93863l6.078743 -6.0787354l0 66.14172l-6.078743 6.0787354z" fill-rule="evenodd"/><path fill="#ffe084" d="m82.217125 211.93863l6.078743 -6.0787354l18.236221 0l-6.078743 6.0787354z" fill-rule="evenodd"/><path fill="#000000" fill-opacity="0.0" d="m82.217125 211.93863l6.078743 -6.0787354l18.236221 0l0 66.14172l-6.078743 6.0787354l-18.236221 0zm0 0l18.236221 0l6.078743 -6.0787354m-6.078743 6.0787354l0 66.14172" fill-rule="evenodd"/><path fill="#93c47d" d="m136.917 211.93863l18.236221 0l0 66.14172l-18.236221 0z" fill-rule="evenodd"/><path fill="#759c63" d="m155.15323 211.93863l6.0787354 -6.0787354l0 66.14172l-6.0787354 6.0787354z" fill-rule="evenodd"/><path fill="#a8cf97" d="m136.917 211.93863l6.0787354 -6.0787354l18.236221 0l-6.0787354 6.0787354z" fill-rule="evenodd"/><path fill="#000000" fill-opacity="0.0" d="m136.917 211.93863l6.0787354 -6.0787354l18.236221 0l0 66.14172l-6.0787354 6.0787354l-18.236221 0zm0 0l18.236221 0l6.0787354 -6.0787354m-6.0787354 6.0787354l0 66.14172" fill-rule="evenodd"/><path fill="#4a86e8" d="m-272.3058 215.80775l0 0c1.8112488 0 3.279541 -5.873184 3.279541 -13.118118c0 -7.244934 -1.4682922 -13.118103 -3.279541 -13.118103l451.23624 0c1.8112335 0 3.2795258 5.873169 3.2795258 13.118103c0 7.244934 -1.4682922 13.118118 -3.2795258 13.118118z" fill-rule="evenodd"/><path fill="#92b6f1" d="m-272.3058 215.80775l0 0c-1.8112183 0 -3.2795105 -5.873184 -3.2795105 -13.118118c0 -7.244934 1.4682922 -13.118103 3.2795105 -13.118103l0 0c1.8112488 0 3.279541 5.873169 3.279541 13.118103c0 7.244934 -1.4682922 13.118118 -3.279541 13.118118z" fill-rule="evenodd"/><path fill="#000000" fill-opacity="0.0" d="m-272.3058 189.57153l0 0c1.8112488 0 3.279541 5.873169 3.279541 13.118103c0 7.244934 -1.4682922 13.118118 -3.279541 13.118118l0 0c-1.8112183 0 -3.2795105 -5.873184 -3.2795105 -13.118118c0 -7.244934 1.4682922 -13.118103 3.2795105 -13.118103l451.23624 0c1.8112335 0 3.2795258 5.873169 3.2795258 13.118103c0 7.244934 -1.4682922 13.118118 -3.2795258 13.118118l-451.23624 0" fill-rule="evenodd"/><path fill="#4a86e8" d="m182.19794 339.67242l0 0c-1.2207031E-4 0 -2.2888184E-4 5.873169 -2.2888184E-4 13.118103c0 7.244934 1.0681152E-4 13.118103 2.2888184E-4 13.118103l-457.7953 0c-1.2207031E-4 0 -2.1362305E-4 -5.873169 -2.1362305E-4 -13.118103c0 -7.244934 9.1552734E-5 -13.118103 2.1362305E-4 -13.118103z" fill-rule="evenodd"/><path fill="#92b6f1" d="m182.19794 339.67242l0 0c1.2207031E-4 0 2.1362305E-4 5.873169 2.1362305E-4 13.118103c0 7.244934 -9.1552734E-5 13.118103 -2.1362305E-4 13.118103l0 0c-1.2207031E-4 0 -2.2888184E-4 -5.873169 -2.2888184E-4 -13.118103c0 -7.244934 1.0681152E-4 -13.118103 2.2888184E-4 -13.118103z" fill-rule="evenodd"/><path fill="#000000" fill-opacity="0.0" d="m182.19794 365.90863l0 0c-1.2207031E-4 0 -2.2888184E-4 -5.873169 -2.2888184E-4 -13.118103c0 -7.244934 1.0681152E-4 -13.118103 2.2888184E-4 -13.118103l0 0c1.2207031E-4 0 2.1362305E-4 5.873169 2.1362305E-4 13.118103c0 7.244934 -9.1552734E-5 13.118103 -2.1362305E-4 13.118103l-457.7953 0c-1.2207031E-4 0 -2.1362305E-4 -5.873169 -2.1362305E-4 -13.118103c0 -7.244934 9.1552734E-5 -13.118103 2.1362305E-4 -13.118103l457.7953 0" fill-rule="evenodd"/><path fill="#ffffff" d="m34.233597 18.370079l84.67115 0l0 -8.937008l22.100502 17.874016l-22.100502 17.874016l0 -8.937008l-84.67115 0z" fill-rule="evenodd"/><path fill="#8e7cc3" d="m708.1588 383.74725l18.236267 0l0 74.078735l-18.236267 0z" fill-rule="evenodd"/><path fill="#71639b" d="m726.3951 383.74725l6.0787354 -6.078766l0 74.078766l-6.0787354 6.0787354z" fill-rule="evenodd"/><path fill="#a496cf" d="m708.1588 383.74725l6.0787964 -6.078766l18.236206 0l-6.0787354 6.078766z" fill-rule="evenodd"/><path fill="#000000" fill-opacity="0.0" d="m708.1588 383.74725l6.0787964 -6.078766l18.236206 0l0 74.078766l-6.0787354 6.0787354l-18.236267 0zm0 0l18.236267 0l6.0787354 -6.078766m-6.0787354 6.078766l0 74.078735" fill-rule="evenodd"/><path fill="#ffd966" d="m763.1472 383.74725l18.236206 0l0 74.078735l-18.236206 0z" fill-rule="evenodd"/><path fill="#cbad51" d="m781.3834 383.74725l6.0787354 -6.078766l0 74.078766l-6.0787354 6.0787354z" fill-rule="evenodd"/><path fill="#ffe084" d="m763.1472 383.74725l6.0787354 -6.078766l18.236206 0l-6.0787354 6.078766z" fill-rule="evenodd"/><path fill="#000000" fill-opacity="0.0" d="m763.1472 383.74725l6.0787354 -6.078766l18.236206 0l0 74.078766l-6.0787354 6.0787354l-18.236206 0zm0 0l18.236206 0l6.0787354 -6.078766m-6.0787354 6.078766l0 74.078735" fill-rule="evenodd"/><path fill="#8e7cc3" d="m818.1356 383.74725l18.236206 0l0 74.078735l-18.236206 0z" fill-rule="evenodd"/><path fill="#71639b" d="m836.3718 383.74725l6.0787354 -6.078766l0 74.078766l-6.0787354 6.0787354z" fill-rule="evenodd"/><path fill="#a496cf" d="m818.1356 383.74725l6.0787354 -6.078766l18.236206 0l-6.0787354 6.078766z" fill-rule="evenodd"/><path fill="#000000" fill-opacity="0.0" d="m818.1356 383.74725l6.0787354 -6.078766l18.236206 0l0 74.078766l-6.0787354 6.0787354l-18.236206 0zm0 0l18.236206 0l6.0787354 -6.078766m-6.0787354 6.078766l0 74.078735" fill-rule="evenodd"/><path fill="#e06666" d="m873.12396 383.74725l18.236206 0l0 74.078735l-18.236206 0z" fill-rule="evenodd"/><path fill="#b35151" d="m891.36017 383.74725l6.0787354 -6.078766l0 74.078766l-6.0787354 6.0787354z" fill-rule="evenodd"/><path fill="#e68484" d="m873.12396 383.74725l6.0787354 -6.078766l18.236206 0l-6.0787354 6.078766z" fill-rule="evenodd"/><path fill="#000000" fill-opacity="0.0" d="m873.12396 383.74725l6.0787354 -6.078766l18.236206 0l0 74.078766l-6.0787354 6.0787354l-18.236206 0zm0 0l18.236206 0l6.0787354 -6.078766m-6.0787354 6.078766l0 74.078735" fill-rule="evenodd"/><path fill="#93c47d" d="m927.82385 383.74725l18.236206 0l0 74.078735l-18.236206 0z" fill-rule="evenodd"/><path fill="#759c63" d="m946.06006 383.74725l6.0787354 -6.078766l0 74.078766l-6.0787354 6.0787354z" fill-rule="evenodd"/><path fill="#a8cf97" d="m927.82385 383.74725l6.0787354 -6.078766l18.236206 0l-6.0787354 6.078766z" fill-rule="evenodd"/><path fill="#000000" fill-opacity="0.0" d="m927.82385 383.74725l6.0787354 -6.078766l18.236206 0l0 74.078766l-6.0787354 6.0787354l-18.236206 0zm0 0l18.236206 0l6.0787354 -6.078766m-6.0787354 6.078766l0 74.078735" fill-rule="evenodd"/><path fill="#8e7cc3" d="m983.1007 383.74725l18.236206 0l0 74.078735l-18.236206 0z" fill-rule="evenodd"/><path fill="#71639b" d="m1001.3369 383.74725l6.0787354 -6.078766l0 74.078766l-6.0787354 6.0787354z" fill-rule="evenodd"/><path fill="#a496cf" d="m983.1007 383.74725l6.0787354 -6.078766l18.236206 0l-6.0787354 6.078766z" fill-rule="evenodd"/><path fill="#000000" fill-opacity="0.0" d="m983.1007 383.74725l6.0787354 -6.078766l18.236206 0l0 74.078766l-6.0787354 6.0787354l-18.236206 0zm0 0l18.236206 0l6.0787354 -6.078766m-6.0787354 6.078766l0 74.078735" fill-rule="evenodd"/><path fill="#e06666" d="m1038.0891 383.74725l18.236206 0l0 74.078735l-18.236206 0z" fill-rule="evenodd"/><path fill="#b35151" d="m1056.3253 383.74725l6.0787354 -6.078766l0 74.078766l-6.0787354 6.0787354z" fill-rule="evenodd"/><path fill="#e68484" d="m1038.0891 383.74725l6.0787354 -6.078766l18.236206 0l-6.0787354 6.078766z" fill-rule="evenodd"/><path fill="#000000" fill-opacity="0.0" d="m1038.0891 383.74725l6.0787354 -6.078766l18.236206 0l0 74.078766l-6.0787354 6.0787354l-18.236206 0zm0 0l18.236206 0l6.0787354 -6.078766m-6.0787354 6.078766l0 74.078735" fill-rule="evenodd"/><path fill="#8e7cc3" d="m1093.0775 383.74725l18.236206 0l0 74.078735l-18.236206 0z" fill-rule="evenodd"/><path fill="#71639b" d="m1111.3137 383.74725l6.0787354 -6.078766l0 74.078766l-6.0787354 6.0787354z" fill-rule="evenodd"/><path fill="#a496cf" d="m1093.0775 383.74725l6.0787354 -6.078766l18.236206 0l-6.0787354 6.078766z" fill-rule="evenodd"/><path fill="#000000" fill-opacity="0.0" d="m1093.0775 383.74725l6.0787354 -6.078766l18.236206 0l0 74.078766l-6.0787354 6.0787354l-18.236206 0zm0 0l18.236206 0l6.0787354 -6.078766m-6.0787354 6.078766l0 74.078735" fill-rule="evenodd"/><path fill="#4a86e8" d="m1138.3584 444.42795l0 0c-1.2207031E-4 0 -2.4414062E-4 5.873169 -2.4414062E-4 13.118103c0 7.244934 1.2207031E-4 13.118103 2.4414062E-4 13.118103l-457.7953 0c-1.2207031E-4 0 -1.8310547E-4 -5.873169 -1.8310547E-4 -13.118103c0 -7.244934 6.1035156E-5 -13.118103 1.8310547E-4 -13.118103z" fill-rule="evenodd"/><path fill="#92b6f1" d="m1138.3584 444.42795l0 0c1.2207031E-4 0 2.4414062E-4 5.873169 2.4414062E-4 13.118103c0 7.244934 -1.2207031E-4 13.118103 -2.4414062E-4 13.118103l0 0c-1.2207031E-4 0 -2.4414062E-4 -5.873169 -2.4414062E-4 -13.118103c0 -7.244934 1.2207031E-4 -13.118103 2.4414062E-4 -13.118103z" fill-rule="evenodd"/><path fill="#000000" fill-opacity="0.0" d="m1138.3584 470.66415l0 0c-1.2207031E-4 0 -2.4414062E-4 -5.873169 -2.4414062E-4 -13.118103c0 -7.244934 1.2207031E-4 -13.118103 2.4414062E-4 -13.118103l0 0c1.2207031E-4 0 2.4414062E-4 5.873169 2.4414062E-4 13.118103c0 7.244934 -1.2207031E-4 13.118103 -2.4414062E-4 13.118103l-457.7953 0c-1.2207031E-4 0 -1.8310547E-4 -5.873169 -1.8310547E-4 -13.118103c0 -7.244934 6.1035156E-5 -13.118103 1.8310547E-4 -13.118103l457.7953 0" fill-rule="evenodd"/><defs><radialGradient id="p.1" gradientUnits="userSpaceOnUse" gradientTransform="matrix(8.014349136191388 0.0 0.0 8.014349136191388 0.0 0.0)" spreadMethod="pad" cx="38.20673326481099" cy="3.6059785236503314" fx="38.20673326481099" fy="3.6059785236503314" r="8.014348983764648"><stop offset="0.0" stop-color="#9900ff"/><stop offset="1.0" stop-color="#351c75"/></radialGradient></defs><path fill="url(#p.1)" d="m306.2021 51.60823l0 0c0 -12.541645 10.167023 -22.70866 22.70868 -22.70866l0 0c6.022705 0 11.798737 2.3925133 16.057434 6.6512146c4.2586975 4.2586975 6.6512146 10.034737 6.6512146 16.057446l0 0c0 12.541649 -10.166992 22.708664 -22.708649 22.708664l0 0c-12.5416565 0 -22.70868 -10.167015 -22.70868 -22.708664z" fill-rule="evenodd"/><defs><radialGradient id="p.2" gradientUnits="userSpaceOnUse" gradientTransform="matrix(8.014349136191388 0.0 0.0 8.014349136191388 0.0 0.0)" spreadMethod="pad" cx="45.06811406790242" cy="3.6059785236503314" fx="45.06811406790242" fy="3.6059785236503314" r="8.014348983764648"><stop offset="0.0" stop-color="#9900ff"/><stop offset="1.0" stop-color="#351c75"/></radialGradient></defs><path fill="url(#p.2)" d="m361.1916 51.60823l0 0c0 -12.541645 10.167023 -22.70866 22.70868 -22.70866l0 0c6.022705 0 11.798737 2.3925133 16.057434 6.6512146c4.2586975 4.2586975 6.6512146 10.034737 6.6512146 16.057446l0 0c0 12.541649 -10.166992 22.708664 -22.708649 22.708664l0 0c-12.5416565 0 -22.70868 -10.167015 -22.70868 -22.708664z" fill-rule="evenodd"/><defs><radialGradient id="p.3" gradientUnits="userSpaceOnUse" gradientTransform="matrix(8.014349136191388 0.0 0.0 8.014349136191388 0.0 0.0)" spreadMethod="pad" cx="51.92949487099385" cy="3.6059785236503314" fx="51.92949487099385" fy="3.6059785236503314" r="8.014348983764648"><stop offset="0.0" stop-color="#9900ff"/><stop offset="1.0" stop-color="#351c75"/></radialGradient></defs><path fill="url(#p.3)" d="m416.1811 51.60823l0 0c0 -12.541645 10.167023 -22.70866 22.70868 -22.70866l0 0c6.022705 0 11.798737 2.3925133 16.057434 6.6512146c4.2586975 4.2586975 6.6512146 10.034737 6.6512146 16.057446l0 0c0 12.541649 -10.167023 22.708664 -22.708649 22.708664l0 0c-12.5416565 0 -22.70868 -10.167015 -22.70868 -22.708664z" fill-rule="evenodd"/><defs><radialGradient id="p.4" gradientUnits="userSpaceOnUse" gradientTransform="matrix(8.014349136191388 0.0 0.0 8.014349136191388 0.0 0.0)" spreadMethod="pad" cx="58.79087567408528" cy="3.6059785236503314" fx="58.79087567408528" fy="3.6059785236503314" r="8.014348983764648"><stop offset="0.0" stop-color="#9900ff"/><stop offset="1.0" stop-color="#351c75"/></radialGradient></defs><path fill="url(#p.4)" d="m471.1706 51.60823l0 0c0 -12.541645 10.167023 -22.70866 22.70868 -22.70866l0 0c6.022705 0 11.798737 2.3925133 16.057434 6.6512146c4.258728 4.2586975 6.651245 10.034737 6.651245 16.057446l0 0c0 12.541649 -10.167053 22.708664 -22.70868 22.708664l0 0c-12.5416565 0 -22.70868 -10.167015 -22.70868 -22.708664z" fill-rule="evenodd"/><defs><radialGradient id="p.5" gradientUnits="userSpaceOnUse" gradientTransform="matrix(8.014349136191388 0.0 0.0 8.014349136191388 0.0 0.0)" spreadMethod="pad" cx="65.6522564771767" cy="3.6059785236503314" fx="65.6522564771767" fy="3.6059785236503314" r="8.014348983764648"><stop offset="0.0" stop-color="#9900ff"/><stop offset="1.0" stop-color="#351c75"/></radialGradient></defs><path fill="url(#p.5)" d="m526.1601 51.60823l0 0c0 -12.541645 10.167053 -22.70866 22.70868 -22.70866l0 0c6.022705 0 11.798767 2.3925133 16.057434 6.6512146c4.258728 4.2586975 6.651245 10.034737 6.651245 16.057446l0 0c0 12.541649 -10.167053 22.708664 -22.70868 22.708664l0 0c-12.541626 0 -22.70868 -10.167015 -22.70868 -22.708664z" fill-rule="evenodd"/><defs><radialGradient id="p.6" gradientUnits="userSpaceOnUse" gradientTransform="matrix(8.014349136191388 0.0 0.0 8.014349136191388 0.0 0.0)" spreadMethod="pad" cx="72.51363728026813" cy="3.6059785236503314" fx="72.51363728026813" fy="3.6059785236503314" r="8.014348983764648"><stop offset="0.0" stop-color="#9900ff"/><stop offset="1.0" stop-color="#351c75"/></radialGradient></defs><path fill="url(#p.6)" d="m581.1496 51.60823l0 0c0 -12.541645 10.167053 -22.70866 22.70868 -22.70866l0 0c6.022705 0 11.798767 2.3925133 16.057434 6.6512146c4.258728 4.2586975 6.651245 10.034737 6.651245 16.057446l0 0c0 12.541649 -10.167053 22.708664 -22.70868 22.708664l0 0c-12.541626 0 -22.70868 -10.167015 -22.70868 -22.708664z" fill-rule="evenodd"/><defs><radialGradient id="p.7" gradientUnits="userSpaceOnUse" gradientTransform="matrix(8.014349136191388 0.0 0.0 8.014349136191388 0.0 0.0)" spreadMethod="pad" cx="79.25122437692222" cy="3.6059785236503314" fx="79.25122437692222" fy="3.6059785236503314" r="8.014348983764648"><stop offset="0.0" stop-color="#9900ff"/><stop offset="1.0" stop-color="#351c75"/></radialGradient></defs><path fill="url(#p.7)" d="m635.147 51.60823l0 0c0 -12.541645 10.167053 -22.70866 22.70868 -22.70866l0 0c6.022705 0 11.798767 2.3925133 16.057434 6.6512146c4.258728 4.2586975 6.651245 10.034737 6.651245 16.057446l0 0c0 12.541649 -10.167053 22.708664 -22.70868 22.708664l0 0c-12.541626 0 -22.70868 -10.167015 -22.70868 -22.708664z" fill-rule="evenodd"/><defs><radialGradient id="p.8" gradientUnits="userSpaceOnUse" gradientTransform="matrix(8.014349136191388 0.0 0.0 8.014349136191388 0.0 0.0)" spreadMethod="pad" cx="85.98324403175242" cy="3.6059785236503314" fx="85.98324403175242" fy="3.6059785236503314" r="8.014348983764648"><stop offset="0.0" stop-color="#9900ff"/><stop offset="1.0" stop-color="#351c75"/></radialGradient></defs><path fill="url(#p.8)" d="m689.09973 51.60823l0 0c0 -12.541645 10.166992 -22.70866 22.70868 -22.70866l0 0c6.022705 0 11.798767 2.3925133 16.057434 6.6512146c4.258728 4.2586975 6.651245 10.034737 6.651245 16.057446l0 0c0 12.541649 -10.167053 22.708664 -22.70868 22.708664l0 0c-12.541687 0 -22.70868 -10.167015 -22.70868 -22.708664z" fill-rule="evenodd"/><defs><radialGradient id="p.9" gradientUnits="userSpaceOnUse" gradientTransform="matrix(8.014349136191388 0.0 0.0 8.014349136191388 0.0 0.0)" spreadMethod="pad" cx="92.84462483484384" cy="3.6059785236503314" fx="92.84462483484384" fy="3.6059785236503314" r="8.014348983764648"><stop offset="0.0" stop-color="#9900ff"/><stop offset="1.0" stop-color="#351c75"/></radialGradient></defs><path fill="url(#p.9)" d="m744.08923 51.60823l0 0c0 -12.541645 10.166992 -22.70866 22.70868 -22.70866l0 0c6.022705 0 11.798706 2.3925133 16.057434 6.6512146c4.258728 4.2586975 6.651245 10.034737 6.651245 16.057446l0 0c0 12.541649 -10.167053 22.708664 -22.70868 22.708664l0 0c-12.541687 0 -22.70868 -10.167015 -22.70868 -22.708664z" fill-rule="evenodd"/><defs><radialGradient id="p.10" gradientUnits="userSpaceOnUse" gradientTransform="matrix(8.014349136191388 0.0 0.0 8.014349136191388 0.0 0.0)" spreadMethod="pad" cx="99.70600563793528" cy="3.6059785236503314" fx="99.70600563793528" fy="3.6059785236503314" r="8.014348983764648"><stop offset="0.0" stop-color="#9900ff"/><stop offset="1.0" stop-color="#351c75"/></radialGradient></defs><path fill="url(#p.10)" d="m799.07874 51.60823l0 0c0 -12.541645 10.166992 -22.70866 22.70868 -22.70866l0 0c6.022705 0 11.798706 2.3925133 16.057434 6.6512146c4.258728 4.2586975 6.651184 10.034737 6.651184 16.057446l0 0c0 12.541649 -10.166992 22.708664 -22.708618 22.708664l0 0c-12.541687 0 -22.70868 -10.167015 -22.70868 -22.708664z" fill-rule="evenodd"/><defs><radialGradient id="p.11" gradientUnits="userSpaceOnUse" gradientTransform="matrix(8.014349136191388 0.0 0.0 8.014349136191388 0.0 0.0)" spreadMethod="pad" cx="106.5673864410267" cy="3.6059785236503314" fx="106.5673864410267" fy="3.6059785236503314" r="8.014348983764648"><stop offset="0.0" stop-color="#9900ff"/><stop offset="1.0" stop-color="#351c75"/></radialGradient></defs><path fill="url(#p.11)" d="m854.06824 51.60823l0 0c0 -12.541645 10.166992 -22.70866 22.70868 -22.70866l0 0c6.022705 0 11.798706 2.3925133 16.057434 6.6512146c4.258728 4.2586975 6.651184 10.034737 6.651184 16.057446l0 0c0 12.541649 -10.166992 22.708664 -22.708618 22.708664l0 0c-12.541687 0 -22.70868 -10.167015 -22.70868 -22.708664z" fill-rule="evenodd"/><defs><radialGradient id="p.12" gradientUnits="userSpaceOnUse" gradientTransform="matrix(8.014349136191388 0.0 0.0 8.014349136191388 0.0 0.0)" spreadMethod="pad" cx="113.42876724411812" cy="3.6059785236503314" fx="113.42876724411812" fy="3.6059785236503314" r="8.014348983764648"><stop offset="0.0" stop-color="#9900ff"/><stop offset="1.0" stop-color="#351c75"/></radialGradient></defs><path fill="url(#p.12)" d="m909.05774 51.60823l0 0c0 -12.541645 10.166992 -22.70866 22.70868 -22.70866l0 0c6.022705 0 11.798706 2.3925133 16.057434 6.6512146c4.258728 4.2586975 6.651184 10.034737 6.651184 16.057446l0 0c0 12.541649 -10.166992 22.708664 -22.708618 22.708664l0 0c-12.541687 0 -22.70868 -10.167015 -22.70868 -22.708664z" fill-rule="evenodd"/><defs><radialGradient id="p.13" gradientUnits="userSpaceOnUse" gradientTransform="matrix(8.014349136191388 0.0 0.0 8.014349136191388 0.0 0.0)" spreadMethod="pad" cx="120.29014804720956" cy="3.6059785236503314" fx="120.29014804720956" fy="3.6059785236503314" r="8.014348983764648"><stop offset="0.0" stop-color="#9900ff"/><stop offset="1.0" stop-color="#351c75"/></radialGradient></defs><path fill="url(#p.13)" d="m964.04724 51.60823l0 0c0 -12.541645 10.166992 -22.70866 22.70868 -22.70866l0 0c6.022705 0 11.798706 2.3925133 16.057434 6.6512146c4.258728 4.2586975 6.651184 10.034737 6.651184 16.057446l0 0c0 12.541649 -10.166992 22.708664 -22.708618 22.708664l0 0c-12.541687 0 -22.70868 -10.167015 -22.70868 -22.708664z" fill-rule="evenodd"/><defs><radialGradient id="p.14" gradientUnits="userSpaceOnUse" gradientTransform="matrix(8.014349136191388 0.0 0.0 8.014349136191388 0.0 0.0)" spreadMethod="pad" cx="127.02773514386365" cy="3.6059785236503314" fx="127.02773514386365" fy="3.6059785236503314" r="8.014348983764648"><stop offset="0.0" stop-color="#9900ff"/><stop offset="1.0" stop-color="#351c75"/></radialGradient></defs><path fill="url(#p.14)" d="m1018.0446 51.60823l0 0c0 -12.541645 10.167053 -22.70866 22.70868 -22.70866l0 0c6.022705 0 11.798706 2.3925133 16.057373 6.6512146c4.258789 4.2586975 6.651245 10.034737 6.651245 16.057446l0 0c0 12.541649 -10.166992 22.708664 -22.708618 22.708664l0 0c-12.541626 0 -22.70868 -10.167015 -22.70868 -22.708664z" fill-rule="evenodd"/><defs><radialGradient id="p.15" gradientUnits="userSpaceOnUse" gradientTransform="matrix(8.014349136191388 0.0 0.0 8.014349136191388 0.0 0.0)" spreadMethod="pad" cx="38.1507313499941" cy="57.6265390443859" fx="38.1507313499941" fy="57.6265390443859" r="8.014348983764648"><stop offset="0.0" stop-color="#9900ff"/><stop offset="1.0" stop-color="#351c75"/></radialGradient></defs><path fill="url(#p.15)" d="m305.7533 484.54785l0 0c0 -12.541626 10.166992 -22.708649 22.708649 -22.708649l0 0c6.022705 0 11.798737 2.392517 16.057434 6.6512146c4.2586975 4.2586975 6.6512146 10.034729 6.6512146 16.057434l0 0c0 12.5416565 -10.166992 22.70868 -22.708649 22.70868l0 0c-12.5416565 0 -22.708649 -10.167023 -22.708649 -22.70868z" fill-rule="evenodd"/><defs><radialGradient id="p.16" gradientUnits="userSpaceOnUse" gradientTransform="matrix(8.014349136191388 0.0 0.0 8.014349136191388 0.0 0.0)" spreadMethod="pad" cx="45.01211215308553" cy="57.6265390443859" fx="45.01211215308553" fy="57.6265390443859" r="8.014348983764648"><stop offset="0.0" stop-color="#9900ff"/><stop offset="1.0" stop-color="#351c75"/></radialGradient></defs><path fill="url(#p.16)" d="m360.74277 484.54785l0 0c0 -12.541626 10.167023 -22.708649 22.70868 -22.708649l0 0c6.022705 0 11.798737 2.392517 16.057434 6.6512146c4.2586975 4.2586975 6.6512146 10.034729 6.6512146 16.057434l0 0c0 12.5416565 -10.166992 22.70868 -22.708649 22.70868l0 0c-12.5416565 0 -22.70868 -10.167023 -22.70868 -22.70868z" fill-rule="evenodd"/><defs><radialGradient id="p.17" gradientUnits="userSpaceOnUse" gradientTransform="matrix(8.014349136191388 0.0 0.0 8.014349136191388 0.0 0.0)" spreadMethod="pad" cx="51.87349295617696" cy="57.6265390443859" fx="51.87349295617696" fy="57.6265390443859" r="8.014348983764648"><stop offset="0.0" stop-color="#9900ff"/><stop offset="1.0" stop-color="#351c75"/></radialGradient></defs><path fill="url(#p.17)" d="m415.73227 484.54785l0 0c0 -12.541626 10.167023 -22.708649 22.70868 -22.708649l0 0c6.022705 0 11.798737 2.392517 16.057434 6.6512146c4.2586975 4.2586975 6.6512146 10.034729 6.6512146 16.057434l0 0c0 12.5416565 -10.166992 22.70868 -22.708649 22.70868l0 0c-12.5416565 0 -22.70868 -10.167023 -22.70868 -22.70868z" fill-rule="evenodd"/><defs><radialGradient id="p.18" gradientUnits="userSpaceOnUse" gradientTransform="matrix(8.014349136191388 0.0 0.0 8.014349136191388 0.0 0.0)" spreadMethod="pad" cx="58.73487375926839" cy="57.6265390443859" fx="58.73487375926839" fy="57.6265390443859" r="8.014348983764648"><stop offset="0.0" stop-color="#9900ff"/><stop offset="1.0" stop-color="#351c75"/></radialGradient></defs><path fill="url(#p.18)" d="m470.72177 484.54785l0 0c0 -12.541626 10.167023 -22.708649 22.70868 -22.708649l0 0c6.022705 0 11.798737 2.392517 16.057434 6.6512146c4.2586975 4.2586975 6.6512146 10.034729 6.6512146 16.057434l0 0c0 12.5416565 -10.166992 22.70868 -22.708649 22.70868l0 0c-12.5416565 0 -22.70868 -10.167023 -22.70868 -22.70868z" fill-rule="evenodd"/><defs><radialGradient id="p.19" gradientUnits="userSpaceOnUse" gradientTransform="matrix(8.014349136191388 0.0 0.0 8.014349136191388 0.0 0.0)" spreadMethod="pad" cx="65.59625456235982" cy="57.6265390443859" fx="65.59625456235982" fy="57.6265390443859" r="8.014348983764648"><stop offset="0.0" stop-color="#9900ff"/><stop offset="1.0" stop-color="#351c75"/></radialGradient></defs><path fill="url(#p.19)" d="m525.7113 484.54785l0 0c0 -12.541626 10.166992 -22.708649 22.708618 -22.708649l0 0c6.022766 0 11.798767 2.392517 16.057495 6.6512146c4.258667 4.2586975 6.651184 10.034729 6.651184 16.057434l0 0c0 12.5416565 -10.166992 22.70868 -22.70868 22.70868l0 0c-12.541626 0 -22.708618 -10.167023 -22.708618 -22.70868z" fill-rule="evenodd"/><defs><radialGradient id="p.20" gradientUnits="userSpaceOnUse" gradientTransform="matrix(8.014349136191388 0.0 0.0 8.014349136191388 0.0 0.0)" spreadMethod="pad" cx="72.45763536545124" cy="57.6265390443859" fx="72.45763536545124" fy="57.6265390443859" r="8.014348983764648"><stop offset="0.0" stop-color="#9900ff"/><stop offset="1.0" stop-color="#351c75"/></radialGradient></defs><path fill="url(#p.20)" d="m580.7008 484.54785l0 0c0 -12.541626 10.166992 -22.708649 22.708618 -22.708649l0 0c6.022766 0 11.798767 2.392517 16.057495 6.6512146c4.258667 4.2586975 6.651184 10.034729 6.651184 16.057434l0 0c0 12.5416565 -10.166992 22.70868 -22.70868 22.70868l0 0c-12.541626 0 -22.708618 -10.167023 -22.708618 -22.70868z" fill-rule="evenodd"/><defs><radialGradient id="p.21" gradientUnits="userSpaceOnUse" gradientTransform="matrix(8.014349136191388 0.0 0.0 8.014349136191388 0.0 0.0)" spreadMethod="pad" cx="79.44477485444726" cy="57.6265390443859" fx="79.44477485444726" fy="57.6265390443859" r="8.014348983764648"><stop offset="0.0" stop-color="#9900ff"/><stop offset="1.0" stop-color="#351c75"/></radialGradient></defs><path fill="url(#p.21)" d="m636.6982 484.54785l0 0c0 -12.541626 10.166992 -22.708649 22.708618 -22.708649l0 0c6.022766 0 11.798767 2.392517 16.057495 6.6512146c4.258667 4.2586975 6.651184 10.034729 6.651184 16.057434l0 0c0 12.5416565 -10.166992 22.70868 -22.70868 22.70868l0 0c-12.541626 0 -22.708618 -10.167023 -22.708618 -22.70868z" fill-rule="evenodd"/><defs><radialGradient id="p.22" gradientUnits="userSpaceOnUse" gradientTransform="matrix(8.014349136191388 0.0 0.0 8.014349136191388 0.0 0.0)" spreadMethod="pad" cx="86.80067549013226" cy="57.6265390443859" fx="86.80067549013226" fy="57.6265390443859" r="8.014348983764648"><stop offset="0.0" stop-color="#9900ff"/><stop offset="1.0" stop-color="#351c75"/></radialGradient></defs><path fill="url(#p.22)" d="m695.65094 484.54785l0 0c0 -12.541626 10.166992 -22.708649 22.708618 -22.708649l0 0c6.022705 0 11.798767 2.392517 16.057495 6.6512146c4.258667 4.2586975 6.651184 10.034729 6.651184 16.057434l0 0c0 12.5416565 -10.166992 22.70868 -22.70868 22.70868l0 0c-12.541626 0 -22.708618 -10.167023 -22.708618 -22.70868z" fill-rule="evenodd"/><defs><radialGradient id="p.23" gradientUnits="userSpaceOnUse" gradientTransform="matrix(8.014349136191388 0.0 0.0 8.014349136191388 0.0 0.0)" spreadMethod="pad" cx="93.6620562932237" cy="57.6265390443859" fx="93.6620562932237" fy="57.6265390443859" r="8.014348983764648"><stop offset="0.0" stop-color="#9900ff"/><stop offset="1.0" stop-color="#351c75"/></radialGradient></defs><path fill="url(#p.23)" d="m750.64044 484.54785l0 0c0 -12.541626 10.166992 -22.708649 22.708618 -22.708649l0 0c6.022705 0 11.798767 2.392517 16.057495 6.6512146c4.258667 4.2586975 6.651184 10.034729 6.651184 16.057434l0 0c0 12.5416565 -10.166992 22.70868 -22.70868 22.70868l0 0c-12.541626 0 -22.708618 -10.167023 -22.708618 -22.70868z" fill-rule="evenodd"/><defs><radialGradient id="p.24" gradientUnits="userSpaceOnUse" gradientTransform="matrix(8.014349136191388 0.0 0.0 8.014349136191388 0.0 0.0)" spreadMethod="pad" cx="100.52343709631512" cy="57.6265390443859" fx="100.52343709631512" fy="57.6265390443859" r="8.014348983764648"><stop offset="0.0" stop-color="#9900ff"/><stop offset="1.0" stop-color="#351c75"/></radialGradient></defs><path fill="url(#p.24)" d="m805.62994 484.54785l0 0c0 -12.541626 10.166992 -22.708649 22.708618 -22.708649l0 0c6.022705 0 11.798767 2.392517 16.057495 6.6512146c4.258667 4.2586975 6.651184 10.034729 6.651184 16.057434l0 0c0 12.5416565 -10.166992 22.70868 -22.70868 22.70868l0 0c-12.541626 0 -22.708618 -10.167023 -22.708618 -22.70868z" fill-rule="evenodd"/><defs><radialGradient id="p.25" gradientUnits="userSpaceOnUse" gradientTransform="matrix(8.014349136191388 0.0 0.0 8.014349136191388 0.0 0.0)" spreadMethod="pad" cx="107.38481789940654" cy="57.6265390443859" fx="107.38481789940654" fy="57.6265390443859" r="8.014348983764648"><stop offset="0.0" stop-color="#9900ff"/><stop offset="1.0" stop-color="#351c75"/></radialGradient></defs><path fill="url(#p.25)" d="m860.61945 484.54785l0 0c0 -12.541626 10.166992 -22.708649 22.708618 -22.708649l0 0c6.022705 0 11.798767 2.392517 16.057495 6.6512146c4.258667 4.2586975 6.651184 10.034729 6.651184 16.057434l0 0c0 12.5416565 -10.166992 22.70868 -22.70868 22.70868l0 0c-12.541626 0 -22.708618 -10.167023 -22.708618 -22.70868z" fill-rule="evenodd"/><defs><radialGradient id="p.26" gradientUnits="userSpaceOnUse" gradientTransform="matrix(8.014349136191388 0.0 0.0 8.014349136191388 0.0 0.0)" spreadMethod="pad" cx="114.24619870249798" cy="57.6265390443859" fx="114.24619870249798" fy="57.6265390443859" r="8.014348983764648"><stop offset="0.0" stop-color="#9900ff"/><stop offset="1.0" stop-color="#351c75"/></radialGradient></defs><path fill="url(#p.26)" d="m915.60895 484.54785l0 0c0 -12.541626 10.166992 -22.708649 22.708618 -22.708649l0 0c6.022705 0 11.798767 2.392517 16.057495 6.6512146c4.258667 4.2586975 6.651184 10.034729 6.651184 16.057434l0 0c0 12.5416565 -10.166992 22.70868 -22.70868 22.70868l0 0c-12.541626 0 -22.708618 -10.167023 -22.708618 -22.70868z" fill-rule="evenodd"/><defs><radialGradient id="p.27" gradientUnits="userSpaceOnUse" gradientTransform="matrix(8.014349136191388 0.0 0.0 8.014349136191388 0.0 0.0)" spreadMethod="pad" cx="121.1075795055894" cy="57.6265390443859" fx="121.1075795055894" fy="57.6265390443859" r="8.014348983764648"><stop offset="0.0" stop-color="#9900ff"/><stop offset="1.0" stop-color="#351c75"/></radialGradient></defs><path fill="url(#p.27)" d="m970.59845 484.54785l0 0c0 -12.541626 10.166992 -22.708649 22.708618 -22.708649l0 0c6.022705 0 11.798767 2.392517 16.057495 6.6512146c4.258667 4.2586975 6.651184 10.034729 6.651184 16.057434l0 0c0 12.5416565 -10.166992 22.70868 -22.70868 22.70868l0 0c-12.541626 0 -22.708618 -10.167023 -22.708618 -22.70868z" fill-rule="evenodd"/><defs><radialGradient id="p.28" gradientUnits="userSpaceOnUse" gradientTransform="matrix(8.014349136191388 0.0 0.0 8.014349136191388 0.0 0.0)" spreadMethod="pad" cx="126.97173322904676" cy="57.6265390443859" fx="126.97173322904676" fy="57.6265390443859" r="8.014348983764648"><stop offset="0.0" stop-color="#9900ff"/><stop offset="1.0" stop-color="#351c75"/></radialGradient></defs><path fill="url(#p.28)" d="m1017.5958 484.54785l0 0c0 -12.541626 10.166992 -22.708649 22.708618 -22.708649l0 0c6.022705 0 11.798706 2.392517 16.057495 6.6512146c4.258667 4.2586975 6.651245 10.034729 6.651245 16.057434l0 0c0 12.5416565 -10.167114 22.70868 -22.70874 22.70868l0 0c-12.541626 0 -22.708618 -10.167023 -22.708618 -22.70868z" fill-rule="evenodd"/><defs><radialGradient id="p.29" gradientUnits="userSpaceOnUse" gradientTransform="matrix(9.7495110164077 0.0 0.0 9.7495110164077 0.0 0.0)" spreadMethod="pad" cx="48.32747924953773" cy="23.85337652590665" fx="48.32747924953773" fy="23.85337652590665" r="9.749510765075684"><stop offset="0.0" stop-color="#9900ff"/><stop offset="1.0" stop-color="#351c75"/></radialGradient></defs><path fill="url(#p.29)" d="m471.16928 266.16507l0 0c0 -18.560257 15.046051 -33.606308 33.606323 -33.606308l0 0c8.912933 0 17.460846 3.5406494 23.763214 9.843048c6.302429 6.302414 9.843079 14.850296 9.843079 23.76326l0 0c0 18.560242 -15.046082 33.606293 -33.606293 33.606293l0 0c-18.560272 0 -33.606323 -15.046051 -33.606323 -33.606293z" fill-rule="evenodd"/><path fill="#ffffff" d="m594.17706 257.3724c-0.88623047 0 -1.5213013 0.1772461 -1.9053345 0.53170776c-0.38397217 0.35446167 -0.57598877 0.79751587 -0.57598877 1.3291931c0 0.5612488 0.1920166 1.0190735 0.57598877 1.3735352c0.3840332 0.35446167 1.019104 0.53167725 1.9053345 0.53167725l40.587036 0c0.88616943 0 1.5213013 -0.17721558 1.9052734 -0.53167725c0.3840332 -0.35446167 0.5760498 -0.79751587 0.5760498 -1.3292236c0 -0.56121826 -0.1920166 -1.019043 -0.5760498 -1.3735046c-0.38397217 -0.35446167 -1.019104 -0.53170776 -1.9052734 -0.53170776zm0 13.380798c-0.88623047 0 -1.5213013 0.17230225 -1.9053345 0.51690674c-0.38397217 0.33477783 -0.57598877 0.7827759 -0.57598877 1.3439941c0 0.56121826 0.1920166 1.0141296 0.57598877 1.3587646c0.3840332 0.3347473 1.019104 0.50213623 1.9053345 0.50213623l40.587036 0c0.88616943 0 1.5213013 -0.16738892 1.9052734 -0.50213623c0.3840332 -0.344635 0.5760498 -0.7975464 0.5760498 -1.3587646c0 -0.56121826 -0.1920166 -1.0092163 -0.5760498 -1.3439941c-0.38397217 -0.3446045 -1.019104 -0.51690674 -1.9052734 -0.51690674z" fill-rule="evenodd"/><path fill="#ffffff" d="m723.2492 238.8963c-5.1102905 0 -9.226074 1.4030609 -12.347412 4.2091827c-3.1115112 2.8061218 -4.6672363 6.1587067 -4.6672363 10.057739c0 3.9285736 1.3588257 6.956253 4.076416 9.082993c2.7176514 2.1267395 7.16333 3.7070312 13.337036 4.7408752c4.48999 0.76797485 7.4439087 1.4621277 8.861816 2.082428c2.038208 0.8861389 3.5742798 2.0922852 4.6081543 3.6184387c1.0338745 1.5162964 1.5507812 3.249176 1.5507812 5.1987c0 3.1901245 -1.3538818 5.951935 -4.0616455 8.285461c-2.697937 2.3335266 -6.380493 3.5002747 -11.0477295 3.5002747c-4.6672363 0 -8.384216 -1.1126099 -11.151123 -3.3378296c-2.756958 -2.2350464 -4.2093506 -4.711334 -4.3570557 -7.428833c-0.029541016 -0.79751587 -0.21661377 -1.3735352 -0.56121826 -1.7279663c-0.33477783 -0.35446167 -0.7680054 -0.53170776 -1.2997437 -0.53170776c-0.56121826 0 -1.0141602 0.1920166 -1.3588257 0.57598877c-0.33477783 0.3840027 -0.50213623 1.033844 -0.50213623 1.9495239l0 10.279297c0 0.8861389 0.1772461 1.5212097 0.53167725 1.9051819c0.3544922 0.3840027 0.7976074 0.5760193 1.3292847 0.5760193c0.5612793 0 1.0092773 -0.1920166 1.3440552 -0.5760193c0.3446045 -0.38397217 0.51690674 -1.019043 0.51690674 -1.9051819l0 -2.12677c3.86969 4.0467224 9.0390625 6.070099 15.508179 6.070099c5.760193 0 10.338806 -1.4966125 13.735779 -4.489807c3.3970337 -3.0030518 5.095581 -6.631317 5.095581 -10.884796c0 -2.7765808 -0.659729 -5.18396 -1.979126 -7.2220764c-1.3096313 -2.038147 -3.2493286 -3.6332092 -5.819275 -4.785187c-1.920044 -0.8565979 -5.4057007 -1.6984558 -10.456909 -2.5255127c-3.0130615 -0.50213623 -5.2285156 -0.9796753 -6.6463623 -1.4325867c-1.4179077 -0.46276855 -2.6881104 -1.0682983 -3.810608 -1.8166199c-1.1224976 -0.7581482 -2.0234375 -1.7427368 -2.7028198 -2.9537964c-0.67944336 -1.2110901 -1.019104 -2.5550537 -1.019104 -4.031967c0 -2.8652039 1.2111206 -5.3513336 3.6333008 -7.4583893c2.4222412 -2.1168976 5.6863403 -3.175354 9.792297 -3.175354c3.899231 0 7.050049 0.9895325 9.452637 2.9685974c2.4123535 1.9790497 3.6923828 4.2091827 3.840088 6.690384c0.029541016 0.7975311 0.21166992 1.3735199 0.5465088 1.7279816c0.3446045 0.35446167 0.7827759 0.5316925 1.3144531 0.5316925c0.5612793 0 1.0092773 -0.19200134 1.3440552 -0.576004c0.3446045 -0.38398743 0.5169678 -1.0190582 0.5169678 -1.9052124l0 -9.481735c0 -0.8861542 -0.17236328 -1.521225 -0.5169678 -1.9052124c-0.33477783 -0.3840027 -0.7827759 -0.576004 -1.3440552 -0.576004c-0.56121826 0 -1.0141602 0.19200134 -1.3587646 0.576004c-0.33477783 0.38398743 -0.50219727 1.0190582 -0.50219727 1.9052124l0 1.2406006c-3.7515259 -3.2787323 -8.226685 -4.918106 -13.425659 -4.918106z" fill-rule="evenodd"/><path fill="#ffffff" d="m777.705 238.8963c-5.1102905 0 -9.226135 1.4030609 -12.347412 4.2091827c-3.1115112 2.8061218 -4.6672363 6.1587067 -4.6672363 10.057739c0 3.9285736 1.3588257 6.956253 4.076416 9.082993c2.7176514 2.1267395 7.163269 3.7070312 13.337036 4.7408752c4.48999 0.76797485 7.4439087 1.4621277 8.861816 2.082428c2.038208 0.8861389 3.5742188 2.0922852 4.6080933 3.6184387c1.0338745 1.5162964 1.5508423 3.249176 1.5508423 5.1987c0 3.1901245 -1.3538818 5.951935 -4.0616455 8.285461c-2.697937 2.3335266 -6.380493 3.5002747 -11.0477295 3.5002747c-4.6672363 0 -8.384277 -1.1126099 -11.151123 -3.3378296c-2.757019 -2.2350464 -4.2093506 -4.711334 -4.3570557 -7.428833c-0.029541016 -0.79751587 -0.21661377 -1.3735352 -0.56121826 -1.7279663c-0.33477783 -0.35446167 -0.7680664 -0.53170776 -1.2997437 -0.53170776c-0.5612793 0 -1.0142212 0.1920166 -1.3588257 0.57598877c-0.33477783 0.3840027 -0.50213623 1.033844 -0.50213623 1.9495239l0 10.279297c0 0.8861389 0.17718506 1.5212097 0.53167725 1.9051819c0.3544922 0.3840027 0.7975464 0.5760193 1.3292847 0.5760193c0.56121826 0 1.0092773 -0.1920166 1.3440552 -0.5760193c0.3446045 -0.38397217 0.51690674 -1.019043 0.51690674 -1.9051819l0 -2.12677c3.86969 4.0467224 9.0390625 6.070099 15.508179 6.070099c5.760193 0 10.338745 -1.4966125 13.735779 -4.489807c3.3970337 -3.0030518 5.09552 -6.631317 5.09552 -10.884796c0 -2.7765808 -0.65966797 -5.18396 -1.979126 -7.2220764c-1.3095703 -2.038147 -3.2493286 -3.6332092 -5.819214 -4.785187c-1.920105 -0.8565979 -5.4057007 -1.6984558 -10.45697 -2.5255127c-3.0130005 -0.50213623 -5.2284546 -0.9796753 -6.6463623 -1.4325867c-1.4178467 -0.46276855 -2.6880493 -1.0682983 -3.8105469 -1.8166199c-1.1224976 -0.7581482 -2.0234375 -1.7427368 -2.7028809 -2.9537964c-0.6793823 -1.2110901 -1.019104 -2.5550537 -1.019104 -4.031967c0 -2.8652039 1.2111206 -5.3513336 3.6333618 -7.4583893c2.4222412 -2.1168976 5.6863403 -3.175354 9.792297 -3.175354c3.89917 0 7.050049 0.9895325 9.452576 2.9685974c2.4124146 1.9790497 3.6924438 4.2091827 3.840149 6.690384c0.029541016 0.7975311 0.21166992 1.3735199 0.54644775 1.7279816c0.34466553 0.35446167 0.7828369 0.5316925 1.3145142 0.5316925c0.56121826 0 1.0092773 -0.19200134 1.3440552 -0.576004c0.3446045 -0.38398743 0.51690674 -1.0190582 0.51690674 -1.9052124l0 -9.481735c0 -0.8861542 -0.17230225 -1.521225 -0.51690674 -1.9052124c-0.33477783 -0.3840027 -0.7828369 -0.576004 -1.3440552 -0.576004c-0.56121826 0 -1.0141602 0.19200134 -1.3588257 0.576004c-0.33477783 0.38398743 -0.50213623 1.0190582 -0.50213623 1.9052124l0 1.2406006c-3.7515259 -3.2787323 -8.226746 -4.918106 -13.425659 -4.918106z" fill-rule="evenodd"/><path fill="#ffffff" d="m834.86365 243.8144c3.5151978 0 6.3657227 0.9846039 8.551636 2.9538116c2.185913 1.9593658 3.2788696 4.1058044 3.2788696 6.439316c0 1.6246033 -0.50213623 3.2196503 -1.5064697 4.7851715c-1.0043335 1.5655212 -2.4074707 2.7618408 -4.2093506 3.5888977c-2.3336182 1.033844 -4.9035645 1.5507507 -7.709778 1.5507507l-13.15979 0l0 -19.317947zm-1.3735352 23.08406c4.105957 0 7.3257446 0.45785522 9.659363 1.3735352c2.3336182 0.91567993 4.1552124 2.259674 5.4647827 4.031952c1.319397 1.7722778 1.979126 3.6036682 1.979126 5.49411c0 1.6836548 -0.45788574 3.308258 -1.3735962 4.8737793c-0.91571045 1.5655212 -2.2597656 2.8799744 -4.0321045 3.9433594c-1.7723999 1.0633545 -3.8549194 1.5950317 -6.2475586 1.5950317l-18.83136 0l0 -21.311768zm-22.11023 -26.805878c-0.88616943 0 -1.5213013 0.1723175 -1.9052734 0.516922c-0.3840332 0.33476257 -0.5760498 0.7827606 -0.5760498 1.3439941c0 0.56121826 0.1920166 1.0141449 0.5760498 1.3587494c0.38397217 0.33476257 1.019104 0.5021515 1.9052734 0.5021515l5.006897 0l0 44.39583l-5.006897 0c-0.88616943 0 -1.5213013 0.17233276 -1.9052734 0.51693726c-0.3840332 0.3347473 -0.5760498 0.78274536 -0.5760498 1.3439941c0 0.53167725 0.1920166 0.97473145 0.5760498 1.3291931c0.38397217 0.35446167 1.019104 0.53170776 1.9052734 0.53170776l27.82605 0c2.8653564 0 5.514038 -0.72369385 7.946106 -2.171051c2.4418945 -1.4473877 4.253662 -3.1950684 5.4352417 -5.243042c1.1815796 -2.0578308 1.7723389 -4.3273315 1.7723389 -6.8085327c0 -2.7765808 -0.90093994 -5.316864 -2.7028198 -7.6208496c-1.8019409 -2.3039856 -4.6376953 -4.150116 -8.507324 -5.538391c4.8739624 -2.8061523 7.310974 -6.4836426 7.310974 -11.0325165c0 -3.603653 -1.4572754 -6.739624 -4.371826 -9.407898c-2.9047241 -2.678131 -6.6759033 -4.0171967 -11.313599 -4.0171967z" fill-rule="evenodd"/><path fill="#ffffff" d="m891.8894 243.8144c3.840088 0 7.015564 1.166748 9.526428 3.5002747c2.5108643 2.3335114 3.7662354 4.9624023 3.7662354 7.886688c0 1.8313446 -0.5562744 3.633194 -1.6689453 5.405472c-1.1027832 1.7722778 -2.8604126 3.2738037 -5.272766 4.5045776c-2.4025269 1.2209167 -4.977417 1.8313599 -7.7245483 1.8313599l-11.874817 0l0 -23.128372zm-21.977295 -3.721817c-0.88616943 0 -1.5213013 0.1723175 -1.9052734 0.516922c-0.3840332 0.33476257 -0.5760498 0.7827606 -0.5760498 1.3439941c0 0.56121826 0.1920166 1.0141449 0.5760498 1.3587494c0.38397217 0.33476257 1.019104 0.5021515 1.9052734 0.5021515l5.006897 0l0 44.39583l-5.006897 0c-0.88616943 0 -1.5213013 0.17233276 -1.9052734 0.51693726c-0.3840332 0.3347473 -0.5760498 0.78274536 -0.5760498 1.3439941c0 0.53167725 0.1920166 0.97473145 0.5760498 1.3291931c0.38397217 0.35446167 1.019104 0.53170776 1.9052734 0.53170776l21.489868 0c0.88616943 0 1.5213013 -0.1772461 1.9052734 -0.53170776c0.3840332 -0.35446167 0.5760498 -0.79751587 0.5760498 -1.3291931c0 -0.5612488 -0.1920166 -1.0092468 -0.5760498 -1.3439941c-0.38397217 -0.3446045 -1.019104 -0.51693726 -1.9052734 -0.51693726l-12.760986 0l0 -17.545654l11.653259 0c2.5404053 0 4.6672363 -0.28060913 6.380493 -0.8418274c2.3631592 -0.7680054 4.652466 -1.979065 6.86792 -3.6332092c1.4769897 -1.0928955 2.7373047 -2.5993347 3.7810059 -4.5193176c1.0535889 -1.9199829 1.5803833 -4.0762634 1.5803833 -6.468857c0 -4.0467377 -1.619751 -7.576538 -4.859253 -10.589432c-3.2296143 -3.0128937 -7.399597 -4.519348 -12.509888 -4.519348z" fill-rule="evenodd"/></g></svg>