<svg version="1.1" viewBox="0.0 0.0 960.0 540.0" fill="none" stroke="none" stroke-linecap="square" stroke-miterlimit="10" xmlns:xlink="http://www.w3.org/1999/xlink" xmlns="http://www.w3.org/2000/svg"><clipPath id="p.0"><path d="m0 0l960.0 0l0 540.0l-960.0 0l0 -540.0z" clip-rule="nonzero"/></clipPath><g clip-path="url(#p.0)"><path fill="#000000" fill-opacity="0.0" d="m0 0l960.0 0l0 540.0l-960.0 0z" fill-rule="evenodd"/><path fill="#8e7cc3" d="m629.5937 194.32303l10.015747 0l0 74.99213l-10.015747 0z" fill-rule="evenodd"/><path fill="#ffd966" d="m647.10266 192.31516l10.015747 0l0 77.13385l-10.015747 0z" fill-rule="evenodd"/><path fill="#93c47d" d="m629.5937 341.3309l10.015747 0l0 -74.99213l-10.015747 0z" fill-rule="evenodd"/><path fill="#e06666" d="m647.10266 343.33878l10.015747 0l0 -77.13385l-10.015747 0z" fill-rule="evenodd"/><path fill="#8e7cc3" d="m674.6278 343.33878l-10.015747 0l0 -74.99213l10.015747 0z" fill-rule="evenodd"/><path fill="#93c47d" d="m674.6278 196.3309l-10.015747 0l0 74.99213l10.015747 0z" fill-rule="evenodd"/><path fill="#ffd966" d="m681.24963 194.32303l10.015747 0l0 77.13385l-10.015747 0z" fill-rule="evenodd"/><path fill="#e06666" d="m681.24963 345.34665l10.015747 0l0 -77.13385l-10.015747 0z" fill-rule="evenodd"/><path fill="#ffd966" d="m707.9032 345.34665l-10.015747 0l0 -77.13385l10.015747 0z" fill-rule="evenodd"/><path fill="#e06666" d="m707.9032 194.32303l-10.015747 0l0 77.13385l10.015747 0z" fill-rule="evenodd"/><path fill="#8e7cc3" d="m724.5412 343.33878l-10.015747 0l0 -74.99213l10.015747 0z" fill-rule="evenodd"/><path fill="#93c47d" d="m724.5412 196.3309l-10.015747 0l0 74.99213l10.015747 0z" fill-rule="evenodd"/><path fill="#8e7cc3" d="m826.85425 345.5118l-10.015747 0l0 -74.99213l10.015747 0z" fill-rule="evenodd"/><path fill="#ffd966" d="m809.3453 347.51968l-10.015747 0l0 -77.13385l10.015747 0z" fill-rule="evenodd"/><path fill="#93c47d" d="m826.85425 198.50394l-10.015747 0l0 74.99213l10.015747 0z" fill-rule="evenodd"/><path fill="#e06666" d="m809.3453 196.49606l-10.015747 0l0 77.13385l10.015747 0z" fill-rule="evenodd"/><path fill="#8e7cc3" d="m781.8201 196.49606l10.015747 0l0 74.99213l-10.015747 0z" fill-rule="evenodd"/><path fill="#93c47d" d="m781.8201 343.50394l10.015747 0l0 -74.99213l-10.015747 0z" fill-rule="evenodd"/><path fill="#ffd966" d="m775.1983 345.5118l-10.015747 0l0 -77.13385l10.015747 0z" fill-rule="evenodd"/><path fill="#e06666" d="m775.1983 194.48819l-10.015747 0l0 77.13385l10.015747 0z" fill-rule="evenodd"/><path fill="#ffd966" d="m748.54474 194.48819l10.015747 0l0 77.13385l-10.015747 0z" fill-rule="evenodd"/><path fill="#e06666" d="m748.54474 345.5118l10.015747 0l0 -77.13385l-10.015747 0z" fill-rule="evenodd"/><path fill="#8e7cc3" d="m731.90674 196.49606l10.015747 0l0 74.99213l-10.015747 0z" fill-rule="evenodd"/><path fill="#93c47d" d="m731.90674 343.50394l10.015747 0l0 -74.99213l-10.015747 0z" fill-rule="evenodd"/><path fill="#000000" fill-opacity="0.0" d="m620.61707 194.32303l116.252014 0" fill-rule="evenodd"/><path stroke="#4a86e8" stroke-width="16.0" stroke-linejoin="round" stroke-linecap="butt" d="m620.61707 194.32303l116.252014 0" fill-rule="evenodd"/><path fill="#000000" fill-opacity="0.0" d="m620.61707 345.34665l116.252014 0" fill-rule="evenodd"/><path stroke="#4a86e8" stroke-width="16.0" stroke-linejoin="round" stroke-linecap="butt" d="m620.61707 345.34665l116.252014 0" fill-rule="evenodd"/><path fill="#000000" fill-opacity="0.0" d="m835.8308 345.5118l-116.25195 0" fill-rule="evenodd"/><path stroke="#4a86e8" stroke-width="16.0" stroke-linejoin="round" stroke-linecap="butt" d="m835.8308 345.5118l-116.25195 0" fill-rule="evenodd"/><path fill="#000000" fill-opacity="0.0" d="m835.8308 194.48819l-116.25195 0" fill-rule="evenodd"/><path stroke="#4a86e8" stroke-width="16.0" stroke-linejoin="round" stroke-linecap="butt" d="m835.8308 194.48819l-116.25195 0" fill-rule="evenodd"/><path fill="#ffd966" d="m980.6048 347.68484l-10.015747 0l0 -77.13385l10.015747 0z" fill-rule="evenodd"/><path fill="#e06666" d="m980.6048 196.66122l-10.015747 0l0 77.13385l10.015747 0z" fill-rule="evenodd"/><path fill="#8e7cc3" d="m953.07965 196.66122l10.015747 0l0 74.99213l-10.015747 0z" fill-rule="evenodd"/><path fill="#93c47d" d="m953.07965 343.6691l10.015747 0l0 -74.99213l-10.015747 0z" fill-rule="evenodd"/><path fill="#ffd966" d="m946.4578 345.67697l-10.015747 0l0 -77.13385l10.015747 0z" fill-rule="evenodd"/><path fill="#e06666" d="m946.4578 194.65335l-10.015747 0l0 77.13385l10.015747 0z" fill-rule="evenodd"/><path fill="#ffd966" d="m919.80426 194.65335l10.015747 0l0 77.13385l-10.015747 0z" fill-rule="evenodd"/><path fill="#e06666" d="m919.80426 345.67697l10.015747 0l0 -77.13385l-10.015747 0z" fill-rule="evenodd"/><path fill="#8e7cc3" d="m903.16626 196.66122l10.015747 0l0 74.99213l-10.015747 0z" fill-rule="evenodd"/><path fill="#93c47d" d="m903.16626 343.6691l10.015747 0l0 -74.99213l-10.015747 0z" fill-rule="evenodd"/><path fill="#8e7cc3" d="m845.8873 343.50394l-10.015747 0l0 -74.99213l10.015747 0z" fill-rule="evenodd"/><path fill="#93c47d" d="m845.8873 196.49606l-10.015747 0l0 74.99213l10.015747 0z" fill-rule="evenodd"/><path fill="#ffd966" d="m852.5092 194.48819l10.015747 0l0 77.13385l-10.015747 0z" fill-rule="evenodd"/><path fill="#e06666" d="m852.5092 345.5118l10.015747 0l0 -77.13385l-10.015747 0z" fill-rule="evenodd"/><path fill="#ffd966" d="m879.1627 345.5118l-10.015747 0l0 -77.13385l10.015747 0z" fill-rule="evenodd"/><path fill="#e06666" d="m879.1627 194.48819l-10.015747 0l0 77.13385l10.015747 0z" fill-rule="evenodd"/><path fill="#8e7cc3" d="m895.8007 343.50394l-10.015747 0l0 -74.99213l10.015747 0z" fill-rule="evenodd"/><path fill="#93c47d" d="m895.8007 196.49606l-10.015747 0l0 74.99213l10.015747 0z" fill-rule="evenodd"/><path fill="#000000" fill-opacity="0.0" d="m1007.0904 345.67697l-116.25195 0" fill-rule="evenodd"/><path stroke="#4a86e8" stroke-width="16.0" stroke-linejoin="round" stroke-linecap="butt" d="m1007.0904 345.67697l-116.25195 0" fill-rule="evenodd"/><path fill="#000000" fill-opacity="0.0" d="m1007.0904 194.65335l-116.25195 0" fill-rule="evenodd"/><path stroke="#4a86e8" stroke-width="16.0" stroke-linejoin="round" stroke-linecap="butt" d="m1007.0904 194.65335l-116.25195 0" fill-rule="evenodd"/><path fill="#000000" fill-opacity="0.0" d="m791.87665 194.48819l116.25195 0" fill-rule="evenodd"/><path stroke="#4a86e8" stroke-width="16.0" stroke-linejoin="round" stroke-linecap="butt" d="m791.87665 194.48819l116.25195 0" fill-rule="evenodd"/><path fill="#000000" fill-opacity="0.0" d="m791.87665 345.5118l116.25195 0" fill-rule="evenodd"/><path stroke="#4a86e8" stroke-width="16.0" stroke-linejoin="round" stroke-linecap="butt" d="m791.87665 345.5118l116.25195 0" fill-rule="evenodd"/><path fill="#38761d" d="m447.73895 436.40945l0 0c14.665985 0 26.555115 -74.50406 26.555115 -166.40945c0 -91.905396 -11.88913 -166.40945 -26.555115 -166.40945l159.33069 0c14.666016 0 26.555115 74.50405 26.555115 166.40945c0 91.905396 -11.889099 166.40945 -26.555115 166.40945z" fill-rule="evenodd"/><path fill="#87ac77" d="m447.73895 436.40945l0 0c-14.665985 0 -26.555145 -74.50406 -26.555145 -166.40945c0 -91.905396 11.88916 -166.40945 26.555145 -166.40945l0 0c14.665985 0 26.555115 74.50405 26.555115 166.40945c0 91.905396 -11.88913 166.40945 -26.555115 166.40945z" fill-rule="evenodd"/><path fill="#000000" fill-opacity="0.0" d="m447.73895 103.59055l0 0c14.665985 0 26.555115 74.50405 26.555115 166.40945c0 91.905396 -11.88913 166.40945 -26.555115 166.40945l0 0c-14.665985 0 -26.555145 -74.50406 -26.555145 -166.40945c0 -91.905396 11.88916 -166.40945 26.555145 -166.40945l159.33069 0c14.666016 0 26.555115 74.50405 26.555115 166.40945c0 91.905396 -11.889099 166.40945 -26.555115 166.40945l-159.33069 0" fill-rule="evenodd"/><path fill="#8e7cc3" d="m2.205222 194.48819l10.015748 0l0 74.99213l-10.015748 0z" fill-rule="evenodd"/><path fill="#ffd966" d="m19.714956 198.83464l10.015747 0l0 70.645676l-10.015747 0z" fill-rule="evenodd"/><path fill="#93c47d" d="m37.22469 205.17323l10.015747 0l0 64.31496l-10.015747 0z" fill-rule="evenodd"/><path fill="#e06666" d="m54.734425 214.11285l10.015743 0l0 55.370087l-10.015743 0z" fill-rule="evenodd"/><path fill="#ffd966" d="m72.244156 228.48294l10.015747 0l0 41.007874l-10.015747 0z" fill-rule="evenodd"/><path fill="#8e7cc3" d="m89.75389 249.49606l10.015747 0l0 20.0l-10.015747 0z" fill-rule="evenodd"/><path fill="#93c47d" d="m122.43257 249.49606l10.015747 0l0 20.0l-10.015747 0z" fill-rule="evenodd"/><path fill="#8e7cc3" d="m139.9423 231.79265l10.015747 0l0 37.70079l-10.015747 0z" fill-rule="evenodd"/><path fill="#e06666" d="m157.45204 217.12335l10.015747 0l0 52.37796l-10.015747 0z" fill-rule="evenodd"/><path fill="#93c47d" d="m174.96178 208.43298l10.015747 0l0 60.629913l-10.015747 0z" fill-rule="evenodd"/><path fill="#ffd966" d="m192.4715 200.46443l10.015762 0l0 68.81889l-10.015762 0z" fill-rule="evenodd"/><path fill="#93c47d" d="m209.98123 198.46452l10.015747 0l0 70.645676l-10.015747 0z" fill-rule="evenodd"/><path fill="#e06666" d="m226.40445 198.46457l10.015747 0l0 70.64566l-10.015747 0z" fill-rule="evenodd"/><path fill="#8e7cc3" d="m243.91418 198.46457l10.015747 0l0 70.64566l-10.015747 0z" fill-rule="evenodd"/><path fill="#ffd966" d="m261.42392 205.17323l10.015747 0l0 64.31496l-10.015747 0z" fill-rule="evenodd"/><path fill="#e06666" d="m278.93365 213.7979l10.015747 0l0 55.37007l-10.015747 0z" fill-rule="evenodd"/><path fill="#93c47d" d="m296.4434 228.16011l10.015747 0l0 41.00786l-10.015747 0z" fill-rule="evenodd"/><path fill="#8e7cc3" d="m313.95312 246.64874l10.015747 0l0 22.64566l-10.015747 0z" fill-rule="evenodd"/><path fill="#8e7cc3" d="m348.9726 250.38715l10.015747 0l0 20.0l-10.015747 0z" fill-rule="evenodd"/><path fill="#93c47d" d="m366.48233 232.68373l10.015747 0l0 37.70079l-10.015747 0z" fill-rule="evenodd"/><path fill="#ffd966" d="m383.99207 218.01443l10.015747 0l0 52.37796l-10.015747 0z" fill-rule="evenodd"/><path fill="#e06666" d="m401.5018 209.32405l10.015747 0l0 60.62993l-10.015747 0z" fill-rule="evenodd"/><path fill="#8e7cc3" d="m419.01154 201.3555l10.015747 0l0 68.81891l-10.015747 0z" fill-rule="evenodd"/><path fill="#ffd966" d="m436.52127 199.35559l10.015747 0l0 70.64566l-10.015747 0z" fill-rule="evenodd"/><path fill="#93c47d" d="m2.205222 341.49606l10.015748 0l0 -74.99213l-10.015748 0z" fill-rule="evenodd"/><path fill="#e06666" d="m19.714956 337.1496l10.015747 0l0 -70.64566l-10.015747 0z" fill-rule="evenodd"/><path fill="#8e7cc3" d="m37.22469 330.81104l10.015747 0l0 -64.31497l-10.015747 0z" fill-rule="evenodd"/><path fill="#ffd966" d="m54.734425 321.8714l10.015743 0l0 -55.370087l-10.015743 0z" fill-rule="evenodd"/><path fill="#93c47d" d="m72.244156 307.5013l10.015747 0l0 -41.007874l-10.015747 0z" fill-rule="evenodd"/><path fill="#93c47d" d="m89.75389 286.4882l10.015747 0l0 -20.0l-10.015747 0z" fill-rule="evenodd"/><path fill="#8e7cc3" d="m122.43257 288.29672l10.015747 0l0 -20.0l-10.015747 0z" fill-rule="evenodd"/><path fill="#93c47d" d="m139.9423 306.00015l10.015747 0l0 -37.700806l-10.015747 0z" fill-rule="evenodd"/><path fill="#ffd966" d="m157.45204 320.66943l10.015747 0l0 -52.37796l-10.015747 0z" fill-rule="evenodd"/><path fill="#93c47d" d="m174.96178 329.35983l10.015747 0l0 -60.629944l-10.015747 0z" fill-rule="evenodd"/><path fill="#e06666" d="m192.4715 337.32837l10.015762 0l0 -68.81891l-10.015762 0z" fill-rule="evenodd"/><path fill="#8e7cc3" d="m209.98123 339.32828l10.015747 0l0 -70.64566l-10.015747 0z" fill-rule="evenodd"/><path fill="#ffd966" d="m226.40445 339.32822l10.015747 0l0 -70.64566l-10.015747 0z" fill-rule="evenodd"/><path fill="#93c47d" d="m243.91418 339.32822l10.015747 0l0 -70.64566l-10.015747 0z" fill-rule="evenodd"/><path fill="#e06666" d="m261.42392 332.61957l10.015747 0l0 -64.31497l-10.015747 0z" fill-rule="evenodd"/><path fill="#ffd966" d="m278.93365 323.9949l10.015747 0l0 -55.370087l-10.015747 0z" fill-rule="evenodd"/><path fill="#8e7cc3" d="m296.4434 309.6327l10.015747 0l0 -41.007874l-10.015747 0z" fill-rule="evenodd"/><path fill="#93c47d" d="m313.95312 291.14404l10.015747 0l0 -22.64566l-10.015747 0z" fill-rule="evenodd"/><path fill="#93c47d" d="m348.9726 289.1878l10.015747 0l0 -20.0l-10.015747 0z" fill-rule="evenodd"/><path fill="#8e7cc3" d="m366.48233 306.8912l10.015747 0l0 -37.700775l-10.015747 0z" fill-rule="evenodd"/><path fill="#e06666" d="m383.99207 321.56052l10.015747 0l0 -52.37796l-10.015747 0z" fill-rule="evenodd"/><path fill="#ffd966" d="m401.5018 330.2509l10.015747 0l0 -60.629913l-10.015747 0z" fill-rule="evenodd"/><path fill="#93c47d" d="m419.01154 338.21945l10.015747 0l0 -68.81891l-10.015747 0z" fill-rule="evenodd"/><path fill="#e06666" d="m436.52127 340.21936l10.015747 0l0 -70.64569l-10.015747 0z" fill-rule="evenodd"/><path fill="#000000" fill-opacity="0.0" d="m-3.2595575 194.48819c57.094486 0 85.64173 37.755905 114.18898 75.51181c28.547249 37.75592 57.09449 75.51181 114.18897 75.51181" fill-rule="evenodd"/><path stroke="#4a86e8" stroke-width="16.0" stroke-linejoin="round" stroke-linecap="butt" d="m-3.2595575 194.48819c57.094486 0 85.64173 37.755905 114.18898 75.51181c28.547249 37.75592 57.09449 75.51181 114.18897 75.51181" fill-rule="evenodd"/><path fill="#000000" fill-opacity="0.0" d="m452.4492 194.48819c-57.094482 0 -85.64172 37.755905 -114.188965 75.51181c-28.547241 37.75592 -57.094482 75.51181 -114.18898 75.51181" fill-rule="evenodd"/><path stroke="#4a86e8" stroke-width="16.0" stroke-linejoin="round" stroke-linecap="butt" d="m452.4492 194.48819c-57.094482 0 -85.64172 37.755905 -114.188965 75.51181c-28.547241 37.75592 -57.094482 75.51181 -114.18898 75.51181" fill-rule="evenodd"/><path fill="#000000" fill-opacity="0.0" d="m-3.2595575 345.5118c57.094486 0 85.64173 -37.75589 114.18898 -75.51181c28.547249 -37.755905 57.09449 -75.51181 114.18897 -75.51181" fill-rule="evenodd"/><path stroke="#4a86e8" stroke-width="16.0" stroke-linejoin="round" stroke-linecap="butt" d="m-3.2595575 345.5118c57.094486 0 85.64173 -37.75589 114.18898 -75.51181c28.547249 -37.755905 57.09449 -75.51181 114.18897 -75.51181" fill-rule="evenodd"/><path fill="#000000" fill-opacity="0.0" d="m452.4492 345.5118c-57.094482 0 -85.64172 -37.75589 -114.188965 -75.51181c-28.547241 -37.755905 -57.094482 -75.51181 -114.18898 -75.51181" fill-rule="evenodd"/><path stroke="#4a86e8" stroke-width="16.0" stroke-linejoin="round" stroke-linecap="butt" d="m452.4492 345.5118c-57.094482 0 -85.64172 -37.75589 -114.188965 -75.51181c-28.547241 -37.755905 -57.094482 -75.51181 -114.18898 -75.51181" fill-rule="evenodd"/><path fill="#ffffff" d="m507.42584 230.38924l0 6.3759613c0 0.35139465 0.054504395 0.6007538 0.16357422 0.74812317c0.109069824 0.14735413 0.24539185 0.22102356 0.40899658 0.22102356c0.17266846 0 0.31051636 -0.07366943 0.41351318 -0.22102356c0.106048584 -0.14736938 0.15905762 -0.39672852 0.15905762 -0.74812317l0 -4.9477386l4.6896973 0l0 17.036575l-2.9719543 0c-0.27267456 0 -0.4680786 0.06611633 -0.58621216 0.19836426c-0.11816406 0.12844849 -0.1772461 0.30036926 -0.1772461 0.5157318c0 0.20404053 0.05908203 0.3740692 0.1772461 0.51008606c0.118133545 0.13601685 0.3135376 0.20402527 0.58621216 0.20402527l7.1026917 0c0.27264404 0 0.46801758 -0.06800842 0.58618164 -0.20402527c0.11816406 -0.13601685 0.1772461 -0.30604553 0.1772461 -0.51008606c0 -0.21536255 -0.05908203 -0.38728333 -0.1772461 -0.5157318c-0.11816406 -0.13224792 -0.3135376 -0.19836426 -0.58618164 -0.19836426l-2.9719849 0l0 -17.036575l4.6896973 0l0 4.9477386c0 0.35139465 0.051513672 0.6007538 0.15447998 0.74812317c0.1060791 0.14735413 0.24542236 0.22102356 0.41809082 0.22102356c0.17266846 0 0.31054688 -0.07366943 0.41351318 -0.22102356c0.1060791 -0.14736938 0.15905762 -0.39672852 0.15905762 -0.74812317l0 -6.3759613z" fill-rule="evenodd"/><path fill="#ffffff" d="m530.60156 236.49316c1.4541626 0 2.6917114 0.62908936 3.7126465 1.8872833c1.0239868 1.258194 1.5360107 2.7827454 1.5360107 4.5736847c0 1.779602 -0.5120239 3.3022766 -1.5360107 4.5680237c-1.020935 1.2619781 -2.258484 1.8929596 -3.7126465 1.8929596c-1.4541626 0 -2.6932373 -0.6347656 -3.7172241 -1.9042969c-1.020935 -1.269516 -1.5313721 -2.7884216 -1.5313721 -4.5566864c0 -1.779602 0.510437 -3.3003845 1.5313721 -4.5623474c1.0239868 -1.2657471 2.2630615 -1.8986206 3.7172241 -1.8986206zm0.01361084 -1.445221c-1.781311 0 -3.2945557 0.77456665 -4.539673 2.3236847c-1.2451172 1.5453491 -1.8677368 3.4061737 -1.8677368 5.5825043c0 2.1649933 0.6226196 4.022049 1.8677368 5.5711823c1.2451172 1.5453339 2.7583618 2.3180084 4.539673 2.3180084c1.7631836 0 3.2688599 -0.7707825 4.517029 -2.3123474c1.2511597 -1.541565 1.87677 -3.4005127 1.87677 -5.5768433c0 -2.1876526 -0.62561035 -4.0522766 -1.87677 -5.5938416c-1.248169 -1.541565 -2.7538452 -2.3123474 -4.517029 -2.3123474z" fill-rule="evenodd"/><path fill="#ffffff" d="m548.0243 236.49316c1.3814087 0 2.5508423 0.5875244 3.5081787 1.7625885c0.96032715 1.1712952 1.4404907 2.5787354 1.4404907 4.2223053c0 1.6549225 -0.48168945 3.0699158 -1.4450684 4.24498c-0.9633789 1.1712952 -2.1312256 1.7569275 -3.503601 1.7569275c-1.390564 0 -2.567505 -0.5894165 -3.5308838 -1.7682648c-0.96343994 -1.1788483 -1.4451294 -2.5900574 -1.4451294 -4.2336426c0 -1.6322327 0.48168945 -3.0377808 1.4451294 -4.216629c0.9633789 -1.1788483 2.1403198 -1.7682648 3.5308838 -1.7682648zm-0.013671875 -1.445221c-1.0633545 0 -1.9858398 0.26071167 -2.767456 0.78211975c-0.7816162 0.5214081 -1.5132446 1.2978668 -2.1948853 2.3293457l0 -2.6013947l-2.685608 0c-0.27270508 0 -0.4680786 0.06800842 -0.5862427 0.20404053c-0.11816406 0.13601685 -0.1772461 0.30604553 -0.1772461 0.5100708c0 0.21536255 0.05908203 0.3910675 0.1772461 0.52708435c0.11816406 0.13601685 0.3135376 0.20402527 0.5862427 0.20402527l1.5404663 0l0 18.413788l-1.5404663 0c-0.27270508 0 -0.4680786 0.06422424 -0.5862427 0.19268799c-0.11816406 0.13224792 -0.1772461 0.30604553 -0.1772461 0.52142334c0 0.21536255 0.05908203 0.38726807 0.1772461 0.5157471c0.11816406 0.13223267 0.3135376 0.19836426 0.5862427 0.19836426l5.466736 0c0.27264404 0 0.46801758 -0.06802368 0.58618164 -0.20404053c0.11816406 -0.13601685 0.1772461 -0.3060608 0.1772461 -0.5100708c0 -0.21537781 -0.05908203 -0.38917542 -0.1772461 -0.52142334c-0.11816406 -0.12846375 -0.3135376 -0.19268799 -0.58618164 -0.19268799l-2.781128 0l0 -8.603302c1.2723999 2.0743103 2.9310913 3.1114655 4.976013 3.1114655c1.7177124 0 3.1643066 -0.72732544 4.3397217 -2.1819916c1.1785278 -1.4584503 1.7677612 -3.2134857 1.7677612 -5.2651367c0 -1.2921906 -0.26208496 -2.5239258 -0.78619385 -3.695221c-0.5210571 -1.1750641 -1.258728 -2.0913086 -2.2130127 -2.7487488c-0.9543457 -0.6574249 -1.9949341 -0.986145 -3.1219482 -0.986145z" fill-rule="evenodd"/><path fill="#ffffff" d="m564.11096 236.49316c1.4541626 0 2.6917114 0.62908936 3.7126465 1.8872833c1.0239868 1.258194 1.5359497 2.7827454 1.5359497 4.5736847c0 1.779602 -0.5119629 3.3022766 -1.5359497 4.5680237c-1.020935 1.2619781 -2.258484 1.8929596 -3.7126465 1.8929596c-1.4541626 0 -2.6932373 -0.6347656 -3.7172241 -1.9042969c-1.020935 -1.269516 -1.5313721 -2.7884216 -1.5313721 -4.5566864c0 -1.779602 0.510437 -3.3003845 1.5313721 -4.5623474c1.0239868 -1.2657471 2.2630615 -1.8986206 3.7172241 -1.8986206zm0.01361084 -1.445221c-1.781311 0 -3.2945557 0.77456665 -4.539673 2.3236847c-1.2451782 1.5453491 -1.8677368 3.4061737 -1.8677368 5.5825043c0 2.1649933 0.6225586 4.022049 1.8677368 5.5711823c1.2451172 1.5453339 2.7583618 2.3180084 4.539673 2.3180084c1.7631836 0 3.2688599 -0.7707825 4.517029 -2.3123474c1.2511597 -1.541565 1.87677 -3.4005127 1.87677 -5.5768433c0 -2.1876526 -0.62561035 -4.0522766 -1.87677 -5.5938416c-1.248169 -1.541565 -2.7538452 -2.3123474 -4.517029 -2.3123474z" fill-rule="evenodd"/><path fill="#ffffff" d="m579.74774 228.22992l0 3.6895447l1.6904907 0l0 -3.6895447zm-2.7537842 7.3280945c-0.28173828 0 -0.48168945 0.06800842 -0.5998535 0.20404053c-0.11816406 0.13601685 -0.1772461 0.31170654 -0.1772461 0.5270691c0 0.20404053 0.06060791 0.3740692 0.1817627 0.51008606c0.12420654 0.13601685 0.32269287 0.20402527 0.5953369 0.20402527l3.3400269 0l0 11.8508l-4.4988403 0c-0.27264404 0 -0.46801758 0.06611633 -0.58618164 0.19836426c-0.11816406 0.12844849 -0.1772461 0.30036926 -0.1772461 0.5157318c0 0.20404053 0.05908203 0.3740692 0.1772461 0.51008606c0.11816406 0.13601685 0.3135376 0.20402527 0.58618164 0.20402527l10.142822 0c0.28173828 0 0.48168945 -0.06800842 0.5998535 -0.20402527c0.11810303 -0.13601685 0.17718506 -0.30604553 0.17718506 -0.51008606c0 -0.21536255 -0.05908203 -0.38728333 -0.17718506 -0.5157318c-0.11816406 -0.13224792 -0.31811523 -0.19836426 -0.5998535 -0.19836426l-4.4988403 0l0 -13.2960205z" fill-rule="evenodd"/><path fill="#ffffff" d="m591.7855 239.4176l0 2.0403137l11.683289 0l0 -2.0403137z" fill-rule="evenodd"/><path fill="#ffffff" d="m497.02402 276.76093c-1.336029 0 -2.4857178 0.36080933 -3.4490967 1.082489c-0.9633789 0.7178955 -1.4450684 1.6889038 -1.4450684 2.9131165c0 0.6800842 0.17266846 1.3148499 0.5180359 1.9042664c0.34536743 0.5894165 0.8270569 1.0314941 1.4450684 1.3262024c0.618042 0.29470825 1.6374512 0.53274536 3.0582886 0.7141113c1.4238892 0.18136597 2.5084534 0.53842163 3.2536926 1.071167c0.73617554 0.53274536 1.104248 1.2411804 1.104248 2.1253052c0 0.7707825 -0.3635254 1.5018921 -1.0906067 2.1933594c-0.7270813 0.69143677 -1.8358765 1.0371399 -3.326416 1.0371399c-1.0088196 0 -1.8616333 -0.17758179 -2.5584106 -0.53274536c-0.6937561 -0.35894775 -1.1996765 -0.8104553 -1.5177917 -1.3545227c-0.2090149 -0.3514099 -0.3135376 -0.7878113 -0.3135376 -1.3092041c0 -0.23803711 -0.057556152 -0.42697144 -0.17269897 -0.56677246c-0.112091064 -0.14355469 -0.24990845 -0.21536255 -0.41351318 -0.21536255c-0.17266846 0 -0.31204224 0.07369995 -0.4180603 0.22103882c-0.103027344 0.14736938 -0.1545105 0.39105225 -0.1545105 0.7311096l0 2.9414368c0 0.34005737 0.054534912 0.58377075 0.16357422 0.7311096c0.109069824 0.14736938 0.24539185 0.22103882 0.40899658 0.22103882c0.11816406 0 0.22418213 -0.03967285 0.31808472 -0.119018555c0.096954346 -0.0793457 0.16360474 -0.1756897 0.19995117 -0.28903198c0.036376953 -0.113342285 0.054534912 -0.36273193 0.054534912 -0.7481079c1.1542358 1.1448364 2.6356812 1.7172546 4.4443054 1.7172546c1.8085938 0 3.1809692 -0.47229004 4.117096 -1.4169006c0.9361267 -0.94833374 1.4041748 -2.0289612 1.4041748 -3.2418213c0 -0.8161011 -0.21661377 -1.5755615 -0.6498413 -2.2783203c-0.43017578 -0.7027893 -1.0860596 -1.252533 -1.9676514 -1.6492615c-0.6180115 -0.2720337 -1.72229 -0.5157471 -3.3127747 -0.7311096c-1.217865 -0.17001343 -2.0449219 -0.4137268 -2.4811707 -0.7311096c-0.63619995 -0.45339966 -0.95428467 -1.0201416 -0.95428467 -1.7002563c0 -0.60076904 0.26809692 -1.1448364 0.8043213 -1.6322327c0.70892334 -0.64611816 1.7041016 -0.9691467 2.9855957 -0.9691467c1.2269287 0 2.2130432 0.3173523 2.958313 0.9521179c0.50894165 0.44207764 0.79071045 1.0031738 0.84521484 1.683258c0.018188477 0.28338623 0.07876587 0.48742676 0.18179321 0.61209106c0.10601807 0.124694824 0.2362976 0.18704224 0.3908081 0.18704224c0.17266846 0 0.3135376 -0.07366943 0.42260742 -0.22103882c0.109069824 -0.14736938 0.16360474 -0.39105225 0.16360474 -0.7311096l0 -2.4483643c0 -0.3513794 -0.054534912 -0.60076904 -0.16360474 -0.7481079c-0.109069824 -0.14736938 -0.24993896 -0.22103882 -0.42260742 -0.22103882c-0.16360474 0 -0.29992676 0.07366943 -0.40899658 0.22103882c-0.109069824 0.14733887 -0.16360474 0.38537598 -0.16360474 0.7141113c-0.9906311 -0.963501 -2.2766724 -1.445221 -3.8580627 -1.445221z" fill-rule="evenodd"/><path fill="#ffffff" d="m513.84686 278.20615c1.4541626 0 2.6917114 0.62908936 3.7126465 1.8872681c1.0239868 1.2581787 1.5360107 2.7827454 1.5360107 4.5737c0 1.779602 -0.5120239 3.3022766 -1.5360107 4.5680237c-1.020935 1.2619629 -2.258484 1.8929443 -3.7126465 1.8929443c-1.4541626 0 -2.6932373 -0.6347656 -3.7171936 -1.9042969c-1.020935 -1.2695007 -1.5314331 -2.7884216 -1.5314331 -4.556671c0 -1.779602 0.51049805 -3.3003845 1.5314331 -4.5623474c1.0239563 -1.2657471 2.263031 -1.8986206 3.7171936 -1.8986206zm0.013671875 -1.445221c-1.7813721 0 -3.2946167 0.77456665 -4.539734 2.3236694c-1.2451477 1.5453491 -1.8677063 3.406189 -1.8677063 5.5825195c0 2.164978 0.6225586 4.0220337 1.8677063 5.571167c1.2451172 1.5453491 2.7583618 2.3180237 4.539734 2.3180237c1.7631226 0 3.2687988 -0.7707825 4.516968 -2.3123474c1.2511597 -1.541565 1.87677 -3.4005127 1.87677 -5.5768433c0 -2.187683 -0.62561035 -4.0522766 -1.87677 -5.5938416c-1.248169 -1.541565 -2.7538452 -2.3123474 -4.516968 -2.3123474z" fill-rule="evenodd"/><path fill="#ffffff" d="m528.3249 276.76093c-0.9815674 0 -1.9585571 0.6517639 -2.9310303 1.9552917l0 -1.445221l-2.1130981 0c-0.27264404 0 -0.4680786 0.067993164 -0.58618164 0.20404053c-0.11816406 0.13601685 -0.1772461 0.30603027 -0.1772461 0.5100708c0 0.21536255 0.05908203 0.39105225 0.1772461 0.5270691c0.11810303 0.13601685 0.3135376 0.20404053 0.58618164 0.20404053l0.96795654 0l0 11.850769l-0.96795654 0c-0.27264404 0 -0.4680786 0.06613159 -0.58618164 0.19836426c-0.11816406 0.128479 -0.1772461 0.30038452 -0.1772461 0.5157471c0 0.20404053 0.05908203 0.37405396 0.1772461 0.5101013c0.11810303 0.13601685 0.3135376 0.20401001 0.58618164 0.20401001l3.0809937 0c0.27264404 0 0.4680786 -0.067993164 0.5862427 -0.20401001c0.11816406 -0.13604736 0.17718506 -0.3060608 0.17718506 -0.5101013c0 -0.21536255 -0.059020996 -0.38726807 -0.17718506 -0.5157471c-0.11816406 -0.13223267 -0.31359863 -0.19836426 -0.5862427 -0.19836426l-0.9678955 0l0 -9.470428c0.6088867 -1.1334839 1.1905518 -1.9326172 1.7449951 -2.3973389c0.39990234 -0.32873535 0.8043213 -0.4930725 1.2133179 -0.4930725c0.4453125 0 0.8467407 0.24746704 1.2042236 0.74243164c0.36053467 0.49118042 0.5407715 1.1165161 0.5407715 1.875946l0 11.170685l2.1130981 0c0.27264404 0 0.46801758 -0.067993164 0.58618164 -0.20401001c0.11816406 -0.13604736 0.1772461 -0.3060608 0.1772461 -0.5101013c0 -0.21536255 -0.05908203 -0.38726807 -0.1772461 -0.5157471c-0.11816406 -0.13223267 -0.3135376 -0.19836426 -0.58618164 -0.19836426l-0.9543457 0l0 -9.470428c0.5907593 -1.1448364 1.1179199 -1.9118347 1.5814209 -2.3009949c0.46350098 -0.39294434 0.9042969 -0.5894165 1.3223877 -0.5894165c0.46350098 0 0.87249756 0.23800659 1.2269287 0.7140808c0.3544922 0.47607422 0.53167725 1.0768433 0.53167725 1.8022766l0 11.272705l2.1130981 0c0.27264404 0 0.4680786 -0.067993164 0.5862427 -0.20401001c0.11810303 -0.13604736 0.17718506 -0.3060608 0.17718506 -0.5101013c0 -0.21536255 -0.05908203 -0.38726807 -0.17718506 -0.5157471c-0.11816406 -0.13223267 -0.31359863 -0.19836426 -0.5862427 -0.19836426l-0.9678955 0l0 -9.980499c0 -1.0201416 -0.32269287 -1.960968 -0.96795654 -2.8224182c-0.4907837 -0.6687622 -1.1497192 -1.0031433 -1.9767456 -1.0031433c-0.52716064 0 -1.0527344 0.19647217 -1.5768433 0.5894165c-0.52111816 0.38916016 -1.0361328 0.98046875 -1.545044 1.7739258c-0.29992676 -0.79345703 -0.6726074 -1.3847656 -1.1179199 -1.7739258c-0.4453125 -0.39294434 -0.9633789 -0.5894165 -1.5541382 -0.5894165z" fill-rule="evenodd"/><path fill="#ffffff" d="m547.1518 278.20615c1.3359985 0 2.4871826 0.4930725 3.4536133 1.4792175c0.9694214 0.986145 1.567749 2.2669983 1.7949829 3.8425598l-10.497253 0c0.23632812 -1.5982361 0.83618164 -2.8847656 1.7995605 -3.859558c0.9633789 -0.974823 2.113037 -1.4622192 3.4490967 -1.4622192zm0 -1.445221c-1.817749 0 -3.3430786 0.74243164 -4.576111 2.2273254c-1.2299805 1.4848938 -1.8449707 3.2644958 -1.8449707 5.338806c0 2.2783508 0.6558838 4.2204285 1.9677124 5.8262024c1.3147583 1.6020203 2.9537354 2.4030457 4.91687 2.4030457c1.1724243 0 2.3145142 -0.24560547 3.4263916 -0.7367859c1.1148071 -0.4949646 1.8903809 -1.0258179 2.3266602 -1.5925598c0.14538574 -0.18136597 0.21807861 -0.3684082 0.21807861 -0.5610962c0 -0.19268799 -0.054504395 -0.35894775 -0.16357422 -0.49874878c-0.109069824 -0.14355469 -0.23632812 -0.21536255 -0.38171387 -0.21536255c-0.1272583 0 -0.27722168 0.08502197 -0.44989014 0.2550354c-0.5907593 0.5780945 -1.354187 1.0428162 -2.2902832 1.3942261c-0.9361572 0.3513794 -1.8313599 0.5270691 -2.685669 0.5270691c-1.5359497 0 -2.8250122 -0.56295776 -3.8671875 -1.6889343c-1.0391235 -1.1296997 -1.6586304 -2.6183777 -1.8585815 -4.4660034l11.669678 0c0.018127441 -2.4256897 -0.57714844 -4.399872 -1.7858887 -5.9225464c-1.2088013 -1.5264587 -2.7493286 -2.2896729 -4.621521 -2.2896729z" fill-rule="evenodd"/><path fill="#ffffff" d="m568.14624 276.91394c-0.6270752 0 -1.3117676 0.24182129 -2.053955 0.72543335c-0.7391968 0.4798584 -1.854065 1.5585632 -3.3446045 3.2361755l0 -3.6045532l-3.2582397 0c-0.28173828 0 -0.48016357 0.067993164 -0.5952759 0.20404053c-0.11212158 0.13601685 -0.16815186 0.30603027 -0.16815186 0.5100708c0 0.21536255 0.05908203 0.39105225 0.1772461 0.5270691c0.11810303 0.13601685 0.3135376 0.20404053 0.58618164 0.20404053l2.1130981 0l0 11.901794l-2.767456 0c-0.28173828 0 -0.48016357 0.06613159 -0.5953369 0.19836426c-0.11206055 0.12844849 -0.16809082 0.28903198 -0.16809082 0.48171997c0 0.20404053 0.05908203 0.37219238 0.17718506 0.50442505c0.11816406 0.128479 0.31359863 0.19268799 0.5862427 0.19268799l8.984009 0c0.28173828 0 0.48168945 -0.067993164 0.5998535 -0.20401001c0.11810303 -0.13604736 0.17718506 -0.3060608 0.17718506 -0.5101013c0 -0.21536255 -0.05908203 -0.38726807 -0.17718506 -0.5157471c-0.11816406 -0.13223267 -0.31811523 -0.19836426 -0.5998535 -0.19836426l-5.071411 0l0 -7.821167c1.7359009 -1.9382935 2.9552612 -3.1567993 3.658142 -3.655548c0.7058716 -0.49874878 1.3087158 -0.7481079 1.8085938 -0.7481079c0.22723389 0 0.45898438 0.07366943 0.6953125 0.2210083c0.23626709 0.14736938 0.51348877 0.41940308 0.83154297 0.8161316c0.17272949 0.21536255 0.29083252 0.34384155 0.3544922 0.3854065c0.06359863 0.03778076 0.14086914 0.056671143 0.23175049 0.056671143c0.17266846 0 0.31506348 -0.06991577 0.42718506 -0.2097168c0.115112305 -0.14355469 0.17266846 -0.32302856 0.17266846 -0.5383911c0 -0.29470825 -0.29388428 -0.72732544 -0.8815918 -1.2978821c-0.5847168 -0.5743103 -1.2178955 -0.8614502 -1.8995361 -0.8614502z" fill-rule="evenodd"/><path fill="#ffffff" d="m580.56573 284.32706c0.66345215 0 1.295105 0.04534912 1.8949585 0.13601685c0.5998535 0.09069824 1.1678467 0.23236084 1.7041016 0.42507935l0 3.1454773c-0.8997803 1.0768127 -1.7752686 1.8627014 -2.626587 2.357666c-0.8482666 0.49121094 -1.7677002 0.7367859 -2.7583618 0.7367859c-1.0360718 0 -1.8252563 -0.29470825 -2.3675537 -0.88412476c-0.5392456 -0.5894165 -0.8088989 -1.3148804 -0.8088989 -2.1763306c0 -0.9294739 0.35443115 -1.7286072 1.0633545 -2.3973694c0.9361572 -0.8954773 2.2357788 -1.3432007 3.8989868 -1.3432007zm0.16357422 -7.5661316c-0.7270508 0 -1.7994995 0.23803711 -3.2173462 0.7141113c-0.89971924 0.29470825 -1.413269 0.5270691 -1.5404663 0.6970825c-0.09088135 0.1133728 -0.13635254 0.26638794 -0.13635254 0.45907593c0 0.20404053 0.051513672 0.37405396 0.15454102 0.5100708c0.10601807 0.13601685 0.23175049 0.20404053 0.37713623 0.20404053c0.08178711 0 0.26812744 -0.056671143 0.55895996 -0.17001343c1.6086426 -0.64611816 2.8583374 -0.9691467 3.7490234 -0.9691467c1.1633301 0 2.0358276 0.28903198 2.6174927 0.86712646c0.58166504 0.57806396 0.87249756 1.2581787 0.87249756 2.0403137l0 2.3123474c-0.7180176 -0.18136597 -1.3859863 -0.31362915 -2.0040283 -0.39672852c-0.618042 -0.08691406 -1.1906128 -0.1303711 -1.7177124 -0.1303711c-1.9540405 0 -3.4400024 0.5157471 -4.457947 1.5472412c-1.0178833 1.0314941 -1.5268555 2.238678 -1.5268555 3.6215515c0 1.2581787 0.38623047 2.3217773 1.1587524 3.190796c0.772583 0.8652649 1.8449707 1.2978821 3.2173462 1.2978821c1.8904419 0 3.6672363 -0.87280273 5.3304443 -2.6184082l0 2.057312l2.685669 0c0.28173828 0 0.48168945 -0.067993164 0.5998535 -0.20401001c0.11810303 -0.13604736 0.17718506 -0.3060608 0.17718506 -0.5101013c0 -0.21536255 -0.05908203 -0.38726807 -0.17718506 -0.5157471c-0.11816406 -0.13223267 -0.31811523 -0.19836426 -0.5998535 -0.19836426l-1.5269165 0l0 -9.4534c0 -1.1221924 -0.40441895 -2.1272278 -1.2133179 -3.0151367c-0.8088379 -0.8916931 -1.935852 -1.3375244 -3.3809204 -1.3375244z" fill-rule="evenodd"/><path fill="#ffffff" d="m597.5522 276.76093c-1.3359985 0 -2.4857178 0.36080933 -3.4490967 1.082489c-0.9633789 0.7178955 -1.4450684 1.6889038 -1.4450684 2.9131165c0 0.6800842 0.17266846 1.3148499 0.5180664 1.9042664c0.3453369 0.5894165 0.82702637 1.0314941 1.4450684 1.3262024c0.61798096 0.29470825 1.6374512 0.53274536 3.0582886 0.7141113c1.4238281 0.18136597 2.5084229 0.53842163 3.253662 1.071167c0.73620605 0.53274536 1.104248 1.2411804 1.104248 2.1253052c0 0.7707825 -0.3635254 1.5018921 -1.0905762 2.1933594c-0.7271118 0.69143677 -1.8359375 1.0371399 -3.326416 1.0371399c-1.0088501 0 -1.8616333 -0.17758179 -2.5584106 -0.53274536c-0.6937866 -0.35894775 -1.199707 -0.8104553 -1.5178223 -1.3545227c-0.20904541 -0.3514099 -0.3135376 -0.7878113 -0.3135376 -1.3092041c0 -0.23803711 -0.057556152 -0.42697144 -0.17266846 -0.56677246c-0.11212158 -0.14355469 -0.24993896 -0.21536255 -0.41351318 -0.21536255c-0.17272949 0 -0.31207275 0.07369995 -0.41809082 0.22103882c-0.103027344 0.14736938 -0.15454102 0.39105225 -0.15454102 0.7311096l0 2.9414368c0 0.34005737 0.05456543 0.58377075 0.16363525 0.7311096c0.109069824 0.14736938 0.24536133 0.22103882 0.40899658 0.22103882c0.11810303 0 0.22418213 -0.03967285 0.3180542 -0.119018555c0.09698486 -0.0793457 0.16363525 -0.1756897 0.19995117 -0.28903198c0.036376953 -0.113342285 0.05456543 -0.36273193 0.05456543 -0.7481079c1.1542358 1.1448364 2.6356812 1.7172546 4.444275 1.7172546c1.8085938 0 3.1809692 -0.47229004 4.1171265 -1.4169006c0.9360962 -0.94833374 1.4041748 -2.0289612 1.4041748 -3.2418213c0 -0.8161011 -0.21661377 -1.5755615 -0.6498413 -2.2783203c-0.43023682 -0.7027893 -1.0861206 -1.252533 -1.9676514 -1.6492615c-0.618042 -0.2720337 -1.72229 -0.5157471 -3.3128052 -0.7311096c-1.2178345 -0.17001343 -2.0449219 -0.4137268 -2.4811401 -0.7311096c-0.63623047 -0.45339966 -0.95428467 -1.0201416 -0.95428467 -1.7002563c0 -0.60076904 0.2680664 -1.1448364 0.8043213 -1.6322327c0.7088623 -0.64611816 1.7041016 -0.9691467 2.9855347 -0.9691467c1.2269897 0 2.2130737 0.3173523 2.958374 0.9521179c0.50891113 0.44207764 0.7906494 1.0031738 0.84521484 1.683258c0.018188477 0.28338623 0.07873535 0.48742676 0.1817627 0.61209106c0.10601807 0.124694824 0.23626709 0.18704224 0.3908081 0.18704224c0.17266846 0 0.3135376 -0.07366943 0.42260742 -0.22103882c0.109069824 -0.14736938 0.16357422 -0.39105225 0.16357422 -0.7311096l0 -2.4483643c0 -0.3513794 -0.054504395 -0.60076904 -0.16357422 -0.7481079c-0.109069824 -0.14736938 -0.24993896 -0.22103882 -0.42260742 -0.22103882c-0.16357422 0 -0.29992676 0.07366943 -0.40899658 0.22103882c-0.109069824 0.14733887 -0.16357422 0.38537598 -0.16357422 0.7141113c-0.9906616 -0.963501 -2.2766724 -1.445221 -3.8580933 -1.445221z" fill-rule="evenodd"/><path fill="#ffffff" d="m614.17053 278.20615c1.3360596 0 2.4872437 0.4930725 3.4536743 1.4792175c0.9694214 0.986145 1.567749 2.2669983 1.7949829 3.8425598l-10.497253 0c0.23626709 -1.5982361 0.8361206 -2.8847656 1.7994995 -3.859558c0.9633789 -0.974823 2.1130981 -1.4622192 3.4490967 -1.4622192zm0 -1.445221c-1.817688 0 -3.3430176 0.74243164 -4.57605 2.2273254c-1.2299805 1.4848938 -1.8449707 3.2644958 -1.8449707 5.338806c0 2.2783508 0.6558838 4.2204285 1.9676514 5.8262024c1.3148193 1.6020203 2.9537964 2.4030457 4.916931 2.4030457c1.1724243 0 2.3145142 -0.24560547 3.4263306 -0.7367859c1.1148682 -0.4949646 1.8904419 -1.0258179 2.3266602 -1.5925598c0.14544678 -0.18136597 0.21813965 -0.3684082 0.21813965 -0.5610962c0 -0.19268799 -0.054504395 -0.35894775 -0.16357422 -0.49874878c-0.109069824 -0.14355469 -0.23632812 -0.21536255 -0.38171387 -0.21536255c-0.1272583 0 -0.27722168 0.08502197 -0.44989014 0.2550354c-0.5907593 0.5780945 -1.354187 1.0428162 -2.2903442 1.3942261c-0.9360962 0.3513794 -1.8312988 0.5270691 -2.685608 0.5270691c-1.5360107 0 -2.8250122 -0.56295776 -3.8671875 -1.6889343c-1.0391235 -1.1296997 -1.6586304 -2.6183777 -1.8585815 -4.4660034l11.669617 0c0.018188477 -2.4256897 -0.5770874 -4.399872 -1.7858887 -5.9225464c-1.2087402 -1.5264587 -2.7492676 -2.2896729 -4.621521 -2.2896729z" fill-rule="evenodd"/><path fill="#ffffff" d="m82.944885 76.43044l231.50394 0l0 -24.425194l60.40158 48.850395l-60.40158 48.850395l0 -24.425201l-231.50394 0z" fill-rule="evenodd"/></g></svg>